<svg xmlns="http://www.w3.org/2000/svg" width="505" height="173" viewBox="0 0 505 173">
  <g id="Grupo_1075082" data-name="Grupo 1075082" transform="translate(-914.957 -4444)">
    <path id="Trazado_823217" data-name="Trazado 823217" d="M0,0H505V173H0Z" transform="translate(914.957 4444)" fill="#fff"/>
    <path id="Trazado_823218" data-name="Trazado 823218" d="M4.578,10.438,3.359,11.75V15H1.016V3.625H3.359V8.781L4.391,7.367l2.9-3.742h2.883L6.133,8.68,10.289,15H7.5Zm6.547-.062A11.99,11.99,0,0,1,11.6,6.969a8.989,8.989,0,0,1,1.406-2.863,5.251,5.251,0,0,1,2.016-1.73l.438,1.219A5.438,5.438,0,0,0,13.68,6.2a12.082,12.082,0,0,0-.641,4.125v.242a12.313,12.313,0,0,0,.633,4.141,5.544,5.544,0,0,0,1.789,2.648l-.437,1.2a5.253,5.253,0,0,1-1.98-1.684,8.838,8.838,0,0,1-1.4-2.785,11.918,11.918,0,0,1-.516-3.3Zm12.086,2.281H19.1L18.32,15H15.828L20.063,3.625h2.172L26.492,15H24Zm-3.477-1.9h2.844L21.148,6.5ZM35.945,8.633h2.82v2.039h-2.82v3.188H33.8V10.672H30.969V8.633H33.8V5.578h2.148ZM44.258,15V3.625h3.984a5.232,5.232,0,0,1,3.141.793,2.712,2.712,0,0,1,1.07,2.324,2.57,2.57,0,0,1-.43,1.473,2.482,2.482,0,0,1-1.2.934,2.4,2.4,0,0,1,1.379.883,2.61,2.61,0,0,1,.5,1.625,3,3,0,0,1-1.047,2.484A4.713,4.713,0,0,1,48.68,15ZM46.6,10.047v3.07h2.008a1.938,1.938,0,0,0,1.293-.395,1.353,1.353,0,0,0,.465-1.09,1.428,1.428,0,0,0-1.617-1.586Zm0-1.656h1.734q1.773-.031,1.773-1.414a1.307,1.307,0,0,0-.449-1.113,2.363,2.363,0,0,0-1.418-.34H46.6Zm11.609,2.164a11.377,11.377,0,0,1-.508,3.4,9.225,9.225,0,0,1-1.461,2.883A5.264,5.264,0,0,1,54.2,18.555l-.437-1.2a5.494,5.494,0,0,0,1.75-2.578,11.939,11.939,0,0,0,.664-4.008v-.414a12.208,12.208,0,0,0-.637-4.117A5.727,5.727,0,0,0,53.766,3.57l.438-1.2a5.265,5.265,0,0,1,2,1.672,9.106,9.106,0,0,1,1.461,2.82,11.3,11.3,0,0,1,.543,3.336ZM71.125,9.172H64.141V7.328h6.984Zm0,3.383H64.141V10.711h6.984ZM80.8,10.438,79.578,11.75V15H77.234V3.625h2.344V8.781l1.031-1.414,2.9-3.742h2.883L82.352,8.68,86.508,15H83.719Zm13.016,2.219H89.7L88.922,15H86.43L90.664,3.625h2.172L97.094,15H94.6Zm-3.477-1.9H93.18L91.75,6.5Zm16.211-2.125h2.82v2.039h-2.82v3.188H104.4V10.672H101.57V8.633H104.4V5.578h2.148Zm11.875,1.8L117.2,11.75V15h-2.344V3.625H117.2V8.781l1.031-1.414,2.9-3.742h2.883L119.977,8.68,124.133,15h-2.789ZM125.016,15V3.625H129a5.232,5.232,0,0,1,3.141.793,2.711,2.711,0,0,1,1.07,2.324,2.57,2.57,0,0,1-.43,1.473,2.482,2.482,0,0,1-1.2.934,2.4,2.4,0,0,1,1.379.883,2.61,2.61,0,0,1,.5,1.625,3,3,0,0,1-1.047,2.484,4.713,4.713,0,0,1-2.984.859Zm2.344-4.953v3.07h2.008a1.938,1.938,0,0,0,1.293-.395,1.353,1.353,0,0,0,.465-1.09,1.428,1.428,0,0,0-1.617-1.586Zm0-1.656h1.734q1.773-.031,1.773-1.414a1.307,1.307,0,0,0-.449-1.113A2.363,2.363,0,0,0,129,5.523h-1.641ZM.969,33.375a11.99,11.99,0,0,1,.477-3.406,8.989,8.989,0,0,1,1.406-2.863,5.251,5.251,0,0,1,2.016-1.73L5.3,26.594A5.438,5.438,0,0,0,3.523,29.2a12.082,12.082,0,0,0-.641,4.125v.242a12.313,12.313,0,0,0,.633,4.141A5.544,5.544,0,0,0,5.3,40.359l-.437,1.2a5.253,5.253,0,0,1-1.98-1.684,8.838,8.838,0,0,1-1.4-2.785,11.918,11.918,0,0,1-.516-3.3Zm9.227.063L8.977,34.75V38H6.633V26.625H8.977v5.156l1.031-1.414,2.9-3.742h2.883L11.75,31.68,15.906,38H13.117Zm14.984-1.8H28v2.039H25.18v3.188H23.031V33.672H20.2V31.633h2.828V28.578H25.18ZM35.727,38H33.461V26h2.266Zm5.75-4.445a11.377,11.377,0,0,1-.508,3.4,9.225,9.225,0,0,1-1.461,2.883,5.264,5.264,0,0,1-2.039,1.719l-.437-1.2a5.494,5.494,0,0,0,1.75-2.578,11.939,11.939,0,0,0,.664-4.008v-.414a12.208,12.208,0,0,0-.637-4.117,5.727,5.727,0,0,0-1.777-2.672l.438-1.2a5.265,5.265,0,0,1,2,1.672,9.106,9.106,0,0,1,1.461,2.82,11.3,11.3,0,0,1,.543,3.336Zm8.32,2.1H45.688L44.906,38H42.414l4.234-11.375H48.82L53.078,38H50.586Zm-3.477-1.9h2.844L47.734,29.5Zm18.836-1.586H58.172V30.328h6.984Zm0,3.383H58.172V33.711h6.984Zm9.672-2.117L73.609,34.75V38H71.266V26.625h2.344v5.156l1.031-1.414,2.9-3.742h2.883L76.383,31.68,80.539,38H77.75Zm13.016,2.219H83.734L82.953,38H80.461L84.7,26.625h2.172L91.125,38H88.633Zm-3.477-1.9h2.844L85.781,29.5Zm16.211-2.125h2.82v2.039h-2.82v3.188H98.43V33.672H95.6V31.633H98.43V28.578h2.148ZM111.125,38h-2.266V26h2.266Zm8.43-2.344h-4.109L114.664,38h-2.492l4.234-11.375h2.172L122.836,38h-2.492Zm-3.477-1.9h2.844l-1.43-4.258ZM.969,56.375a11.99,11.99,0,0,1,.477-3.406,8.989,8.989,0,0,1,1.406-2.863,5.251,5.251,0,0,1,2.016-1.73L5.3,49.594A5.438,5.438,0,0,0,3.523,52.2a12.082,12.082,0,0,0-.641,4.125v.242a12.313,12.313,0,0,0,.633,4.141A5.544,5.544,0,0,0,5.3,63.359l-.437,1.2a5.253,5.253,0,0,1-1.98-1.684,8.838,8.838,0,0,1-1.4-2.785,11.918,11.918,0,0,1-.516-3.3Zm9.227.063L8.977,57.75V61H6.633V49.625H8.977v5.156l1.031-1.414,2.9-3.742h2.883L11.75,54.68,15.906,61H13.117ZM19.023,61H16.758V49h2.266Zm5.75-4.445a11.377,11.377,0,0,1-.508,3.4A9.225,9.225,0,0,1,22.8,62.836a5.264,5.264,0,0,1-2.039,1.719l-.437-1.2a5.494,5.494,0,0,0,1.75-2.578,11.939,11.939,0,0,0,.664-4.008v-.414a12.208,12.208,0,0,0-.637-4.117,5.727,5.727,0,0,0-1.777-2.672l.438-1.2a5.265,5.265,0,0,1,2,1.672,9.106,9.106,0,0,1,1.461,2.82,11.3,11.3,0,0,1,.543,3.336Zm8.32,2.1H28.984L28.2,61H25.711l4.234-11.375h2.172L36.375,61H33.883Zm-3.477-1.9h2.844L31.031,52.5Zm18.836-1.586H41.469V53.328h6.984Zm0,3.383H41.469V56.711h6.984Zm9.672-2.117L56.906,57.75V61H54.563V49.625h2.344v5.156l1.031-1.414,2.9-3.742h2.883L59.68,54.68,63.836,61H61.047Zm6.547-.062a11.99,11.99,0,0,1,.477-3.406,8.989,8.989,0,0,1,1.406-2.863,5.251,5.251,0,0,1,2.016-1.73l.438,1.219A5.438,5.438,0,0,0,67.227,52.2a12.082,12.082,0,0,0-.641,4.125v.242a12.313,12.313,0,0,0,.633,4.141,5.544,5.544,0,0,0,1.789,2.648l-.437,1.2a5.253,5.253,0,0,1-1.98-1.684,8.838,8.838,0,0,1-1.4-2.785,11.918,11.918,0,0,1-.516-3.3ZM72.57,61H70.3V49H72.57ZM81,58.656H76.891L76.109,61H73.617l4.234-11.375h2.172L84.281,61H81.789Zm-3.477-1.9h2.844L78.938,52.5Zm11.563-.2a11.377,11.377,0,0,1-.508,3.4,9.225,9.225,0,0,1-1.461,2.883,5.263,5.263,0,0,1-2.039,1.719l-.437-1.2a5.494,5.494,0,0,0,1.75-2.578,11.939,11.939,0,0,0,.664-4.008v-.414a12.209,12.209,0,0,0-.637-4.117,5.727,5.727,0,0,0-1.777-2.672l.438-1.2a5.265,5.265,0,0,1,2,1.672,9.106,9.106,0,0,1,1.461,2.82,11.3,11.3,0,0,1,.543,3.336ZM102,55.172H95.016V53.328H102Zm0,3.383H95.016V56.711H102ZM110.344,61h-2.266V49h2.266Zm1.961-4.625a11.99,11.99,0,0,1,.477-3.406,8.989,8.989,0,0,1,1.406-2.863,5.251,5.251,0,0,1,2.016-1.73l.438,1.219a5.438,5.438,0,0,0-1.781,2.609,12.082,12.082,0,0,0-.641,4.125v.242a12.313,12.313,0,0,0,.633,4.141,5.544,5.544,0,0,0,1.789,2.648l-.437,1.2a5.253,5.253,0,0,1-1.98-1.684,8.838,8.838,0,0,1-1.4-2.785,11.918,11.918,0,0,1-.516-3.3Zm9.227.063-1.219,1.313V61h-2.344V49.625h2.344v5.156l1.031-1.414,2.9-3.742h2.883l-4.039,5.055L127.242,61h-2.789Zm13.016,2.219h-4.109L129.656,61h-2.492L131.4,49.625h2.172L137.828,61h-2.492Zm-3.477-1.9h2.844l-1.43-4.258Zm11.563-.2a11.377,11.377,0,0,1-.508,3.4,9.225,9.225,0,0,1-1.461,2.883,5.264,5.264,0,0,1-2.039,1.719l-.437-1.2a5.494,5.494,0,0,0,1.75-2.578,11.939,11.939,0,0,0,.664-4.008v-.414a12.208,12.208,0,0,0-.637-4.117,5.727,5.727,0,0,0-1.777-2.672l.438-1.2a5.265,5.265,0,0,1,2,1.672,9.106,9.106,0,0,1,1.461,2.82,11.3,11.3,0,0,1,.543,3.336ZM.969,79.375a11.99,11.99,0,0,1,.477-3.406,8.989,8.989,0,0,1,1.406-2.863,5.251,5.251,0,0,1,2.016-1.73L5.3,72.594A5.438,5.438,0,0,0,3.523,75.2a12.082,12.082,0,0,0-.641,4.125v.242a12.313,12.313,0,0,0,.633,4.141A5.544,5.544,0,0,0,5.3,86.359l-.437,1.2a5.253,5.253,0,0,1-1.98-1.684,8.838,8.838,0,0,1-1.4-2.785,11.918,11.918,0,0,1-.516-3.3Zm9.906.664h-4.4v-1.82h4.4Zm5.523-.6L15.18,80.75V84H12.836V72.625H15.18v5.156l1.031-1.414,2.9-3.742h2.883L17.953,77.68,22.109,84H19.32Zm10.336.117a11.377,11.377,0,0,1-.508,3.4,9.225,9.225,0,0,1-1.461,2.883,5.263,5.263,0,0,1-2.039,1.719l-.437-1.2a5.494,5.494,0,0,0,1.75-2.578,11.939,11.939,0,0,0,.664-4.008v-.414a12.209,12.209,0,0,0-.637-4.117,5.727,5.727,0,0,0-1.777-2.672l.438-1.2a5.265,5.265,0,0,1,2,1.672,9.106,9.106,0,0,1,1.461,2.82,11.3,11.3,0,0,1,.543,3.336Zm8.32,2.1H30.945L30.164,84H27.672l4.234-11.375h2.172L38.336,84H35.844Zm-3.477-1.9h2.844L32.992,75.5Zm18.836-1.586H43.43V76.328h6.984Zm0,3.383H43.43V79.711h6.984Zm10.352-1.516h-4.4v-1.82h4.4Zm1.914-.664a11.99,11.99,0,0,1,.477-3.406,8.989,8.989,0,0,1,1.406-2.863,5.251,5.251,0,0,1,2.016-1.73l.438,1.219A5.438,5.438,0,0,0,65.234,75.2a12.082,12.082,0,0,0-.641,4.125v.242a12.313,12.313,0,0,0,.633,4.141,5.544,5.544,0,0,0,1.789,2.648l-.437,1.2a5.253,5.253,0,0,1-1.98-1.684,8.838,8.838,0,0,1-1.4-2.785,11.918,11.918,0,0,1-.516-3.3Zm9.227.063L70.688,80.75V84H68.344V72.625h2.344v5.156l1.031-1.414,2.9-3.742H77.5L73.461,77.68,77.617,84H74.828Zm13.016,2.219H80.813L80.031,84H77.539l4.234-11.375h2.172L88.2,84H85.711Zm-3.477-1.9h2.844L82.859,75.5Zm11.563-.2a11.377,11.377,0,0,1-.508,3.4,9.225,9.225,0,0,1-1.461,2.883A5.263,5.263,0,0,1,89,87.555l-.437-1.2a5.494,5.494,0,0,0,1.75-2.578,11.939,11.939,0,0,0,.664-4.008v-.414a12.209,12.209,0,0,0-.637-4.117,5.727,5.727,0,0,0-1.777-2.672l.438-1.2a5.265,5.265,0,0,1,2,1.672,9.106,9.106,0,0,1,1.461,2.82,11.3,11.3,0,0,1,.543,3.336Zm12.914-1.383H98.938V76.328h6.984Zm0,3.383H98.938V79.711h6.984Zm9.672-2.117-1.219,1.313V84h-2.344V72.625h2.344v5.156l1.031-1.414,2.9-3.742h2.883l-4.039,5.055L121.3,84h-2.789Zm6.547-.062a11.989,11.989,0,0,1,.477-3.406,8.989,8.989,0,0,1,1.406-2.863,5.251,5.251,0,0,1,2.016-1.73l.438,1.219A5.438,5.438,0,0,0,124.7,75.2a12.082,12.082,0,0,0-.641,4.125v.242a12.313,12.313,0,0,0,.633,4.141,5.544,5.544,0,0,0,1.789,2.648l-.437,1.2a5.253,5.253,0,0,1-1.98-1.684,8.838,8.838,0,0,1-1.4-2.785,11.918,11.918,0,0,1-.516-3.3Zm9.906.664h-4.4v-1.82h4.4Zm8.383,1.617H136.32L135.539,84h-2.492l4.234-11.375h2.172L143.711,84h-2.492Zm-3.477-1.9H139.8l-1.43-4.258Zm11.563-.2a11.377,11.377,0,0,1-.508,3.4,9.225,9.225,0,0,1-1.461,2.883,5.264,5.264,0,0,1-2.039,1.719l-.437-1.2a5.494,5.494,0,0,0,1.75-2.578,11.939,11.939,0,0,0,.664-4.008v-.414a12.208,12.208,0,0,0-.637-4.117,5.727,5.727,0,0,0-1.777-2.672l.438-1.2a5.265,5.265,0,0,1,2,1.672,9.106,9.106,0,0,1,1.461,2.82,11.3,11.3,0,0,1,.543,3.336ZM6.258,107H4V98.3l-2.7.836V97.3l4.711-1.687h.242Zm4.016-5.445a1.143,1.143,0,0,1,.359-.875,1.286,1.286,0,0,1,.914-.336,1.3,1.3,0,0,1,.918.336,1.137,1.137,0,0,1,.363.875,1.119,1.119,0,0,1-.367.871,1.312,1.312,0,0,1-.914.332,1.274,1.274,0,0,1-.918-.34A1.143,1.143,0,0,1,10.273,101.555Zm11.164,3.1H17.328L16.547,107H14.055l4.234-11.375h2.172L24.719,107H22.227Zm-3.477-1.9H20.8L19.375,98.5ZM36.8,101.172H29.813V99.328H36.8Zm0,3.383H29.813v-1.844H36.8Zm12.531.1H45.219L44.438,107H41.945L46.18,95.625h2.172L52.609,107H50.117Zm-3.477-1.9H48.7L47.266,98.5ZM.969,125.375a11.99,11.99,0,0,1,.477-3.406,8.989,8.989,0,0,1,1.406-2.863,5.251,5.251,0,0,1,2.016-1.73l.438,1.219A5.438,5.438,0,0,0,3.523,121.2a12.082,12.082,0,0,0-.641,4.125v.242a12.313,12.313,0,0,0,.633,4.141A5.544,5.544,0,0,0,5.3,132.359l-.437,1.2a5.253,5.253,0,0,1-1.98-1.684,8.839,8.839,0,0,1-1.4-2.785,11.918,11.918,0,0,1-.516-3.3Zm9.906.664h-4.4v-1.82h4.4Zm7.2,3.961H15.82v-8.7l-2.7.836V120.3l4.711-1.687h.242Zm7.68-4.445a11.377,11.377,0,0,1-.508,3.4,9.225,9.225,0,0,1-1.461,2.883,5.264,5.264,0,0,1-2.039,1.719l-.437-1.2a5.494,5.494,0,0,0,1.75-2.578,11.939,11.939,0,0,0,.664-4.008v-.414a12.209,12.209,0,0,0-.637-4.117,5.727,5.727,0,0,0-1.777-2.672l.438-1.2a5.265,5.265,0,0,1,2,1.672,9.106,9.106,0,0,1,1.461,2.82,11.3,11.3,0,0,1,.543,3.336Zm8.32,2.1H29.969L29.188,130H26.7l4.234-11.375H33.1L37.359,130H34.867Zm-3.477-1.9h2.844l-1.43-4.258Zm18.836-1.586H42.453v-1.844h6.984Zm0,3.383H42.453v-1.844h6.984Zm10.352-1.516h-4.4v-1.82h4.4Zm8.383,1.617H64.063L63.281,130H60.789l4.234-11.375H67.2L71.453,130H68.961Zm-3.477-1.9h2.844l-1.43-4.258Z" transform="translate(960.957 4463)" fill="#12263f"/>
    <path id="Trazado_822735" data-name="Trazado 822735" d="M24,344H57.026v33.026H24Z" transform="translate(1207.835 4207.183)" fill="#adb3f3"/>
    <path id="Trazado_822736" data-name="Trazado 822736" d="M17.835,103.339A1.835,1.835,0,0,1,16,101.5v-3.67A1.835,1.835,0,0,1,17.835,96H21.5a1.835,1.835,0,1,1,0,3.67H19.67V101.5A1.835,1.835,0,0,1,17.835,103.339Z" transform="translate(1214 4398.305)" fill="#346d97"/>
    <path id="Trazado_822737" data-name="Trazado 822737" d="M389.5,103.339a1.835,1.835,0,0,1-1.835-1.835V99.67h-1.835a1.835,1.835,0,1,1,0-3.67h3.67a1.835,1.835,0,0,1,1.835,1.835v3.67A1.835,1.835,0,0,1,389.5,103.339Z" transform="translate(930.399 4398.305)" fill="#346d97"/>
    <path id="Trazado_822738" data-name="Trazado 822738" d="M389.5,471.339h-3.67a1.835,1.835,0,1,1,0-3.67h1.835v-1.835a1.835,1.835,0,1,1,3.67,0v3.67A1.835,1.835,0,0,1,389.5,471.339Z" transform="translate(930.399 4114.704)" fill="#346d97"/>
    <path id="Trazado_822739" data-name="Trazado 822739" d="M73.174,99.67H65.835a1.835,1.835,0,1,1,0-3.67h7.339a1.835,1.835,0,1,1,0,3.67Z" transform="translate(1177.009 4398.305)" fill="#346d97"/>
    <path id="Trazado_822740" data-name="Trazado 822740" d="M137.174,99.67h-7.339a1.835,1.835,0,1,1,0-3.67h7.339a1.835,1.835,0,1,1,0,3.67Z" transform="translate(1127.687 4398.305)" fill="#346d97"/>
    <path id="Trazado_822741" data-name="Trazado 822741" d="M201.174,99.67h-7.339a1.835,1.835,0,0,1,0-3.67h7.339a1.835,1.835,0,0,1,0,3.67Z" transform="translate(1078.365 4398.305)" fill="#346d97"/>
    <path id="Trazado_822742" data-name="Trazado 822742" d="M265.174,99.67h-7.339a1.835,1.835,0,1,1,0-3.67h7.339a1.835,1.835,0,1,1,0,3.67Z" transform="translate(1029.043 4398.305)" fill="#346d97"/>
    <path id="Trazado_822743" data-name="Trazado 822743" d="M329.174,99.458h-7.339a1.835,1.835,0,1,1,0-3.67h7.339a1.835,1.835,0,1,1,0,3.67Z" transform="translate(979.721 4398.468)" fill="#346d97"/>
    <path id="Trazado_822744" data-name="Trazado 822744" d="M201.174,483.67h-7.339a1.835,1.835,0,1,1,0-3.67h7.339a1.835,1.835,0,1,1,0,3.67Z" transform="translate(1078.365 4102.374)" fill="#346d97"/>
    <path id="Trazado_822745" data-name="Trazado 822745" d="M265.174,483.67h-7.339a1.835,1.835,0,1,1,0-3.67h7.339a1.835,1.835,0,1,1,0,3.67Z" transform="translate(1029.043 4102.374)" fill="#346d97"/>
    <path id="Trazado_822746" data-name="Trazado 822746" d="M329.174,483.67h-7.339a1.835,1.835,0,1,1,0-3.67h7.339a1.835,1.835,0,1,1,0,3.67Z" transform="translate(979.721 4102.374)" fill="#346d97"/>
    <path id="Trazado_822747" data-name="Trazado 822747" d="M17.835,155.009A1.835,1.835,0,0,1,16,153.174v-7.339a1.835,1.835,0,0,1,3.67,0v7.339A1.835,1.835,0,0,1,17.835,155.009Z" transform="translate(1214 4361.313)" fill="#346d97"/>
    <path id="Trazado_822748" data-name="Trazado 822748" d="M17.835,219.009A1.835,1.835,0,0,1,16,217.174v-7.339a1.835,1.835,0,1,1,3.67,0v7.339A1.835,1.835,0,0,1,17.835,219.009Z" transform="translate(1214 4311.991)" fill="#346d97"/>
    <path id="Trazado_822749" data-name="Trazado 822749" d="M401.835,155.009A1.835,1.835,0,0,1,400,153.174v-7.339a1.835,1.835,0,1,1,3.67,0v7.339A1.835,1.835,0,0,1,401.835,155.009Z" transform="translate(918.069 4361.313)" fill="#346d97"/>
    <path id="Trazado_822750" data-name="Trazado 822750" d="M401.835,219.009A1.835,1.835,0,0,1,400,217.174v-7.339a1.835,1.835,0,1,1,3.67,0v7.339A1.835,1.835,0,0,1,401.835,219.009Z" transform="translate(918.069 4311.991)" fill="#346d97"/>
    <path id="Trazado_822751" data-name="Trazado 822751" d="M401.835,283.009A1.835,1.835,0,0,1,400,281.174v-7.339a1.835,1.835,0,1,1,3.67,0v7.339A1.835,1.835,0,0,1,401.835,283.009Z" transform="translate(918.069 4262.669)" fill="#346d97"/>
    <path id="Trazado_822752" data-name="Trazado 822752" d="M401.835,347.009A1.835,1.835,0,0,1,400,345.174v-7.339a1.835,1.835,0,1,1,3.67,0v7.339A1.835,1.835,0,0,1,401.835,347.009Z" transform="translate(918.069 4213.348)" fill="#346d97"/>
    <path id="Trazado_822753" data-name="Trazado 822753" d="M401.835,411.009A1.835,1.835,0,0,1,400,409.174v-7.339a1.835,1.835,0,1,1,3.67,0v7.339A1.835,1.835,0,0,1,401.835,411.009Z" transform="translate(918.069 4164.026)" fill="#346d97"/>
    <path id="Trazado_822754" data-name="Trazado 822754" d="M17.835,283.009A1.835,1.835,0,0,1,16,281.174v-7.339a1.835,1.835,0,1,1,3.67,0v7.339A1.835,1.835,0,0,1,17.835,283.009Z" transform="translate(1214 4262.669)" fill="#346d97"/>
    <path id="Trazado_822755" data-name="Trazado 822755" d="M24,24h88.069V35.009H24Z" transform="translate(1207.835 4453.792)" fill="#fbc87a"/>
    <path id="Trazado_822756" data-name="Trazado 822756" d="M51.67,49.835V53.5H48v-3.67a1.835,1.835,0,0,1,3.67,0Z" transform="translate(1189.339 4435.296)" fill="#346d97"/>
    <path id="Trazado_822757" data-name="Trazado 822757" d="M83.67,49.835V53.5H80v-3.67a1.835,1.835,0,1,1,3.67,0Z" transform="translate(1164.678 4435.296)" fill="#346d97"/>
    <path id="Trazado_822758" data-name="Trazado 822758" d="M115.67,41.835v5.5H112v-5.5a1.835,1.835,0,1,1,3.67,0Z" transform="translate(1140.017 4441.461)" fill="#346d97"/>
    <path id="Trazado_822759" data-name="Trazado 822759" d="M147.67,49.835V53.5H144v-3.67a1.835,1.835,0,1,1,3.67,0Z" transform="translate(1115.356 4435.296)" fill="#346d97"/>
    <path id="Trazado_822760" data-name="Trazado 822760" d="M179.67,49.835V53.5H176v-3.67a1.835,1.835,0,0,1,3.67,0Z" transform="translate(1090.695 4435.296)" fill="#346d97"/>
    <path id="Trazado_822761" data-name="Trazado 822761" d="M211.67,41.835v5.5H208v-5.5a1.835,1.835,0,0,1,3.67,0Z" transform="translate(1066.034 4441.461)" fill="#346d97"/>
    <path id="Trazado_822762" data-name="Trazado 822762" d="M243.67,49.835V53.5H240v-3.67a1.835,1.835,0,1,1,3.67,0Z" transform="translate(1041.373 4435.296)" fill="#346d97"/>
    <path id="Trazado_822763" data-name="Trazado 822763" d="M275.67,49.835V53.5H272v-3.67a1.835,1.835,0,1,1,3.67,0Z" transform="translate(1016.713 4435.296)" fill="#346d97"/>
    <path id="Trazado_822764" data-name="Trazado 822764" d="M307.67,41.835v5.5H304v-5.5a1.835,1.835,0,1,1,3.67,0Z" transform="translate(992.052 4441.461)" fill="#346d97"/>
    <path id="Trazado_822765" data-name="Trazado 822765" d="M339.67,49.835V53.5H336v-3.67a1.835,1.835,0,0,1,3.67,0Z" transform="translate(967.391 4435.296)" fill="#346d97"/>
    <path id="Trazado_822766" data-name="Trazado 822766" d="M371.67,49.835V53.5H368v-3.67a1.835,1.835,0,1,1,3.67,0Z" transform="translate(942.73 4435.296)" fill="#346d97"/>
    <path id="Trazado_822767" data-name="Trazado 822767" d="M440,104h11.009v88.069H440Z" transform="translate(887.243 4392.14)" fill="#fbc87a"/>
    <path id="Trazado_822768" data-name="Trazado 822768" d="M445.5,449.835a1.834,1.834,0,0,1-1.835,1.835H440V448h3.67A1.834,1.834,0,0,1,445.5,449.835Z" transform="translate(887.243 4127.034)" fill="#cd6660"/>
    <path id="Trazado_822769" data-name="Trazado 822769" d="M445.5,417.835a1.834,1.834,0,0,1-1.835,1.835H440V416h3.67A1.834,1.834,0,0,1,445.5,417.835Z" transform="translate(887.243 4151.695)" fill="#cd6660"/>
    <path id="Trazado_822770" data-name="Trazado 822770" d="M447.339,385.835a1.834,1.834,0,0,1-1.835,1.835H440V384h5.5A1.834,1.834,0,0,1,447.339,385.835Z" transform="translate(887.243 4176.356)" fill="#cd6660"/>
    <path id="Trazado_822771" data-name="Trazado 822771" d="M445.5,353.835a1.834,1.834,0,0,1-1.835,1.835H440V352h3.67A1.834,1.834,0,0,1,445.5,353.835Z" transform="translate(887.243 4201.017)" fill="#cd6660"/>
    <path id="Trazado_822772" data-name="Trazado 822772" d="M445.5,321.835a1.834,1.834,0,0,1-1.835,1.835H440V320h3.67A1.834,1.834,0,0,1,445.5,321.835Z" transform="translate(887.243 4225.678)" fill="#cd6660"/>
    <path id="Trazado_822773" data-name="Trazado 822773" d="M447.339,289.835a1.834,1.834,0,0,1-1.835,1.835H440V288h5.5A1.834,1.834,0,0,1,447.339,289.835Z" transform="translate(887.243 4250.339)" fill="#cd6660"/>
    <path id="Trazado_822774" data-name="Trazado 822774" d="M445.5,257.835a1.834,1.834,0,0,1-1.835,1.835H440V256h3.67A1.834,1.834,0,0,1,445.5,257.835Z" transform="translate(887.243 4275)" fill="#cd6660"/>
    <path id="Trazado_822775" data-name="Trazado 822775" d="M445.5,225.835a1.834,1.834,0,0,1-1.835,1.835H440V224h3.67A1.834,1.834,0,0,1,445.5,225.835Z" transform="translate(887.243 4299.661)" fill="#cd6660"/>
    <path id="Trazado_822776" data-name="Trazado 822776" d="M447.339,193.835a1.834,1.834,0,0,1-1.835,1.835H440V192h5.5A1.834,1.834,0,0,1,447.339,193.835Z" transform="translate(887.243 4324.322)" fill="#cd6660"/>
    <path id="Trazado_822777" data-name="Trazado 822777" d="M440,163.67h3.67a1.835,1.835,0,1,0,0-3.67H440Z" transform="translate(887.243 4348.983)" fill="#cd6660"/>
    <path id="Trazado_822778" data-name="Trazado 822778" d="M445.5,129.835a1.834,1.834,0,0,1-1.835,1.835H440V128h3.67A1.834,1.834,0,0,1,445.5,129.835Z" transform="translate(887.243 4373.644)" fill="#cd6660"/>
    <path id="Trazado_822779" data-name="Trazado 822779" d="M193.834,178.2a1.835,1.835,0,0,1-1.3-3.132l38.53-38.53a1.835,1.835,0,1,1,2.595,2.595l-38.53,38.53A1.828,1.828,0,0,1,193.834,178.2Z" transform="translate(1078.365 4367.478)" fill="#346d97"/>
    <path id="Trazado_822780" data-name="Trazado 822780" d="M337.174,147.009a1.835,1.835,0,0,1-1.835-1.835v-5.5h-5.5a1.835,1.835,0,1,1,0-3.67h7.339a1.835,1.835,0,0,1,1.835,1.835v7.339A1.835,1.835,0,0,1,337.174,147.009Z" transform="translate(973.556 4367.479)" fill="#346d97"/>
    <path id="Trazado_822781" data-name="Trazado 822781" d="M201.174,283.009h-7.339A1.835,1.835,0,0,1,192,281.174v-7.339a1.835,1.835,0,1,1,3.67,0v5.5h5.5a1.835,1.835,0,0,1,0,3.67Z" transform="translate(1078.365 4262.669)" fill="#346d97"/>
    <path id="Trazado_822782" data-name="Trazado 822782" d="M50.861,336H17.835A1.835,1.835,0,0,0,16,337.835v33.026a1.835,1.835,0,0,0,1.835,1.835H50.861a1.835,1.835,0,0,0,1.835-1.835V337.835A1.835,1.835,0,0,0,50.861,336Zm-1.835,33.026H19.67V339.67H49.026Z" transform="translate(1214 4213.348)"/>
    <path id="Trazado_822783" data-name="Trazado 822783" d="M17.835,103.339A1.835,1.835,0,0,0,19.67,101.5V99.67H21.5a1.835,1.835,0,1,0,0-3.67h-3.67A1.835,1.835,0,0,0,16,97.835v3.67A1.835,1.835,0,0,0,17.835,103.339Z" transform="translate(1214 4398.305)"/>
    <path id="Trazado_822784" data-name="Trazado 822784" d="M389.5,96h-3.67a1.835,1.835,0,1,0,0,3.67h1.835V101.5a1.835,1.835,0,1,0,3.67,0v-3.67A1.835,1.835,0,0,0,389.5,96Z" transform="translate(930.399 4398.305)"/>
    <path id="Trazado_822785" data-name="Trazado 822785" d="M389.5,464a1.835,1.835,0,0,0-1.835,1.835v1.835h-1.835a1.835,1.835,0,1,0,0,3.67h3.67a1.835,1.835,0,0,0,1.835-1.835v-3.67A1.835,1.835,0,0,0,389.5,464Z" transform="translate(930.399 4114.704)"/>
    <path id="Trazado_822786" data-name="Trazado 822786" d="M73.174,99.67a1.835,1.835,0,1,0,0-3.67H65.835a1.835,1.835,0,1,0,0,3.67Z" transform="translate(1177.009 4398.305)"/>
    <path id="Trazado_822787" data-name="Trazado 822787" d="M137.174,96h-7.339a1.835,1.835,0,1,0,0,3.67h7.339a1.835,1.835,0,1,0,0-3.67Z" transform="translate(1127.687 4398.305)"/>
    <path id="Trazado_822788" data-name="Trazado 822788" d="M193.835,99.67h7.339a1.835,1.835,0,0,0,0-3.67h-7.339a1.835,1.835,0,0,0,0,3.67Z" transform="translate(1078.365 4398.305)"/>
    <path id="Trazado_822789" data-name="Trazado 822789" d="M265.174,99.67a1.835,1.835,0,1,0,0-3.67h-7.339a1.835,1.835,0,1,0,0,3.67Z" transform="translate(1029.043 4398.305)"/>
    <path id="Trazado_822790" data-name="Trazado 822790" d="M329.174,99.458a1.835,1.835,0,1,0,0-3.67h-7.339a1.835,1.835,0,1,0,0,3.67Z" transform="translate(979.721 4398.468)"/>
    <path id="Trazado_822791" data-name="Trazado 822791" d="M201.174,480h-7.339a1.835,1.835,0,1,0,0,3.67h7.339a1.835,1.835,0,1,0,0-3.67Z" transform="translate(1078.365 4102.374)"/>
    <path id="Trazado_822792" data-name="Trazado 822792" d="M265.174,480h-7.339a1.835,1.835,0,1,0,0,3.67h7.339a1.835,1.835,0,1,0,0-3.67Z" transform="translate(1029.043 4102.374)"/>
    <path id="Trazado_822793" data-name="Trazado 822793" d="M329.174,480h-7.339a1.835,1.835,0,1,0,0,3.67h7.339a1.835,1.835,0,1,0,0-3.67Z" transform="translate(979.721 4102.374)"/>
    <path id="Trazado_822794" data-name="Trazado 822794" d="M17.835,155.009a1.835,1.835,0,0,0,1.835-1.835v-7.339a1.835,1.835,0,0,0-3.67,0v7.339A1.835,1.835,0,0,0,17.835,155.009Z" transform="translate(1214 4361.313)"/>
    <path id="Trazado_822795" data-name="Trazado 822795" d="M17.835,219.009a1.835,1.835,0,0,0,1.835-1.835v-7.339a1.835,1.835,0,1,0-3.67,0v7.339A1.835,1.835,0,0,0,17.835,219.009Z" transform="translate(1214 4311.991)"/>
    <path id="Trazado_822796" data-name="Trazado 822796" d="M401.835,144A1.835,1.835,0,0,0,400,145.835v7.339a1.835,1.835,0,1,0,3.67,0v-7.339A1.835,1.835,0,0,0,401.835,144Z" transform="translate(918.069 4361.313)"/>
    <path id="Trazado_822797" data-name="Trazado 822797" d="M401.835,208A1.835,1.835,0,0,0,400,209.835v7.339a1.835,1.835,0,1,0,3.67,0v-7.339A1.835,1.835,0,0,0,401.835,208Z" transform="translate(918.069 4311.991)"/>
    <path id="Trazado_822798" data-name="Trazado 822798" d="M401.835,272A1.835,1.835,0,0,0,400,273.835v7.339a1.835,1.835,0,1,0,3.67,0v-7.339A1.835,1.835,0,0,0,401.835,272Z" transform="translate(918.069 4262.669)"/>
    <path id="Trazado_822799" data-name="Trazado 822799" d="M401.835,336A1.835,1.835,0,0,0,400,337.835v7.339a1.835,1.835,0,1,0,3.67,0v-7.339A1.835,1.835,0,0,0,401.835,336Z" transform="translate(918.069 4213.348)"/>
    <path id="Trazado_822800" data-name="Trazado 822800" d="M401.835,400A1.835,1.835,0,0,0,400,401.835v7.339a1.835,1.835,0,1,0,3.67,0v-7.339A1.835,1.835,0,0,0,401.835,400Z" transform="translate(918.069 4164.026)"/>
    <path id="Trazado_822801" data-name="Trazado 822801" d="M17.835,283.009a1.835,1.835,0,0,0,1.835-1.835v-7.339a1.835,1.835,0,1,0-3.67,0v7.339A1.835,1.835,0,0,0,17.835,283.009Z" transform="translate(1214 4262.669)"/>
    <path id="Trazado_822802" data-name="Trazado 822802" d="M105.9,16H17.835A1.835,1.835,0,0,0,16,17.835V28.843a1.835,1.835,0,0,0,1.835,1.835H105.9a1.835,1.835,0,0,0,1.835-1.835V17.835A1.835,1.835,0,0,0,105.9,16Zm-1.835,11.009H100.4V25.174a1.835,1.835,0,0,0-3.67,0v1.835H93.06V25.174a1.835,1.835,0,0,0-3.67,0v1.835h-3.67v-3.67a1.835,1.835,0,1,0-3.67,0v3.67h-3.67V25.174a1.835,1.835,0,0,0-3.67,0v1.835h-3.67V25.174a1.835,1.835,0,0,0-3.67,0v1.835H63.7v-3.67a1.835,1.835,0,1,0-3.67,0v3.67h-3.67V25.174a1.835,1.835,0,0,0-3.67,0v1.835h-3.67V25.174a1.835,1.835,0,1,0-3.67,0v1.835h-3.67v-3.67a1.835,1.835,0,1,0-3.67,0v3.67h-3.67V25.174a1.835,1.835,0,0,0-3.67,0v1.835h-3.67V25.174a1.835,1.835,0,0,0-3.67,0v1.835H19.67V19.67h84.4Z" transform="translate(1214 4459.957)"/>
    <path id="Trazado_822803" data-name="Trazado 822803" d="M444.843,96H433.835A1.835,1.835,0,0,0,432,97.835V185.9a1.835,1.835,0,0,0,1.835,1.835h11.009a1.835,1.835,0,0,0,1.835-1.835V97.835A1.835,1.835,0,0,0,444.843,96Zm-1.835,88.069H435.67V180.4H437.5a1.835,1.835,0,1,0,0-3.67H435.67v-3.67H437.5a1.835,1.835,0,1,0,0-3.67H435.67v-3.67h3.67a1.835,1.835,0,0,0,0-3.67h-3.67v-3.67H437.5a1.835,1.835,0,1,0,0-3.67H435.67v-3.67H437.5a1.835,1.835,0,1,0,0-3.67H435.67V143.7h3.67a1.835,1.835,0,0,0,0-3.67h-3.67v-3.67H437.5a1.835,1.835,0,1,0,0-3.67H435.67v-3.67H437.5a1.835,1.835,0,1,0,0-3.67H435.67v-3.67h3.67a1.835,1.835,0,0,0,0-3.67h-3.67v-3.67H437.5a1.835,1.835,0,1,0,0-3.67H435.67v-3.67H437.5a1.835,1.835,0,1,0,0-3.67H435.67V99.67h7.339Z" transform="translate(893.408 4398.305)"/>
    <path id="Trazado_822804" data-name="Trazado 822804" d="M232.365,136h-7.339a1.835,1.835,0,1,0,0,3.67h2.909L195.67,171.935v-2.909a1.835,1.835,0,1,0-3.67,0v7.339a1.835,1.835,0,0,0,1.835,1.835h7.339a1.835,1.835,0,0,0,0-3.67h-2.909l32.266-32.266v2.909a1.835,1.835,0,0,0,3.67,0v-7.339A1.835,1.835,0,0,0,232.365,136Z" transform="translate(1078.365 4367.479)"/>
  </g>
</svg>
