<svg xmlns="http://www.w3.org/2000/svg" xmlns:xlink="http://www.w3.org/1999/xlink" width="101.828" height="101.828" viewBox="0 0 101.828 101.828">
  <defs>
    <filter id="Elipse_9677" x="0" y="0" width="101.828" height="101.828" filterUnits="userSpaceOnUse">
      <feOffset dy="1" input="SourceAlpha"/>
      <feGaussianBlur stdDeviation="8" result="blur"/>
      <feFlood flood-color="#fff"/>
      <feComposite operator="in" in2="blur"/>
      <feComposite in="SourceGraphic"/>
    </filter>
  </defs>
  <g id="Grupo_1074211" data-name="Grupo 1074211" transform="translate(-835 -3214)">
    <g transform="matrix(1, 0, 0, 1, 835, 3214)" filter="url(#Elipse_9677)">
      <path id="Elipse_9677-2" data-name="Elipse 9677" d="M26.914,3.166A23.748,23.748,0,1,0,50.662,26.914,23.775,23.775,0,0,0,26.914,3.166m0-3.166A26.914,26.914,0,1,1,0,26.914,26.914,26.914,0,0,1,26.914,0Z" transform="translate(24 23)" fill="#fff"/>
    </g>
    <g id="Layer_x0020_1" transform="translate(861.035 3178.444)">
      <rect id="Rectángulo_376649" data-name="Rectángulo 376649" width="47" height="43" rx="4" transform="translate(2.632 64.97)" fill="#f3f9ff"/>
      <path id="Trazado_822060" data-name="Trazado 822060" d="M120,114.328h45.094v-6.967A2.351,2.351,0,0,0,162.733,105H149.149a3.845,3.845,0,0,0-3.789,3.819v.845a.585.585,0,0,1-.583.583H120Zm29.586-2.39a2.274,2.274,0,1,1,2.244-2.274A2.277,2.277,0,0,1,149.586,111.938Zm6.092,0a2.274,2.274,0,0,1,0-4.547,2.274,2.274,0,1,1,0,4.547Zm6.121,0a2.274,2.274,0,1,1,2.274-2.274A2.277,2.277,0,0,1,161.8,111.938Z" transform="translate(-116.502 -38.834)" fill="#dc40ed" fill-rule="evenodd"/>
      <path id="Trazado_822061" data-name="Trazado 822061" d="M120,109.081h24.194v-.262A5.061,5.061,0,0,1,145.972,105H122.361A2.351,2.351,0,0,0,120,107.361Z" transform="translate(-116.502 -38.834)" fill="#9510a3" fill-rule="evenodd"/>
      <path id="Trazado_822062" data-name="Trazado 822062" d="M1097,228.108a1.093,1.093,0,1,0,1.108-1.108A1.107,1.107,0,0,0,1097,228.108Z" transform="translate(-1065.023 -157.278)" fill="#ed4058" fill-rule="evenodd"/>
      <path id="Trazado_822063" data-name="Trazado 822063" d="M1307,228.108a1.093,1.093,0,1,0,1.078-1.108A1.1,1.1,0,0,0,1307,228.108Z" transform="translate(-1268.902 -157.278)" fill="#f7df3f" fill-rule="evenodd"/>
      <path id="Trazado_822064" data-name="Trazado 822064" d="M1516,228.108a1.108,1.108,0,1,0,1.108-1.108A1.107,1.107,0,0,0,1516,228.108Z" transform="translate(-1471.81 -157.278)" fill="#1cd834" fill-rule="evenodd"/>
      <g id="Grupo_1074212" data-name="Grupo 1074212" transform="translate(0 65)">
        <path id="Trazado_822053" data-name="Trazado 822053" d="M105.943,71.413H80.583a.583.583,0,0,1,0-1.166H105.36v-.262A5.014,5.014,0,0,1,110.315,65a.583.583,0,1,1,0,1.166,3.845,3.845,0,0,0-3.789,3.819v.845A.585.585,0,0,1,105.943,71.413Z" transform="translate(-77.668 -65)" fill="#000002" fill-rule="evenodd"/>
        <path id="Trazado_822054" data-name="Trazado 822054" d="M1059.274,191.547a2.274,2.274,0,1,1,2.245-2.274A2.276,2.276,0,0,1,1059.274,191.547Zm0-3.381a1.108,1.108,0,1,0,1.078,1.108A1.107,1.107,0,0,0,1059.274,188.166Z" transform="translate(-1026.189 -183.444)" fill="#000002" fill-rule="evenodd"/>
        <path id="Trazado_822055" data-name="Trazado 822055" d="M1269.244,191.547a2.274,2.274,0,0,1,0-4.547,2.274,2.274,0,1,1,0,4.547Zm0-3.381a1.108,1.108,0,1,0,1.108,1.108A1.1,1.1,0,0,0,1269.244,188.166Z" transform="translate(-1230.068 -183.444)" fill="#000002" fill-rule="evenodd"/>
        <path id="Trazado_822056" data-name="Trazado 822056" d="M1478.274,191.547a2.274,2.274,0,1,1,2.274-2.274A2.277,2.277,0,0,1,1478.274,191.547Zm0-3.381a1.108,1.108,0,1,0,1.108,1.108A1.107,1.107,0,0,0,1478.274,188.166Z" transform="translate(-1432.976 -183.444)" fill="#000002" fill-rule="evenodd"/>
        <path id="Trazado_822057" data-name="Trazado 822057" d="M123.9,108.345H87.4a.583.583,0,1,1,0-1.166H123.9a2.345,2.345,0,0,0,2.361-2.332V68.527a2.351,2.351,0,0,0-2.361-2.361H83.527a2.351,2.351,0,0,0-2.361,2.361V101.32a.583.583,0,1,1-1.166,0V68.527A3.521,3.521,0,0,1,83.527,65H123.9a3.521,3.521,0,0,1,3.527,3.527v36.32A3.514,3.514,0,0,1,123.9,108.345Z" transform="translate(-77.668 -65)" fill="#000002" fill-rule="evenodd"/>
        <path id="Trazado_822058" data-name="Trazado 822058" d="M126.843,426.166H80.583a.583.583,0,1,1,0-1.166h46.26a.583.583,0,1,1,0,1.166Z" transform="translate(-77.668 -414.506)" fill="#000002" fill-rule="evenodd"/>
        <path id="Trazado_822059" data-name="Trazado 822059" d="M2.3,834.136a2.293,2.293,0,0,1-1.632-.67,2.226,2.226,0,0,1-.67-1.6,2.292,2.292,0,0,1,.67-1.632l14.05-14.05-7.229,1.6a1.361,1.361,0,0,1-.5.058,2.305,2.305,0,0,1-2.244-1.778,2.344,2.344,0,0,1,1.749-2.74l14.924-3.352a2.252,2.252,0,0,1,2.1.583l.029.029s.058.029.058.058a2.236,2.236,0,0,1,.554,2.07l-3.352,14.924a2.307,2.307,0,0,1-2.244,1.807,3.25,3.25,0,0,1-.5-.058,2.294,2.294,0,0,1-1.72-2.74l1.6-7.229-14.05,14.05A2.226,2.226,0,0,1,2.3,834.136Zm14.254-19.559a.614.614,0,0,1,.525.321.541.541,0,0,1-.117.67L1.487,831.046a1.144,1.144,0,0,0,0,1.6,1.2,1.2,0,0,0,1.6,0l15.478-15.478a.57.57,0,0,1,.7-.087.657.657,0,0,1,.291.641l-2.07,9.182a1.121,1.121,0,1,0,2.186.5l3.352-14.954a1.093,1.093,0,0,0-.262-1.02l-.058-.029a1.039,1.039,0,0,0-1.02-.292L6.763,814.46a1.08,1.08,0,0,0-.729.5,1.229,1.229,0,0,0-.146.845,1.145,1.145,0,0,0,1.341.845l9.211-2.04A.175.175,0,0,1,16.557,814.577Z" transform="translate(0 -788.197)" fill="#000002" fill-rule="evenodd"/>
      </g>
      <path id="Trazado_822065" data-name="Trazado 822065" d="M61.619,851.263a1.093,1.093,0,0,0-.262-1.02l-.058-.029a1.039,1.039,0,0,0-1.02-.291l-14.924,3.352a1.08,1.08,0,0,0-.729.5,1.229,1.229,0,0,0-.146.845,1.145,1.145,0,0,0,1.341.845l9.211-2.04a.175.175,0,0,1,.117-.029.614.614,0,0,1,.525.321.541.541,0,0,1-.117.67L40.078,869.86a1.144,1.144,0,0,0,0,1.6,1.2,1.2,0,0,0,1.6,0l15.478-15.478a.57.57,0,0,1,.7-.087.657.657,0,0,1,.291.641l-2.07,9.182a1.121,1.121,0,1,0,2.186.5Z" transform="translate(-38.591 -762.011)" fill="#1cd834" fill-rule="evenodd"/>
      <g id="Layer_x0020_1-2" data-name="Layer_x0020_1" transform="translate(-8.813 10.273)">
        <g id="_417382912" transform="translate(34.208 70.467)">
          <path id="_417385144" d="M63.316,93.608H42.92a.308.308,0,0,1,0-.615h20.4a.308.308,0,0,1,0,.615Z" transform="translate(-42.612 -92.993)" fill-rule="evenodd"/>
          <path id="_417385672" d="M63.316,93.608H42.92a.308.308,0,0,1,0-.615h20.4a.308.308,0,0,1,0,.615Z" transform="translate(-42.612 -92.993)" fill-rule="evenodd"/>
          <path id="_417384856" d="M63.316,102.85H42.92a.308.308,0,0,1,0-.615h20.4a.308.308,0,0,1,0,.615Z" transform="translate(-42.612 -99.522)" fill-rule="evenodd"/>
          <path id="_417384880" d="M63.316,102.85H42.92a.308.308,0,0,1,0-.615h20.4a.308.308,0,0,1,0,.615Z" transform="translate(-42.612 -99.522)" fill-rule="evenodd"/>
          <path id="_417384760" d="M63.316,112.093H42.92a.307.307,0,1,1,0-.615h20.4a.307.307,0,1,1,0,.615Z" transform="translate(-42.612 -106.051)" fill-rule="evenodd"/>
          <path id="_417384496" d="M63.316,112.093H42.92a.307.307,0,1,1,0-.615h20.4a.307.307,0,1,1,0,.615Z" transform="translate(-42.612 -106.051)" fill-rule="evenodd"/>
          <path id="_417384664" d="M63.316,121.335H42.92a.307.307,0,1,1,0-.615h20.4a.307.307,0,1,1,0,.615Z" transform="translate(-42.612 -112.58)" fill-rule="evenodd"/>
          <path id="_417385120" d="M63.316,121.335H42.92a.307.307,0,1,1,0-.615h20.4a.307.307,0,1,1,0,.615Z" transform="translate(-42.612 -112.58)" fill-rule="evenodd"/>
        </g>
      </g>
      <g id="Layer_x0020_1-3" data-name="Layer_x0020_1" transform="translate(-3.574 22.273)">
        <g id="_417382912-2" data-name="_417382912" transform="translate(34.208 70.467)">
          <path id="_417385144-2" data-name="_417385144" d="M58.154,93.608H42.843c-.127,0-.231-.138-.231-.307s.1-.308.231-.308H58.154c.127,0,.231.138.231.308S58.281,93.608,58.154,93.608Z" transform="translate(-42.612 -92.993)" fill-rule="evenodd"/>
          <path id="_417385672-2" data-name="_417385672" d="M58.154,93.608H42.843c-.127,0-.231-.138-.231-.307s.1-.308.231-.308H58.154c.127,0,.231.138.231.308S58.281,93.608,58.154,93.608Z" transform="translate(-42.612 -92.993)" fill-rule="evenodd"/>
          <path id="_417384856-2" data-name="_417384856" d="M58.154,102.85H42.843c-.127,0-.231-.138-.231-.308s.1-.307.231-.307H58.154c.127,0,.231.138.231.307S58.281,102.85,58.154,102.85Z" transform="translate(-42.612 -99.522)" fill-rule="evenodd"/>
          <path id="_417384880-2" data-name="_417384880" d="M58.154,102.85H42.843c-.127,0-.231-.138-.231-.308s.1-.307.231-.307H58.154c.127,0,.231.138.231.307S58.281,102.85,58.154,102.85Z" transform="translate(-42.612 -99.522)" fill-rule="evenodd"/>
          <path id="_417384760-2" data-name="_417384760" d="M58.154,112.093H42.843c-.127,0-.231-.138-.231-.307s.1-.307.231-.307H58.154c.127,0,.231.138.231.307S58.281,112.093,58.154,112.093Z" transform="translate(-42.612 -106.051)" fill-rule="evenodd"/>
          <path id="_417384496-2" data-name="_417384496" d="M58.154,112.093H42.843c-.127,0-.231-.138-.231-.307s.1-.307.231-.307H58.154c.127,0,.231.138.231.307S58.281,112.093,58.154,112.093Z" transform="translate(-42.612 -106.051)" fill-rule="evenodd"/>
          <path id="_417384664-2" data-name="_417384664" d="M58.154,121.335H42.843c-.127,0-.231-.138-.231-.307s.1-.307.231-.307H58.154c.127,0,.231.138.231.308S58.281,121.336,58.154,121.335Z" transform="translate(-42.612 -112.58)" fill-rule="evenodd"/>
          <path id="_417385120-2" data-name="_417385120" d="M58.154,121.335H42.843c-.127,0-.231-.138-.231-.307s.1-.307.231-.307H58.154c.127,0,.231.138.231.308S58.281,121.336,58.154,121.335Z" transform="translate(-42.612 -112.58)" fill-rule="evenodd"/>
        </g>
      </g>
      <g id="Layer_x0020_1-4" data-name="Layer_x0020_1" transform="translate(-28.574 10.273)">
        <g id="_417382912-3" data-name="_417382912" transform="translate(34.208 70.467)">
          <path id="_417385144-3" data-name="_417385144" d="M58.154,93.608H42.843c-.127,0-.231-.138-.231-.307s.1-.308.231-.308H58.154c.127,0,.231.138.231.308S58.281,93.608,58.154,93.608Z" transform="translate(-42.612 -92.993)" fill-rule="evenodd"/>
          <path id="_417385672-3" data-name="_417385672" d="M58.154,93.608H42.843c-.127,0-.231-.138-.231-.307s.1-.308.231-.308H58.154c.127,0,.231.138.231.308S58.281,93.608,58.154,93.608Z" transform="translate(-42.612 -92.993)" fill-rule="evenodd"/>
          <path id="_417384856-3" data-name="_417384856" d="M58.154,102.85H42.843c-.127,0-.231-.138-.231-.308s.1-.307.231-.307H58.154c.127,0,.231.138.231.307S58.281,102.85,58.154,102.85Z" transform="translate(-42.612 -99.522)" fill-rule="evenodd"/>
          <path id="_417384880-3" data-name="_417384880" d="M58.154,102.85H42.843c-.127,0-.231-.138-.231-.308s.1-.307.231-.307H58.154c.127,0,.231.138.231.307S58.281,102.85,58.154,102.85Z" transform="translate(-42.612 -99.522)" fill-rule="evenodd"/>
        </g>
      </g>
    </g>
  </g>
</svg>
