<svg xmlns="http://www.w3.org/2000/svg" width="213" height="213" viewBox="0 0 213 213">
  <g id="Grupo_1073028" data-name="Grupo 1073028" transform="translate(-1003.957 -3439)">
    <circle id="Elipse_9795" data-name="Elipse 9795" cx="106.5" cy="106.5" r="106.5" transform="translate(1003.957 3439)" fill="#fff"/>
    <g id="Layer_42" transform="translate(1014.957 3450.191)">
      <path id="Trazado_689795" data-name="Trazado 689795" d="M91.175,4.968a3.289,3.289,0,0,1,1.046,2.385V183.272a3.286,3.286,0,0,1-3.267,3.267h-.229C41.216,183.076,4,142.984,4,95.312S41.216,7.549,88.724,4.086a3.263,3.263,0,0,1,2.451.882Z" transform="translate(0 0)" fill="#d1d8d5"/>
      <path id="Trazado_689796" data-name="Trazado 689796" d="M33,88.778V7.353a3.3,3.3,0,0,1,3.5-3.267c44.895,3.267,81.2,39.569,84.463,84.463a3.3,3.3,0,0,1-3.267,3.5H36.267A3.277,3.277,0,0,1,33,88.778Z" transform="translate(65.756 0)" fill="#f7df3f"/>
      <path id="Trazado_689797" data-name="Trazado 689797" d="M113.658,34.046a3.218,3.218,0,0,1,.882,2.451A90.242,90.242,0,0,1,92.583,89.4a3.38,3.38,0,0,1-2.353,1.144H90.1a3.436,3.436,0,0,1-2.32-.948l-51-51a3.275,3.275,0,0,1-.686-3.562A3.226,3.226,0,0,1,39.095,33h72.178a3.289,3.289,0,0,1,2.385,1.046Z" transform="translate(72.175 65.58)" fill="#8979f3"/>
      <path id="Trazado_689798" data-name="Trazado 689798" d="M89.592,87.78a3.283,3.283,0,0,1-.2,4.8A90.242,90.242,0,0,1,36.5,114.54h-.229A3.286,3.286,0,0,1,33,111.272V39.095a3.226,3.226,0,0,1,2.026-3.006,3.275,3.275,0,0,1,3.562.686Z" transform="translate(65.756 71.999)" fill="#3e48ac"/>
      <path id="Trazado_689799" data-name="Trazado 689799" d="M35.748,4.086a3.3,3.3,0,0,0-2.418.863c41.431,6.476,73.991,41.2,77.079,83.6a3.3,3.3,0,0,1-3.267,3.5h9.8a3.3,3.3,0,0,0,3.267-3.5C116.944,43.654,80.642,7.353,35.748,4.086Z" transform="translate(66.504 0)" fill="#e4ca18"/>
      <path id="Trazado_689800" data-name="Trazado 689800" d="M79.6,34.046A3.289,3.289,0,0,0,77.211,33h-9.8a3.289,3.289,0,0,1,2.385,1.046,3.218,3.218,0,0,1,.882,2.451,90.108,90.108,0,0,1-19.824,50.23l2.866,2.866a3.436,3.436,0,0,0,2.32.948h.131A3.38,3.38,0,0,0,58.522,89.4,90.242,90.242,0,0,0,80.479,36.5,3.218,3.218,0,0,0,79.6,34.046Z" transform="translate(106.236 65.58)" fill="#604ce3"/>
      <path id="Trazado_689801" data-name="Trazado 689801" d="M89.592,87.78l-51-51a3.275,3.275,0,0,0-3.562-.686A3.226,3.226,0,0,0,33,39.095v1.9L79.79,87.78a3.283,3.283,0,0,1-.2,4.8A90.135,90.135,0,0,1,34.1,113.694a3.283,3.283,0,0,0,2.163.846H36.5A90.242,90.242,0,0,0,89.4,92.583a3.283,3.283,0,0,0,.2-4.8Z" transform="translate(65.756 71.999)" fill="#222b89"/>
      <path id="Trazado_689802" data-name="Trazado 689802" d="M66.068,4.968a3.263,3.263,0,0,0-2.451-.882c-2.127.154-4.225.408-6.306.709V176.737A3.286,3.286,0,0,1,54.044,180h-.229a90.369,90.369,0,0,1-38.742-11.952,90.617,90.617,0,0,0,48.544,18.487h.229a3.286,3.286,0,0,0,3.267-3.267V7.353a3.289,3.289,0,0,0-1.046-2.385Z" transform="translate(25.107 0)" fill="#afb8b6"/>
    </g>
  </g>
</svg>
