<svg xmlns="http://www.w3.org/2000/svg" width="213" height="213" viewBox="0 0 213 213">
  <g id="Grupo_1073030" data-name="Grupo 1073030" transform="translate(-383.957 -4061)">
    <circle id="Elipse_9797" data-name="Elipse 9797" cx="106.5" cy="106.5" r="106.5" transform="translate(383.957 4061)" fill="#fff"/>
    <g id="Layer_x0020_1" transform="translate(396.925 4073.967)">
      <circle id="Elipse_4925" data-name="Elipse 4925" cx="91.5" cy="91.5" r="91.5" transform="translate(2.032 2.032)" fill="#f7df3f"/>
      <g id="_221252168" transform="translate(34.449 35.932)">
        <path id="_221254136" d="M148.095,35.98h0ZM34.608,146.02H147.613V35.98H34.608Zm113.487,2.58H34.125a2.1,2.1,0,0,1-2.1-2.1V35.5a2.1,2.1,0,0,1,2.1-2.1h113.97a2.1,2.1,0,0,1,2.1,2.1V146.5a2.1,2.1,0,0,1-2.1,2.1Z" transform="translate(-32.028 -33.4)" fill="#12263f" fill-rule="evenodd"/>
        <path id="_221253776" d="M148.9,51.918H33.318a1.29,1.29,0,1,1,0-2.58H148.9a1.29,1.29,0,0,1,0,2.58Z" transform="translate(-32.028 -32.114)" fill="#12263f" fill-rule="evenodd"/>
        <path id="_221253800" d="M66.358,63.849A2.763,2.763,0,0,0,63.6,66.608v9.775a2.759,2.759,0,0,0,5.517,0V66.608a2.763,2.763,0,0,0-2.76-2.759Zm0,17.872a5.344,5.344,0,0,1-5.337-5.338V66.608a5.338,5.338,0,0,1,10.677,0v9.775A5.344,5.344,0,0,1,66.358,81.721Z" transform="translate(-29.688 -31.151)" fill="#12263f" fill-rule="evenodd"/>
        <path id="_221253920" d="M50.939,81.721a1.29,1.29,0,0,1-1.29-1.29V62.559a1.29,1.29,0,0,1,2.58,0V80.431a1.291,1.291,0,0,1-1.29,1.29Z" transform="translate(-30.606 -31.151)" fill="#12263f" fill-rule="evenodd"/>
        <path id="_221254088" d="M85.223,63.849a2.761,2.761,0,0,0-2.758,2.759v9.775a2.758,2.758,0,1,0,5.517,0V66.608a2.763,2.763,0,0,0-2.76-2.759Zm0,17.872a5.344,5.344,0,0,1-5.338-5.338V66.608a5.338,5.338,0,0,1,10.677,0v9.775a5.345,5.345,0,0,1-5.34,5.338Z" transform="translate(-28.166 -31.151)" fill="#12263f" fill-rule="evenodd"/>
        <path id="_221253992" d="M104.087,63.849a2.761,2.761,0,0,0-2.757,2.759v9.775a2.759,2.759,0,0,0,5.517,0V66.608a2.762,2.762,0,0,0-2.758-2.758Zm0,17.872a5.345,5.345,0,0,1-5.34-5.338V66.608a5.338,5.338,0,0,1,10.677,0v9.775A5.344,5.344,0,0,1,104.09,81.721Z" transform="translate(-26.643 -31.151)" fill="#12263f" fill-rule="evenodd"/>
        <path id="_221253944" d="M122.951,63.849a2.761,2.761,0,0,0-2.758,2.759v9.775a2.758,2.758,0,0,0,5.517,0V66.608a2.763,2.763,0,0,0-2.76-2.759Zm0,17.872a5.344,5.344,0,0,1-5.338-5.338V66.608a5.338,5.338,0,0,1,10.677,0v9.775A5.345,5.345,0,0,1,122.951,81.721Z" transform="translate(-25.121 -31.151)" fill="#12263f" fill-rule="evenodd"/>
        <path id="_221253704" d="M66.056,105.54a1.29,1.29,0,0,1-1.29-1.29V86.379a1.29,1.29,0,1,1,2.58,0V104.25A1.288,1.288,0,0,1,66.056,105.54Z" transform="translate(-29.386 -29.228)" fill="#12263f" fill-rule="evenodd"/>
        <path id="_221254208" d="M85.223,87.668a2.761,2.761,0,0,0-2.758,2.759V100.2a2.758,2.758,0,1,0,5.517,0V90.427a2.763,2.763,0,0,0-2.76-2.759Zm0,17.872a5.344,5.344,0,0,1-5.338-5.338V90.427a5.338,5.338,0,1,1,10.677,0V100.2a5.345,5.345,0,0,1-5.34,5.338Z" transform="translate(-28.166 -29.228)" fill="#12263f" fill-rule="evenodd"/>
        <path id="_221254256" d="M104.087,87.668a2.761,2.761,0,0,0-2.757,2.759V100.2a2.759,2.759,0,0,0,5.517,0V90.427a2.763,2.763,0,0,0-2.758-2.759Zm0,17.872a5.345,5.345,0,0,1-5.34-5.338V90.427a5.338,5.338,0,1,1,10.677,0V100.2a5.344,5.344,0,0,1-5.337,5.338Z" transform="translate(-26.643 -29.228)" fill="#12263f" fill-rule="evenodd"/>
        <path id="_221253416" d="M51.241,87.668a2.763,2.763,0,0,0-2.76,2.759V100.2a2.758,2.758,0,1,0,5.517,0V90.427A2.761,2.761,0,0,0,51.241,87.668Zm0,17.872A5.347,5.347,0,0,1,45.9,100.2V90.427a5.338,5.338,0,1,1,10.677,0V100.2a5.344,5.344,0,0,1-5.337,5.338Z" transform="translate(-30.908 -29.228)" fill="#12263f" fill-rule="evenodd"/>
        <path id="_221252960" d="M122.648,105.54a1.29,1.29,0,0,1-1.29-1.29V86.379a1.29,1.29,0,1,1,2.58,0V104.25a1.288,1.288,0,0,1-1.29,1.29Z" transform="translate(-24.818 -29.228)" fill="#12263f" fill-rule="evenodd"/>
        <path id="_221253056" d="M66.358,111.488a2.763,2.763,0,0,0-2.758,2.759v9.775a2.759,2.759,0,0,0,5.517,0v-9.775A2.764,2.764,0,0,0,66.358,111.488Zm0,17.872a5.344,5.344,0,0,1-5.337-5.338v-9.775a5.338,5.338,0,1,1,10.677,0v9.775A5.345,5.345,0,0,1,66.358,129.36Z" transform="translate(-29.688 -27.306)" fill="#12263f" fill-rule="evenodd"/>
        <path id="_221253200" d="M85.223,111.488a2.761,2.761,0,0,0-2.758,2.759v9.775a2.758,2.758,0,1,0,5.517,0v-9.775a2.763,2.763,0,0,0-2.76-2.759Zm0,17.872a5.344,5.344,0,0,1-5.338-5.338v-9.775a5.338,5.338,0,0,1,10.677,0v9.775a5.345,5.345,0,0,1-5.34,5.339Z" transform="translate(-28.166 -27.306)" fill="#12263f" fill-rule="evenodd"/>
        <path id="_221253248" d="M122.951,111.488a2.761,2.761,0,0,0-2.758,2.759v9.775a2.758,2.758,0,1,0,5.517,0v-9.775a2.763,2.763,0,0,0-2.76-2.759Zm0,17.872a5.344,5.344,0,0,1-5.338-5.338v-9.775a5.338,5.338,0,0,1,10.677,0v9.775A5.345,5.345,0,0,1,122.951,129.36Z" transform="translate(-25.121 -27.306)" fill="#12263f" fill-rule="evenodd"/>
        <path id="_221253152" d="M51.241,111.488a2.763,2.763,0,0,0-2.76,2.759v9.775a2.758,2.758,0,1,0,5.517,0v-9.775A2.761,2.761,0,0,0,51.241,111.488Zm0,17.872a5.347,5.347,0,0,1-5.34-5.338v-9.775a5.338,5.338,0,1,1,10.677,0v9.775a5.344,5.344,0,0,1-5.337,5.339Z" transform="translate(-30.908 -27.306)" fill="#12263f" fill-rule="evenodd"/>
        <path id="_221253224" d="M103.787,129.593a1.288,1.288,0,0,1-1.29-1.29V110.431a1.289,1.289,0,1,1,2.577,0V128.3A1.288,1.288,0,0,1,103.787,129.593Z" transform="translate(-26.341 -27.287)" fill="#12263f" fill-rule="evenodd"/>
        <path id="_221253536" d="M49.957,43.949H42.131a1.29,1.29,0,1,1,0-2.58h7.826a1.29,1.29,0,1,1,0,2.58Z" transform="translate(-31.317 -32.757)" fill="#12263f" fill-rule="evenodd"/>
        <path id="_221253272" d="M64.951,43.949H57.129a1.29,1.29,0,1,1,0-2.58h7.823a1.29,1.29,0,1,1,0,2.58Z" transform="translate(-30.106 -32.757)" fill="#12263f" fill-rule="evenodd"/>
        <path id="_221253608" d="M79.949,43.949H72.126a1.29,1.29,0,1,1,0-2.58h7.823a1.29,1.29,0,0,1,0,2.58Z" transform="translate(-28.896 -32.757)" fill="#12263f" fill-rule="evenodd"/>
      </g>
    </g>
  </g>
</svg>
