<svg xmlns="http://www.w3.org/2000/svg" width="326.66" height="201.131" viewBox="0 0 326.66 201.131">
  <g id="Grupo_1075000" data-name="Grupo 1075000" transform="translate(3283 -16387.91)">
    <g id="LAPTOP" transform="translate(-3261.191 16426.398)">
      <g id="Grupo_1073802" data-name="Grupo 1073802" transform="translate(0 0)">
        <path id="Trazado_821149" data-name="Trazado 821149" d="M978.593,518.04H738.449a8.029,8.029,0,0,0-8.029,8.029V668.628h256.2V526.069A8.029,8.029,0,0,0,978.593,518.04Z" transform="translate(-713.141 -518.04)" fill="#1f4168"/>
        <rect id="Rectángulo_376486" data-name="Rectángulo 376486" width="244.762" height="136.643" transform="translate(22.999 6.972)" fill="#fff"/>
        <path id="Trazado_821150" data-name="Trazado 821150" d="M610.9,1598.37H892.784a4.439,4.439,0,0,1,4.437,4.437h0a7.41,7.41,0,0,1-7.407,7.407H613.867a7.41,7.41,0,0,1-7.407-7.407h0A4.439,4.439,0,0,1,610.9,1598.37Z" transform="translate(-606.46 -1447.782)" fill="#1f4168"/>
        <path id="Trazado_821151" data-name="Trazado 821151" d="M1392.668,1601.31h66.5a2.95,2.95,0,0,0,2.949-2.949h-72.4a2.949,2.949,0,0,0,2.949,2.949Z" transform="translate(-1280.541 -1447.773)" fill="#1b1a2e"/>
        <g id="Grupo_1073801" data-name="Grupo 1073801" transform="translate(17.28 155.534)">
          <path id="Trazado_821152" data-name="Trazado 821152" d="M730.954,1635.65h0a.523.523,0,0,1-.524-.524v-.751a.524.524,0,0,1,.524-.524h0a.524.524,0,0,1,.524.524v.751A.523.523,0,0,1,730.954,1635.65Z" transform="translate(-730.43 -1633.85)" fill="#f9a21b"/>
          <path id="Trazado_821153" data-name="Trazado 821153" d="M753.324,1635.65h0a.523.523,0,0,1-.524-.524v-.751a.524.524,0,0,1,.524-.524h0a.524.524,0,0,1,.524.524v.751A.523.523,0,0,1,753.324,1635.65Z" transform="translate(-749.682 -1633.85)" fill="#f9a21b"/>
          <rect id="Rectángulo_376487" data-name="Rectángulo 376487" width="1.048" height="1.8" rx="0.524" transform="translate(6.235)" fill="#f9a21b"/>
        </g>
      </g>
    </g>
    <g id="Grupo_1073827" data-name="Grupo 1073827" transform="translate(-3283 16387.91)">
      <g id="Grupo_1073804" data-name="Grupo 1073804" transform="translate(133.457 157.421)">
        <path id="Trazado_821157" data-name="Trazado 821157" d="M1536.983,1371.3a5.86,5.86,0,0,1,5.86,5.86h0a5.86,5.86,0,0,1-5.86,5.86H1413.325a5.86,5.86,0,0,1-5.86-5.86h0a5.859,5.859,0,0,1,5.86-5.86h123.658m0-.035H1413.325a5.895,5.895,0,0,0,0,11.79h123.658a5.895,5.895,0,0,0,0-11.79Z" transform="translate(-1407.43 -1371.26)" fill="#1f4168"/>
        <path id="Trazado_821158" data-name="Trazado 821158" d="M2328.562,1398.825l-3.822,2.386v-2l1.242-.386-1.242-.387v-2Z" transform="translate(-2196.875 -1392.93)" fill="#222b89"/>
        <path id="Trazado_821159" data-name="Trazado 821159" d="M1492.155,1405.862h-49.149a1.485,1.485,0,0,1-1.486-1.486h0a1.485,1.485,0,0,1,1.486-1.486h49.149a1.485,1.485,0,0,1,1.486,1.486h0A1.485,1.485,0,0,1,1492.155,1405.862Z" transform="translate(-1436.768 -1398.481)" fill="#f0f2f5"/>
      </g>
      <g id="Grupo_1073826" data-name="Grupo 1073826" transform="translate(141.434 0)">
        <g id="Grupo_1073824" data-name="Grupo 1073824" transform="translate(63.83)">
          <path id="Trazado_821257" data-name="Trazado 821257" d="M2314.595,241.91h0a1.5,1.5,0,0,1,1.494,1.494v24.108a1.5,1.5,0,0,1-1.494,1.494h0a1.494,1.494,0,0,1-1.494-1.494V243.4A1.494,1.494,0,0,1,2314.595,241.91Z" transform="translate(-2258.666 -241.91)" fill="#222b89"/>
          <path id="Trazado_821258" data-name="Trazado 821258" d="M2249.5,289.35h0a1.5,1.5,0,0,1,1.494,1.494v17.495a1.5,1.5,0,0,1-1.494,1.494h0a1.5,1.5,0,0,1-1.494-1.494V290.844A1.5,1.5,0,0,1,2249.5,289.35Z" transform="translate(-2202.648 -282.737)" fill="#222b89"/>
          <path id="Trazado_821259" data-name="Trazado 821259" d="M2184.425,356.2h0a1.494,1.494,0,0,1,1.494,1.494v8.177a1.494,1.494,0,0,1-1.494,1.494h0a1.494,1.494,0,0,1-1.494-1.494v-8.177A1.494,1.494,0,0,1,2184.425,356.2Z" transform="translate(-2146.64 -340.269)" fill="#222b89"/>
          <path id="Trazado_821260" data-name="Trazado 821260" d="M2119.335,340.87h0a1.494,1.494,0,0,1,1.494,1.494v10.314a1.494,1.494,0,0,1-1.494,1.494h0a1.5,1.5,0,0,1-1.495-1.494V342.364A1.5,1.5,0,0,1,2119.335,340.87Z" transform="translate(-2090.623 -327.076)" fill="#222b89"/>
          <path id="Trazado_821261" data-name="Trazado 821261" d="M2054.245,375.57h0a1.5,1.5,0,0,1,1.494,1.494v5.477a1.5,1.5,0,0,1-1.494,1.494h0a1.494,1.494,0,0,1-1.495-1.494v-5.477A1.494,1.494,0,0,1,2054.245,375.57Z" transform="translate(-2034.606 -356.939)" fill="#222b89"/>
          <rect id="Rectángulo_376502" data-name="Rectángulo 376502" width="2.989" height="17.887" rx="1.494" transform="translate(9.072 9.21)" fill="#222b89"/>
          <path id="Trazado_821262" data-name="Trazado 821262" d="M1924.074,387.05h0a1.494,1.494,0,0,1,1.494,1.494v3.876a1.494,1.494,0,0,1-1.494,1.494h0a1.494,1.494,0,0,1-1.494-1.494v-3.876A1.494,1.494,0,0,1,1924.074,387.05Z" transform="translate(-1922.58 -366.819)" fill="#222b89"/>
        </g>
        <g id="Grupo_1073825" data-name="Grupo 1073825" transform="translate(0 9.21)">
          <path id="Trazado_821263" data-name="Trazado 821263" d="M1856.684,327.11h0a1.494,1.494,0,0,1,1.494,1.494v12.232a1.494,1.494,0,0,1-1.494,1.494h0a1.5,1.5,0,0,1-1.494-1.494V328.6A1.494,1.494,0,0,1,1856.684,327.11Z" transform="translate(-1800.754 -324.443)" fill="#222b89"/>
          <path id="Trazado_821264" data-name="Trazado 821264" d="M1791.594,374.56h0a1.494,1.494,0,0,1,1.494,1.494v5.617a1.494,1.494,0,0,1-1.494,1.494h0a1.494,1.494,0,0,1-1.494-1.494v-5.617A1.494,1.494,0,0,1,1791.594,374.56Z" transform="translate(-1744.737 -365.279)" fill="#222b89"/>
          <path id="Trazado_821265" data-name="Trazado 821265" d="M1726.5,356.2h0a1.494,1.494,0,0,1,1.494,1.494v8.177a1.494,1.494,0,0,1-1.494,1.494h0a1.5,1.5,0,0,1-1.494-1.494v-8.177A1.5,1.5,0,0,1,1726.5,356.2Z" transform="translate(-1688.72 -349.479)" fill="#222b89"/>
          <rect id="Rectángulo_376503" data-name="Rectángulo 376503" width="2.989" height="13.302" rx="1.494" transform="translate(27.217 4.585)" fill="#222b89"/>
          <path id="Trazado_821266" data-name="Trazado 821266" d="M1596.335,375.57h0a1.494,1.494,0,0,1,1.494,1.494v5.477a1.494,1.494,0,0,1-1.494,1.494h0a1.494,1.494,0,0,1-1.494-1.494v-5.477A1.494,1.494,0,0,1,1596.335,375.57Z" transform="translate(-1576.694 -366.149)" fill="#222b89"/>
          <rect id="Rectángulo_376504" data-name="Rectángulo 376504" width="2.989" height="17.887" rx="1.494" transform="translate(9.073)" fill="#222b89"/>
          <path id="Trazado_821267" data-name="Trazado 821267" d="M1466.155,387.05h0a1.494,1.494,0,0,1,1.494,1.494v3.876a1.494,1.494,0,0,1-1.494,1.494h0a1.494,1.494,0,0,1-1.494-1.494v-3.876A1.494,1.494,0,0,1,1466.155,387.05Z" transform="translate(-1464.66 -376.028)" fill="#222b89"/>
        </g>
      </g>
      <g id="Grupo_1073829" data-name="Grupo 1073829" transform="translate(98.785 56.674)">
        <g id="Grupo_1073829-2" data-name="Grupo 1073829" transform="translate(0 0)">
          <path id="Trazado_821274" data-name="Trazado 821274" d="M40.869,238.056H39.417a1.452,1.452,0,0,1,0-2.9h1.452a1.452,1.452,0,0,1,0,2.9" transform="translate(-37.965 -171.739)" fill="#1f4168"/>
          <path id="Trazado_821276" data-name="Trazado 821276" d="M40.869,284.932H39.417a1.452,1.452,0,1,1,0-2.9h1.452a1.452,1.452,0,1,1,0,2.9" transform="translate(-37.965 -205.933)" fill="#1f4168"/>
          <path id="Trazado_821280" data-name="Trazado 821280" d="M40.869,73.988H39.417a1.452,1.452,0,1,1,0-2.9h1.452a1.452,1.452,0,1,1,0,2.9" transform="translate(-37.965 -52.06)" fill="#222b89"/>
          <path id="Trazado_821281" data-name="Trazado 821281" d="M40.869,97.426H39.417a1.452,1.452,0,1,1,0-2.9h1.452a1.452,1.452,0,1,1,0,2.9" transform="translate(-37.965 -69.157)" fill="#222b89"/>
          <path id="Trazado_821283" data-name="Trazado 821283" d="M40.869,144.3H39.417a1.452,1.452,0,1,1,0-2.9h1.452a1.452,1.452,0,1,1,0,2.9" transform="translate(-37.965 -103.351)" fill="#222b89"/>
          <path id="Trazado_821284" data-name="Trazado 821284" d="M40.869,167.741H39.417a1.452,1.452,0,1,1,0-2.9h1.452a1.452,1.452,0,1,1,0,2.9" transform="translate(-37.965 -120.448)" fill="#222b89"/>
          <path id="Trazado_821285" data-name="Trazado 821285" d="M96.649,3.673H95.2a1.452,1.452,0,0,1,0-2.9h1.452a1.452,1.452,0,0,1,0,2.9" transform="translate(-78.654 -0.769)" fill="#222b89"/>
          <path id="Trazado_821286" data-name="Trazado 821286" d="M96.649,27.111H95.2a1.452,1.452,0,0,1,0-2.9h1.452a1.452,1.452,0,0,1,0,2.9" transform="translate(-78.654 -17.866)" fill="#222b89"/>
          <path id="Trazado_821287" data-name="Trazado 821287" d="M164.672,3.673H145.637a1.452,1.452,0,0,1,0-2.9h19.035a1.452,1.452,0,0,1,0,2.9" transform="translate(-115.447 -0.769)" fill="#222b89"/>
          <path id="Trazado_821288" data-name="Trazado 821288" d="M177.841,27.111h-32.2a1.452,1.452,0,0,1,0-2.9h32.2a1.452,1.452,0,1,1,0,2.9" transform="translate(-115.447 -17.866)" fill="#222b89"/>
          <path id="Trazado_821289" data-name="Trazado 821289" d="M240.214,3.673h-4.041a1.452,1.452,0,1,1,0-2.9h4.041a1.452,1.452,0,0,1,0,2.9" transform="translate(-181.489 -0.769)" fill="#f0f2f5"/>
          <path id="Trazado_821290" data-name="Trazado 821290" d="M287.684,27.111h-2.567a1.452,1.452,0,1,1,0-2.9h2.567a1.452,1.452,0,1,1,0,2.9" transform="translate(-217.191 -17.866)" fill="#1f4168"/>
          <path id="Trazado_821291" data-name="Trazado 821291" d="M301.076,3.673h-29.52a1.452,1.452,0,0,1,0-2.9h29.52a1.452,1.452,0,0,1,0,2.9" transform="translate(-207.299 -0.769)" fill="#f0f2f5"/>
          <path id="Trazado_821292" data-name="Trazado 821292" d="M325.674,27.111h-10.62a1.452,1.452,0,1,1,0-2.9h10.62a1.452,1.452,0,0,1,0,2.9" transform="translate(-239.028 -17.866)" fill="#1f4168"/>
          <path id="Trazado_821293" data-name="Trazado 821293" d="M96.649,50.549H95.2a1.452,1.452,0,0,1,0-2.9h1.452a1.452,1.452,0,0,1,0,2.9" transform="translate(-78.654 -34.962)" fill="#222b89"/>
          <path id="Trazado_821294" data-name="Trazado 821294" d="M163.894,50.549H145.637a1.452,1.452,0,0,1,0-2.9h18.257a1.452,1.452,0,0,1,0,2.9" transform="translate(-115.447 -34.962)" fill="#f0f2f5"/>
          <path id="Trazado_821295" data-name="Trazado 821295" d="M266.38,50.549H233.567a1.452,1.452,0,0,1,0-2.9H266.38a1.452,1.452,0,1,1,0,2.9" transform="translate(-179.588 -34.962)" fill="#1f4168"/>
          <path id="Trazado_821296" data-name="Trazado 821296" d="M376.752,50.549H375.3a1.452,1.452,0,0,1,0-2.9h1.452a1.452,1.452,0,1,1,0,2.9" transform="translate(-282.975 -34.962)" fill="#f0f2f5"/>
          <path id="Trazado_821297" data-name="Trazado 821297" d="M96.649,73.988H95.2a1.452,1.452,0,0,1,0-2.9h1.452a1.452,1.452,0,0,1,0,2.9" transform="translate(-78.654 -52.06)" fill="#f0f2f5"/>
          <path id="Trazado_821298" data-name="Trazado 821298" d="M156,73.988H145.637a1.452,1.452,0,0,1,0-2.9H156a1.452,1.452,0,0,1,0,2.9" transform="translate(-115.447 -52.06)" fill="#222b89"/>
          <path id="Trazado_821299" data-name="Trazado 821299" d="M234.476,73.988H204.371a1.452,1.452,0,1,1,0-2.9h30.105a1.452,1.452,0,1,1,0,2.9" transform="translate(-158.291 -52.06)" fill="#222b89"/>
          <path id="Trazado_821300" data-name="Trazado 821300" d="M343.8,73.988h-7.7a1.452,1.452,0,1,1,0-2.9h7.7a1.452,1.452,0,1,1,0,2.9" transform="translate(-254.376 -52.06)" fill="#222b89"/>
          <path id="Trazado_821301" data-name="Trazado 821301" d="M96.649,97.426H95.2a1.452,1.452,0,0,1,0-2.9h1.452a1.452,1.452,0,0,1,0,2.9" transform="translate(-78.654 -69.157)" fill="#222b89"/>
          <path id="Trazado_821302" data-name="Trazado 821302" d="M177.841,97.426h-32.2a1.452,1.452,0,0,1,0-2.9h32.2a1.452,1.452,0,1,1,0,2.9" transform="translate(-115.447 -69.157)" fill="#f0f2f5"/>
          <path id="Trazado_821303" data-name="Trazado 821303" d="M293.376,97.426h-8.259a1.452,1.452,0,1,1,0-2.9h8.259a1.452,1.452,0,0,1,0,2.9" transform="translate(-217.191 -69.157)" fill="#222b89"/>
          <path id="Trazado_821304" data-name="Trazado 821304" d="M337.546,97.426h-1.452a1.452,1.452,0,1,1,0-2.9h1.452a1.452,1.452,0,1,1,0,2.9" transform="translate(-254.376 -69.157)" fill="#222b89"/>
          <path id="Trazado_821305" data-name="Trazado 821305" d="M96.649,120.864H95.2a1.452,1.452,0,0,1,0-2.9h1.452a1.452,1.452,0,0,1,0,2.9" transform="translate(-78.654 -86.254)" fill="#222b89"/>
          <path id="Trazado_821306" data-name="Trazado 821306" d="M167.546,120.864H145.636a1.452,1.452,0,1,1,0-2.9h21.911a1.452,1.452,0,0,1,0,2.9" transform="translate(-115.446 -86.254)" fill="#1f4168"/>
          <path id="Trazado_821307" data-name="Trazado 821307" d="M254.956,120.864H247.07a1.452,1.452,0,0,1,0-2.9h7.886a1.452,1.452,0,0,1,0,2.9" transform="translate(-189.437 -86.254)" fill="#222b89"/>
          <path id="Trazado_821308" data-name="Trazado 821308" d="M308.784,120.864H296.665a1.452,1.452,0,0,1,0-2.9h12.119a1.452,1.452,0,0,1,0,2.9" transform="translate(-225.614 -86.254)" fill="#222b89"/>
          <path id="Trazado_821309" data-name="Trazado 821309" d="M96.649,144.3H95.2a1.452,1.452,0,0,1,0-2.9h1.452a1.452,1.452,0,0,1,0,2.9" transform="translate(-78.654 -103.351)" fill="#222b89"/>
          <path id="Trazado_821310" data-name="Trazado 821310" d="M177.841,144.3h-32.2a1.452,1.452,0,0,1,0-2.9h32.2a1.452,1.452,0,1,1,0,2.9" transform="translate(-115.447 -103.351)" fill="#1f4168"/>
          <path id="Trazado_821311" data-name="Trazado 821311" d="M293.376,144.3h-8.259a1.452,1.452,0,1,1,0-2.9h8.259a1.452,1.452,0,0,1,0,2.9" transform="translate(-217.191 -103.351)" fill="#f0f2f5"/>
          <path id="Trazado_821312" data-name="Trazado 821312" d="M337.546,144.3h-1.452a1.452,1.452,0,1,1,0-2.9h1.452a1.452,1.452,0,1,1,0,2.9" transform="translate(-254.376 -103.351)" fill="#1f4168"/>
          <path id="Trazado_821313" data-name="Trazado 821313" d="M96.649,167.741H95.2a1.452,1.452,0,0,1,0-2.9h1.452a1.452,1.452,0,0,1,0,2.9" transform="translate(-78.654 -120.448)" fill="#222b89"/>
          <path id="Trazado_821314" data-name="Trazado 821314" d="M160.59,167.741H145.636a1.452,1.452,0,1,1,0-2.9H160.59a1.452,1.452,0,0,1,0,2.9" transform="translate(-115.446 -120.448)" fill="#222b89"/>
          <path id="Trazado_821315" data-name="Trazado 821315" d="M235.537,167.741H221.36a1.452,1.452,0,1,1,0-2.9h14.177a1.452,1.452,0,0,1,0,2.9" transform="translate(-170.683 -120.448)" fill="#222b89"/>
          <path id="Trazado_821316" data-name="Trazado 821316" d="M306.993,167.741H294.209a1.452,1.452,0,0,1,0-2.9h12.784a1.452,1.452,0,0,1,0,2.9" transform="translate(-223.823 -120.448)" fill="#222b89"/>
          <path id="Trazado_821317" data-name="Trazado 821317" d="M96.649,191.179H95.2a1.452,1.452,0,0,1,0-2.9h1.452a1.452,1.452,0,1,1,0,2.9" transform="translate(-78.654 -137.545)" fill="#f0f2f5"/>
          <path id="Trazado_821318" data-name="Trazado 821318" d="M163.954,191.179H145.637a1.452,1.452,0,1,1,0-2.9h18.317a1.452,1.452,0,0,1,0,2.9" transform="translate(-115.447 -137.545)" fill="#f0f2f5"/>
          <path id="Trazado_821319" data-name="Trazado 821319" d="M235.93,191.179h-2.141a1.452,1.452,0,1,1,0-2.9h2.141a1.452,1.452,0,1,1,0,2.9" transform="translate(-179.75 -137.545)" fill="#1f4168"/>
          <path id="Trazado_821320" data-name="Trazado 821320" d="M283.609,191.179H262.153a1.452,1.452,0,0,1,0-2.9h21.457a1.452,1.452,0,1,1,0,2.9" transform="translate(-200.44 -137.545)" fill="#f0f2f5"/>
          <path id="Trazado_821321" data-name="Trazado 821321" d="M96.649,214.617H95.2a1.452,1.452,0,1,1,0-2.9h1.452a1.452,1.452,0,1,1,0,2.9" transform="translate(-78.654 -154.642)" fill="#222b89"/>
          <path id="Trazado_821322" data-name="Trazado 821322" d="M155.159,214.617h-9.523a1.452,1.452,0,1,1,0-2.9h9.523a1.452,1.452,0,1,1,0,2.9" transform="translate(-115.446 -154.642)" fill="#222b89"/>
          <path id="Trazado_821323" data-name="Trazado 821323" d="M218.025,214.617H201.284a1.452,1.452,0,1,1,0-2.9h16.741a1.452,1.452,0,1,1,0,2.9" transform="translate(-156.039 -154.642)" fill="#1f4168"/>
          <path id="Trazado_821324" data-name="Trazado 821324" d="M299.262,214.617H283.611a1.452,1.452,0,1,1,0-2.9h15.651a1.452,1.452,0,1,1,0,2.9" transform="translate(-216.092 -154.642)" fill="#222b89"/>
          <path id="Trazado_821325" data-name="Trazado 821325" d="M96.649,238.056H95.2a1.452,1.452,0,0,1,0-2.9h1.452a1.452,1.452,0,0,1,0,2.9" transform="translate(-78.654 -171.739)" fill="#222b89"/>
          <path id="Trazado_821326" data-name="Trazado 821326" d="M163.044,238.056H145.636a1.452,1.452,0,0,1,0-2.9h17.408a1.452,1.452,0,0,1,0,2.9" transform="translate(-115.446 -171.739)" fill="#222b89"/>
          <path id="Trazado_821327" data-name="Trazado 821327" d="M232.026,238.056h-1.6a1.452,1.452,0,0,1,0-2.9h1.6a1.452,1.452,0,0,1,0,2.9" transform="translate(-177.297 -171.739)" fill="#222b89"/>
          <path id="Trazado_821328" data-name="Trazado 821328" d="M279.7,238.056H256.787a1.452,1.452,0,1,1,0-2.9H279.7a1.452,1.452,0,0,1,0,2.9" transform="translate(-196.525 -171.739)" fill="#f0f2f5"/>
          <path id="Trazado_821329" data-name="Trazado 821329" d="M96.649,261.494H95.2a1.452,1.452,0,1,1,0-2.9h1.452a1.452,1.452,0,1,1,0,2.9" transform="translate(-78.654 -188.836)" fill="#222b89"/>
          <path id="Trazado_821330" data-name="Trazado 821330" d="M163.825,261.494H145.636a1.452,1.452,0,1,1,0-2.9h18.189a1.452,1.452,0,1,1,0,2.9" transform="translate(-115.446 -188.836)" fill="#f0f2f5"/>
          <path id="Trazado_821331" data-name="Trazado 821331" d="M241.573,261.494h-8.259a1.452,1.452,0,1,1,0-2.9h8.259a1.452,1.452,0,1,1,0,2.9" transform="translate(-179.403 -188.836)" fill="#222b89"/>
          <path id="Trazado_821332" data-name="Trazado 821332" d="M307.461,261.494H284.29a1.452,1.452,0,1,1,0-2.9h23.171a1.452,1.452,0,1,1,0,2.9" transform="translate(-216.587 -188.836)" fill="#f0f2f5"/>
          <path id="Trazado_821333" data-name="Trazado 821333" d="M96.649,284.932H95.2a1.452,1.452,0,1,1,0-2.9h1.452a1.452,1.452,0,1,1,0,2.9" transform="translate(-78.654 -205.933)" fill="#222b89"/>
          <path id="Trazado_821334" data-name="Trazado 821334" d="M156.474,284.932H145.637a1.452,1.452,0,1,1,0-2.9h10.837a1.452,1.452,0,1,1,0,2.9" transform="translate(-115.447 -205.933)" fill="#222b89"/>
          <path id="Trazado_821335" data-name="Trazado 821335" d="M246.239,284.932h-40.1a1.452,1.452,0,1,1,0-2.9h40.1a1.452,1.452,0,0,1,0,2.9" transform="translate(-159.583 -205.933)" fill="#1f4168"/>
          <path id="Trazado_821336" data-name="Trazado 821336" d="M376.244,284.932h-1.452a1.452,1.452,0,0,1,0-2.9h1.452a1.452,1.452,0,1,1,0,2.9" transform="translate(-282.604 -205.933)" fill="#1f4168"/>
          <path id="Trazado_821337" data-name="Trazado 821337" d="M96.649,308.371H95.2a1.452,1.452,0,1,1,0-2.9h1.452a1.452,1.452,0,1,1,0,2.9" transform="translate(-78.654 -223.031)" fill="#222b89"/>
          <path id="Trazado_821338" data-name="Trazado 821338" d="M177.841,308.371h-32.2a1.452,1.452,0,1,1,0-2.9h32.2a1.452,1.452,0,1,1,0,2.9" transform="translate(-115.447 -223.031)" fill="#222b89"/>
          <path id="Trazado_821339" data-name="Trazado 821339" d="M287.795,308.371h-2.678a1.452,1.452,0,1,1,0-2.9h2.678a1.452,1.452,0,0,1,0,2.9" transform="translate(-217.191 -223.031)" fill="#1f4168"/>
          <path id="Trazado_821340" data-name="Trazado 821340" d="M322.5,308.371h-7.033a1.452,1.452,0,0,1,0-2.9H322.5a1.452,1.452,0,0,1,0,2.9" transform="translate(-239.327 -223.031)" fill="#222b89"/>
          <path id="Trazado_821341" data-name="Trazado 821341" d="M96.649,331.809H95.2a1.452,1.452,0,0,1,0-2.9h1.452a1.452,1.452,0,0,1,0,2.9" transform="translate(-78.654 -240.128)" fill="#222b89"/>
          <path id="Trazado_821342" data-name="Trazado 821342" d="M170.72,331.809H145.636a1.452,1.452,0,1,1,0-2.9H170.72a1.452,1.452,0,1,1,0,2.9" transform="translate(-115.446 -240.128)" fill="#f0f2f5"/>
          <path id="Trazado_821343" data-name="Trazado 821343" d="M283.673,331.809H258.8a1.452,1.452,0,1,1,0-2.9h24.871a1.452,1.452,0,0,1,0,2.9" transform="translate(-197.995 -240.128)" fill="#1f4168"/>
          <path id="Trazado_821344" data-name="Trazado 821344" d="M372.631,331.809h-1.452a1.452,1.452,0,1,1,0-2.9h1.452a1.452,1.452,0,0,1,0,2.9" transform="translate(-279.969 -240.128)" fill="#222b89"/>
        </g>
        <g id="Grupo_1073830" data-name="Grupo 1073830" transform="translate(97.75 0)">
          <path id="Trazado_821285-2" data-name="Trazado 821285" d="M95.2,3.673h1.452a1.452,1.452,0,0,0,0-2.9H95.2a1.452,1.452,0,0,0,0,2.9" transform="translate(-17.963 -0.769)" fill="#222b89"/>
          <path id="Trazado_821286-2" data-name="Trazado 821286" d="M95.2,27.111h1.452a1.452,1.452,0,0,0,0-2.9H95.2a1.452,1.452,0,1,0,0,2.9" transform="translate(-17.963 -17.866)" fill="#222b89"/>
          <path id="Trazado_821287-2" data-name="Trazado 821287" d="M145.637,3.673h19.035a1.452,1.452,0,0,0,0-2.9H145.637a1.452,1.452,0,0,0,0,2.9" transform="translate(-99.633 -0.769)" fill="#222b89"/>
          <path id="Trazado_821288-2" data-name="Trazado 821288" d="M145.637,27.111h32.2a1.452,1.452,0,0,0,0-2.9h-32.2a1.452,1.452,0,0,0,0,2.9" transform="translate(-112.802 -17.866)" fill="#222b89"/>
          <path id="Trazado_821289-2" data-name="Trazado 821289" d="M236.173,3.673h4.041a1.452,1.452,0,1,0,0-2.9h-4.041a1.452,1.452,0,0,0,0,2.9" transform="translate(-199.669 -0.769)" fill="#f0f2f5"/>
          <path id="Trazado_821290-2" data-name="Trazado 821290" d="M285.117,27.111h2.567a1.452,1.452,0,0,0,0-2.9h-2.567a1.452,1.452,0,1,0,0,2.9" transform="translate(-260.381 -17.866)" fill="#1f4168"/>
          <path id="Trazado_821291-2" data-name="Trazado 821291" d="M271.557,3.673h29.52a1.452,1.452,0,0,0,0-2.9h-29.52a1.452,1.452,0,0,0,0,2.9" transform="translate(-270.105 -0.769)" fill="#f0f2f5"/>
          <path id="Trazado_821292-2" data-name="Trazado 821292" d="M315.054,27.111h10.62a1.452,1.452,0,1,0,0-2.9h-10.62a1.452,1.452,0,1,0,0,2.9" transform="translate(-306.471 -17.866)" fill="#1f4168"/>
          <path id="Trazado_821293-2" data-name="Trazado 821293" d="M95.2,50.549h1.452a1.452,1.452,0,0,0,0-2.9H95.2a1.452,1.452,0,1,0,0,2.9" transform="translate(-17.963 -34.962)" fill="#222b89"/>
          <path id="Trazado_821294-2" data-name="Trazado 821294" d="M145.637,50.549h18.257a1.452,1.452,0,0,0,0-2.9H145.637a1.452,1.452,0,0,0,0,2.9" transform="translate(-98.855 -34.962)" fill="#f0f2f5"/>
          <path id="Trazado_821295-2" data-name="Trazado 821295" d="M233.567,50.549H266.38a1.452,1.452,0,0,0,0-2.9H233.567a1.452,1.452,0,1,0,0,2.9" transform="translate(-225.131 -34.962)" fill="#1f4168"/>
          <path id="Trazado_821296-2" data-name="Trazado 821296" d="M375.3,50.549h1.452a1.452,1.452,0,0,0,0-2.9H375.3a1.452,1.452,0,0,0,0,2.9" transform="translate(-373.848 -34.962)" fill="#f0f2f5"/>
          <path id="Trazado_821297-2" data-name="Trazado 821297" d="M95.2,73.988h1.452a1.452,1.452,0,0,0,0-2.9H95.2a1.452,1.452,0,1,0,0,2.9" transform="translate(-17.963 -52.06)" fill="#f0f2f5"/>
          <path id="Trazado_821298-2" data-name="Trazado 821298" d="M145.637,73.988H156a1.452,1.452,0,0,0,0-2.9H145.637a1.452,1.452,0,0,0,0,2.9" transform="translate(-90.956 -52.06)" fill="#222b89"/>
          <path id="Trazado_821299-2" data-name="Trazado 821299" d="M204.371,73.988h30.105a1.452,1.452,0,1,0,0-2.9H204.371a1.452,1.452,0,1,0,0,2.9" transform="translate(-185.328 -52.06)" fill="#222b89"/>
          <path id="Trazado_821300-2" data-name="Trazado 821300" d="M336.094,73.988h7.7a1.452,1.452,0,1,0,0-2.9h-7.7a1.452,1.452,0,1,0,0,2.9" transform="translate(-330.287 -52.06)" fill="#222b89"/>
          <path id="Trazado_821301-2" data-name="Trazado 821301" d="M95.2,97.426h1.452a1.452,1.452,0,0,0,0-2.9H95.2a1.452,1.452,0,1,0,0,2.9" transform="translate(-17.963 -69.157)" fill="#222b89"/>
          <path id="Trazado_821302-2" data-name="Trazado 821302" d="M145.637,97.426h32.2a1.452,1.452,0,0,0,0-2.9h-32.2a1.452,1.452,0,0,0,0,2.9" transform="translate(-112.802 -69.157)" fill="#f0f2f5"/>
          <path id="Trazado_821303-2" data-name="Trazado 821303" d="M285.117,97.426h8.259a1.452,1.452,0,0,0,0-2.9h-8.259a1.452,1.452,0,0,0,0,2.9" transform="translate(-266.073 -69.157)" fill="#222b89"/>
          <path id="Trazado_821304-2" data-name="Trazado 821304" d="M336.094,97.426h1.452a1.452,1.452,0,0,0,0-2.9h-1.452a1.452,1.452,0,0,0,0,2.9" transform="translate(-324.035 -69.157)" fill="#222b89"/>
          <path id="Trazado_821305-2" data-name="Trazado 821305" d="M95.2,120.864h1.452a1.452,1.452,0,0,0,0-2.9H95.2a1.452,1.452,0,1,0,0,2.9" transform="translate(-17.963 -86.254)" fill="#222b89"/>
          <path id="Trazado_821306-2" data-name="Trazado 821306" d="M145.636,120.864h21.911a1.452,1.452,0,1,0,0-2.9H145.636a1.452,1.452,0,1,0,0,2.9" transform="translate(-102.507 -86.254)" fill="#1f4168"/>
          <path id="Trazado_821307-2" data-name="Trazado 821307" d="M247.07,120.864h7.886a1.452,1.452,0,0,0,0-2.9H247.07a1.452,1.452,0,0,0,0,2.9" transform="translate(-217.359 -86.254)" fill="#222b89"/>
          <path id="Trazado_821308-2" data-name="Trazado 821308" d="M296.665,120.864h12.119a1.452,1.452,0,0,0,0-2.9H296.665a1.452,1.452,0,0,0,0,2.9" transform="translate(-284.606 -86.254)" fill="#222b89"/>
          <path id="Trazado_821309-2" data-name="Trazado 821309" d="M95.2,144.3h1.452a1.452,1.452,0,0,0,0-2.9H95.2a1.452,1.452,0,1,0,0,2.9" transform="translate(-17.963 -103.351)" fill="#222b89"/>
          <path id="Trazado_821310-2" data-name="Trazado 821310" d="M145.637,144.3h32.2a1.452,1.452,0,0,0,0-2.9h-32.2a1.452,1.452,0,0,0,0,2.9" transform="translate(-112.802 -103.351)" fill="#1f4168"/>
          <path id="Trazado_821311-2" data-name="Trazado 821311" d="M285.117,144.3h8.259a1.452,1.452,0,0,0,0-2.9h-8.259a1.452,1.452,0,0,0,0,2.9" transform="translate(-266.073 -103.351)" fill="#f0f2f5"/>
          <path id="Trazado_821312-2" data-name="Trazado 821312" d="M336.094,144.3h1.452a1.452,1.452,0,0,0,0-2.9h-1.452a1.452,1.452,0,0,0,0,2.9" transform="translate(-324.035 -103.351)" fill="#1f4168"/>
          <path id="Trazado_821313-2" data-name="Trazado 821313" d="M95.2,167.741h1.452a1.452,1.452,0,0,0,0-2.9H95.2a1.452,1.452,0,1,0,0,2.9" transform="translate(-17.963 -120.448)" fill="#222b89"/>
          <path id="Trazado_821314-2" data-name="Trazado 821314" d="M145.636,167.741H160.59a1.452,1.452,0,0,0,0-2.9H145.636a1.452,1.452,0,0,0,0,2.9" transform="translate(-95.551 -120.448)" fill="#222b89"/>
          <path id="Trazado_821315-2" data-name="Trazado 821315" d="M221.36,167.741h14.177a1.452,1.452,0,1,0,0-2.9H221.36a1.452,1.452,0,1,0,0,2.9" transform="translate(-190.985 -120.448)" fill="#222b89"/>
          <path id="Trazado_821316-2" data-name="Trazado 821316" d="M294.209,167.741h12.784a1.452,1.452,0,0,0,0-2.9H294.209a1.452,1.452,0,0,0,0,2.9" transform="translate(-282.15 -120.448)" fill="#222b89"/>
          <path id="Trazado_821317-2" data-name="Trazado 821317" d="M95.2,191.179h1.452a1.452,1.452,0,1,0,0-2.9H95.2a1.452,1.452,0,1,0,0,2.9" transform="translate(-17.963 -137.545)" fill="#f0f2f5"/>
          <path id="Trazado_821318-2" data-name="Trazado 821318" d="M145.637,191.179h18.317a1.452,1.452,0,1,0,0-2.9H145.637a1.452,1.452,0,1,0,0,2.9" transform="translate(-98.915 -137.545)" fill="#f0f2f5"/>
          <path id="Trazado_821319-2" data-name="Trazado 821319" d="M233.789,191.179h2.141a1.452,1.452,0,0,0,0-2.9h-2.141a1.452,1.452,0,1,0,0,2.9" transform="translate(-194.741 -137.545)" fill="#1f4168"/>
          <path id="Trazado_821320-2" data-name="Trazado 821320" d="M262.153,191.179H283.61a1.452,1.452,0,0,0,0-2.9H262.153a1.452,1.452,0,1,0,0,2.9" transform="translate(-250.094 -137.545)" fill="#f0f2f5"/>
          <path id="Trazado_821321-2" data-name="Trazado 821321" d="M95.2,214.617h1.452a1.452,1.452,0,1,0,0-2.9H95.2a1.452,1.452,0,1,0,0,2.9" transform="translate(-17.963 -154.642)" fill="#222b89"/>
          <path id="Trazado_821322-2" data-name="Trazado 821322" d="M145.636,214.617h9.523a1.452,1.452,0,1,0,0-2.9h-9.523a1.452,1.452,0,1,0,0,2.9" transform="translate(-90.12 -154.642)" fill="#222b89"/>
          <path id="Trazado_821323-2" data-name="Trazado 821323" d="M201.284,214.617h16.741a1.452,1.452,0,1,0,0-2.9H201.284a1.452,1.452,0,1,0,0,2.9" transform="translate(-168.041 -154.642)" fill="#1f4168"/>
          <path id="Trazado_821324-2" data-name="Trazado 821324" d="M283.611,214.617h15.651a1.452,1.452,0,1,0,0-2.9H283.611a1.452,1.452,0,1,0,0,2.9" transform="translate(-271.552 -154.642)" fill="#222b89"/>
          <path id="Trazado_821325-2" data-name="Trazado 821325" d="M95.2,238.056h1.452a1.452,1.452,0,0,0,0-2.9H95.2a1.452,1.452,0,0,0,0,2.9" transform="translate(-17.963 -171.739)" fill="#222b89"/>
          <path id="Trazado_821326-2" data-name="Trazado 821326" d="M145.636,238.056h17.408a1.452,1.452,0,0,0,0-2.9H145.636a1.452,1.452,0,1,0,0,2.9" transform="translate(-98.004 -171.739)" fill="#222b89"/>
          <path id="Trazado_821327-2" data-name="Trazado 821327" d="M230.427,238.056h1.6a1.452,1.452,0,1,0,0-2.9h-1.6a1.452,1.452,0,0,0,0,2.9" transform="translate(-189.927 -171.739)" fill="#222b89"/>
          <path id="Trazado_821328-2" data-name="Trazado 821328" d="M256.787,238.056H279.7a1.452,1.452,0,0,0,0-2.9H256.787a1.452,1.452,0,1,0,0,2.9" transform="translate(-244.728 -171.739)" fill="#f0f2f5"/>
          <path id="Trazado_821329-2" data-name="Trazado 821329" d="M95.2,261.494h1.452a1.452,1.452,0,1,0,0-2.9H95.2a1.452,1.452,0,1,0,0,2.9" transform="translate(-17.963 -188.836)" fill="#222b89"/>
          <path id="Trazado_821330-2" data-name="Trazado 821330" d="M145.636,261.494h18.189a1.452,1.452,0,0,0,0-2.9H145.636a1.452,1.452,0,1,0,0,2.9" transform="translate(-98.785 -188.836)" fill="#f0f2f5"/>
          <path id="Trazado_821331-2" data-name="Trazado 821331" d="M233.314,261.494h8.259a1.452,1.452,0,1,0,0-2.9h-8.259a1.452,1.452,0,1,0,0,2.9" transform="translate(-200.255 -188.836)" fill="#222b89"/>
          <path id="Trazado_821332-2" data-name="Trazado 821332" d="M284.29,261.494h23.171a1.452,1.452,0,1,0,0-2.9H284.29a1.452,1.452,0,1,0,0,2.9" transform="translate(-279.934 -188.836)" fill="#f0f2f5"/>
          <path id="Trazado_821333-2" data-name="Trazado 821333" d="M95.2,284.932h1.452a1.452,1.452,0,1,0,0-2.9H95.2a1.452,1.452,0,1,0,0,2.9" transform="translate(-17.963 -205.933)" fill="#222b89"/>
          <path id="Trazado_821334-2" data-name="Trazado 821334" d="M145.637,284.932h10.837a1.452,1.452,0,1,0,0-2.9H145.637a1.452,1.452,0,1,0,0,2.9" transform="translate(-91.435 -205.933)" fill="#222b89"/>
          <path id="Trazado_821335-2" data-name="Trazado 821335" d="M206.143,284.932h40.1a1.452,1.452,0,0,0,0-2.9h-40.1a1.452,1.452,0,1,0,0,2.9" transform="translate(-197.57 -205.933)" fill="#1f4168"/>
          <path id="Trazado_821336-2" data-name="Trazado 821336" d="M374.792,284.932h1.452a1.452,1.452,0,1,0,0-2.9h-1.452a1.452,1.452,0,0,0,0,2.9" transform="translate(-373.203 -205.933)" fill="#1f4168"/>
          <path id="Trazado_821337-2" data-name="Trazado 821337" d="M95.2,308.371h1.452a1.452,1.452,0,1,0,0-2.9H95.2a1.452,1.452,0,1,0,0,2.9" transform="translate(-17.963 -223.031)" fill="#222b89"/>
          <path id="Trazado_821338-2" data-name="Trazado 821338" d="M145.637,308.371h32.2a1.452,1.452,0,1,0,0-2.9h-32.2a1.452,1.452,0,1,0,0,2.9" transform="translate(-112.802 -223.031)" fill="#222b89"/>
          <path id="Trazado_821339-2" data-name="Trazado 821339" d="M285.117,308.371h2.678a1.452,1.452,0,1,0,0-2.9h-2.678a1.452,1.452,0,1,0,0,2.9" transform="translate(-260.492 -223.031)" fill="#1f4168"/>
          <path id="Trazado_821340-2" data-name="Trazado 821340" d="M315.464,308.371H322.5a1.452,1.452,0,0,0,0-2.9h-7.033a1.452,1.452,0,0,0,0,2.9" transform="translate(-303.405 -223.031)" fill="#222b89"/>
          <path id="Trazado_821341-2" data-name="Trazado 821341" d="M95.2,331.809h1.452a1.452,1.452,0,0,0,0-2.9H95.2a1.452,1.452,0,0,0,0,2.9" transform="translate(-17.963 -240.128)" fill="#222b89"/>
          <path id="Trazado_821342-2" data-name="Trazado 821342" d="M145.636,331.809H170.72a1.452,1.452,0,0,0,0-2.9H145.636a1.452,1.452,0,1,0,0,2.9" transform="translate(-105.681 -240.128)" fill="#f0f2f5"/>
          <path id="Trazado_821343-2" data-name="Trazado 821343" d="M258.8,331.809h24.871a1.452,1.452,0,0,0,0-2.9H258.8a1.452,1.452,0,1,0,0,2.9" transform="translate(-249.251 -240.128)" fill="#1f4168"/>
          <path id="Trazado_821344-2" data-name="Trazado 821344" d="M371.179,331.809h1.452a1.452,1.452,0,0,0,0-2.9h-1.452a1.452,1.452,0,1,0,0,2.9" transform="translate(-368.612 -240.128)" fill="#222b89"/>
        </g>
      </g>
      <g id="Grupo_1073823" data-name="Grupo 1073823" transform="translate(0 10.737)">
        <rect id="Rectángulo_376488" data-name="Rectángulo 376488" width="112.084" height="159.088" rx="5" fill="#222b89"/>
        <g id="Grupo_1073805" data-name="Grupo 1073805" transform="translate(15.184 8.285)">
          <path id="Trazado_821160" data-name="Trazado 821160" d="M634.137,391.4h-68.7a6.51,6.51,0,0,1-6.509-6.51h0a6.51,6.51,0,0,1,6.509-6.51h68.7a6.51,6.51,0,0,1,6.51,6.51h0A6.51,6.51,0,0,1,634.137,391.4Z" transform="translate(-558.93 -378.38)" fill="#fff"/>
          <path id="Trazado_821161" data-name="Trazado 821161" d="M594.543,412.027H592.8V410.28a.171.171,0,0,0-.17-.17h0a.171.171,0,0,0-.17.17v1.747H590.71a.171.171,0,0,0-.17.17h0a.171.171,0,0,0,.17.17h1.747v1.747a.171.171,0,0,0,.17.17h0a.171.171,0,0,0,.17-.17v-1.747h1.747a.171.171,0,0,0,.17-.17h0A.171.171,0,0,0,594.543,412.027Z" transform="translate(-586.134 -405.687)" fill="#f9a21b"/>
        </g>
        <g id="Grupo_1073812" data-name="Grupo 1073812" transform="translate(20.159 104.345)">
          <g id="Grupo_1073806" data-name="Grupo 1073806">
            <path id="Trazado_821162" data-name="Trazado 821162" d="M598.97,1076.221h0a4.35,4.35,0,0,1-4.35-4.35h0a4.35,4.35,0,0,1,4.35-4.351h0a4.35,4.35,0,0,1,4.35,4.351h0A4.35,4.35,0,0,1,598.97,1076.221Z" transform="translate(-594.62 -1067.52)" fill="#fff"/>
            <path id="Trazado_821163" data-name="Trazado 821163" d="M609.435,1088.53l-1.663-1.668a.266.266,0,0,1,0-.375l.531-.531a.266.266,0,0,1,.375,0l.942.949,2.144-2.133a.266.266,0,0,1,.375,0l.531.531a.265.265,0,0,1,0,.375l-2.862,2.851a.266.266,0,0,1-.375,0Z" transform="translate(-605.872 -1082.301)" fill="#f9a21b"/>
          </g>
          <g id="Grupo_1073807" data-name="Grupo 1073807" transform="translate(0 13.942)">
            <path id="Trazado_821164" data-name="Trazado 821164" d="M598.97,1176.241h0a4.35,4.35,0,0,1-4.35-4.35h0a4.35,4.35,0,0,1,4.35-4.351h0a4.35,4.35,0,0,1,4.35,4.351h0A4.35,4.35,0,0,1,598.97,1176.241Z" transform="translate(-594.62 -1167.54)" fill="#fff"/>
            <path id="Trazado_821165" data-name="Trazado 821165" d="M609.435,1188.54l-1.663-1.669a.265.265,0,0,1,0-.375l.531-.531a.266.266,0,0,1,.375,0l.942.949,2.144-2.133a.266.266,0,0,1,.375,0l.531.531a.266.266,0,0,1,0,.375l-2.862,2.851a.266.266,0,0,1-.375,0Z" transform="translate(-605.872 -1182.312)" fill="#f9a21b"/>
          </g>
          <g id="Grupo_1073808" data-name="Grupo 1073808" transform="translate(0 27.884)">
            <path id="Trazado_821166" data-name="Trazado 821166" d="M598.97,1276.261h0a4.35,4.35,0,0,1-4.35-4.35h0a4.35,4.35,0,0,1,4.35-4.35h0a4.35,4.35,0,0,1,4.35,4.35h0A4.35,4.35,0,0,1,598.97,1276.261Z" transform="translate(-594.62 -1267.56)" fill="#fff"/>
            <path id="Trazado_821167" data-name="Trazado 821167" d="M609.435,1288.56l-1.663-1.668a.266.266,0,0,1,0-.375l.531-.531a.266.266,0,0,1,.375,0l.942.949,2.144-2.133a.266.266,0,0,1,.375,0l.531.531a.266.266,0,0,1,0,.375l-2.862,2.85a.265.265,0,0,1-.375,0Z" transform="translate(-605.872 -1282.332)" fill="#f9a21b"/>
          </g>
          <g id="Grupo_1073809" data-name="Grupo 1073809" transform="translate(13.568 1.748)">
            <path id="Trazado_821168" data-name="Trazado 821168" d="M738.8,1081.925H692.9a.933.933,0,0,1-.932-.933h0a.932.932,0,0,1,.932-.932H738.8a.933.933,0,0,1,.932.932h0A.933.933,0,0,1,738.8,1081.925Z" transform="translate(-691.969 -1080.06)" fill="#fff"/>
            <path id="Trazado_821169" data-name="Trazado 821169" d="M729.09,1105.905h-36.2a.932.932,0,0,1-.932-.932h0a.933.933,0,0,1,.932-.933h36.2a.932.932,0,0,1,.932.933h0A.932.932,0,0,1,729.09,1105.905Z" transform="translate(-691.96 -1100.698)" fill="#fff"/>
          </g>
          <g id="Grupo_1073810" data-name="Grupo 1073810" transform="translate(13.568 15.69)">
            <path id="Trazado_821170" data-name="Trazado 821170" d="M738.8,1181.945H692.9a.932.932,0,0,1-.932-.932h0a.932.932,0,0,1,.932-.933H738.8a.933.933,0,0,1,.932.933h0A.932.932,0,0,1,738.8,1181.945Z" transform="translate(-691.969 -1180.08)" fill="#fff"/>
            <path id="Trazado_821171" data-name="Trazado 821171" d="M729.09,1205.915h-36.2a.932.932,0,0,1-.932-.932h0a.932.932,0,0,1,.932-.932h36.2a.932.932,0,0,1,.932.932h0A.932.932,0,0,1,729.09,1205.915Z" transform="translate(-691.96 -1200.709)" fill="#fff"/>
          </g>
          <g id="Grupo_1073811" data-name="Grupo 1073811" transform="translate(13.568 29.63)">
            <path id="Trazado_821172" data-name="Trazado 821172" d="M738.8,1281.955H692.9a.933.933,0,0,1-.932-.932h0a.933.933,0,0,1,.932-.933H738.8a.932.932,0,0,1,.932.933h0A.933.933,0,0,1,738.8,1281.955Z" transform="translate(-691.969 -1280.09)" fill="#fff"/>
            <path id="Trazado_821173" data-name="Trazado 821173" d="M729.09,1305.935h-36.2a.933.933,0,0,1-.932-.932h0a.933.933,0,0,1,.932-.932h36.2a.932.932,0,0,1,.932.932h0A.932.932,0,0,1,729.09,1305.935Z" transform="translate(-691.96 -1300.728)" fill="#fff"/>
          </g>
        </g>
        <g id="Grupo_1073814" data-name="Grupo 1073814" transform="translate(88.259 102.169)">
          <rect id="Rectángulo_376489" data-name="Rectángulo 376489" width="7.024" height="25.74" transform="translate(7.884 4.701) rotate(17.8)" fill="#fff"/>
          <path id="Trazado_821174" data-name="Trazado 821174" d="M1089.867,1263.637l-6.686-2.147,1.109,5.411.328,1.6,1.2-1.108Z" transform="translate(-1083.18 -1232.276)" fill="#fff"/>
          <path id="Trazado_821175" data-name="Trazado 821175" d="M1.818,0H5.206A1.818,1.818,0,0,1,7.024,1.818v1.7H0v-1.7A1.818,1.818,0,0,1,1.818,0Z" transform="translate(9.394 0) rotate(17.8)" fill="#fff"/>
          <g id="Grupo_1073813" data-name="Grupo 1073813" transform="translate(1.448 5.02)">
            <rect id="Rectángulo_376490" data-name="Rectángulo 376490" width="0.471" height="24.318" transform="translate(11.677 1.363) rotate(17.8)" fill="#f0f2f5"/>
            <rect id="Rectángulo_376491" data-name="Rectángulo 376491" width="0.471" height="24.318" transform="translate(9.555 0.682) rotate(17.8)" fill="#f0f2f5"/>
            <rect id="Rectángulo_376492" data-name="Rectángulo 376492" width="0.471" height="24.318" transform="translate(7.434 0) rotate(17.8)" fill="#f0f2f5"/>
          </g>
          <path id="Trazado_821176" data-name="Trazado 821176" d="M1092.665,1300.8l-1.525-.491.328,1.6Z" transform="translate(-1090.031 -1265.685)" fill="#1f4168"/>
          <rect id="Rectángulo_376493" data-name="Rectángulo 376493" width="7.024" height="1.422" transform="translate(0.451 27.853) rotate(17.8)" fill="#1f4168"/>
          <rect id="Rectángulo_376494" data-name="Rectángulo 376494" width="7.024" height="1.422" transform="translate(8.32 3.345) rotate(17.8)" fill="#1f4168"/>
        </g>
        <g id="Grupo_1073822" data-name="Grupo 1073822" transform="translate(27.399 30.791)">
          <rect id="Rectángulo_376495" data-name="Rectángulo 376495" width="11.606" height="7.215" transform="translate(28.645 57.242)" fill="#e1e6eb"/>
          <path id="Trazado_821177" data-name="Trazado 821177" d="M924.43,638.161h2.519v-6.9h-1.892Z" transform="translate(-885.698 -618.517)" fill="#1f4168"/>
          <rect id="Rectángulo_376496" data-name="Rectángulo 376496" width="1.859" height="9.731" rx="0.93" transform="translate(40.248 11.328)" fill="#f0f2f5"/>
          <path id="Trazado_821178" data-name="Trazado 821178" d="M948.64,626.7h0v8.174h0a1.788,1.788,0,0,0,1-1.608v-4.957A1.79,1.79,0,0,0,948.64,626.7Z" transform="translate(-906.533 -614.593)" fill="#1f4168"/>
          <rect id="Rectángulo_376497" data-name="Rectángulo 376497" width="2.583" height="9.81" transform="translate(46.346 41.285)" fill="#1f4168"/>
          <path id="Trazado_821179" data-name="Trazado 821179" d="M1005.949,811.288v12.084a1.088,1.088,0,0,1-1.39,1.045l-4.36-1.26a3.612,3.612,0,0,1-2.609-3.471V806.753a1.914,1.914,0,0,1,1.2-1.777,1.893,1.893,0,0,1,.707-.135A6.448,6.448,0,0,1,1005.949,811.288Z" transform="translate(-948.66 -767.902)" fill="#f0f2f5"/>
          <path id="Trazado_821180" data-name="Trazado 821180" d="M1011.484,932.572v8.086h-5.264V930.68a3.613,3.613,0,0,0,1.405.776Z" transform="translate(-956.087 -876.201)" fill="#1f4168"/>
          <rect id="Rectángulo_376498" data-name="Rectángulo 376498" width="11.606" height="7.215" transform="translate(28.645 64.457) rotate(180)" fill="#e1e6eb"/>
          <path id="Trazado_821181" data-name="Trazado 821181" d="M757.425,770.235h0a6.7,6.7,0,0,0-3.666-1.091h-2.91l-4.109-1.674h-7.955l-4.109,1.674h-2.91a6.7,6.7,0,0,0-3.666,1.091h0a6.706,6.706,0,0,0-3.039,5.615v16.332a6.7,6.7,0,0,0,.481,2.494l2.212,5.52h3.4l4.382-5.4a4.9,4.9,0,0,1,3.805-1.813h6.837a4.9,4.9,0,0,1,3.805,1.813l4.382,5.4h3.4l2.212-5.52a6.7,6.7,0,0,0,.481-2.494V775.85A6.706,6.706,0,0,0,757.425,770.235Z" transform="translate(-714.118 -735.741)" fill="#f0f2f5"/>
          <path id="Trazado_821182" data-name="Trazado 821182" d="M795.708,786.84a.847.847,0,0,0-.6-.25H775.119a.85.85,0,0,0-.849.85.863.863,0,0,0,.284.634l6.182,5.5a4.318,4.318,0,0,0,1.677.924,4.371,4.371,0,0,0,.874.159c.109.008.219.013.327.013h3c.11,0,.219,0,.328-.013a4.179,4.179,0,0,0,.874-.159,4.325,4.325,0,0,0,1.677-.924l6.182-5.5a.85.85,0,0,0,.284-.634.834.834,0,0,0-.248-.6Z" transform="translate(-756.468 -752.195)" fill="#1f4168"/>
          <g id="Grupo_1073815" data-name="Grupo 1073815" transform="translate(22.627 27.314)">
            <path id="Trazado_821183" data-name="Trazado 821183" d="M869.35,735.79v4.369a4.634,4.634,0,0,1-.882,2.714c-.049.067-.1.134-.152.2l-.94,1.156a3.761,3.761,0,0,0-.815,1.91l-.527,4.647a4.372,4.372,0,0,1-.874.159l.557-4.906a4.612,4.612,0,0,1,1-2.346l.664-.815.276-.339a3.779,3.779,0,0,0,.845-2.375v-4.368h.85Z" transform="translate(-857.317 -735.79)" fill="#d2d9e1"/>
            <path id="Trazado_821184" data-name="Trazado 821184" d="M808.892,735.79v4.369a4.635,4.635,0,0,0,.882,2.714c.049.067.1.134.152.2l.94,1.156a3.761,3.761,0,0,1,.815,1.91l.527,4.647a4.373,4.373,0,0,0,.874.159l-.558-4.906a4.612,4.612,0,0,0-1-2.346l-.664-.815-.276-.339a3.778,3.778,0,0,1-.845-2.375v-4.368h-.85Z" transform="translate(-808.89 -735.79)" fill="#d2d9e1"/>
          </g>
          <path id="Trazado_821185" data-name="Trazado 821185" d="M764.139,638.161H761.62v-6.9h1.891Z" transform="translate(-745.582 -618.517)" fill="#1f4168"/>
          <path id="Trazado_821186" data-name="Trazado 821186" d="M785.108,539.84h0a10.844,10.844,0,0,0-10.8,11.825l.711,7.82,2.218,5.733a6.725,6.725,0,0,0,1.239,2.034l1.745,1.968.235.8a6.708,6.708,0,0,0,1.271,2.395l.855,1.033a2.161,2.161,0,0,0,1.666.783h1.72a2.163,2.163,0,0,0,1.666-.783l.854-1.033a6.729,6.729,0,0,0,1.271-2.395l.236-.8,1.745-1.968a6.693,6.693,0,0,0,1.239-2.034l2.218-5.733.711-7.82a10.843,10.843,0,0,0-10.8-11.825Z" transform="translate(-756.464 -539.84)" fill="#f0f2f5"/>
          <rect id="Rectángulo_376499" data-name="Rectángulo 376499" width="1.859" height="9.731" rx="0.93" transform="translate(17.042 21.061) rotate(180)" fill="#f0f2f5"/>
          <path id="Trazado_821187" data-name="Trazado 821187" d="M749.294,626.7h0v8.174h0a1.788,1.788,0,0,1-1-1.608v-4.957A1.79,1.79,0,0,1,749.294,626.7Z" transform="translate(-734.11 -614.593)" fill="#1f4168"/>
          <rect id="Rectángulo_376500" data-name="Rectángulo 376500" width="2.583" height="9.81" transform="translate(10.942 51.095) rotate(180)" fill="#1f4168"/>
          <path id="Trazado_821188" data-name="Trazado 821188" d="M646.56,811.288v12.084a1.088,1.088,0,0,0,1.39,1.045l4.36-1.26a3.613,3.613,0,0,0,2.609-3.471V806.753a1.914,1.914,0,0,0-1.2-1.777,1.894,1.894,0,0,0-.707-.135A6.448,6.448,0,0,0,646.56,811.288Z" transform="translate(-646.56 -767.902)" fill="#f0f2f5"/>
          <path id="Trazado_821189" data-name="Trazado 821189" d="M660.14,932.572v8.086H665.4V930.68a3.613,3.613,0,0,1-1.405.776Z" transform="translate(-658.247 -876.201)" fill="#1f4168"/>
          <path id="Trazado_821190" data-name="Trazado 821190" d="M846.63,803.971l-.88-.141v5.677h1.759V803.83Z" transform="translate(-817.985 -767.032)" fill="#d2d9e1"/>
          <path id="Trazado_821191" data-name="Trazado 821191" d="M835.16,776.331a2.158,2.158,0,0,1-1.664.783h-1.72a2.159,2.159,0,0,1-1.664-.783l-.622-.751v2.109l1.136,1.136a2.844,2.844,0,0,0,4.02,0l1.136-1.136V775.58Z" transform="translate(-803.991 -742.72)" fill="#d2d9e1"/>
          <path id="Trazado_821192" data-name="Trazado 821192" d="M868.366,688.45l-1.646,9.557,2.7-6.819,1.617-1.285,2.591-4.462Z" transform="translate(-836.032 -665.145)" fill="#d2d9e1"/>
          <path id="Trazado_821193" data-name="Trazado 821193" d="M872.051,658.98l-1.13,2.809,3.179-1.537Z" transform="translate(-839.646 -642.373)" fill="#d2d9e1"/>
          <g id="Grupo_1073816" data-name="Grupo 1073816" transform="translate(38.733 12.743)" opacity="0.4">
            <path id="Trazado_821194" data-name="Trazado 821194" d="M924.43,638.161l.627-6.9v6.9Z" transform="translate(-924.43 -631.26)" fill="#1f4168"/>
          </g>
          <g id="Grupo_1073817" data-name="Grupo 1073817" transform="translate(50.135 54.48)" opacity="0.4">
            <path id="Trazado_821195" data-name="Trazado 821195" d="M1011.492,932.572l-5.262-.546V930.68h0a3.617,3.617,0,0,0,1.4.776Z" transform="translate(-1006.23 -930.68)" fill="#1f4168"/>
          </g>
          <path id="Trazado_821196" data-name="Trazado 821196" d="M863.666,957.715l-4.275-2.563a7.335,7.335,0,0,0-3.771-1.044h-3.56V950.5l4.052.042a4.9,4.9,0,0,1,3.172,1.772l4.382,5.4Z" transform="translate(-823.415 -893.258)" fill="#d2d9e1"/>
          <path id="Trazado_821197" data-name="Trazado 821197" d="M892.17,857.48l6.335-9.61a2.627,2.627,0,0,1,2.194-1.181h2.133a5.446,5.446,0,0,1-2.129,4.237Z" transform="translate(-857.934 -803.918)" fill="#d2d9e1"/>
          <path id="Trazado_821198" data-name="Trazado 821198" d="M961.538,899.981l-1.623,3.259a1.866,1.866,0,0,0-.2.829v7.892l1.079-2.86a10.42,10.42,0,0,0,.666-3.528l.073-5.594Z" transform="translate(-916.068 -849.78)" fill="#d2d9e1"/>
          <path id="Trazado_821199" data-name="Trazado 821199" d="M998.786,823.216a3.613,3.613,0,0,1-1.206-2.694V807.587a1.914,1.914,0,0,1,1.2-1.777v17.406Z" transform="translate(-948.651 -768.736)" fill="#d2d9e1"/>
          <path id="Trazado_821200" data-name="Trazado 821200" d="M793.1,688.45l1.646,9.557-2.7-6.819-1.617-1.285-2.591-4.462Z" transform="translate(-768.147 -665.145)" fill="#d2d9e1"/>
          <path id="Trazado_821201" data-name="Trazado 821201" d="M812.439,658.98l1.131,2.809-3.18-1.537Z" transform="translate(-787.554 -642.373)" fill="#d2d9e1"/>
          <g id="Grupo_1073818" data-name="Grupo 1073818" transform="translate(17.93 12.743)" opacity="0.4">
            <path id="Trazado_821202" data-name="Trazado 821202" d="M775.817,638.161l-.627-6.9v6.9Z" transform="translate(-775.19 -631.26)" fill="#1f4168"/>
          </g>
          <g id="Grupo_1073819" data-name="Grupo 1073819" transform="translate(1.893 54.48)" opacity="0.4">
            <path id="Trazado_821203" data-name="Trazado 821203" d="M660.14,932.572l5.262-.546V930.68h0a3.617,3.617,0,0,1-1.4.776Z" transform="translate(-660.14 -930.68)" fill="#1f4168"/>
          </g>
          <path id="Trazado_821204" data-name="Trazado 821204" d="M768.791,957.715l4.275-2.563a7.335,7.335,0,0,1,3.771-1.044h3.56V950.5l-4.052.042a4.9,4.9,0,0,0-3.173,1.772l-4.382,5.4Z" transform="translate(-751.752 -893.258)" fill="#d2d9e1"/>
          <path id="Trazado_821205" data-name="Trazado 821205" d="M746.122,857.48l-6.335-9.61a2.628,2.628,0,0,0-2.194-1.181H735.46a5.446,5.446,0,0,0,2.128,4.237Z" transform="translate(-723.068 -803.918)" fill="#d2d9e1"/>
          <path id="Trazado_821206" data-name="Trazado 821206" d="M731.36,899.981l1.622,3.259a1.864,1.864,0,0,1,.2.829v7.892L732.1,909.1a10.417,10.417,0,0,1-.666-3.528l-.073-5.594Z" transform="translate(-719.54 -849.78)" fill="#d2d9e1"/>
          <path id="Trazado_821207" data-name="Trazado 821207" d="M697.89,823.216a3.613,3.613,0,0,0,1.206-2.694V807.587a1.914,1.914,0,0,0-1.2-1.777v17.406Z" transform="translate(-690.735 -768.736)" fill="#d2d9e1"/>
          <path id="Trazado_821208" data-name="Trazado 821208" d="M883.358,639.017c0,.054,0,.109-.005.164a2.282,2.282,0,0,1-4.323.847l.452-.677.728-1.091a3.111,3.111,0,0,1,1.855-1.3,2.281,2.281,0,0,1,1.295,2.058Z" transform="translate(-846.626 -623.422)" fill="#1f4168"/>
          <path id="Trazado_821209" data-name="Trazado 821209" d="M885.49,641.672a1.632,1.632,0,0,1-3.23.33l.728-1.091a3.11,3.11,0,0,1,.873-.871A1.631,1.631,0,0,1,885.49,641.672Z" transform="translate(-849.406 -626.073)" fill="#112e4c"/>
          <path id="Trazado_821210" data-name="Trazado 821210" d="M959.72,913.873V916.8l.875-1.758a1.465,1.465,0,0,0,.153-.651V911.37l-.832,1.673a1.864,1.864,0,0,0-.2.829Z" transform="translate(-916.068 -859.582)" fill="#1f4168"/>
          <path id="Trazado_821211" data-name="Trazado 821211" d="M871.87,721.378c.323-.447.652-.891.981-1.334s.655-.888.99-1.327h0v0c.541-.425,1.08-.854,1.627-1.274-.533.438-1.07.866-1.607,1.3l0,0c-.326.445-.661.884-.993,1.324s-.663.881-1,1.317Z" transform="translate(-840.464 -692.684)" fill="#d2d9e1"/>
          <path id="Trazado_821212" data-name="Trazado 821212" d="M878.53,688.441c.87-.514,1.748-1.013,2.622-1.521s1.755-1,2.639-1.49c-.87.514-1.748,1.013-2.622,1.521S879.414,687.952,878.53,688.441Z" transform="translate(-846.195 -665.136)" fill="#d2d9e1"/>
          <path id="Trazado_821213" data-name="Trazado 821213" d="M866.72,716.587c.259-1.595.538-3.188.806-4.781s.551-3.185.84-4.776c-.259,1.595-.538,3.188-.806,4.781S867.01,715,866.72,716.587Z" transform="translate(-836.032 -683.725)" fill="#d2d9e1"/>
          <path id="Trazado_821214" data-name="Trazado 821214" d="M887.93,584.385c.415-.721.846-1.431,1.268-2.147s.857-1.425,1.3-2.128c-.415.721-.846,1.431-1.269,2.147S888.371,583.68,887.93,584.385Z" transform="translate(-854.285 -574.497)" fill="#d2d9e1"/>
          <path id="Trazado_821215" data-name="Trazado 821215" d="M870.924,610.78l-.467.779a.411.411,0,0,1-.254.187l-2.034.507.514-1.2a.455.455,0,0,1,.417-.275Z" transform="translate(-837.28 -600.892)" fill="#1f4168"/>
          <path id="Trazado_821216" data-name="Trazado 821216" d="M902.822,846.62l-2.03.008a2.649,2.649,0,0,0-1.854.676,2.858,2.858,0,0,0-.34.372c-.1.137-.19.28-.283.421l-.558.848-1.115,1.7-4.483,6.769,4.455-6.788,1.119-1.694.56-.846c.093-.141.184-.283.284-.421a2.828,2.828,0,0,1,.344-.375,2.671,2.671,0,0,1,1.869-.676l2.03.008Z" transform="translate(-857.926 -803.848)" fill="#d2d9e1"/>
          <path id="Trazado_821217" data-name="Trazado 821217" d="M852.06,801.766l1.012,0c.337,0,.675.006,1.011-.021a5.682,5.682,0,0,0,2.817-1.008,7.78,7.78,0,0,0,.779-.641l1.51-1.346,6.057-5.365-6.033,5.392-1.514,1.342a7.812,7.812,0,0,1-.783.641,5.68,5.68,0,0,1-2.83,1c-.337.024-.675.013-1.012.013l-1.012,0Z" transform="translate(-823.415 -758.039)" fill="#d2d9e1"/>
          <circle id="Elipse_9916" data-name="Elipse 9916" cx="0.736" cy="0.736" r="0.736" transform="translate(41.438 43.933)" fill="#1f4168"/>
          <path id="Trazado_821218" data-name="Trazado 821218" d="M1023.762,833.376a.736.736,0,1,1-.736-.736A.735.735,0,0,1,1023.762,833.376Z" transform="translate(-969.917 -791.826)" fill="#1f4168"/>
          <path id="Trazado_821219" data-name="Trazado 821219" d="M962.028,891.43l-1.772,3.586-.443.9a1.987,1.987,0,0,0-.181.968l0,2-.015,8-.02-8,0-2a2.008,2.008,0,0,1,.187-.979l.446-.895,1.792-3.575Z" transform="translate(-915.965 -842.422)" fill="#d2d9e1"/>
          <path id="Trazado_821220" data-name="Trazado 821220" d="M888.653,645.691a.981.981,0,1,1-.981-.981A.981.981,0,0,1,888.653,645.691Z" transform="translate(-853.218 -630.092)" fill="#f9a21b"/>
          <g id="Grupo_1073820" data-name="Grupo 1073820" transform="translate(32.736 13.822)">
            <path id="Trazado_821221" data-name="Trazado 821221" d="M894.656,640.3a.132.132,0,0,1-.06.013.157.157,0,0,1-.145-.1,1.442,1.442,0,0,0-1.334-.91.161.161,0,0,1-.137-.082,2.562,2.562,0,0,1,.347-.222h0a1.766,1.766,0,0,1,1.414,1.094.156.156,0,0,1-.089.2Z" transform="translate(-891.367 -639)" fill="#f9a21b"/>
            <path id="Trazado_821222" data-name="Trazado 821222" d="M882.953,654.629a.162.162,0,0,1-.155.127c-.013,0-.022,0-.032,0a1.791,1.791,0,0,1-1.356-1.246l.2-.307a.147.147,0,0,1,.067.1,1.475,1.475,0,0,0,1.147,1.144.158.158,0,0,1,.123.187Z" transform="translate(-881.41 -651.221)" fill="#f9a21b"/>
          </g>
          <path id="Trazado_821223" data-name="Trazado 821223" d="M865.531,644.7l.93-2.342.937-2.339h0v0l1.013-1.517c.085-.125.166-.255.256-.378a2.985,2.985,0,0,1,.648-.641,2.785,2.785,0,0,1,.386-.245h0a3.2,3.2,0,0,1,.739-.28,3.082,3.082,0,0,0-.733.29h0a2.751,2.751,0,0,0-.381.248,2.9,2.9,0,0,0-.344.3,3,3,0,0,0-.3.344c-.089.123-.17.252-.254.378l-1.007,1.522v0l-.944,2.336-.952,2.333Z" transform="translate(-835.008 -623.422)" fill="#d2d9e1"/>
          <path id="Trazado_821224" data-name="Trazado 821224" d="M951.81,649.916a.069.069,0,0,1-.07-.07V647.57a.07.07,0,0,1,.139,0v2.276A.069.069,0,0,1,951.81,649.916Z" transform="translate(-909.201 -632.493)" fill="#f9a21b"/>
          <path id="Trazado_821225" data-name="Trazado 821225" d="M1006.118,832.863l-.018-7.922.018-7.922.017,7.922Z" transform="translate(-955.983 -778.384)" fill="#d2d9e1"/>
          <path id="Trazado_821226" data-name="Trazado 821226" d="M1009.2,856.38c-.506-.461-1-.935-1.5-1.4s-.99-.945-1.476-1.427c.506.461,1,.935,1.5,1.4S1008.709,855.9,1009.2,856.38Z" transform="translate(-956.087 -809.822)" fill="#d2d9e1"/>
          <path id="Trazado_821227" data-name="Trazado 821227" d="M1027.467,882.938c-.016-1.515-.011-3.029-.017-4.544s0-3.029.017-4.544c.015,1.515.011,3.029.016,4.544S1027.481,881.423,1027.467,882.938Z" transform="translate(-974.357 -827.292)" fill="#d2d9e1"/>
          <path id="Trazado_821228" data-name="Trazado 821228" d="M1039.609,888.141a.349.349,0,0,1-.348-.348v-2.674a.348.348,0,1,1,.7,0v2.674A.349.349,0,0,1,1039.609,888.141Z" transform="translate(-984.521 -836.69)" fill="#f9a21b"/>
          <path id="Trazado_821229" data-name="Trazado 821229" d="M986.169,862.031a.348.348,0,0,1-.349-.348v-2.674a.348.348,0,1,1,.7,0v2.674A.349.349,0,0,1,986.169,862.031Z" transform="translate(-938.53 -814.219)" fill="#f9a21b"/>
          <path id="Trazado_821230" data-name="Trazado 821230" d="M794.022,639.017c0,.054,0,.109.006.164a2.282,2.282,0,0,0,4.323.847l-.452-.677-.728-1.091a3.112,3.112,0,0,0-1.855-1.3,2.281,2.281,0,0,0-1.295,2.058Z" transform="translate(-773.466 -623.422)" fill="#1f4168"/>
          <path id="Trazado_821231" data-name="Trazado 821231" d="M798.69,641.672a1.632,1.632,0,0,0,3.23.33l-.728-1.091a3.109,3.109,0,0,0-.873-.871A1.631,1.631,0,0,0,798.69,641.672Z" transform="translate(-777.485 -626.073)" fill="#112e4c"/>
          <path id="Trazado_821232" data-name="Trazado 821232" d="M738.049,913.873V916.8l-.875-1.758a1.466,1.466,0,0,1-.153-.651V911.37l.832,1.673a1.864,1.864,0,0,1,.2.829Z" transform="translate(-724.411 -859.582)" fill="#1f4168"/>
          <path id="Trazado_821233" data-name="Trazado 821233" d="M810.038,721.4c-.337-.436-.669-.877-1-1.317s-.666-.88-.992-1.324l0,0c-.537-.431-1.076-.86-1.607-1.3.546.42,1.085.848,1.627,1.274h0v0c.335.439.661.884.99,1.327s.658.887.981,1.334Z" transform="translate(-784.154 -692.701)" fill="#d2d9e1"/>
          <path id="Trazado_821234" data-name="Trazado 821234" d="M832.25,745.587c.92-.015,1.841-.011,2.761-.017s1.841,0,2.761.017c-.92.015-1.841.011-2.761.017S833.17,745.6,832.25,745.587Z" transform="translate(-806.367 -716.893)" fill="#d2d9e1"/>
          <path id="Trazado_821235" data-name="Trazado 821235" d="M793.111,688.441c-.884-.489-1.759-.994-2.639-1.49s-1.752-1-2.622-1.521c.884.489,1.759.994,2.639,1.49S792.241,687.925,793.111,688.441Z" transform="translate(-768.156 -665.136)" fill="#d2d9e1"/>
          <path id="Trazado_821236" data-name="Trazado 821236" d="M827.236,716.587c-.289-1.591-.56-3.184-.841-4.776s-.546-3.185-.806-4.781c.288,1.59.56,3.184.841,4.776S826.977,714.991,827.236,716.587Z" transform="translate(-800.635 -683.725)" fill="#d2d9e1"/>
          <path id="Trazado_821237" data-name="Trazado 821237" d="M797.78,558.466a9.644,9.644,0,0,1,3.393-2.587,9.94,9.94,0,0,1,8.347,0,9.643,9.643,0,0,1,3.393,2.587A9.121,9.121,0,0,0,811.351,557a9.993,9.993,0,0,0-12.01,0A9.123,9.123,0,0,0,797.78,558.466Z" transform="translate(-776.701 -552.852)" fill="#d2d9e1"/>
          <path id="Trazado_821238" data-name="Trazado 821238" d="M800.346,584.385c-.44-.705-.864-1.419-1.3-2.128s-.853-1.426-1.268-2.147c.44.705.866,1.419,1.3,2.128S799.931,583.664,800.346,584.385Z" transform="translate(-776.701 -574.497)" fill="#d2d9e1"/>
          <path id="Trazado_821239" data-name="Trazado 821239" d="M862.5,614c.358-.873.733-1.74,1.1-2.609l.141-.325c.025-.054.045-.109.074-.163a.468.468,0,0,1,.118-.137.5.5,0,0,1,.342-.1h.354c.473,0,.944.005,1.416.013-.473.007-.944.011-1.416.011h-.354a.477.477,0,0,0-.323.1.425.425,0,0,0-.11.13c-.027.049-.048.106-.071.16l-.138.326c-.378.864-.746,1.734-1.132,2.6Z" transform="translate(-832.4 -600.797)" fill="#d2d9e1"/>
          <path id="Trazado_821240" data-name="Trazado 821240" d="M841.62,634.477c.485-.015.97-.011,1.455-.017s.97,0,1.455.017c-.485.015-.97.011-1.455.017S842.105,634.491,841.62,634.477Z" transform="translate(-814.43 -621.271)" fill="#d2d9e1"/>
          <path id="Trazado_821241" data-name="Trazado 821241" d="M816.19,610.7c.473-.007.944-.011,1.416-.011h.354a.489.489,0,0,1,.341.1.464.464,0,0,1,.119.137c.031.054.049.109.074.163l.141.325c.367.87.742,1.735,1.1,2.609-.386-.862-.754-1.73-1.132-2.6l-.138-.326c-.024-.053-.045-.112-.071-.16a.447.447,0,0,0-.11-.13.468.468,0,0,0-.323-.095h-.354C817.134,610.71,816.663,610.707,816.19,610.7Z" transform="translate(-792.545 -600.812)" fill="#d2d9e1"/>
          <path id="Trazado_821242" data-name="Trazado 821242" d="M816.19,610.78l.467.779a.412.412,0,0,0,.254.187l2.034.507-.514-1.2a.454.454,0,0,0-.417-.275Z" transform="translate(-792.545 -600.892)" fill="#1f4168"/>
          <path id="Trazado_821243" data-name="Trazado 821243" d="M735.47,846.629l2.03-.008a2.671,2.671,0,0,1,1.869.676,2.828,2.828,0,0,1,.344.375c.1.138.191.28.284.421l.56.846,1.119,1.694,4.455,6.788-4.483-6.769-1.115-1.7-.558-.848c-.093-.141-.184-.284-.283-.421a2.786,2.786,0,0,0-.34-.372,2.656,2.656,0,0,0-1.854-.676l-2.03-.008Z" transform="translate(-723.077 -803.857)" fill="#d2d9e1"/>
          <path id="Trazado_821244" data-name="Trazado 821244" d="M770.664,801.757l-1.012,0c-.337,0-.675.011-1.012-.013a5.681,5.681,0,0,1-2.83-1,7.862,7.862,0,0,1-.783-.641l-1.514-1.342-6.033-5.392,6.057,5.365,1.51,1.347a7.776,7.776,0,0,0,.779.641,5.681,5.681,0,0,0,2.817,1.008c.336.027.673.018,1.011.021l1.012,0Z" transform="translate(-742.019 -758.03)" fill="#d2d9e1"/>
          <circle id="Elipse_9917" data-name="Elipse 9917" cx="0.736" cy="0.736" r="0.736" transform="translate(14.378 43.933)" fill="#1f4168"/>
          <path id="Trazado_821245" data-name="Trazado 821245" d="M671.27,833.376a.736.736,0,1,0,.736-.736A.735.735,0,0,0,671.27,833.376Z" transform="translate(-667.826 -791.826)" fill="#1f4168"/>
          <path id="Trazado_821246" data-name="Trazado 821246" d="M727.1,891.421,728.893,895l.446.895a2,2,0,0,1,.187.979l0,2-.019,8-.015-8,0-2a1.972,1.972,0,0,0-.181-.967l-.443-.9L727.1,891.42Z" transform="translate(-715.874 -842.413)" fill="#d2d9e1"/>
          <rect id="Rectángulo_376501" data-name="Rectángulo 376501" width="3.146" height="1.151" transform="translate(27.072 45.614)" fill="#f9a21b"/>
          <path id="Trazado_821247" data-name="Trazado 821247" d="M803.35,645.691a.981.981,0,1,0,.981-.981A.981.981,0,0,0,803.35,645.691Z" transform="translate(-781.495 -630.092)" fill="#f9a21b"/>
          <g id="Grupo_1073821" data-name="Grupo 1073821" transform="translate(21.168 13.821)">
            <path id="Trazado_821248" data-name="Trazado 821248" d="M800.2,639.212a.163.163,0,0,1-.139.082,1.445,1.445,0,0,0-1.334.91.154.154,0,0,1-.145.1.131.131,0,0,1-.06-.013.154.154,0,0,1-.085-.2,1.759,1.759,0,0,1,1.409-1.094h0a2.566,2.566,0,0,1,.351.222Z" transform="translate(-798.42 -638.99)" fill="#f9a21b"/>
            <path id="Trazado_821249" data-name="Trazado 821249" d="M813.169,653.471a1.8,1.8,0,0,1-1.356,1.246l-.035,0a.159.159,0,0,1-.032-.314,1.475,1.475,0,0,0,1.147-1.144.15.15,0,0,1,.07-.1l.2.31Z" transform="translate(-809.781 -651.185)" fill="#f9a21b"/>
          </g>
          <path id="Trazado_821250" data-name="Trazado 821250" d="M808.255,644.688l-.952-2.333-.945-2.336v0l-1.006-1.522c-.085-.125-.166-.255-.255-.378a2.992,2.992,0,0,0-.64-.643,2.749,2.749,0,0,0-.382-.248h0a3.162,3.162,0,0,0-.733-.29,3.132,3.132,0,0,1,.739.28h0a3.1,3.1,0,0,1,1.034.886c.091.123.171.252.258.378L806.387,640h0v0l.937,2.339.93,2.342Z" transform="translate(-781.486 -623.405)" fill="#d2d9e1"/>
          <path id="Trazado_821251" data-name="Trazado 821251" d="M751.46,649.916a.069.069,0,0,1-.07-.07V647.57a.07.07,0,1,1,.139,0v2.276A.069.069,0,0,1,751.46,649.916Z" transform="translate(-736.778 -632.493)" fill="#f9a21b"/>
          <path id="Trazado_821252" data-name="Trazado 821252" d="M697.787,832.863l-.017-7.922.017-7.922.018,7.922Z" transform="translate(-690.632 -778.384)" fill="#d2d9e1"/>
          <path id="Trazado_821253" data-name="Trazado 821253" d="M676.55,856.38c.485-.482.984-.952,1.476-1.427s.994-.942,1.5-1.4c-.485.482-.984.952-1.476,1.427S677.056,855.92,676.55,856.38Z" transform="translate(-672.37 -809.822)" fill="#d2d9e1"/>
          <path id="Trazado_821254" data-name="Trazado 821254" d="M676.447,882.938c-.015-1.515-.011-3.029-.017-4.544s0-3.029.017-4.544c.015,1.515.011,3.029.017,4.544S676.461,881.423,676.447,882.938Z" transform="translate(-672.267 -827.292)" fill="#d2d9e1"/>
          <path id="Trazado_821255" data-name="Trazado 821255" d="M660.209,888.141a.349.349,0,0,1-.348-.348v-2.674a.348.348,0,1,1,.7,0v2.674A.349.349,0,0,1,660.209,888.141Z" transform="translate(-658.006 -836.69)" fill="#f9a21b"/>
          <path id="Trazado_821256" data-name="Trazado 821256" d="M713.649,862.031a.349.349,0,0,1-.349-.348v-2.674a.348.348,0,1,1,.7,0v2.674A.348.348,0,0,1,713.649,862.031Z" transform="translate(-703.997 -814.219)" fill="#f9a21b"/>
        </g>
      </g>
    </g>
    <g id="FRONT" transform="translate(-3274.341 16426.781)">
      <path id="Trazado_821268" data-name="Trazado 821268" d="M829.927,1682.249H512.315a.21.21,0,0,1,0-.418H829.927a.21.21,0,0,1,0,.418Z" transform="translate(-512.12 -1519.987)" fill="#1f4168"/>
      <g id="Grupo_1073828" data-name="Grupo 1073828" transform="translate(274.484 0)">
        <path id="Trazado_821269" data-name="Trazado 821269" d="M2481.9,527.033a9.123,9.123,0,0,1,17.725,2.417l1.946,2.177L2499.135,533a9.121,9.121,0,0,1-17.239-5.967Z" transform="translate(-2481.378 -520.874)" fill="#fff"/>
        <path id="Trazado_821270" data-name="Trazado 821270" d="M2522.947,572.183l-2.451-2.459a.391.391,0,0,1,0-.552l.782-.782a.392.392,0,0,1,.554,0l1.389,1.4,3.16-3.142a.391.391,0,0,1,.552,0l.783.784a.391.391,0,0,1,0,.553l-4.218,4.2a.391.391,0,0,1-.552,0Z" transform="translate(-2514.933 -560.152)" fill="#222b89"/>
        <path id="Trazado_821271" data-name="Trazado 821271" d="M2490.417,539.039a9.138,9.138,0,1,1,9.131-9.711l1.956,2.19-2.445,1.38a9.155,9.155,0,0,1-8.641,6.143Zm0-18.248a9.106,9.106,0,1,0,8.61,12.087l0-.005.006,0,2.413-1.362-1.935-2.166v-.006a9.126,9.126,0,0,0-9.1-8.543Z" transform="translate(-2481.286 -520.758)" fill="#1f4068"/>
      </g>
    </g>
  </g>
</svg>
