<svg xmlns="http://www.w3.org/2000/svg" xmlns:xlink="http://www.w3.org/1999/xlink" width="123" height="123" viewBox="0 0 123 123">
  <defs>
    <filter id="Elipse_4721" x="0" y="0" width="123" height="123" filterUnits="userSpaceOnUse">
      <feOffset dy="1" input="SourceAlpha"/>
      <feGaussianBlur stdDeviation="5.5" result="blur"/>
      <feFlood flood-color="#fff" flood-opacity="0.902"/>
      <feComposite operator="in" in2="blur"/>
      <feComposite in="SourceGraphic"/>
    </filter>
  </defs>
  <g id="Grupo_1074998" data-name="Grupo 1074998" transform="translate(-1070.833 -405.82)">
    <g transform="matrix(1, 0, 0, 1, 1070.83, 405.82)" filter="url(#Elipse_4721)">
      <g id="Elipse_4721-2" data-name="Elipse 4721" transform="translate(16.5 15.5)" fill="none" stroke="#fff" stroke-width="6">
        <circle cx="45" cy="45" r="45" stroke="none"/>
        <circle cx="45" cy="45" r="42" fill="none"/>
      </g>
    </g>
    <g id="aumentar" transform="translate(1101.855 435.844)">
      <path id="Trazado_821347" data-name="Trazado 821347" d="M65.48,67.743H11.172A2.263,2.263,0,0,1,8.909,65.48V11.172a2.263,2.263,0,0,1,2.263-2.263H65.48a2.263,2.263,0,0,1,2.263,2.263V65.48A2.263,2.263,0,0,1,65.48,67.743Z" transform="translate(-7.848 -7.848)" fill="#b4e66e"/>
      <path id="Trazado_821348" data-name="Trazado 821348" d="M31.538,63.218a18.1,18.1,0,0,1-18.1-18.1V8.91H11.173A2.263,2.263,0,0,0,8.91,11.173V65.481a2.263,2.263,0,0,0,2.263,2.263H65.481a2.263,2.263,0,0,0,2.263-2.263V63.218H31.538Z" transform="translate(-7.849 -7.849)" fill="#a0d755"/>
      <path id="Trazado_821349" data-name="Trazado 821349" d="M96.478,70.456l3.491,3.491L73.947,99.97l-3.491-3.491L65.93,111.187l14.709-4.526-3.491-3.491L103.17,77.147l3.491,3.491,4.526-14.709Z" transform="translate(-58.081 -58.081)" fill="#fff"/>
      <path id="Trazado_821350" data-name="Trazado 821350" d="M57.631,0H3.323A3.327,3.327,0,0,0,0,3.323V57.631a3.327,3.327,0,0,0,3.323,3.324H57.631a3.327,3.327,0,0,0,3.324-3.324V3.323A3.327,3.327,0,0,0,57.631,0Zm1.2,57.631a1.2,1.2,0,0,1-1.2,1.2H3.323a1.2,1.2,0,0,1-1.2-1.2V3.323a1.2,1.2,0,0,1,1.2-1.2H57.631a1.2,1.2,0,0,1,1.2,1.2V57.631Z"/>
      <path id="Trazado_821351" data-name="Trazado 821351" d="M223.7,57.067,209,61.593a1.061,1.061,0,0,0-.438,1.764L211.3,66.1l-1.159,1.159a1.061,1.061,0,0,0,1.5,1.5l1.909-1.909a1.061,1.061,0,0,0,0-1.5L211.3,63.1l11.11-3.418-3.418,11.11-2.246-2.246a1.061,1.061,0,0,0-1.5,0L194.317,89.48a1.061,1.061,0,1,0,1.5,1.5L216,70.8l2.741,2.741A1.061,1.061,0,0,0,220.5,73.1l4.526-14.708a1.061,1.061,0,0,0-1.326-1.326Z" transform="translate(-170.91 -50.232)"/>
      <path id="Trazado_821352" data-name="Trazado 821352" d="M70.8,191.533l1.265-1.265a1.061,1.061,0,0,0-1.5-1.5l-2.015,2.015a1.061,1.061,0,0,0,0,1.5l2.246,2.246-11.11,3.418,3.418-11.11,2.246,2.246a1.061,1.061,0,0,0,1.5,0l21.037-21.037a1.061,1.061,0,1,0-1.5-1.5L66.1,186.833l-2.741-2.741a1.061,1.061,0,0,0-1.764.438l-4.526,14.709a1.061,1.061,0,0,0,1.326,1.326L73.1,196.038a1.061,1.061,0,0,0,.438-1.764Z" transform="translate(-50.233 -146.444)"/>
      <g id="navegacion" transform="translate(40.426 37.469)">
        <path id="Trazado_821353" data-name="Trazado 821353" d="M8.6,9.415l.018.047,12.927,32.6a.619.619,0,0,0,1.18-.1l.181-.882,2.985-14.411.047-.234a.628.628,0,0,1,.479-.479l.234-.047L41.94,22.74a.619.619,0,0,0,.1-1.18L10.336,8.988l-.894-.356L9.4,8.615a.614.614,0,0,0-.8.8Zm0,0" transform="translate(-7.963 -7.983)" fill="#fab700"/>
        <path id="Trazado_821354" data-name="Trazado 821354" d="M8.6,15.121l.017.047L21.149,46.783l2.985-14.411.047-.234a.628.628,0,0,1,.479-.479l.234-.047,15.293-3.166a.619.619,0,0,0,.1-1.18L8.584,14.694a.6.6,0,0,0,.012.427Zm0,0" transform="translate(-6.211 -13.689)" fill="#fad200"/>
        <path id="Trazado_821355" data-name="Trazado 821355" d="M14.155,35.053c.036,0,.071,0,.107,0a1.2,1.2,0,0,0,1.074-.955h0l3.212-15.524L34.1,15.33a1.2,1.2,0,0,0,.2-2.3L1.657.089A1.188,1.188,0,0,0,.363.357,1.187,1.187,0,0,0,.1,1.651L13.04,34.294a1.194,1.194,0,0,0,1.115.759Zm.037-1.2c0,.018-.005.025-.031.028L1.181,1.22l.045-.045L33.869,14.12l.112.638-.118-.572L18.338,17.4a1.2,1.2,0,0,0-.935.935Zm0,0" transform="translate(-0.008 -0.002)"/>
        <path id="Trazado_821356" data-name="Trazado 821356" d="M247.3,146.024a.584.584,0,0,0,.413-1l-8.208-8.208a.584.584,0,0,0-.826.826l8.207,8.208A.583.583,0,0,0,247.3,146.024Zm0,0" transform="translate(-229.157 -127.3)"/>
        <path id="Trazado_821357" data-name="Trazado 821357" d="M399.946,10.732a.584.584,0,0,0,.413-1L393.53,2.906a.584.584,0,0,0-.826.826l6.829,6.829A.583.583,0,0,0,399.946,10.732Zm0,0" transform="translate(-392.35 -2.552)"/>
      </g>
    </g>
  </g>
</svg>
