<svg xmlns="http://www.w3.org/2000/svg" xmlns:xlink="http://www.w3.org/1999/xlink" width="123" height="123" viewBox="0 0 123 123">
  <defs>
    <filter id="Elipse_4721" x="0" y="0" width="123" height="123" filterUnits="userSpaceOnUse">
      <feOffset dy="1" input="SourceAlpha"/>
      <feGaussianBlur stdDeviation="5.5" result="blur"/>
      <feFlood flood-color="#fff" flood-opacity="0.902"/>
      <feComposite operator="in" in2="blur"/>
      <feComposite in="SourceGraphic"/>
    </filter>
  </defs>
  <g id="Grupo_1074999" data-name="Grupo 1074999" transform="translate(-1070.833 -405.82)">
    <g transform="matrix(1, 0, 0, 1, 1070.83, 405.82)" filter="url(#Elipse_4721)">
      <g id="Elipse_4721-2" data-name="Elipse 4721" transform="translate(16.5 15.5)" fill="none" stroke="#fff" stroke-width="6">
        <circle cx="45" cy="45" r="45" stroke="none"/>
        <circle cx="45" cy="45" r="42" fill="none"/>
      </g>
    </g>
    <g id="portapapeles_1_" data-name="portapapeles (1)" transform="translate(1071.485 427.132)">
      <g id="Grupo_1073860" data-name="Grupo 1073860" transform="translate(31.684 1.125)">
        <g id="Grupo_1073859" data-name="Grupo 1073859" transform="translate(0)">
          <g id="Grupo_1073857" data-name="Grupo 1073857" transform="translate(0 0.016)">
            <g id="Grupo_1073856" data-name="Grupo 1073856">
              <g id="Grupo_1073855" data-name="Grupo 1073855">
                <g id="Grupo_1073854" data-name="Grupo 1073854">
                  <g id="Grupo_1073853" data-name="Grupo 1073853">
                    <g id="Grupo_1073852" data-name="Grupo 1073852">
                      <g id="Grupo_1073851" data-name="Grupo 1073851">
                        <g id="Grupo_1073850" data-name="Grupo 1073850">
                          <path id="Trazado_821400" data-name="Trazado 821400" d="M90.709,35.256H41.862a3.825,3.825,0,0,0-3.826,3.826v64.169a3.825,3.825,0,0,0,3.826,3.826H90.709a3.825,3.825,0,0,0,3.826-3.826V39.082A3.825,3.825,0,0,0,90.709,35.256Z" transform="translate(-38.036 -30.996)" fill="#fff5f5"/>
                          <path id="Trazado_821401" data-name="Trazado 821401" d="M358.466,35.171h-4.239v71.865h4.239a3.828,3.828,0,0,0,3.828-3.828V39a3.828,3.828,0,0,0-3.828-3.828Z" transform="translate(-305.795 -30.924)" fill="#ebe1dc"/>
                          <path id="Trazado_821402" data-name="Trazado 821402" d="M164.931,15.966H145.076a2.274,2.274,0,0,1-2.274-2.274V9.721a2.274,2.274,0,0,1,2.274-2.274h19.855a2.274,2.274,0,0,1,2.274,2.274v3.97A2.274,2.274,0,0,1,164.931,15.966Z" transform="translate(-126.755 -7.447)" fill="#fff5f5"/>
                        </g>
                      </g>
                    </g>
                  </g>
                </g>
                <path id="Trazado_821415" data-name="Trazado 821415" d="M13.622,0A13.622,13.622,0,1,1,0,13.622,13.622,13.622,0,0,1,13.622,0Z" transform="translate(39.481 48.836)" fill="#f81534"/>
                <path id="Trazado_821403" data-name="Trazado 821403" d="M362.425,326.274a13.618,13.618,0,0,0-4.033.607,13.627,13.627,0,0,1,0,26.03,13.624,13.624,0,1,0,4.033-26.637Z" transform="translate(-309.322 -277.438)" fill="#c2132b"/>
              </g>
            </g>
          </g>
          <g id="Grupo_1073858" data-name="Grupo 1073858" transform="translate(32.375)">
            <path id="Trazado_821404" data-name="Trazado 821404" d="M255.186,7.345h-5.791v8.524h5.791a2.276,2.276,0,0,0,2.276-2.276V9.621A2.276,2.276,0,0,0,255.186,7.345Z" transform="translate(-249.395 -7.345)" fill="#4a4e67"/>
          </g>
        </g>
      </g>
      <g id="Grupo_1073874" data-name="Grupo 1073874" transform="translate(30.535 0)">
        <g id="Grupo_1073869" data-name="Grupo 1073869" transform="translate(9.647 16.358)">
          <g id="Grupo_1073875" data-name="Grupo 1073875" transform="translate(-1105.667 -441.692)">
            <g id="eliminar" transform="translate(1105.365 440.524)">
              <g id="Grupo_1073848" data-name="Grupo 1073848" transform="translate(1.349 1.354)">
                <path id="Trazado_821360" data-name="Trazado 821360" d="M61.387,63.575a3.407,3.407,0,1,1-3.407-3.407A3.406,3.406,0,0,1,61.387,63.575Zm0,0" transform="translate(-54.574 -60.168)" fill="#40c1fa"/>
                <path id="Trazado_821361" data-name="Trazado 821361" d="M61.387,142.517a3.407,3.407,0,1,1-3.407-3.407A3.407,3.407,0,0,1,61.387,142.517Zm0,0" transform="translate(-54.574 -125.066)" fill="#40c1fa"/>
                <path id="Trazado_821362" data-name="Trazado 821362" d="M61.387,221.461a3.407,3.407,0,1,1-3.407-3.407A3.407,3.407,0,0,1,61.387,221.461Zm0,0" transform="translate(-54.574 -189.966)" fill="#40c1fa"/>
                <path id="Trazado_821363" data-name="Trazado 821363" d="M61.387,300.4A3.407,3.407,0,1,1,57.981,297,3.406,3.406,0,0,1,61.387,300.4Zm0,0" transform="translate(-54.574 -254.864)" fill="#40c1fa"/>
              </g>
              <path id="Trazado_821367" data-name="Trazado 821367" d="M51.749,52.555a4.757,4.757,0,1,0,4.757,4.757A4.763,4.763,0,0,0,51.749,52.555Zm0,6.813a2.056,2.056,0,1,1,2.056-2.056A2.058,2.058,0,0,1,51.749,59.368Zm0,0" transform="translate(-46.992 -52.555)"/>
              <path id="Trazado_821368" data-name="Trazado 821368" d="M247.825,74.4a1.35,1.35,0,0,0,0-2.7H244.8a1.35,1.35,0,0,0,0,2.7Zm0,0" transform="translate(-208.499 -68.297)"/>
              <path id="Trazado_821369" data-name="Trazado 821369" d="M123.342,74.4h16.206a1.35,1.35,0,0,0,0-2.7H123.342a1.35,1.35,0,1,0,0,2.7Zm0,0" transform="translate(-108.649 -68.297)"/>
              <path id="Trazado_821370" data-name="Trazado 821370" d="M51.749,131.5a4.757,4.757,0,1,0,4.757,4.757A4.763,4.763,0,0,0,51.749,131.5Zm0,6.813a2.056,2.056,0,1,1,2.056-2.056A2.058,2.058,0,0,1,51.749,138.309Zm0,0" transform="translate(-46.992 -117.452)"/>
              <path id="Trazado_821371" data-name="Trazado 821371" d="M123.342,153.346h24.633a1.351,1.351,0,1,0,0-2.7H123.342a1.351,1.351,0,0,0,0,2.7Zm0,0" transform="translate(-108.649 -133.194)"/>
              <path id="Trazado_821372" data-name="Trazado 821372" d="M51.749,210.438a4.757,4.757,0,1,0,4.757,4.758,4.763,4.763,0,0,0-4.757-4.758Zm0,6.813a2.056,2.056,0,1,1,2.056-2.056A2.058,2.058,0,0,1,51.749,217.251Zm0,0" transform="translate(-46.992 -182.35)"/>
              <path id="Trazado_821373" data-name="Trazado 821373" d="M186.92,229.586H170.714a1.351,1.351,0,1,0,0,2.7H186.92a1.351,1.351,0,0,0,0-2.7Zm0,0" transform="translate(-147.593 -198.092)"/>
              <path id="Trazado_821417" data-name="Trazado 821417" d="M176.3,229.586h-6.4c-.295,0-.534.6-.534,1.351s.239,1.35.534,1.35h6.4c.295,0,.533-.6.533-1.35S176.594,229.586,176.3,229.586Zm0,0" transform="translate(-147.593 -184.047)"/>
              <path id="Trazado_821374" data-name="Trazado 821374" d="M123.342,232.288h3.026a1.351,1.351,0,0,0,0-2.7h-3.026a1.351,1.351,0,0,0,0,2.7Zm0,0" transform="translate(-108.649 -198.092)"/>
              <path id="Trazado_821416" data-name="Trazado 821416" d="M123.342,232.288h3.026a1.351,1.351,0,0,0,0-2.7h-3.026a1.351,1.351,0,0,0,0,2.7Zm0,0" transform="translate(-108.649 -184.047)"/>
              <path id="Trazado_821375" data-name="Trazado 821375" d="M51.749,289.383a4.757,4.757,0,1,0,4.757,4.757A4.763,4.763,0,0,0,51.749,289.383Zm0,6.813a2.056,2.056,0,1,1,2.056-2.056A2.058,2.058,0,0,1,51.749,296.2Zm0,0" transform="translate(-46.992 -247.251)"/>
            </g>
          </g>
        </g>
        <g id="Grupo_1073870" data-name="Grupo 1073870" transform="translate(16.048)">
          <path id="Trazado_821411" data-name="Trazado 821411" d="M158.58,10.817H138.725A3.427,3.427,0,0,1,135.3,7.393V3.423A3.427,3.427,0,0,1,138.725,0H158.58A3.427,3.427,0,0,1,162,3.423v3.97A3.427,3.427,0,0,1,158.58,10.817ZM138.725,2.3A1.127,1.127,0,0,0,137.6,3.423v3.97a1.127,1.127,0,0,0,1.126,1.126H158.58a1.127,1.127,0,0,0,1.126-1.126V3.423A1.127,1.127,0,0,0,158.58,2.3Z" transform="translate(-135.302 0)"/>
        </g>
        <g id="Grupo_1073871" data-name="Grupo 1073871" transform="translate(39.481 48.836)">
          <path id="Trazado_821412" data-name="Trazado 821412" d="M303.061,348.367A14.771,14.771,0,1,1,317.832,333.6,14.788,14.788,0,0,1,303.061,348.367Zm0-27.244A12.473,12.473,0,1,0,315.534,333.6,12.487,12.487,0,0,0,303.061,321.123Z" transform="translate(-288.29 -318.825)"/>
        </g>
        <g id="Grupo_1073872" data-name="Grupo 1073872" transform="translate(0 4.259)">
          <path id="Trazado_821413" data-name="Trazado 821413" d="M73.318,101.926H35.509a4.98,4.98,0,0,1-4.974-4.974V32.782a4.98,4.98,0,0,1,4.974-4.974H42.37a1.149,1.149,0,1,1,0,2.3H35.509a2.68,2.68,0,0,0-2.677,2.677V96.952a2.68,2.68,0,0,0,2.677,2.677H73.318a1.149,1.149,0,1,1,0,2.3Z" transform="translate(-30.535 -27.808)"/>
        </g>
        <g id="Grupo_1073873" data-name="Grupo 1073873" transform="translate(45.812 4.259)">
          <path id="Trazado_821414" data-name="Trazado 821414" d="M341.457,69.763a1.149,1.149,0,0,1-1.149-1.149V32.782a2.68,2.68,0,0,0-2.677-2.677h-6.861a1.149,1.149,0,0,1,0-2.3h6.861a4.98,4.98,0,0,1,4.975,4.974V68.615a1.149,1.149,0,0,1-1.149,1.149Z" transform="translate(-329.622 -27.808)"/>
        </g>
      </g>
    </g>
  </g>
</svg>
