<svg xmlns="http://www.w3.org/2000/svg" xmlns:xlink="http://www.w3.org/1999/xlink" width="123" height="123" viewBox="0 0 123 123">
  <defs>
    <filter id="Elipse_4721" x="0" y="0" width="123" height="123" filterUnits="userSpaceOnUse">
      <feOffset dy="1" input="SourceAlpha"/>
      <feGaussianBlur stdDeviation="5.5" result="blur"/>
      <feFlood flood-color="#fff" flood-opacity="0.902"/>
      <feComposite operator="in" in2="blur"/>
      <feComposite in="SourceGraphic"/>
    </filter>
  </defs>
  <g id="Grupo_1075088" data-name="Grupo 1075088" transform="translate(5166.457 -13499.5)">
    <g transform="matrix(1, 0, 0, 1, -5166.46, 13499.5)" filter="url(#Elipse_4721)">
      <g id="Elipse_4721-2" data-name="Elipse 4721" transform="translate(16.5 15.5)" fill="none" stroke="#fff" stroke-width="6">
        <circle cx="45" cy="45" r="45" stroke="none"/>
        <circle cx="45" cy="45" r="42" fill="none"/>
      </g>
    </g>
    <g id="nota" transform="translate(-5161.459 13494.254)">
      <path id="Trazado_821378" data-name="Trazado 821378" d="M440.846,274.849a3.987,3.987,0,0,0-5.522-1.142l-.334.218,4.379,6.665.334-.218a3.985,3.985,0,0,0,1.143-5.524Z" transform="translate(-340.948 -206.827)" fill="#6a8ddd"/>
      <path id="Trazado_821379" data-name="Trazado 821379" d="M83.414,58h-42.7A4.672,4.672,0,0,0,36,62.684V119.77a4.773,4.773,0,0,0,4.719,4.8h42.7a4.818,4.818,0,0,0,4.769-4.8V62.684A4.717,4.717,0,0,0,83.414,58ZM46.767,67.3a2.627,2.627,0,1,1,2.627-2.627A2.627,2.627,0,0,1,46.767,67.3Zm9.886,0a2.627,2.627,0,1,1,2.627-2.627A2.627,2.627,0,0,1,56.654,67.3Zm9.888,0a2.625,2.625,0,1,1,1.858-.769A2.627,2.627,0,0,1,66.542,67.3Zm9.886,0a2.627,2.627,0,1,1,2.627-2.627A2.627,2.627,0,0,1,76.428,67.3Z" transform="translate(-5.051 -25.781)" fill="#deedfd"/>
      <path id="Trazado_821380" data-name="Trazado 821380" d="M300.014,313.049,289.84,319.73l-2.19-3.332,25.489-16.738,2.189,3.332Z" transform="translate(-216.907 -229.228)" fill="#ec2a41"/>
      <path id="Trazado_821381" data-name="Trazado 821381" d="M301.479,281.913,275.99,298.652l-2.19-3.333,14.554-9.557,10.935-7.181Z" transform="translate(-205.247 -211.481)" fill="#f85762"/>
      <path id="Trazado_821382" data-name="Trazado 821382" d="M254.429,384.43l-.1.19-3.537,6.686,8.019-.21Z" transform="translate(-185.876 -300.593)" fill="#c79a83"/>
      <path id="Trazado_821383" data-name="Trazado 821383" d="M78.97,162.9a5.491,5.491,0,1,1-5.49,5.491,5.491,5.491,0,0,1,5.49-5.491Z" transform="translate(-36.604 -114.094)" fill="#16e146"/>
      <path id="Trazado_821384" data-name="Trazado 821384" d="M78.97,262.9a5.491,5.491,0,1,1-5.49,5.491,5.491,5.491,0,0,1,5.49-5.491Z" transform="translate(-36.604 -198.281)" fill="#16e146"/>
      <path id="Trazado_821385" data-name="Trazado 821385" d="M78.97,362.9a5.491,5.491,0,1,1-5.49,5.491,5.491,5.491,0,0,1,5.49-5.491Z" transform="translate(-36.604 -282.468)" fill="#16e146"/>
      <path id="Trazado_821386" data-name="Trazado 821386" d="M40.744,119.77V62.684A4.672,4.672,0,0,1,45.463,58H40.719A4.672,4.672,0,0,0,36,62.684V119.77a4.773,4.773,0,0,0,4.719,4.8h4.744A4.773,4.773,0,0,1,40.744,119.77Z" transform="translate(-5.051 -25.781)" fill="#a0c7ef"/>
      <g id="Grupo_1073849" data-name="Grupo 1073849" transform="translate(30 27.375)">
        <path id="Trazado_821387" data-name="Trazado 821387" d="M173.149,181.9h23.72a.949.949,0,0,0,0-1.9h-23.72a.949.949,0,1,0,0,1.9Z" transform="translate(-149.714 -155.865)" fill="#12263f"/>
        <path id="Trazado_821388" data-name="Trazado 821388" d="M93.217,183.489,91.109,185.5l-.855-.855a.949.949,0,1,0-1.342,1.342l1.511,1.511a.949.949,0,0,0,1.327.015l2.779-2.657a.949.949,0,1,0-1.311-1.371Z" transform="translate(-79.362 -158.581)" fill="#284268"/>
        <path id="Trazado_821389" data-name="Trazado 821389" d="M73.917,156.9a6.439,6.439,0,1,0,6.439,6.439A6.439,6.439,0,0,0,73.917,156.9Zm0,10.981a4.542,4.542,0,1,1,4.542-4.542,4.542,4.542,0,0,1-4.542,4.542Z" transform="translate(-61.552 -136.418)" fill="#12263f"/>
        <path id="Trazado_821390" data-name="Trazado 821390" d="M173.149,281.9h23.72a.949.949,0,0,0,0-1.9h-23.72a.949.949,0,0,0,0,1.9Z" transform="translate(-149.714 -240.052)" fill="#12263f"/>
        <path id="Trazado_821391" data-name="Trazado 821391" d="M93.217,283.489,91.109,285.5l-.855-.855a.949.949,0,1,0-1.342,1.342l1.511,1.511a.949.949,0,0,0,1.327.015l2.779-2.657a.949.949,0,1,0-1.311-1.371Z" transform="translate(-79.362 -242.767)" fill="#284268"/>
        <path id="Trazado_821392" data-name="Trazado 821392" d="M73.917,256.9a6.439,6.439,0,1,0,6.439,6.439A6.439,6.439,0,0,0,73.917,256.9Zm0,10.981a4.542,4.542,0,1,1,4.542-4.542,4.542,4.542,0,0,1-4.542,4.542Z" transform="translate(-61.552 -220.605)" fill="#12263f"/>
        <path id="Trazado_821393" data-name="Trazado 821393" d="M93.217,383.489,91.109,385.5l-.855-.855a.949.949,0,1,0-1.342,1.342l1.511,1.511a.949.949,0,0,0,1.327.015l2.779-2.657a.949.949,0,0,0-1.311-1.371Z" transform="translate(-79.362 -326.954)" fill="#284268"/>
        <path id="Trazado_821394" data-name="Trazado 821394" d="M73.917,356.9a6.439,6.439,0,1,0,6.439,6.439A6.439,6.439,0,0,0,73.917,356.9Zm0,10.981a4.542,4.542,0,1,1,4.542-4.542,4.542,4.542,0,0,1-4.542,4.542Z" transform="translate(-61.552 -304.792)" fill="#12263f"/>
        <path id="Trazado_821395" data-name="Trazado 821395" d="M173.149,201.9H185.8a.949.949,0,1,0,0-1.9H173.149a.949.949,0,1,0,0,1.9Z" transform="translate(-149.714 -172.702)" fill="#12263f"/>
        <path id="Trazado_821396" data-name="Trazado 821396" d="M173.149,301.9H185.8a.949.949,0,1,0,0-1.9H173.149a.949.949,0,0,0,0,1.9Z" transform="translate(-149.714 -256.889)" fill="#12263f"/>
        <path id="Trazado_821397" data-name="Trazado 821397" d="M53.949,94.1a.949.949,0,0,0-.949.949v1a.949.949,0,0,0,1.9,0v-1a.949.949,0,0,0-.949-.949Z" transform="translate(-49.363 -83.549)" fill="#12263f"/>
        <path id="Trazado_821398" data-name="Trazado 821398" d="M53.949,119.391a.949.949,0,0,0-.949.949v9.172a.949.949,0,0,0,1.9,0V120.34a.949.949,0,0,0-.949-.949Z" transform="translate(-49.363 -104.84)" fill="#12263f"/>
        <path id="Trazado_821399" data-name="Trazado 821399" d="M97.565,65.378a4.905,4.905,0,0,0-3.712.708L84.081,72.5V36.9a5.671,5.671,0,0,0-5.719-5.633H72.379V28.324a.949.949,0,0,0-1.9,0v2.945H62.417V28.324a.949.949,0,0,0-1.9,0v2.945H52.613V28.324a.949.949,0,0,0-1.9,0v2.945H42.651V28.324a.949.949,0,0,0-1.9,0v2.945H35.667A5.627,5.627,0,0,0,30,36.9V93.988a5.728,5.728,0,0,0,5.667,5.752h42.7a5.772,5.772,0,0,0,5.719-5.752V84.316l15.194-9.978a4.936,4.936,0,0,0-1.71-8.96ZM71.377,37.211A1.678,1.678,0,1,1,69.7,38.888,1.678,1.678,0,0,1,71.377,37.211Zm-9.887,0a1.678,1.678,0,1,1-1.678,1.678,1.678,1.678,0,0,1,1.678-1.678Zm-9.887,0a1.678,1.678,0,1,1-1.678,1.678A1.678,1.678,0,0,1,51.6,37.211Zm-9.887,0a1.678,1.678,0,1,1-1.678,1.678,1.678,1.678,0,0,1,1.678-1.678ZM82.184,93.988a3.873,3.873,0,0,1-3.821,3.854h-42.7A3.828,3.828,0,0,1,31.9,93.988V36.9a3.727,3.727,0,0,1,3.769-3.736h5.086v2.275a3.682,3.682,0,0,0-2.619,3.447,3.575,3.575,0,0,0,7.149,0,3.508,3.508,0,0,0-2.632-3.447V33.167h8.065v2.275a3.53,3.53,0,0,0-2.657,3.447,3.579,3.579,0,1,0,7.158,0,3.669,3.669,0,0,0-2.6-3.447V33.167h7.907v2.275A3.679,3.679,0,0,0,57.9,38.889a3.574,3.574,0,0,0,7.148,0,3.511,3.511,0,0,0-2.634-3.447V33.167h8.065v2.275a3.526,3.526,0,0,0-2.653,3.447,3.579,3.579,0,0,0,7.157,0,3.672,3.672,0,0,0-2.606-3.447V33.167h5.983A3.772,3.772,0,0,1,82.184,36.9V73.751l-3.564,2.34a.949.949,0,1,0,1.042,1.586L93.77,68.412l1.148,1.747-23.9,15.7-1.148-1.747,4.491-2.949a.949.949,0,0,0-1.042-1.586l-5.28,3.467-.028.021c-.024.017-.047.034-.071.053l-.021.02H53.435a.949.949,0,1,0,0,1.9H66.846L66.174,86.3c-.029,0-.059,0-.089,0H53.435a.949.949,0,1,0,0,1.9H65.173l-1.1,2.072a.949.949,0,0,0,.838,1.393h.025l8.018-.21c.019,0,.039,0,.058-.005s.041,0,.062-.006.049-.01.074-.016.036-.007.054-.013a.942.942,0,0,0,.121-.046.3.3,0,0,0,.028-.016.948.948,0,0,0,.09-.05l.009-.005,8.73-5.733ZM71.2,89.6l-4.691.123L68.641,85.7Zm2-.41-.073-.111-1.075-1.636,23.9-15.7,1.148,1.747ZM98.666,72.408l-3.282-5a3.062,3.062,0,0,1,2.542.077,2.716,2.716,0,0,1,.628.419,3.048,3.048,0,0,1,.112,4.5Z" transform="translate(-30 -27.375)" fill="#12263f"/>
      </g>
    </g>
  </g>
</svg>
