<svg xmlns="http://www.w3.org/2000/svg" xmlns:xlink="http://www.w3.org/1999/xlink" width="123" height="123" viewBox="0 0 123 123">
  <defs>
    <filter id="Elipse_4721" x="0" y="0" width="123" height="123" filterUnits="userSpaceOnUse">
      <feOffset dy="1" input="SourceAlpha"/>
      <feGaussianBlur stdDeviation="5.5" result="blur"/>
      <feFlood flood-color="#fff" flood-opacity="0.902"/>
      <feComposite operator="in" in2="blur"/>
      <feComposite in="SourceGraphic"/>
    </filter>
  </defs>
  <g id="Grupo_1075087" data-name="Grupo 1075087" transform="translate(4851.5 -13501.5)">
    <g transform="matrix(1, 0, 0, 1, -4851.5, 13501.5)" filter="url(#Elipse_4721)">
      <g id="Elipse_4721-2" data-name="Elipse 4721" transform="translate(16.5 15.5)" fill="none" stroke="#fff" stroke-width="6">
        <circle cx="45" cy="45" r="45" stroke="none"/>
        <circle cx="45" cy="45" r="42" fill="none"/>
      </g>
    </g>
    <g id="eliminar" transform="translate(-4824 13528.34)">
      <path id="Trazado_821358" data-name="Trazado 821358" d="M53.559,10.8v50.54a3.18,3.18,0,0,1-3.181,3.181H10.767a3.181,3.181,0,0,1-3.181-3.181V10.8a3.18,3.18,0,0,1,3.181-3.181H50.378A3.18,3.18,0,0,1,53.559,10.8Zm0,0" transform="translate(-6.45 -6.478)" fill="#ebe1dc"/>
      <path id="Trazado_821359" data-name="Trazado 821359" d="M89.708,10.8V58.763H53.278A3.18,3.18,0,0,1,50.1,55.582V7.617h36.43A3.18,3.18,0,0,1,89.708,10.8Zm0,0" transform="translate(-42.6 -6.478)" fill="#fff5f5"/>
      <g id="Grupo_1073848" data-name="Grupo 1073848" transform="translate(8.168 9.004)">
        <path id="Trazado_821360" data-name="Trazado 821360" d="M60.305,63.034a2.866,2.866,0,1,1-2.866-2.866A2.865,2.865,0,0,1,60.305,63.034Zm0,0" transform="translate(-54.574 -60.168)" fill="#40c1fa"/>
        <path id="Trazado_821361" data-name="Trazado 821361" d="M60.305,141.976a2.866,2.866,0,1,1-2.866-2.866A2.866,2.866,0,0,1,60.305,141.976Zm0,0" transform="translate(-54.574 -127.296)" fill="#40c1fa"/>
        <path id="Trazado_821362" data-name="Trazado 821362" d="M60.305,220.92a2.866,2.866,0,1,1-2.866-2.866A2.866,2.866,0,0,1,60.305,220.92Zm0,0" transform="translate(-54.574 -194.427)" fill="#40c1fa"/>
        <path id="Trazado_821363" data-name="Trazado 821363" d="M60.305,299.862A2.866,2.866,0,1,1,57.44,297,2.865,2.865,0,0,1,60.305,299.862Zm0,0" transform="translate(-54.574 -261.555)" fill="#40c1fa"/>
      </g>
      <path id="Trazado_821364" data-name="Trazado 821364" d="M281.824,299.691a16.568,16.568,0,1,1-12.95-16.186,16.591,16.591,0,0,1,12.95,16.186Zm0,0" transform="translate(-211.441 -240.74)" fill="#c2132b"/>
      <path id="Trazado_821365" data-name="Trazado 821365" d="M323.125,301.964a16.591,16.591,0,0,1-12.95,16.186,16.589,16.589,0,0,1,0-32.371A16.591,16.591,0,0,1,323.125,301.964Zm0,0" transform="translate(-252.743 -243.012)" fill="#f81534"/>
      <path id="Trazado_821366" data-name="Trazado 821366" d="M284.449,380.667a2.279,2.279,0,0,1,2.272-2.272h17.721a2.272,2.272,0,1,1,0,4.544H286.721A2.279,2.279,0,0,1,284.449,380.667Zm0,0" transform="translate(-241.881 -321.768)" fill="#fff5f5"/>
      <path id="Trazado_821367" data-name="Trazado 821367" d="M50.994,52.555a4,4,0,1,0,4,4A4.006,4.006,0,0,0,50.994,52.555Zm0,5.731a1.73,1.73,0,1,1,1.73-1.73A1.731,1.731,0,0,1,50.994,58.286Zm0,0" transform="translate(-39.959 -44.691)"/>
      <path id="Trazado_821368" data-name="Trazado 821368" d="M247.13,73.975a1.136,1.136,0,0,0,0-2.272h-2.545a1.136,1.136,0,0,0,0,2.272Zm0,0" transform="translate(-207.017 -60.973)"/>
      <path id="Trazado_821369" data-name="Trazado 821369" d="M123.128,73.975H136.76a1.136,1.136,0,1,0,0-2.272H123.128a1.136,1.136,0,1,0,0,2.272Zm0,0" transform="translate(-103.736 -60.973)"/>
      <path id="Trazado_821370" data-name="Trazado 821370" d="M50.994,131.5a4,4,0,1,0,4,4A4.006,4.006,0,0,0,50.994,131.5Zm0,5.731a1.729,1.729,0,1,1,1.73-1.73A1.731,1.731,0,0,1,50.994,137.227Zm0,0" transform="translate(-39.959 -111.818)"/>
      <path id="Trazado_821371" data-name="Trazado 821371" d="M123.128,152.917h20.721a1.136,1.136,0,1,0,0-2.272H123.128a1.136,1.136,0,0,0,0,2.272Zm0,0" transform="translate(-103.736 -128.101)"/>
      <path id="Trazado_821372" data-name="Trazado 821372" d="M50.994,210.438a4,4,0,1,0,4,4,4.006,4.006,0,0,0-4-4Zm0,5.731a1.729,1.729,0,1,1,1.73-1.729A1.731,1.731,0,0,1,50.994,216.169Zm0,0" transform="translate(-39.959 -178.947)"/>
      <path id="Trazado_821373" data-name="Trazado 821373" d="M184.131,229.586H170.5a1.136,1.136,0,1,0,0,2.272h13.632a1.136,1.136,0,0,0,0-2.272Zm0,0" transform="translate(-144.018 -195.229)"/>
      <path id="Trazado_821374" data-name="Trazado 821374" d="M123.128,231.859h2.546a1.136,1.136,0,0,0,0-2.272h-2.546a1.136,1.136,0,0,0,0,2.272Zm0,0" transform="translate(-103.736 -195.229)"/>
      <path id="Trazado_821375" data-name="Trazado 821375" d="M50.994,289.383a4,4,0,1,0,4,4A4.006,4.006,0,0,0,50.994,289.383Zm0,5.731a1.73,1.73,0,1,1,1.73-1.73A1.731,1.731,0,0,1,50.994,295.114Zm0,0" transform="translate(-39.959 -246.078)"/>
      <path id="Trazado_821376" data-name="Trazado 821376" d="M48.246,42.037V4.316A4.322,4.322,0,0,0,43.929,0H4.318A4.323,4.323,0,0,0,0,4.316v50.54a4.323,4.323,0,0,0,4.317,4.316h8.909a1.136,1.136,0,1,0,0-2.272H4.318a2.048,2.048,0,0,1-2.045-2.045V4.316A2.048,2.048,0,0,1,4.318,2.272H43.929a2.047,2.047,0,0,1,2.045,2.045V42.952a17.809,17.809,0,0,0-4.992,3.621,1.135,1.135,0,0,0-.867-.4H19.392a1.136,1.136,0,0,0,0,2.272H39.4a17.608,17.608,0,0,0-3.31,8.458H17.77a1.136,1.136,0,1,0,0,2.272H35.983A17.721,17.721,0,1,0,48.246,42.037ZM53.7,74.348A15.448,15.448,0,1,1,69.151,58.9,15.466,15.466,0,0,1,53.7,74.348Zm0,0" transform="translate(0 0)"/>
      <path id="Trazado_821377" data-name="Trazado 821377" d="M297.989,370.8H280.268a3.408,3.408,0,1,0,0,6.816h17.721a3.408,3.408,0,1,0,0-6.816Zm0,4.544H280.268a1.136,1.136,0,1,1,0-2.272h17.721a1.136,1.136,0,0,1,0,2.272Zm0,0" transform="translate(-235.427 -315.315)"/>
    </g>
  </g>
</svg>
