<svg xmlns="http://www.w3.org/2000/svg" xmlns:xlink="http://www.w3.org/1999/xlink" width="123" height="123" viewBox="0 0 123 123">
  <defs>
    <filter id="Elipse_4721" x="0" y="0" width="123" height="123" filterUnits="userSpaceOnUse">
      <feOffset dy="1" input="SourceAlpha"/>
      <feGaussianBlur stdDeviation="5.5" result="blur"/>
      <feFlood flood-color="#fff" flood-opacity="0.902"/>
      <feComposite operator="in" in2="blur"/>
      <feComposite in="SourceGraphic"/>
    </filter>
  </defs>
  <g id="Grupo_1075086" data-name="Grupo 1075086" transform="translate(5165.957 -13836.473)">
    <g transform="matrix(1, 0, 0, 1, -5165.96, 13836.47)" filter="url(#Elipse_4721)">
      <g id="Elipse_4721-2" data-name="Elipse 4721" transform="translate(16.5 15.5)" fill="none" stroke="#fff" stroke-width="6">
        <circle cx="45" cy="45" r="45" stroke="none"/>
        <circle cx="45" cy="45" r="42" fill="none"/>
      </g>
    </g>
    <g id="comprobacion" transform="translate(-5142.911 13852.117)">
      <g id="Grupo_1073879" data-name="Grupo 1073879" transform="translate(9.219 9.189)">
        <g id="Grupo_1073877" data-name="Grupo 1073877" transform="translate(0 0)">
          <path id="Trazado_821419" data-name="Trazado 821419" d="M68.481,56.984a3.2,3.2,0,0,1,3.2,3.2v58.846a3.2,3.2,0,0,1-3.2,3.2H19.229a3.2,3.2,0,0,1-3.2-3.2V60.182a3.2,3.2,0,0,1,3.2-3.2Z" transform="translate(-16.031 -50.893)" fill="#a79ba7" fill-rule="evenodd"/>
          <path id="Trazado_821420" data-name="Trazado 821420" d="M334.909,56.984a3.2,3.2,0,0,1,3.2,3.2v58.846a3.2,3.2,0,0,1-3.2,3.2h-5.945V56.984Z" transform="translate(-282.459 -50.893)" fill="#837683" fill-rule="evenodd"/>
          <path id="Trazado_821421" data-name="Trazado 821421" d="M91.232,86.922H47.455a1.489,1.489,0,0,0-1.486,1.486V141.78a1.489,1.489,0,0,0,1.486,1.486H91.233a1.489,1.489,0,0,0,1.486-1.486V88.408A1.489,1.489,0,0,0,91.232,86.922Z" transform="translate(-41.52 -76.382)" fill="#eceff1" fill-rule="evenodd"/>
          <path id="Trazado_821422" data-name="Trazado 821422" d="M332.171,86.922h-3.208v56.344h3.208a1.489,1.489,0,0,0,1.486-1.486V88.408A1.489,1.489,0,0,0,332.171,86.922Z" transform="translate(-282.458 -76.382)" fill="#d1d1d6" fill-rule="evenodd"/>
          <path id="Trazado_821423" data-name="Trazado 821423" d="M121.89,20.158h5.542a5.438,5.438,0,0,1,10.57,0h5.542a1.489,1.489,0,0,1,1.486,1.486v5.343a1.489,1.489,0,0,1-1.486,1.486H121.89a1.489,1.489,0,0,1-1.486-1.486V21.644A1.489,1.489,0,0,1,121.89,20.158Z" transform="translate(-104.893 -16)" fill="#ecba78" fill-rule="evenodd"/>
          <path id="Trazado_821424" data-name="Trazado 821424" d="M143.544,43.976a1.489,1.489,0,0,1,1.486,1.486v5.343a1.489,1.489,0,0,1-1.486,1.486H121.89a1.489,1.489,0,0,1-1.486-1.486h21.653a1.489,1.489,0,0,0,1.486-1.486V43.976Z" transform="translate(-104.893 -39.818)" fill="#e3a76f" fill-rule="evenodd"/>
        </g>
        <g id="Grupo_1073878" data-name="Grupo 1073878" transform="translate(27.759 17.194)">
          <path id="Trazado_821425" data-name="Trazado 821425" d="M378.752,302.9l2.546-2.624-7.174-7.039-2.46,2.707Z" transform="translate(-346.572 -269.231)" fill="#a79ba7" fill-rule="evenodd"/>
          <path id="Trazado_821426" data-name="Trazado 821426" d="M380.6,300.993l.7-.716-7.174-7.039-2.46,2.707.672.659,1.788-1.968Z" transform="translate(-346.572 -269.231)" fill="#837683" fill-rule="evenodd"/>
          <path id="Trazado_821427" data-name="Trazado 821427" d="M415.6,339.319l2.873-2.961a1.321,1.321,0,0,0-.028-1.863l-7.958-7.722a1.321,1.321,0,0,0-1.863.028l-2.873,2.961a1.321,1.321,0,0,0,.028,1.863l7.958,7.722A1.321,1.321,0,0,0,415.6,339.319Z" transform="translate(-375.276 -297.467)" fill="#ecba78" fill-rule="evenodd"/>
          <path id="Trazado_821428" data-name="Trazado 821428" d="M435.59,339.32l2.873-2.961a1.321,1.321,0,0,0-.028-1.863l-7.958-7.722a1.323,1.323,0,0,0-1.617-.171,1.319,1.319,0,0,1,.218.171l7.958,7.722a1.321,1.321,0,0,1,.028,1.863l-2.873,2.961a1.305,1.305,0,0,1-.246.2A1.323,1.323,0,0,0,435.59,339.32Z" transform="translate(-395.269 -297.468)" fill="#e3a76f" fill-rule="evenodd"/>
          <ellipse id="Elipse_9924" data-name="Elipse 9924" cx="14.491" cy="14.491" rx="14.491" ry="14.491" transform="matrix(0.174, -0.985, 0.985, 0.174, 0, 28.548)" fill="#8ac9fe"/>
          <path id="Trazado_821429" data-name="Trazado 821429" d="M311.634,147.135a14.491,14.491,0,0,1,0,28.982c-.235,0-.467-.006-.7-.017a14.491,14.491,0,0,0,0-28.948Q311.283,147.136,311.634,147.135Z" transform="translate(-294.868 -144.841)" fill="#60b7ff" fill-rule="evenodd"/>
          <circle id="Elipse_9925" data-name="Elipse 9925" cx="10.406" cy="10.406" r="10.406" transform="translate(2.463 20.16) rotate(-58.28)" fill="#eceff1"/>
          <path id="Trazado_821430" data-name="Trazado 821430" d="M256.027,174.627c.235,0,.468.009.7.024a10.405,10.405,0,0,0,0,20.763c-.231.015-.464.024-.7.024a10.406,10.406,0,0,1,0-20.811Z" transform="translate(-239.261 -168.247)" fill="#d1d1d6" fill-rule="evenodd"/>
        </g>
      </g>
      <path id="Trazado_821431" data-name="Trazado 821431" d="M62.961,43.167a9.217,9.217,0,1,0-9.217,9.217A9.226,9.226,0,0,0,62.961,43.167Zm2.378,0A11.594,11.594,0,1,1,53.744,31.574,11.607,11.607,0,0,1,65.339,43.167Zm13.978,21.1-7.958-7.722a.123.123,0,0,0-.089-.036h0a.128.128,0,0,0-.091.037L68.3,59.506a.124.124,0,0,0-.034.091.13.13,0,0,0,.037.091l7.958,7.722a.131.131,0,0,0,.181,0l2.874-2.962a.131.131,0,0,0,0-.181ZM66.055,58.7c0-.006,0-.013.008-.019l-.008-.007ZM63.677,77.324a2.011,2.011,0,0,1-2.009,2.009H12.417a2.013,2.013,0,0,1-2.009-2.009V18.477a2.013,2.013,0,0,1,2.009-2.009H23.54v2.072H13.668a1.189,1.189,0,0,0-1.189,1.189V76.072a1.189,1.189,0,0,0,1.189,1.189h46.75a1.188,1.188,0,0,0,1.188-1.189V56.729a15.655,15.655,0,0,0,1.476-.973l.594.584ZM25.918,20.473H48.166V14.536H42.328a1.191,1.191,0,0,1-1.156-.911,4.249,4.249,0,0,0-8.258,0,1.189,1.189,0,0,1-1.156.911H25.918Zm24.626-4.005v2.072h9.874a1.188,1.188,0,0,1,1.188,1.189v9.878a15.423,15.423,0,0,1,2.07,1.439V18.477a2.011,2.011,0,0,0-2.009-2.009Zm-27,5.194a1.19,1.19,0,0,0,1.189,1.189H49.356a1.189,1.189,0,0,0,1.189-1.189v-.744H59.23v7.561A15.657,15.657,0,0,0,44.647,30.4H35.291a1.189,1.189,0,0,0,0,2.378h6.718a15.735,15.735,0,0,0-2.161,3.131H35.291a1.189,1.189,0,0,0,0,2.378h3.551a15.689,15.689,0,0,0-.62,7.093H35.291a1.189,1.189,0,0,0,0,2.378h3.46A15.712,15.712,0,0,0,40.1,50.892H35.291a1.189,1.189,0,0,0,0,2.378h6.471A15.661,15.661,0,0,0,59.23,57.857V74.883H14.857V20.917H23.54ZM67.046,43.167a13.3,13.3,0,1,1-13.3-13.3,13.317,13.317,0,0,1,13.3,13.3Zm-1.3,10.08c-.273.327-.562.642-.86.944l2.7,2.647.889-.917ZM81.026,66.1l-2.874,2.962a2.509,2.509,0,0,1-3.543.054l-7.958-7.723a2.5,2.5,0,0,1-.6-.908V77.324a4.391,4.391,0,0,1-4.387,4.387H12.417A4.392,4.392,0,0,1,8.03,77.324V18.477a4.393,4.393,0,0,1,4.387-4.387H23.54v-.743a1.19,1.19,0,0,1,1.189-1.189h6.162a6.629,6.629,0,0,1,12.3,0h6.162a1.189,1.189,0,0,1,1.189,1.189v.743H61.668a4.392,4.392,0,0,1,4.387,4.387V33.469a15.652,15.652,0,0,1,1.1,17.826l3.1,3.047a2.535,2.535,0,0,1,.976-.213,2.5,2.5,0,0,1,1.783.706l7.958,7.723A2.508,2.508,0,0,1,81.026,66.1Zm-52.653-5.43-5.232,4.748-1.7-1.7A1.189,1.189,0,0,0,19.761,65.4l2.5,2.5a1.186,1.186,0,0,0,1.639.04l6.071-5.509a1.189,1.189,0,1,0-1.6-1.761Zm0-14.98-5.232,4.748-1.7-1.7a1.189,1.189,0,1,0-1.681,1.682l2.5,2.5a1.187,1.187,0,0,0,1.639.04l6.071-5.509a1.189,1.189,0,1,0-1.6-1.761Zm6.918,17.05H53.484a1.189,1.189,0,1,0,0-2.378H35.291a1.189,1.189,0,0,0,0,2.378Zm0,5.509H53.484a1.189,1.189,0,1,0,0-2.378H35.291a1.189,1.189,0,0,0,0,2.378ZM21.442,33.892a1.188,1.188,0,1,0-1.681,1.681l2.5,2.5a1.19,1.19,0,0,0,1.639.04L29.971,32.6a1.189,1.189,0,1,0-1.6-1.761l-5.232,4.748ZM35.6,13.646a1.438,1.438,0,1,1,1.439,1.439A1.442,1.442,0,0,1,35.6,13.646Z" fill-rule="evenodd"/>
    </g>
  </g>
</svg>
