<svg xmlns="http://www.w3.org/2000/svg" xmlns:xlink="http://www.w3.org/1999/xlink" width="123" height="123" viewBox="0 0 123 123">
  <defs>
    <filter id="Elipse_4721" x="0" y="0" width="123" height="123" filterUnits="userSpaceOnUse">
      <feOffset dy="1" input="SourceAlpha"/>
      <feGaussianBlur stdDeviation="5.5" result="blur"/>
      <feFlood flood-color="#fff" flood-opacity="0.902"/>
      <feComposite operator="in" in2="blur"/>
      <feComposite in="SourceGraphic"/>
    </filter>
  </defs>
  <g id="Grupo_1075085" data-name="Grupo 1075085" transform="translate(4851.5 -13837.5)">
    <g transform="matrix(1, 0, 0, 1, -4851.5, 13837.5)" filter="url(#Elipse_4721)">
      <g id="Elipse_4721-2" data-name="Elipse 4721" transform="translate(16.5 15.5)" fill="none" stroke="#fff" stroke-width="6">
        <circle cx="45" cy="45" r="45" stroke="none"/>
        <circle cx="45" cy="45" r="42" fill="none"/>
      </g>
    </g>
    <g id="copiar" transform="translate(-4824.421 13863.645)">
      <g id="Grupo_1073880" data-name="Grupo 1073880" transform="translate(2.203 0.977)">
        <path id="Trazado_821432" data-name="Trazado 821432" d="M178.83,7.759l-.259-.259H146.2a2.088,2.088,0,0,0-2.088,2.088V65.753a2.088,2.088,0,0,0,2.088,2.088h42.62a2.088,2.088,0,0,0,2.088-2.088V19.838Z" transform="translate(-126.473 -7.5)" fill="#60b7ff"/>
        <path id="Trazado_821433" data-name="Trazado 821433" d="M43.442,41.637l-.259-.259H10.813a2.088,2.088,0,0,0-2.088,2.088V99.631a2.088,2.088,0,0,0,2.088,2.088h42.62a2.088,2.088,0,0,0,2.088-2.088V53.716Z" transform="translate(-8.725 -36.964)" fill="#d8ecfe"/>
        <path id="Trazado_821434" data-name="Trazado 821434" d="M450.815,63.669V114.6a2.088,2.088,0,0,1-2.088,2.088h5.019a2.088,2.088,0,0,0,2.088-2.088V68.688Z" transform="translate(-391.399 -56.351)" fill="#26a6fe"/>
        <path id="Trazado_821435" data-name="Trazado 821435" d="M408.582,7.5V17.75a2.088,2.088,0,0,0,2.088,2.088h10.25l-.259-.259Z" transform="translate(-356.484 -7.5)" fill="#0593fc"/>
        <path id="Trazado_821436" data-name="Trazado 821436" d="M315.427,97.548v50.934a2.088,2.088,0,0,1-2.088,2.088h5.019a2.088,2.088,0,0,0,2.088-2.088V102.567Z" transform="translate(-273.651 -85.816)" fill="#c4e2ff"/>
        <path id="Trazado_821437" data-name="Trazado 821437" d="M273.194,41.378v10.25a2.088,2.088,0,0,0,2.088,2.088h10.25l-.259-.259Z" transform="translate(-238.736 -36.964)" fill="#c4e2ff"/>
        <path id="Trazado_821438" data-name="Trazado 821438" d="M291.756,231.942l-11.339-7.29a.67.67,0,0,0-1.032.563v3.661h-12.6a.67.67,0,0,0-.67.67v5.916a.67.67,0,0,0,.67.67h12.6v3.661a.67.67,0,0,0,1.032.563l11.339-7.29A.67.67,0,0,0,291.756,231.942Z" transform="translate(-232.577 -196.266)" fill="#0be982"/>
      </g>
      <path id="Trazado_821439" data-name="Trazado 821439" d="M67.329,12.624,54.992.286l0,0A.97.97,0,0,0,54.332,0L54.3,0H44.9a.977.977,0,0,0,0,1.954h8.428v9.273a3.068,3.068,0,0,0,3.065,3.065h9.273V59.23a1.112,1.112,0,0,1-1.111,1.111H49.976V46.124a1.709,1.709,0,0,0,.584-.233l2.779-1.786,0,0L61.9,38.6a1.647,1.647,0,0,0,0-2.771l-11.34-7.29a1.761,1.761,0,0,0-.583-.233V17.729c0-.011,0-.022,0-.032a.971.971,0,0,0-.285-.659L37.352,4.7h0a.978.978,0,0,0-.658-.284l-.031,0H20.82V3.065a1.112,1.112,0,0,1,1.111-1.11h18.4a.977.977,0,1,0,0-1.954h-18.4a3.068,3.068,0,0,0-3.065,3.065V4.414H4.291A3.068,3.068,0,0,0,1.226,7.479V41.855a.977.977,0,0,0,1.954,0V7.479a1.112,1.112,0,0,1,1.11-1.111H35.684v9.273a3.068,3.068,0,0,0,3.065,3.065h9.273V32.611H36.4a1.649,1.649,0,0,0-1.647,1.647v5.916A1.649,1.649,0,0,0,36.4,41.822H48.021V63.644a1.112,1.112,0,0,1-1.11,1.11H4.291a1.112,1.112,0,0,1-1.11-1.11V46.416a.977.977,0,0,0-1.954,0V63.644a3.068,3.068,0,0,0,3.065,3.065h42.62a3.068,3.068,0,0,0,3.065-3.065V62.3H64.55a3.068,3.068,0,0,0,3.065-3.065V13.315a.985.985,0,0,0-.286-.691Zm-10.941-.286a1.112,1.112,0,0,1-1.11-1.11V3.336l9,9Zm-17.64,4.414a1.112,1.112,0,0,1-1.11-1.11V7.75l9,9ZM49,39.867H36.7v-5.3H49a.977.977,0,0,0,.977-.977v-3.1L60.44,37.217,49.976,43.943v-3.1A.977.977,0,0,0,49,39.867Z"/>
    </g>
  </g>
</svg>
