<svg xmlns="http://www.w3.org/2000/svg" xmlns:xlink="http://www.w3.org/1999/xlink" width="123" height="123" viewBox="0 0 123 123">
  <defs>
    <filter id="Elipse_4721" x="0" y="0" width="123" height="123" filterUnits="userSpaceOnUse">
      <feOffset dy="1" input="SourceAlpha"/>
      <feGaussianBlur stdDeviation="5.5" result="blur"/>
      <feFlood flood-color="#fff" flood-opacity="0.902"/>
      <feComposite operator="in" in2="blur"/>
      <feComposite in="SourceGraphic"/>
    </filter>
  </defs>
  <g id="Grupo_1075084" data-name="Grupo 1075084" transform="translate(5165.957 -14181.473)">
    <g transform="matrix(1, 0, 0, 1, -5165.96, 14181.47)" filter="url(#Elipse_4721)">
      <g id="Elipse_4721-2" data-name="Elipse 4721" transform="translate(16.5 15.5)" fill="none" stroke="#fff" stroke-width="6">
        <circle cx="45" cy="45" r="45" stroke="none"/>
        <circle cx="45" cy="45" r="42" fill="none"/>
      </g>
    </g>
    <g id="lista-de-verificacion_3_" data-name="lista-de-verificacion (3)" transform="translate(-5178.954 14204.922)">
      <path id="Trazado_821443" data-name="Trazado 821443" d="M94.494,9.392l14.073,54.491a4.118,4.118,0,0,1-2.948,5.011L67.612,78.711a4.111,4.111,0,0,1-5.01-2.948L48.528,21.257a4.111,4.111,0,0,1,2.948-5.01L89.484,6.429a4.109,4.109,0,0,1,5.01,2.963Z" transform="translate(-4.551 -4.494)" fill="#e77c6a"/>
      <path id="Trazado_821444" data-name="Trazado 821444" d="M94.409,9.391l.261,1.017a8.618,8.618,0,0,1-1.409,7.276l-1.6,2.164a8.581,8.581,0,0,1-4.778,3.224L61.644,29.593a8.582,8.582,0,0,1-5.737-.508l-2.454-1.118a8.645,8.645,0,0,1-4.764-5.679l-.261-1.017a4.111,4.111,0,0,1,2.948-5.01L89.4,6.429a4.109,4.109,0,0,1,5.01,2.963Z" transform="translate(-4.465 -4.494)" fill="#f1b2a3"/>
      <path id="Trazado_821445" data-name="Trazado 821445" d="M170.314,9.392l14.073,54.491a4.118,4.118,0,0,1-2.948,5.01l-38.007,9.818a4.111,4.111,0,0,1-5.01-2.948l-1.322-5.1A47.474,47.474,0,0,0,167.047,14.1L165.1,6.487l.218-.058a4.1,4.1,0,0,1,5,2.963Z" transform="translate(-80.371 -4.494)" opacity="0.1"/>
      <path id="Trazado_821446" data-name="Trazado 821446" d="M141.253,37.573V94.925a3.57,3.57,0,0,1-3.573,3.573H97.873A3.57,3.57,0,0,1,94.3,94.925V37.573A3.57,3.57,0,0,1,97.873,34h39.808A3.57,3.57,0,0,1,141.253,37.573Z" transform="translate(-43.787 -28.173)" fill="#e8f1f8"/>
      <path id="Trazado_821447" data-name="Trazado 821447" d="M141.353,37.487V94.839a3.57,3.57,0,0,1-3.573,3.573H97.973A3.57,3.57,0,0,1,94.4,94.839V92.661A43.38,43.38,0,0,0,133.5,49.5V33.9h4.284A3.592,3.592,0,0,1,141.353,37.487Z" transform="translate(-43.872 -28.087)" opacity="0.1"/>
      <path id="Trazado_821448" data-name="Trazado 821448" d="M147.761,94.081a6.681,6.681,0,1,1-6.681-6.681A6.682,6.682,0,0,1,147.761,94.081Z" transform="translate(-78.063 -73.817)" fill="#fad200"/>
      <path id="Trazado_821449" data-name="Trazado 821449" d="M147.761,216.681A6.681,6.681,0,1,1,141.081,210,6.682,6.682,0,0,1,147.761,216.681Z" transform="translate(-78.063 -178.612)" fill="#15d867"/>
      <path id="Trazado_821450" data-name="Trazado 821450" d="M147.761,339.181a6.681,6.681,0,1,1-6.681-6.681A6.682,6.682,0,0,1,147.761,339.181Z" transform="translate(-78.063 -283.321)" fill="#fad200"/>
      <g id="Grupo_1073882" data-name="Grupo 1073882" transform="translate(43.074 1.04)">
        <path id="Trazado_821451" data-name="Trazado 821451" d="M104.772,59.185,98.251,33.944V9.4a4.345,4.345,0,0,0-4.342-4.342H90.786L90.7,4.709a4.892,4.892,0,0,0-5.954-3.515L69.786,5.057H54.1A4.348,4.348,0,0,0,49.744,9.4v.828l-3.006.784a4.917,4.917,0,0,0-3.515,5.955l6.521,25.227V66.752a4.345,4.345,0,0,0,4.342,4.342h3.122l.087.349a4.881,4.881,0,0,0,5.955,3.515l14.93-3.849H93.894a4.345,4.345,0,0,0,4.342-4.342v-.842l3.006-.784a4.926,4.926,0,0,0,3.529-5.955ZM89.189,5.057H75.958L85.137,2.69A3.34,3.34,0,0,1,89.189,5.057ZM44.719,16.574a3.37,3.37,0,0,1,2.411-4.081l2.614-.668V22.95l-.421-.2a8.376,8.376,0,0,1-4.6-6.172Zm1.554,5.984a9,9,0,0,0,2.411,1.583l1.075.494V36.006ZM62.858,73.447a3.321,3.321,0,0,1-4.052-2.367h13.2Zm33.839-6.7a2.8,2.8,0,0,1-2.8,2.8H54.086a2.814,2.814,0,0,1-2.8-2.8V9.4a2.8,2.8,0,0,1,2.8-2.8c45.385.015,39.242.015,39.808,0a2.8,2.8,0,0,1,2.8,2.8Zm4.168-3.108-2.629.683V40.116l5.04,19.447A3.37,3.37,0,0,1,100.865,63.644Z" transform="translate(-43.074 -1.04)"/>
        <path id="Trazado_821452" data-name="Trazado 821452" d="M161.254,119.913a.763.763,0,0,0,0,1.089l1.118,1.118a.763.763,0,0,0,1.089,0l2.977-2.977a.77.77,0,1,0-1.089-1.089l-2.44,2.44-.566-.566A.751.751,0,0,0,161.254,119.913Z" transform="translate(-143.895 -100.864)"/>
        <path id="Trazado_821453" data-name="Trazado 821453" d="M270.241,110.9H252.77a.77.77,0,0,0,0,1.539h17.471a.775.775,0,0,0,.77-.77A.766.766,0,0,0,270.241,110.9Z" transform="translate(-221.657 -94.945)"/>
        <path id="Trazado_821454" data-name="Trazado 821454" d="M252.77,146.939h11.067a.77.77,0,1,0,0-1.539H252.77a.77.77,0,0,0,0,1.539Z" transform="translate(-221.657 -124.434)"/>
        <path id="Trazado_821455" data-name="Trazado 821455" d="M165.335,240.654l-2.425,2.425-.566-.566a.77.77,0,0,0-1.089,1.089l1.118,1.118a.763.763,0,0,0,1.089,0l2.977-2.977a.763.763,0,0,0,0-1.089A.78.78,0,0,0,165.335,240.654Z" transform="translate(-143.895 -205.659)"/>
        <path id="Trazado_821456" data-name="Trazado 821456" d="M270.241,233.4H252.77a.77.77,0,0,0,0,1.539h17.471a.775.775,0,0,0,.77-.77A.766.766,0,0,0,270.241,233.4Z" transform="translate(-221.657 -199.654)"/>
        <path id="Trazado_821457" data-name="Trazado 821457" d="M252.77,269.539h11.067a.77.77,0,1,0,0-1.539H252.77a.77.77,0,0,0,0,1.539Z" transform="translate(-221.657 -229.229)"/>
        <path id="Trazado_821458" data-name="Trazado 821458" d="M165.335,363.254l-2.425,2.425-.566-.566a.77.77,0,0,0-1.089,1.089l1.118,1.118a.763.763,0,0,0,1.089,0l2.977-2.977a.763.763,0,0,0,0-1.089A.78.78,0,0,0,165.335,363.254Z" transform="translate(-143.895 -310.453)"/>
        <path id="Trazado_821461" data-name="Trazado 821461" d="M136.45,97A7.45,7.45,0,1,0,129,89.55h0A7.456,7.456,0,0,0,136.45,97Zm0-13.361a5.911,5.911,0,1,1-5.9,5.911A5.916,5.916,0,0,1,136.45,83.639Z" transform="translate(-116.521 -70.328)"/>
        <path id="Trazado_821462" data-name="Trazado 821462" d="M136.55,204.7a7.458,7.458,0,1,0,7.465,7.45A7.456,7.456,0,0,0,136.55,204.7Zm0,13.361a5.911,5.911,0,1,1,5.911-5.911A5.925,5.925,0,0,1,136.55,218.061Z" transform="translate(-116.606 -175.122)"/>
        <path id="Trazado_821463" data-name="Trazado 821463" d="M136.55,327.2a7.458,7.458,0,1,0,7.465,7.45A7.456,7.456,0,0,0,136.55,327.2Zm0,13.376a5.911,5.911,0,1,1,5.911-5.911A5.926,5.926,0,0,1,136.55,340.576Z" transform="translate(-116.606 -279.831)"/>
      </g>
      <g id="revertir" transform="translate(70.455 41.873)">
        <path id="Trazado_821440" data-name="Trazado 821440" d="M20.9,6.357a11.15,11.15,0,0,0-4.447.92l.484-1.467a1.377,1.377,0,0,0-2.616-.862l-1.755,5.324a1.377,1.377,0,0,0,.877,1.739l5.324,1.755a1.351,1.351,0,0,0,.331.066,1.377,1.377,0,0,0,.531-2.682L16.75,10.2a8.418,8.418,0,1,1-4.266,7.326,1.377,1.377,0,1,0-2.754,0A11.169,11.169,0,1,0,20.9,6.357Z" transform="translate(-1.382 -1.392)" fill="#19acf2"/>
        <g id="Grupo_1073881" data-name="Grupo 1073881" transform="translate(7.99 2.248)">
          <path id="Trazado_821441" data-name="Trazado 821441" d="M19.517,4.605a11.472,11.472,0,0,0-3.865.663l.243-.737a1.736,1.736,0,1,0-3.3-1.087L10.842,8.768a1.74,1.74,0,0,0,1.1,2.194l5.328,1.755a1.859,1.859,0,0,0,.416.082,1.737,1.737,0,0,0,.669-3.383l-2.046-.675A8.054,8.054,0,0,1,26.327,20.433a.359.359,0,0,0,.607.385A8.776,8.776,0,0,0,15.191,8.495a.36.36,0,0,0,.064.654l2.877.949a1.017,1.017,0,0,1-.391,1.98,1.035,1.035,0,0,1-.245-.049L12.17,10.273a1.02,1.02,0,0,1-.646-1.284l1.758-5.32a1.016,1.016,0,1,1,1.928.638l-.484,1.467a.36.36,0,0,0,.486.442,10.812,10.812,0,1,1-6.5,9.919,1.017,1.017,0,0,1,2.033,0,8.773,8.773,0,0,0,13.712,7.252.36.36,0,0,0-.405-.595,8.051,8.051,0,0,1-12.585-6.658,1.737,1.737,0,0,0-3.474,0A11.529,11.529,0,1,0,19.517,4.605Z" transform="translate(-7.99 -2.248)" fill="#12263f"/>
          <path id="Trazado_821442" data-name="Trazado 821442" d="M91.87,96.77l.156-.161a.36.36,0,1,0-.519-.5l-.156.161a.36.36,0,1,0,.519.5Z" transform="translate(-74.116 -76.707)" fill="#3725a0"/>
        </g>
      </g>
    </g>
  </g>
</svg>
