<svg xmlns="http://www.w3.org/2000/svg" xmlns:xlink="http://www.w3.org/1999/xlink" width="123" height="123" viewBox="0 0 123 123">
  <defs>
    <filter id="Elipse_4721" x="0" y="0" width="123" height="123" filterUnits="userSpaceOnUse">
      <feOffset dy="1" input="SourceAlpha"/>
      <feGaussianBlur stdDeviation="5.5" result="blur"/>
      <feFlood flood-color="#fff" flood-opacity="0.902"/>
      <feComposite operator="in" in2="blur"/>
      <feComposite in="SourceGraphic"/>
    </filter>
  </defs>
  <g id="Grupo_1073947" data-name="Grupo 1073947" transform="translate(-1070.833 -405.821)">
    <g transform="matrix(1, 0, 0, 1, 1070.83, 405.82)" filter="url(#Elipse_4721)">
      <g id="Elipse_4721-2" data-name="Elipse 4721" transform="translate(16.5 15.5)" fill="none" stroke="#fff" stroke-width="6">
        <circle cx="45" cy="45" r="45" stroke="none"/>
        <circle cx="45" cy="45" r="42" fill="none"/>
      </g>
    </g>
    <g id="nuevas-caracteristicas" transform="translate(1074.313 429.637)">
      <g id="Grupo_1073954" data-name="Grupo 1073954" transform="translate(25.446 1.436)">
        <path id="Trazado_821516" data-name="Trazado 821516" d="M95.773,355.763a5.157,5.157,0,0,0-7.164-1.366l-10.574,7.187-1.808,1.776-2.645,1.252h0a3.7,3.7,0,0,0-1.406-6.677l-20.493-4a11.439,11.439,0,0,0-9.054,2.077l-10.584,7.939a.43.43,0,0,0-.172.344v10.127a.717.717,0,0,0,.716.716h7.29a.431.431,0,0,0,.242-.074l2.68-1.821a9.542,9.542,0,0,1,6.085-1.624l22.253,1.683a5.694,5.694,0,0,0,3.668-.966l20.46-13.908A1.921,1.921,0,0,0,95.773,355.763Z" transform="translate(-31.872 -304.285)" fill="#e0925c"/>
        <path id="Trazado_821517" data-name="Trazado 821517" d="M218.993,409.89a6.462,6.462,0,0,1-.107,1.176,6.546,6.546,0,0,1-6.443,5.384,6.869,6.869,0,0,1-.977-.072l-5.417-.8-8.418-1.24a1.432,1.432,0,0,1,.417-2.834l13.835,2.037a3.579,3.579,0,0,0,.536.04h.009a3.687,3.687,0,0,0,2.111-.665.026.026,0,0,0,.01-.007Z" transform="translate(-172.83 -352.59)" fill="#c97f47"/>
        <g id="Grupo_1073949" data-name="Grupo 1073949" transform="translate(11.177)">
          <g id="Grupo_1073948" data-name="Grupo 1073948">
            <path id="Trazado_821518" data-name="Trazado 821518" d="M115.463,19.148,112.6,20.7a.287.287,0,0,1-.416-.3l.537-3.077c.008-.046-.138-.161-.152-.2A.287.287,0,0,0,112.5,17l-2.541-2.477a.287.287,0,0,1,.159-.489l3.512-.51a.287.287,0,0,0,.216-.157l1.571-3.182a.287.287,0,0,1,.514,0l1.571,3.182a.287.287,0,0,0,.216.157l.215.031,3,.547a.287.287,0,0,1,.159.489l-2.5,2.326a.287.287,0,0,0-.082.254l.627,3.267a.287.287,0,0,1-.416.3l-2.993-1.587a.286.286,0,0,0-.267,0Z" transform="translate(-109.873 -10.021)" fill="#ffef57"/>
            <path id="Trazado_821519" data-name="Trazado 821519" d="M131.437,38.1a.288.288,0,0,0-.082.254l.6,3.5a.287.287,0,0,1-.417.3L128.4,40.507a.283.283,0,0,0-.267,0l-3.141,1.651a.286.286,0,0,1-.416-.3l.6-3.5a.281.281,0,0,0-.011-.142,5,5,0,0,0,.51.026,5.073,5.073,0,0,0,4.849-3.581l3.3.479a.286.286,0,0,1,.159.489Z" transform="translate(-122.464 -31.129)" fill="#f9db48"/>
          </g>
          <path id="Trazado_821520" data-name="Trazado 821520" d="M262.2,38.561l-2.813.25H232.959a1.739,1.739,0,0,1-1.739-1.739v-4.9a1.739,1.739,0,0,1,1.739-1.739H259.41l2.63.295a1.739,1.739,0,0,1,1.739,1.739l.163,4.35a1.739,1.739,0,0,1-1.739,1.739Z" transform="translate(-213.831 -27.512)" fill="#b2e5fb"/>
          <path id="Trazado_821521" data-name="Trazado 821521" d="M430.26,32.178v4.9a1.74,1.74,0,0,1-1.74,1.74h-3.439a1.74,1.74,0,0,0,1.74-1.74v-4.9a1.739,1.739,0,0,0-1.74-1.738h3.439A1.739,1.739,0,0,1,430.26,32.178Z" transform="translate(-379.913 -27.514)" fill="#90d8f9"/>
        </g>
        <g id="Grupo_1073951" data-name="Grupo 1073951" transform="translate(11.177 15.47)">
          <g id="Grupo_1073950" data-name="Grupo 1073950">
            <path id="Trazado_821522" data-name="Trazado 821522" d="M115.463,127.1l-2.859,1.548a.287.287,0,0,1-.416-.3l.537-3.077c.008-.046-.138-.161-.152-.2a.287.287,0,0,0-.073-.117l-2.541-2.477a.287.287,0,0,1,.159-.489l3.512-.51a.287.287,0,0,0,.216-.157l1.571-3.182a.287.287,0,0,1,.514,0l1.571,3.182a.287.287,0,0,0,.216.157l.215.031,3,.547a.287.287,0,0,1,.159.489l-2.5,2.326a.287.287,0,0,0-.082.254l.627,3.267a.287.287,0,0,1-.416.3l-2.993-1.587a.286.286,0,0,0-.267,0Z" transform="translate(-109.873 -117.976)" fill="#ffef57"/>
            <path id="Trazado_821523" data-name="Trazado 821523" d="M131.437,146.058a.288.288,0,0,0-.082.254l.6,3.5a.287.287,0,0,1-.417.3l-3.141-1.651a.283.283,0,0,0-.267,0l-3.141,1.651a.286.286,0,0,1-.416-.3l.6-3.5a.281.281,0,0,0-.011-.142,5,5,0,0,0,.51.026,5.073,5.073,0,0,0,4.849-3.581l3.3.479a.286.286,0,0,1,.159.489Z" transform="translate(-122.464 -139.084)" fill="#f9db48"/>
          </g>
          <path id="Trazado_821524" data-name="Trazado 821524" d="M262.2,146.516l-2.813.25H232.959a1.739,1.739,0,0,1-1.739-1.739v-4.9a1.739,1.739,0,0,1,1.739-1.739H259.41l2.63.295a1.739,1.739,0,0,1,1.739,1.739l.163,4.35a1.739,1.739,0,0,1-1.739,1.739Z" transform="translate(-213.831 -135.467)" fill="#b2e5fb"/>
          <path id="Trazado_821525" data-name="Trazado 821525" d="M430.26,140.133v4.9a1.741,1.741,0,0,1-1.74,1.74h-3.439a1.74,1.74,0,0,0,1.74-1.74v-4.9a1.739,1.739,0,0,0-1.74-1.738h3.439A1.739,1.739,0,0,1,430.26,140.133Z" transform="translate(-379.913 -135.469)" fill="#90d8f9"/>
        </g>
        <g id="Grupo_1073953" data-name="Grupo 1073953" transform="translate(11.177 30.939)">
          <g id="Grupo_1073952" data-name="Grupo 1073952">
            <path id="Trazado_821526" data-name="Trazado 821526" d="M115.463,235.058l-2.859,1.548a.287.287,0,0,1-.416-.3l.537-3.077c.008-.046-.138-.161-.152-.2a.286.286,0,0,0-.073-.117l-2.541-2.477a.287.287,0,0,1,.159-.489l3.512-.51a.287.287,0,0,0,.216-.157l1.571-3.182a.287.287,0,0,1,.514,0l1.571,3.182a.287.287,0,0,0,.216.157l.215.031,3,.547a.287.287,0,0,1,.159.489l-2.5,2.326a.287.287,0,0,0-.082.254l.627,3.267a.287.287,0,0,1-.416.3l-2.993-1.587a.286.286,0,0,0-.267,0Z" transform="translate(-109.873 -225.93)" fill="#ffef57"/>
            <path id="Trazado_821527" data-name="Trazado 821527" d="M131.437,254.013a.288.288,0,0,0-.082.254l.6,3.5a.287.287,0,0,1-.417.3l-3.141-1.651a.283.283,0,0,0-.267,0l-3.141,1.651a.286.286,0,0,1-.416-.3l.6-3.5a.281.281,0,0,0-.011-.142,5,5,0,0,0,.51.026,5.073,5.073,0,0,0,4.849-3.581l3.3.479a.286.286,0,0,1,.159.489Z" transform="translate(-122.464 -247.039)" fill="#f9db48"/>
          </g>
          <path id="Trazado_821528" data-name="Trazado 821528" d="M262.2,254.471l-2.813.25H232.959a1.739,1.739,0,0,1-1.739-1.739v-4.9a1.739,1.739,0,0,1,1.739-1.739H259.41l2.63.295a1.739,1.739,0,0,1,1.739,1.739l.163,4.35a1.739,1.739,0,0,1-1.739,1.739Z" transform="translate(-213.831 -243.422)" fill="#b2e5fb"/>
          <path id="Trazado_821529" data-name="Trazado 821529" d="M430.26,248.088v4.9a1.741,1.741,0,0,1-1.74,1.74h-3.439a1.74,1.74,0,0,0,1.74-1.74v-4.9a1.739,1.739,0,0,0-1.74-1.738h3.439A1.739,1.739,0,0,1,430.26,248.088Z" transform="translate(-379.913 -243.424)" fill="#90d8f9"/>
        </g>
      </g>
      <g id="Grupo_1073955" data-name="Grupo 1073955" transform="translate(24.371 0)">
        <path id="Trazado_821530" data-name="Trazado 821530" d="M124.1,441.235l-7.673,5.215a4.634,4.634,0,0,1-2.983.783L91.19,445.551a10.655,10.655,0,0,0-6.77,1.806l-2.79,1.9a1.075,1.075,0,1,0,1.208,1.778l2.79-1.9a8.5,8.5,0,0,1,5.4-1.441l22.245,1.682a6.783,6.783,0,0,0,4.361-1.148l7.672-5.215a1.075,1.075,0,0,0-1.208-1.778Z" transform="translate(-73.022 -377.848)"/>
        <path id="Trazado_821531" data-name="Trazado 821531" d="M232.542,348.749a6.24,6.24,0,0,0-8.658-1.652l-11.761,7.995a4.8,4.8,0,0,0-3.864-4.621l-12.2-2.38a1.075,1.075,0,1,0-.412,2.11l12.2,2.38a2.63,2.63,0,0,1-.886,5.183l-15.251-2.245a1.075,1.075,0,1,0-.313,2.127l15.25,2.245a4.762,4.762,0,0,0,3.456-.826l14.989-10.189a4.088,4.088,0,0,1,5.672,1.082.846.846,0,0,1-.224,1.175l-8.641,5.874a1.075,1.075,0,0,0,1.209,1.778l8.641-5.874a3,3,0,0,0,.793-4.161Z" transform="translate(-166.676 -296.438)"/>
        <path id="Trazado_821532" data-name="Trazado 821532" d="M45.049,349.906l3.366.656a1.075,1.075,0,0,0,.411-2.11l-3.366-.656a12.528,12.528,0,0,0-9.9,2.271L24.8,358.135a1.075,1.075,0,0,0,1.29,1.72l10.756-8.068A10.375,10.375,0,0,1,45.049,349.906Z" transform="translate(-24.371 -297.76)"/>
        <path id="Trazado_821533" data-name="Trazado 821533" d="M103.061,8.891l-.628,3.662a1.075,1.075,0,0,0,1.559,1.133l3.288-1.729,3.288,1.729a1.075,1.075,0,0,0,1.559-1.133L111.5,8.891l2.66-2.593a1.075,1.075,0,0,0-.6-1.833l-3.677-.534L108.244.6a1.075,1.075,0,0,0-1.927,0l-1.644,3.332L101,4.465a1.075,1.075,0,0,0-.6,1.833Zm2.48-2.915a1.075,1.075,0,0,0,.809-.588l.931-1.885.93,1.885a1.075,1.075,0,0,0,.809.588l2.081.3L109.6,7.746a1.075,1.075,0,0,0-.309.951l.355,2.072-1.861-.978a1.075,1.075,0,0,0-1,0l-1.861.978.355-2.072a1.075,1.075,0,0,0-.309-.951L103.46,6.279Z" transform="translate(-89.228 0)"/>
        <path id="Trazado_821534" data-name="Trazado 821534" d="M103.06,118.105l-.628,3.662a1.075,1.075,0,0,0,1.559,1.133l3.288-1.729,3.288,1.729a1.075,1.075,0,0,0,1.559-1.133l-.628-3.662,2.66-2.593a1.075,1.075,0,0,0-.6-1.833l-3.677-.534-1.644-3.332a1.075,1.075,0,0,0-1.928,0l-1.644,3.332-3.677.534a1.075,1.075,0,0,0-.6,1.833Zm2.48-2.915a1.075,1.075,0,0,0,.809-.588l.931-1.885.93,1.885a1.075,1.075,0,0,0,.809.588l2.081.3-1.505,1.468a1.074,1.074,0,0,0-.309.951l.355,2.072-1.861-.978a1.075,1.075,0,0,0-1,0l-1.861.978.355-2.072a1.075,1.075,0,0,0-.309-.951l-1.506-1.468Z" transform="translate(-89.227 -93.564)"/>
        <path id="Trazado_821535" data-name="Trazado 821535" d="M103.059,227.321l-.628,3.662a1.075,1.075,0,0,0,1.559,1.133l3.288-1.729,3.288,1.729a1.075,1.075,0,0,0,1.559-1.133l-.628-3.662,2.66-2.593a1.075,1.075,0,0,0-.6-1.833l-3.677-.534-1.644-3.332a1.075,1.075,0,0,0-1.928,0l-1.644,3.332-3.677.534a1.075,1.075,0,0,0-.6,1.833Zm2.48-2.915a1.075,1.075,0,0,0,.809-.588l.931-1.885.93,1.885a1.075,1.075,0,0,0,.809.588l2.081.3-1.506,1.468a1.075,1.075,0,0,0-.309.951l.355,2.072-1.861-.978a1.075,1.075,0,0,0-1,0l-1.861.978.355-2.072a1.075,1.075,0,0,0-.309-.951l-1.506-1.468Z" transform="translate(-89.226 -187.13)"/>
        <path id="Trazado_821536" data-name="Trazado 821536" d="M226.534,33.462h4.647a1.075,1.075,0,0,0,0-2.149h-4.647a.665.665,0,0,1-.663-.665v-4.9a.664.664,0,0,1,.663-.663h29.48a.665.665,0,0,1,.665.663v4.9a.666.666,0,0,1-.665.665H236.2a1.075,1.075,0,0,0,0,2.149h19.818a2.818,2.818,0,0,0,2.814-2.814v-4.9a2.817,2.817,0,0,0-2.814-2.813h-29.48a2.816,2.816,0,0,0-2.813,2.813v4.9A2.817,2.817,0,0,0,226.534,33.462Z" transform="translate(-195.155 -19.653)"/>
        <path id="Trazado_821537" data-name="Trazado 821537" d="M226.534,142.675h29.48a2.817,2.817,0,0,0,2.814-2.814v-4.9a2.817,2.817,0,0,0-2.814-2.814h-29.48a2.817,2.817,0,0,0-2.814,2.814v4.9A2.817,2.817,0,0,0,226.534,142.675Zm-.664-7.709a.665.665,0,0,1,.664-.664h29.48a.665.665,0,0,1,.664.664v4.9a.665.665,0,0,1-.664.664h-29.48a.665.665,0,0,1-.664-.664Z" transform="translate(-195.154 -113.216)"/>
        <path id="Trazado_821538" data-name="Trazado 821538" d="M226.534,243.519H243.6a1.075,1.075,0,0,0,0-2.149H226.534a2.816,2.816,0,0,0-2.813,2.813v4.9a2.817,2.817,0,0,0,2.813,2.814h29.48a2.818,2.818,0,0,0,2.814-2.814v-4.9a2.817,2.817,0,0,0-2.814-2.813h-7.4a1.075,1.075,0,0,0,0,2.149h7.4a.665.665,0,0,1,.665.663v4.9a.666.666,0,0,1-.665.665h-29.48a.665.665,0,0,1-.663-.665v-4.9A.664.664,0,0,1,226.534,243.519Z" transform="translate(-195.155 -206.782)"/>
      </g>
    </g>
  </g>
</svg>
