<svg xmlns="http://www.w3.org/2000/svg" xmlns:xlink="http://www.w3.org/1999/xlink" width="123" height="123" viewBox="0 0 123 123">
  <defs>
    <filter id="Elipse_4721" x="0" y="0" width="123" height="123" filterUnits="userSpaceOnUse">
      <feOffset dy="1" input="SourceAlpha"/>
      <feGaussianBlur stdDeviation="5.5" result="blur"/>
      <feFlood flood-color="#fff" flood-opacity="0.902"/>
      <feComposite operator="in" in2="blur"/>
      <feComposite in="SourceGraphic"/>
    </filter>
  </defs>
  <g id="Grupo_1073832" data-name="Grupo 1073832" transform="translate(-1070.833 -405.821)">
    <g transform="matrix(1, 0, 0, 1, 1070.83, 405.82)" filter="url(#Elipse_4721)">
      <g id="Elipse_4721-2" data-name="Elipse 4721" transform="translate(16.5 15.5)" fill="none" stroke="#fff" stroke-width="6">
        <circle cx="45" cy="45" r="45" stroke="none"/>
        <circle cx="45" cy="45" r="42" fill="none"/>
      </g>
    </g>
    <g id="lista" transform="translate(1047.721 430.476)">
      <path id="Trazado_821539" data-name="Trazado 821539" d="M112.208,90.237H67.32A2.64,2.64,0,0,1,64.679,87.6V28.186a2.641,2.641,0,0,1,2.641-2.641h44.888a2.64,2.64,0,0,1,2.641,2.641V87.6A2.64,2.64,0,0,1,112.208,90.237Z" transform="translate(-6.915 -21.668)" fill="#f1f4fb"/>
      <g id="Grupo_1073956" data-name="Grupo 1073956" transform="translate(65.685 21.041)">
        <circle id="Elipse_9929" data-name="Elipse 9929" cx="3.961" cy="3.961" r="3.961" fill="#ffc850"/>
        <circle id="Elipse_9930" data-name="Elipse 9930" cx="3.961" cy="3.961" r="3.961" transform="translate(0 14.523)" fill="#ffc850"/>
        <circle id="Elipse_9931" data-name="Elipse 9931" cx="3.961" cy="3.961" r="3.961" transform="translate(0 29.045)" fill="#ffc850"/>
      </g>
      <path id="Trazado_821540" data-name="Trazado 821540" d="M112.208,25.546H67.32a2.641,2.641,0,0,0-2.641,2.641v5.281h50.169V28.186A2.64,2.64,0,0,0,112.208,25.546Z" transform="translate(-6.915 -21.669)" fill="#ffdc64"/>
      <path id="Trazado_821541" data-name="Trazado 821541" d="M264.467,303.83a17.153,17.153,0,0,0-16.327,22.444h18.967a2.641,2.641,0,0,0,2.641-2.641V304.667A17.138,17.138,0,0,0,264.467,303.83Z" transform="translate(-161.815 -257.705)" fill="#d5dced"/>
      <circle id="Elipse_9932" data-name="Elipse 9932" cx="13.202" cy="13.202" r="13.202" transform="translate(89.45 50.086)" fill="#ffdc64"/>
      <path id="Trazado_821542" data-name="Trazado 821542" d="M293.2,354.1a13.191,13.191,0,0,1-8-23.689,13.2,13.2,0,1,0,9.4,23.613A13.3,13.3,0,0,1,293.2,354.1Z" transform="translate(-183.943 -280.255)" fill="#ffc850"/>
      <path id="Trazado_821543" data-name="Trazado 821543" d="M318.575,378.3l-4.622,2.587,1.032-5.2-3.889-3.6,5.26-.624,2.219-4.81,2.219,4.81,5.26.624-3.889,3.6,1.032,5.2Z" transform="translate(-215.922 -311.001)" fill="#fff"/>
      <path id="Trazado_821544" data-name="Trazado 821544" d="M85.489,67.332H60.4a1.4,1.4,0,0,1-1.4-1.4V6.518a1.4,1.4,0,0,1,1.4-1.4h2.723v1.4a1.238,1.238,0,0,0,2.476,0v-1.4h2.806v1.4a1.238,1.238,0,0,0,2.476,0v-1.4h2.806v1.4a1.238,1.238,0,0,0,2.476,0v-1.4H78.97v1.4a1.238,1.238,0,0,0,2.476,0v-1.4h2.806v1.4a1.238,1.238,0,1,0,2.475,0v-1.4h2.806v1.4a1.238,1.238,0,0,0,2.476,0v-1.4h2.806v1.4a1.238,1.238,0,0,0,2.476,0v-1.4h2.806v1.4a1.238,1.238,0,1,0,2.475,0v-1.4h2.723a1.4,1.4,0,0,1,1.4,1.4V46.125a1.238,1.238,0,0,0,2.475,0V6.518a3.883,3.883,0,0,0-3.878-3.878H102.57v-1.4a1.238,1.238,0,1,0-2.475,0v1.4H97.289v-1.4a1.238,1.238,0,1,0-2.475,0v1.4H92.008v-1.4a1.238,1.238,0,0,0-2.476,0v1.4H86.727v-1.4a1.238,1.238,0,1,0-2.475,0v1.4H81.446v-1.4a1.238,1.238,0,0,0-2.476,0v1.4H76.165v-1.4a1.238,1.238,0,0,0-2.476,0v1.4H70.884v-1.4a1.238,1.238,0,1,0-2.475,0v1.4H65.6v-1.4a1.238,1.238,0,1,0-2.475,0v1.4H60.4a3.883,3.883,0,0,0-3.878,3.878V65.929A3.883,3.883,0,0,0,60.4,69.807H85.489a1.238,1.238,0,0,0,0-2.476Z" transform="translate(0)"/>
      <path id="Trazado_821545" data-name="Trazado 821545" d="M279.68,321.766a14.44,14.44,0,1,0,14.44,14.44A14.456,14.456,0,0,0,279.68,321.766Zm0,26.4a11.965,11.965,0,1,1,11.965-11.965A11.978,11.978,0,0,1,279.68,348.171Z" transform="translate(-177.028 -272.918)"/>
      <path id="Trazado_821546" data-name="Trazado 821546" d="M320.314,364.8a1.238,1.238,0,0,0-1.031-.847l-4.572-.542-1.928-4.181a1.238,1.238,0,0,0-2.248,0l-1.928,4.181-4.572.542a1.238,1.238,0,0,0-.695,2.138l3.38,3.126-.9,4.516a1.238,1.238,0,0,0,1.819,1.321l4.018-2.249,4.017,2.249a1.238,1.238,0,0,0,1.819-1.321l-.9-4.516,3.38-3.126A1.238,1.238,0,0,0,320.314,364.8Zm-5.906,3.07a1.238,1.238,0,0,0-.374,1.15l.509,2.563-2.281-1.276a1.238,1.238,0,0,0-1.209,0l-2.281,1.276.509-2.563a1.238,1.238,0,0,0-.374-1.15L306.99,366.1l2.6-.308a1.238,1.238,0,0,0,.978-.711l1.095-2.373,1.095,2.373a1.238,1.238,0,0,0,.978.711l2.6.308Z" transform="translate(-209.006 -304.086)"/>
      <path id="Trazado_821547" data-name="Trazado 821547" d="M133.395,70.809a1.238,1.238,0,0,0-1.238-1.238H92.55a1.238,1.238,0,0,0,0,2.475h39.607A1.238,1.238,0,0,0,133.395,70.809Z" transform="translate(-29.505 -59.01)"/>
      <path id="Trazado_821548" data-name="Trazado 821548" d="M117.864,134.407a1.238,1.238,0,0,0-1.238,1.238,2.723,2.723,0,1,1-2.723-2.723,1.238,1.238,0,1,0,0-2.476,5.2,5.2,0,1,0,5.2,5.2A1.238,1.238,0,0,0,117.864,134.407Z" transform="translate(-44.257 -110.643)"/>
      <path id="Trazado_821549" data-name="Trazado 821549" d="M117.864,230.067a1.238,1.238,0,0,0-1.238,1.238,2.723,2.723,0,1,1-2.723-2.723,1.238,1.238,0,1,0,0-2.475,5.2,5.2,0,1,0,5.2,5.2A1.238,1.238,0,0,0,117.864,230.067Z" transform="translate(-44.257 -191.781)"/>
      <path id="Trazado_821550" data-name="Trazado 821550" d="M196.907,272.064h21.124a1.238,1.238,0,1,0,0-2.476H196.907a1.238,1.238,0,0,0,0,2.476Z" transform="translate(-118.019 -228.661)"/>
      <path id="Trazado_821551" data-name="Trazado 821551" d="M196.907,237.277H212.75a1.238,1.238,0,1,0,0-2.475H196.907a1.238,1.238,0,1,0,0,2.475Z" transform="translate(-118.019 -199.156)"/>
      <path id="Trazado_821552" data-name="Trazado 821552" d="M203.508,365.248h-6.6a1.238,1.238,0,1,0,0,2.475h6.6a1.238,1.238,0,1,0,0-2.475Z" transform="translate(-118.019 -309.799)"/>
      <path id="Trazado_821553" data-name="Trazado 821553" d="M207.385,331.7a1.238,1.238,0,0,0-1.238-1.238h-9.242a1.238,1.238,0,0,0,0,2.476h9.242A1.238,1.238,0,0,0,207.385,331.7Z" transform="translate(-118.018 -280.295)"/>
      <path id="Trazado_821554" data-name="Trazado 821554" d="M218.031,173.928H196.907a1.238,1.238,0,0,0,0,2.476h21.124a1.238,1.238,0,1,0,0-2.476Z" transform="translate(-118.019 -147.524)"/>
      <path id="Trazado_821555" data-name="Trazado 821555" d="M196.907,141.617H212.75a1.238,1.238,0,1,0,0-2.475H196.907a1.238,1.238,0,1,0,0,2.475Z" transform="translate(-118.019 -118.019)"/>
      <path id="Trazado_821556" data-name="Trazado 821556" d="M113.9,324.242a1.238,1.238,0,0,0,0-2.476,5.2,5.2,0,1,0,5.2,5.2,1.238,1.238,0,0,0-2.475,0,2.723,2.723,0,1,1-2.723-2.723Z" transform="translate(-44.257 -272.918)"/>
    </g>
  </g>
</svg>
