<svg xmlns="http://www.w3.org/2000/svg" xmlns:xlink="http://www.w3.org/1999/xlink" width="123" height="123" viewBox="0 0 123 123">
  <defs>
    <filter id="Elipse_4721" x="0" y="0" width="123" height="123" filterUnits="userSpaceOnUse">
      <feOffset dy="1" input="SourceAlpha"/>
      <feGaussianBlur stdDeviation="5.5" result="blur"/>
      <feFlood flood-color="#fff" flood-opacity="0.902"/>
      <feComposite operator="in" in2="blur"/>
      <feComposite in="SourceGraphic"/>
    </filter>
  </defs>
  <g id="Grupo_1073845" data-name="Grupo 1073845" transform="translate(-1070.833 -405.821)">
    <g transform="matrix(1, 0, 0, 1, 1070.83, 405.82)" filter="url(#Elipse_4721)">
      <g id="Elipse_4721-2" data-name="Elipse 4721" transform="translate(16.5 15.5)" fill="none" stroke="#fff" stroke-width="6">
        <circle cx="45" cy="45" r="45" stroke="none"/>
        <circle cx="45" cy="45" r="42" fill="none"/>
      </g>
    </g>
    <g id="encuesta" transform="translate(1101.441 421.346)">
      <g id="Grupo_1073962" data-name="Grupo 1073962" transform="translate(-4.631 9.38)">
        <path id="Trazado_821557" data-name="Trazado 821557" d="M274.742,200.8l-7.051-.7c-7.153-4.094-2.263-8.531.183-7.209l15.576,3.576c1.75.4,2.72,2.534,3.185,4.268l2.8,13.536,3.332,1.924-5.495,9.331-8.327-4.794c-4.989-2.872-4.007-5.793-11.419-13.93-1.754-1.856.691-7.268,6.023-1.9L279.122,211C278.729,207.27,277.525,202.4,274.742,200.8Z" transform="translate(-220.899 -164.337)" fill="#f6dccd" fill-rule="evenodd"/>
        <g id="Grupo_1073957" data-name="Grupo 1073957" transform="translate(7.226 0)">
          <path id="Trazado_821558" data-name="Trazado 821558" d="M88.512,50.812a2.937,2.937,0,0,1,2.931,2.931v53.928a2.936,2.936,0,0,1-2.931,2.931H43.376a2.937,2.937,0,0,1-2.931-2.931V53.743a2.937,2.937,0,0,1,2.931-2.931H88.512Z" transform="translate(-40.445 -45.23)" fill="#837683" fill-rule="evenodd"/>
          <path id="Trazado_821559" data-name="Trazado 821559" d="M316.671,110.6h3.782a2.936,2.936,0,0,0,2.931-2.931V53.743a2.937,2.937,0,0,0-2.931-2.931h-3.782Z" transform="translate(-272.387 -45.23)" fill="#685e68" fill-rule="evenodd"/>
          <path id="Trazado_821560" data-name="Trazado 821560" d="M107.4,76.245H67.195a1.321,1.321,0,0,0-1.318,1.318v49a1.321,1.321,0,0,0,1.318,1.318H107.4a1.321,1.321,0,0,0,1.318-1.318v-49A1.32,1.32,0,0,0,107.4,76.245Z" transform="translate(-61.8 -66.586)" fill="#eceff1" fill-rule="evenodd"/>
          <path id="Trazado_821561" data-name="Trazado 821561" d="M316.671,127.881h1.318q.062,0,.123-.006a1.321,1.321,0,0,0,1.195-1.312v-49a1.321,1.321,0,0,0-1.195-1.312c-.041,0-.082-.006-.123-.006h-1.318Z" transform="translate(-272.387 -66.586)" fill="#d1d1d6" fill-rule="evenodd"/>
          <path id="Trazado_821562" data-name="Trazado 821562" d="M130.429,19.806h4.178a1.294,1.294,0,0,0,1.21-.8,4.984,4.984,0,0,1,9.156,0,1.294,1.294,0,0,0,1.21.8h4.178a1.321,1.321,0,0,1,1.318,1.318v4.984a1.321,1.321,0,0,1-1.318,1.318H130.429a1.321,1.321,0,0,1-1.318-1.318V21.124a1.32,1.32,0,0,1,1.318-1.318Z" transform="translate(-114.896 -15.996)" fill="#ffdc64" fill-rule="evenodd"/>
          <path id="Trazado_821563" data-name="Trazado 821563" d="M149.043,46.064H129.111a1.32,1.32,0,0,0,1.318,1.318h19.932a1.32,1.32,0,0,0,1.318-1.318V41.08a1.321,1.321,0,0,0-1.318-1.318v4.984a1.32,1.32,0,0,1-1.318,1.318Z" transform="translate(-114.896 -35.952)" fill="#ffc850" fill-rule="evenodd"/>
          <path id="Trazado_821564" data-name="Trazado 821564" d="M102,116.877h7.38a.966.966,0,0,1,.963.963v7.38a.966.966,0,0,1-.963.963H102a.966.966,0,0,1-.963-.963v-7.38A.966.966,0,0,1,102,116.877Z" transform="translate(-91.324 -100.704)" fill="#8ac9fe" fill-rule="evenodd"/>
          <path id="Trazado_821565" data-name="Trazado 821565" d="M141.358,116.877h1.879a.966.966,0,0,1,.963.963v7.38a.966.966,0,0,1-.963.963h-1.879a.966.966,0,0,0,.963-.963v-7.38A.966.966,0,0,0,141.358,116.877Z" transform="translate(-125.18 -100.704)" fill="#60b7ff" fill-rule="evenodd"/>
          <path id="Trazado_821566" data-name="Trazado 821566" d="M102,208.262h7.38a.966.966,0,0,1,.963.963v7.38a.966.966,0,0,1-.963.963H102a.966.966,0,0,1-.963-.963v-7.38A.966.966,0,0,1,102,208.262Z" transform="translate(-91.324 -177.438)" fill="#8ac9fe" fill-rule="evenodd"/>
          <path id="Trazado_821567" data-name="Trazado 821567" d="M141.358,208.262h1.879a.966.966,0,0,1,.963.963v7.38a.966.966,0,0,1-.963.963h-1.879a.966.966,0,0,0,.963-.963v-7.38A.966.966,0,0,0,141.358,208.262Z" transform="translate(-125.18 -177.438)" fill="#60b7ff" fill-rule="evenodd"/>
        </g>
        <g id="Grupo_1073958" data-name="Grupo 1073958" transform="translate(0 28.539)">
          <path id="Trazado_821568" data-name="Trazado 821568" d="M187.852,376.611a15.352,15.352,0,0,1-2.591,2.852l7.045,6.906,2.682-2.764Z" transform="translate(-154.818 -347.336)" fill="#8d9ca8" fill-rule="evenodd"/>
          <path id="Trazado_821569" data-name="Trazado 821569" d="M197.7,376.314a1.769,1.769,0,0,1-.767,1.028l7,6.952.857-.939Z" transform="translate(-164.62 -347.087)" fill="#8192a5" fill-rule="evenodd"/>
          <path id="Trazado_821570" data-name="Trazado 821570" d="M228.463,422.119,231.49,419a1.392,1.392,0,0,0-.029-1.962l-8.383-8.135a1.392,1.392,0,0,0-1.962.029l-3.027,3.119a1.392,1.392,0,0,0,.029,1.962l8.383,8.135A1.392,1.392,0,0,0,228.463,422.119Z" transform="translate(-182.054 -374.123)" fill="#e6ba27" fill-rule="evenodd"/>
          <path id="Trazado_821571" data-name="Trazado 821571" d="M241.7,408.9l8.383,8.135a1.392,1.392,0,0,1,.029,1.962l-3.027,3.119a1.377,1.377,0,0,1-.376.275,1.393,1.393,0,0,0,1.616-.275L251.354,419a1.392,1.392,0,0,0-.03-1.962l-8.383-8.135a1.393,1.393,0,0,0-1.587-.245A1.371,1.371,0,0,1,241.7,408.9Z" transform="translate(-201.918 -374.123)" fill="#e3a76f" fill-rule="evenodd"/>
          <circle id="Elipse_9933" data-name="Elipse 9933" cx="15.266" cy="15.266" r="15.266" transform="translate(0 21.586) rotate(-45)" fill="#9facba"/>
          <path id="Trazado_821572" data-name="Trazado 821572" d="M126.183,233.451a15.266,15.266,0,1,1,0,30.532q-.373,0-.741-.018a15.266,15.266,0,0,0,0-30.5Q125.81,233.452,126.183,233.451Z" transform="translate(-104.589 -227.128)" fill="#8d9ca8" fill-rule="evenodd"/>
          <circle id="Elipse_9934" data-name="Elipse 9934" cx="10.962" cy="10.962" r="10.962" transform="matrix(0.16, -0.987, 0.987, 0.16, 9.012, 30.647)" fill="#eceff1"/>
          <path id="Trazado_821573" data-name="Trazado 821573" d="M72.65,260.3c.249,0,.5.009.741.025a10.962,10.962,0,0,0,0,21.873c-.245.016-.492.025-.741.025a10.962,10.962,0,0,1,0-21.924Z" transform="translate(-51.056 -249.67)" fill="#d1d1d6" fill-rule="evenodd"/>
        </g>
        <g id="Grupo_1073959" data-name="Grupo 1073959" transform="translate(16.941 45.475)">
          <path id="Trazado_821574" data-name="Trazado 821574" d="M102,299.647h7.38a.966.966,0,0,1,.963.963v7.38a.966.966,0,0,1-.963.963H102a.966.966,0,0,1-.963-.963v-7.38A.966.966,0,0,1,102,299.647Z" transform="translate(-101.038 -299.647)" fill="#8ac9fe" fill-rule="evenodd"/>
          <path id="Trazado_821575" data-name="Trazado 821575" d="M141.358,299.647h1.879a.966.966,0,0,1,.963.963v7.38a.966.966,0,0,1-.963.963h-1.879a.966.966,0,0,0,.963-.963v-7.38A.966.966,0,0,0,141.358,299.647Z" transform="translate(-134.894 -299.647)" fill="#60b7ff" fill-rule="evenodd"/>
        </g>
        <g id="Grupo_1073960" data-name="Grupo 1073960" transform="translate(45.755 22.233)">
          <path id="Trazado_821576" data-name="Trazado 821576" d="M280.771,183.959l7.3-27.226a2.78,2.78,0,0,1,3.4-1.962l1.072.287a2.78,2.78,0,0,1,1.962,3.4l-7.3,27.226-3.726,3.726a.8.8,0,0,1-1.341-.359Z" transform="translate(-280.771 -154.677)" fill="#e6ba27" fill-rule="evenodd"/>
          <path id="Trazado_821577" data-name="Trazado 821577" d="M297.531,154.8a2.776,2.776,0,0,1,.387.075l1.072.287a2.78,2.78,0,0,1,1.962,3.4l-7.3,27.226-3.726,3.726a.8.8,0,0,1-1.341-.359l-.132-.491,3.367-3.367,7.3-27.226A2.781,2.781,0,0,0,297.531,154.8Z" transform="translate(-287.226 -154.782)" fill="#c48958" fill-rule="evenodd"/>
          <path id="Trazado_821578" data-name="Trazado 821578" d="M282.135,342.416l-1.364-5.09,6.431,1.723-3.726,3.726a.8.8,0,0,1-1.341-.359Z" transform="translate(-280.771 -308.044)" fill="#837683" fill-rule="evenodd"/>
          <path id="Trazado_821579" data-name="Trazado 821579" d="M289.065,348.871l-.012-.044a.783.783,0,0,1,.207-.774l3.039-3.039,1.832.491-3.726,3.726a.8.8,0,0,1-1.341-.359Z" transform="translate(-287.701 -314.499)" fill="#685e68" fill-rule="evenodd"/>
        </g>
        <g id="Grupo_1073961" data-name="Grupo 1073961" transform="translate(46.064 31.143)">
          <path id="Trazado_821580" data-name="Trazado 821580" d="M294.857,210.251l4.328.994c1.75.4,2.72,2.534,3.185,4.268l2.8,13.536,3.332,1.924-5.495,9.331-8.327-4.794c-4.989-2.872-4.007-5.793-11.419-13.93-1.754-1.856.691-7.268,6.023-1.9l5.575,6.084Z" transform="translate(-282.698 -210.251)" fill="#f6dccd" fill-rule="evenodd"/>
          <path id="Trazado_821581" data-name="Trazado 821581" d="M396.089,334.69l7.786-13.222a1.353,1.353,0,0,1,1.847-.478l2.545,1.5a1.353,1.353,0,0,1,.478,1.847l-7.786,13.222a1.353,1.353,0,0,1-1.847.478l-2.545-1.5A1.353,1.353,0,0,1,396.089,334.69Z" transform="translate(-377.754 -303.081)" fill="#d1d1d6" fill-rule="evenodd"/>
          <path id="Trazado_821582" data-name="Trazado 821582" d="M396.964,336.771l9.32-15.45-.562-.331a1.353,1.353,0,0,0-1.847.478l-7.786,13.222a1.353,1.353,0,0,0,.478,1.847Z" transform="translate(-377.754 -303.081)" fill="#b1b1b5" fill-rule="evenodd"/>
        </g>
      </g>
      <path id="Trazado_821583" data-name="Trazado 821583" d="M89.048,71.145a.918.918,0,1,0,1.289.151A.918.918,0,0,0,89.048,71.145ZM55.21,8.117a6.238,6.238,0,0,1,5.074,3.772H65.8a1.283,1.283,0,0,1,1.283,1.283v.489h10A4.218,4.218,0,0,1,81.3,17.874V31.633a4.07,4.07,0,0,1,1.214,4.073l-1.024,3.82,3.142.722c1.888.433,3.357,2.275,4.137,5.186.006.023.012.048.017.072l2.681,12.972.944.546.461-.784a2.636,2.636,0,0,1,3.6-.932l2.545,1.5a2.637,2.637,0,0,1,.933,3.6L92.166,75.632a2.632,2.632,0,0,1-3.6.932l-2.545-1.5a2.635,2.635,0,0,1-.932-3.6l.528-.9L81.3,68.084V71.8a4.218,4.218,0,0,1-4.213,4.213H68.1l4,3.878a2.673,2.673,0,0,1,.057,3.775l-3.027,3.119a2.673,2.673,0,0,1-3.776.056L56.962,78.71a2.651,2.651,0,0,1-.809-1.876,2.689,2.689,0,0,1,.115-.819H31.95A4.218,4.218,0,0,1,27.737,71.8V64.87a16.556,16.556,0,0,1,0-10.761V17.874a4.218,4.218,0,0,1,4.213-4.213h10v-.489a1.283,1.283,0,0,1,1.283-1.283h5.517a6.239,6.239,0,0,1,5.074-3.772ZM97.747,61.058a.063.063,0,0,1-.005.05L89.956,74.33a.06.06,0,0,1-.041.029.058.058,0,0,1-.05-.005l-2.545-1.5a.064.064,0,0,1-.029-.042.062.062,0,0,1,.006-.05l7.786-13.222a.062.062,0,0,1,.041-.029.061.061,0,0,1,.05.005l2.545,1.5A.061.061,0,0,1,97.747,61.058Zm-10.832,7.3,4.194-7.122-1.423-.822a1.284,1.284,0,0,1-.615-.851l-2.79-13.5c-.508-1.874-1.338-3.112-2.224-3.316L81.3,42.114V56.021a1.282,1.282,0,0,1-2.228.867l-5.557-6.065c-1.682-1.689-3.23-2.332-3.948-1.637a1.453,1.453,0,0,0-.215,1.766l.016.017q.641.7,1.2,1.358l.017.019a51.686,51.686,0,0,1,5.25,7.28c1.448,2.351,2.246,3.645,4.641,5.025ZM78.734,71.8V66.6a13.425,13.425,0,0,1-1.512-1.081v5.14a1.283,1.283,0,0,1-1.283,1.282H63.894l1.558,1.512H77.086A1.65,1.65,0,0,0,78.734,71.8ZM70.3,81.734,61.921,73.6a.1.1,0,0,0-.073-.029h0a.1.1,0,0,0-.074.031L58.746,76.72a.11.11,0,0,0,0,.149L67.131,85a.109.109,0,0,0,.149,0l3.027-3.119A.109.109,0,0,0,70.3,81.734ZM52.261,73.45H53.89l-.676-.656C52.9,73.023,52.587,73.243,52.261,73.45Zm-17.749,0a16.674,16.674,0,0,1-4.21-3.842V71.8A1.65,1.65,0,0,0,31.95,73.45h2.562ZM30.3,49.37a16.638,16.638,0,0,1,1.512-1.7V19.02A1.283,1.283,0,0,1,33.1,17.738h8.855V16.226h-10A1.65,1.65,0,0,0,30.3,17.874v31.5Zm12.932-27.3a1.283,1.283,0,0,1-1.283-1.283V20.3H34.379V45.614a16.525,16.525,0,0,1,3.072-1.572V41.148A2.248,2.248,0,0,1,39.7,38.9h7.38a2.248,2.248,0,0,1,2.246,2.246v2.894a16.537,16.537,0,0,1,4.076,2.28,1.269,1.269,0,0,1,.522-.112H70.149l.779-2.909a1.276,1.276,0,0,1-.626.164H53.92a1.283,1.283,0,0,1,0-2.566H70.3a1.282,1.282,0,0,1,1.1.628l2.2-8.21A4.025,4.025,0,0,1,74.656,31.5V20.3H67.084v.489A1.283,1.283,0,0,1,65.8,22.075Zm1.283-2.566h20V14.454H59.361a1.282,1.282,0,0,1-1.246-.982,3.7,3.7,0,0,0-7.193,0,1.282,1.282,0,0,1-1.247.982H44.517Zm22.567-3.283v1.512h8.855a1.282,1.282,0,0,1,1.283,1.282v11.3a4.031,4.031,0,0,1,1.351.127l.161.043V17.874a1.65,1.65,0,0,0-1.648-1.648ZM78.13,52.064l.6.66V49.81ZM72.61,46.94a10.91,10.91,0,0,1,2.742,2.095l.035.037.688.751,3.96-14.78a1.5,1.5,0,0,0-1.055-1.827l-1.072-.287a1.5,1.5,0,0,0-1.827,1.055Zm-5.762,1.836H55.988a16.517,16.517,0,0,1,3.472,6.776h8.186l.548-2.046c-.23-.262-.468-.528-.717-.8a3.8,3.8,0,0,1-.63-3.929ZM69.935,64.83,71.5,63.265l-2.14-.574Zm-10-5.341q0,.693-.057,1.372h6.388a1.279,1.279,0,0,1,.043-.316l.651-2.428H59.877c.037.452.057.91.057,1.373Zm14.722,9.884V63.736l-4.479,4.479a1.282,1.282,0,0,1-.907.376,1.31,1.31,0,0,1-.332-.044,1.283,1.283,0,0,1-.907-.907L66.9,63.426H59.46a16.449,16.449,0,0,1-1.919,4.627l1.36,1.32Zm-27.9-27.906H40.016v1.818a16.61,16.61,0,0,1,6.742,0V41.467Zm-2.6,31.983a13.983,13.983,0,1,0-1.546,0Zm14.707-.537-2.84-2.756q-.416.491-.867.95l2.812,2.729ZM70.2,55.921,69.118,59.97l3.954,1.059.187-.7A47.542,47.542,0,0,0,70.2,55.921ZM53.066,59.489a9.679,9.679,0,1,0-9.679,9.678A9.69,9.69,0,0,0,53.066,59.489Zm2.565,0A12.244,12.244,0,1,0,43.386,71.733,12.259,12.259,0,0,0,55.631,59.489Zm-13.5,2.333a1.281,1.281,0,0,0,.907.376l.067,0a1.282,1.282,0,0,0,.93-.474l2.309-2.854a1.283,1.283,0,0,0-1.994-1.613L42.94,59l-.61-.61A1.283,1.283,0,0,0,40.517,60.2ZM53.92,28.815H70.3a1.282,1.282,0,1,0,0-2.565H53.92a1.282,1.282,0,1,0,0,2.565Zm0,5.31H70.3a1.283,1.283,0,0,0,0-2.566H53.92a1.283,1.283,0,0,0,0,2.566Zm-7.764-6.361a1.282,1.282,0,0,0-1.8.19L42.941,29.7l-.61-.61A1.283,1.283,0,0,0,40.517,30.9l1.618,1.618a1.285,1.285,0,0,0,.907.376l.068,0a1.284,1.284,0,0,0,.93-.474l2.308-2.854a1.282,1.282,0,0,0-.19-1.8Zm-6.141,5.795h6.742V26.817H40.016ZM39.7,24.252A2.248,2.248,0,0,0,37.451,26.5v7.38A2.248,2.248,0,0,0,39.7,36.123h7.38a2.248,2.248,0,0,0,2.246-2.246V26.5a2.248,2.248,0,0,0-2.246-2.246Zm7.061,31.866H40.016v6.742h6.742Zm2.565-.319a2.248,2.248,0,0,0-2.246-2.246H39.7A2.248,2.248,0,0,0,37.451,55.8v7.38A2.249,2.249,0,0,0,39.7,65.425h7.38a2.249,2.249,0,0,0,2.246-2.246Zm6.513-42.353a1.318,1.318,0,1,0-1.318,1.318A1.318,1.318,0,0,0,55.836,13.446Z" transform="translate(-26.424)" fill="#242222" fill-rule="evenodd"/>
    </g>
  </g>
</svg>
