<svg xmlns="http://www.w3.org/2000/svg" xmlns:xlink="http://www.w3.org/1999/xlink" width="150" height="150" viewBox="0 0 150 150">
  <defs>
    <filter id="Elipse_9677" x="0" y="0" width="150" height="150" filterUnits="userSpaceOnUse">
      <feOffset dy="1" input="SourceAlpha"/>
      <feGaussianBlur stdDeviation="8" result="blur"/>
      <feFlood flood-color="#fff"/>
      <feComposite operator="in" in2="blur"/>
      <feComposite in="SourceGraphic"/>
    </filter>
  </defs>
  <g id="Grupo_1073979" data-name="Grupo 1073979" transform="translate(-205.957 -1667)">
    <g transform="matrix(1, 0, 0, 1, 205.96, 1667)" filter="url(#Elipse_9677)">
      <path id="Elipse_9677-2" data-name="Elipse 9677" d="M51,6A45,45,0,1,0,96,51,45.051,45.051,0,0,0,51,6m0-6A51,51,0,1,1,0,51,51,51,0,0,1,51,0Z" transform="translate(24 23)" fill="#fff"/>
    </g>
    <g id="etiqueta" transform="translate(191.708 1701.791)">
      <g id="Grupo_1073978" data-name="Grupo 1073978" transform="translate(57.555 1.321)">
        <g id="Grupo_1073976" data-name="Grupo 1073976">
          <path id="Trazado_821615" data-name="Trazado 821615" d="M114.326,8h41.1a1.3,1.3,0,0,1,.948.393l7.528,7.527a1.3,1.3,0,0,1,.393.948V73.16a1.343,1.343,0,0,1-1.341,1.341H114.327a1.343,1.343,0,0,1-1.341-1.341V9.342A1.343,1.343,0,0,1,114.326,8Z" transform="translate(-104.941 -8.001)" fill="#d1d1d6" fill-rule="evenodd"/>
          <path id="Trazado_821616" data-name="Trazado 821616" d="M373.432,8.7a1.342,1.342,0,0,1,.393.277l7.528,7.527a1.343,1.343,0,0,1,.277.393H374.1a.671.671,0,0,1-.67-.67Z" transform="translate(-322.392 -8.589)" fill="#a79ba7" fill-rule="evenodd"/>
          <path id="Trazado_821617" data-name="Trazado 821617" d="M65.595,56.732h41.1a1.3,1.3,0,0,1,.948.393l7.528,7.528a1.3,1.3,0,0,1,.393.948v56.291a1.343,1.343,0,0,1-1.341,1.341H65.595a1.343,1.343,0,0,1-1.341-1.341V58.073A1.343,1.343,0,0,1,65.595,56.732Z" transform="translate(-64.254 -48.687)" fill="#eceff1" fill-rule="evenodd"/>
          <path id="Trazado_821618" data-name="Trazado 821618" d="M65.595,56.732h3.14v66.5h-3.14a1.343,1.343,0,0,1-1.341-1.341V58.073A1.343,1.343,0,0,1,65.595,56.732Z" transform="translate(-64.254 -48.687)" fill="#d1d1d6" fill-rule="evenodd"/>
          <path id="Trazado_821619" data-name="Trazado 821619" d="M324.7,57.436a1.345,1.345,0,0,1,.393.276l7.528,7.528a1.341,1.341,0,0,1,.276.393h-7.526a.672.672,0,0,1-.67-.67Z" transform="translate(-281.706 -49.275)" fill="#a79ba7" fill-rule="evenodd"/>
        </g>
        <g id="Grupo_1073977" data-name="Grupo 1073977" transform="translate(12.684 31.257)">
          <path id="Trazado_821620" data-name="Trazado 821620" d="M141.9,219.369l27.784,27.784a2.788,2.788,0,0,0,3.934,0L190.9,229.875a2.787,2.787,0,0,0,0-3.934l-27.784-27.784a2.693,2.693,0,0,0-2.114-.811l-13.193.7a5.593,5.593,0,0,0-6.018,6.018l-.7,13.193a2.692,2.692,0,0,0,.811,2.114Z" transform="translate(-141.089 -197.342)" fill="#2ae242" fill-rule="evenodd"/>
          <path id="Trazado_821621" data-name="Trazado 821621" d="M141.905,227.438l27.784,27.784a2.788,2.788,0,0,0,3.934,0l1.651-1.651a2.787,2.787,0,0,1-3.934,0l-27.784-27.784a2.693,2.693,0,0,1-.811-2.114l.7-13.193a7.263,7.263,0,0,1,.893-3.474,4.91,4.91,0,0,0-.923.727,6.269,6.269,0,0,0-1.621,4.4l-.7,13.193a2.692,2.692,0,0,0,.811,2.114Z" transform="translate(-141.09 -205.411)" fill="#0b991d" fill-rule="evenodd"/>
          <path id="Trazado_821622" data-name="Trazado 821622" d="M182.187,234.782a2.586,2.586,0,1,0,0,3.657,2.586,2.586,0,0,0,0-3.657Z" transform="translate(-171.717 -227.969)" fill="#eceff1" fill-rule="evenodd"/>
        </g>
      </g>
      <path id="Trazado_821623" data-name="Trazado 821623" d="M96.443,45.743,83.4,58.784a1.318,1.318,0,1,1-1.861-1.867L94.574,43.874a1.322,1.322,0,0,1,1.869,1.869ZM103.8,53.1a1.321,1.321,0,1,0-1.869-1.867L88.889,64.275a1.321,1.321,0,0,0,.935,2.255,1.307,1.307,0,0,0,.934-.388Zm7.359,5.491a1.321,1.321,0,0,0-1.869,0L96.248,71.632a1.321,1.321,0,0,0,.934,2.256,1.31,1.31,0,0,0,.935-.387L111.16,60.458A1.323,1.323,0,0,0,111.16,58.591ZM79.778,42.114a1.269,1.269,0,0,1-.9.371,1.265,1.265,0,1,1,.9-2.161,1.277,1.277,0,0,1,0,1.789Zm3.006-.895a3.9,3.9,0,1,0-1.145,2.764,3.874,3.874,0,0,0,1.145-2.764Zm36.335,22.958a1.48,1.48,0,0,0,0-2.067L91.334,34.327a1.375,1.375,0,0,0-1.02-.429c-.031,0-.062,0-.093,0l-13.191.7a4.96,4.96,0,0,0-3.535,1.237,4.95,4.95,0,0,0-1.238,3.532l-.693,13.194a1.361,1.361,0,0,0,.428,1.111L99.776,81.455a1.459,1.459,0,0,0,2.064,0ZM58.878,74.545H89.123l-19-19.006a3.993,3.993,0,0,1-1.2-3.118l.7-13.192a7.659,7.659,0,0,1,2-5.261,7.637,7.637,0,0,1,5.264-2.006l13.191-.7a4,4,0,0,1,3.123,1.2L107.539,46.8V19h-6.993a1.322,1.322,0,0,1-1.316-1.321V10.685H58.878Zm8.044-71.9v5.4h33.625a1.31,1.31,0,0,1,.934.386l8.317,8.313a1.317,1.317,0,0,1,.389.934V49.443l5.4,5.4V10.955H108.59a1.321,1.321,0,0,1-1.316-1.321V2.641Zm42.993,1.867,3.808,3.8h-3.808Zm-8.044,8.044,3.8,3.8h-3.8Zm19.11,47.691-2.749-2.755V9.634a1.315,1.315,0,0,0-.389-.934L109.525.386A1.311,1.311,0,0,0,108.591,0H65.6a1.32,1.32,0,0,0-1.316,1.321V8.045H57.554a1.321,1.321,0,0,0-1.324,1.32v66.5a1.321,1.321,0,0,0,1.324,1.321H91.77l6.136,6.136a4.108,4.108,0,0,0,5.8,0L120.98,66.046a4.091,4.091,0,0,0,0-5.8Z" fill-rule="evenodd"/>
    </g>
  </g>
</svg>
