<svg xmlns="http://www.w3.org/2000/svg" xmlns:xlink="http://www.w3.org/1999/xlink" width="123" height="123" viewBox="0 0 123 123">
  <defs>
    <filter id="Elipse_4721" x="0" y="0" width="123" height="123" filterUnits="userSpaceOnUse">
      <feOffset dy="1" input="SourceAlpha"/>
      <feGaussianBlur stdDeviation="5.5" result="blur"/>
      <feFlood flood-color="#fff" flood-opacity="0.902"/>
      <feComposite operator="in" in2="blur"/>
      <feComposite in="SourceGraphic"/>
    </filter>
  </defs>
  <g id="Grupo_1074010" data-name="Grupo 1074010" transform="translate(-1070.833 -405.821)">
    <g transform="matrix(1, 0, 0, 1, 1070.83, 405.82)" filter="url(#Elipse_4721)">
      <g id="Elipse_4721-2" data-name="Elipse 4721" transform="translate(16.5 15.5)" fill="none" stroke="#fff" stroke-width="6">
        <circle cx="45" cy="45" r="45" stroke="none"/>
        <circle cx="45" cy="45" r="42" fill="none"/>
      </g>
    </g>
    <g id="grupo" transform="translate(1090.333 405.341)">
      <path id="Trazado_821637" data-name="Trazado 821637" d="M44.03,310.27a9.766,9.766,0,0,0-4.767-2.729l-6.757-1.619,0,0,0,0V301.8H24.255v4.138h0l-6.739,1.61A9.79,9.79,0,0,0,10,317.067v11.04H24.939Z" transform="translate(-8.358 -241.953)" fill="#78d2fa"/>
      <path id="Trazado_821638" data-name="Trazado 821638" d="M104.56,301.8v4.236l-4.282,10.257L96,306.048V301.8Z" transform="translate(-80.234 -241.953)" fill="#ffb487"/>
      <path id="Trazado_821639" data-name="Trazado 821639" d="M84.345,215.261v5.714a9.2,9.2,0,0,1-9.2,9.2h0a9.2,9.2,0,0,1-9.2-9.2v-5.714Z" transform="translate(-55.12 -169.629)" fill="#ffcdac"/>
      <path id="Trazado_821640" data-name="Trazado 821640" d="M84.345,168.2v-2.214a9.2,9.2,0,0,0-9.2-9.2h0a9.2,9.2,0,0,0-9.2,9.2V168.2h6.34a21.929,21.929,0,0,0,11.271-3.118h0" transform="translate(-55.12 -120.757)" fill="#878791"/>
      <path id="Trazado_821641" data-name="Trazado 821641" d="M294.79,310.27a9.765,9.765,0,0,1,4.767-2.729l6.757-1.619,0,0,0,0V301.8h8.251v4.138h0l6.739,1.61a9.79,9.79,0,0,1,7.516,9.522v11.04H313.881Z" transform="translate(-246.377 -241.953)" fill="#a5dc69"/>
      <path id="Trazado_821642" data-name="Trazado 821642" d="M119.832,352.4l-9.411,2.255a13.637,13.637,0,0,0-10.459,13.261v9.052h51.219v-9.044a13.637,13.637,0,0,0-10.468-13.263l-9.387-2.242Z" transform="translate(-83.545 -284.248)" fill="#ff5a5a"/>
      <g id="Grupo_1074013" data-name="Grupo 1074013" transform="translate(35.913 59.844)">
        <path id="Trazado_821643" data-name="Trazado 821643" d="M372.44,301.8v4.251l-4.278,10.242-4.282-10.257V301.8Z" transform="translate(-340.033 -301.797)" fill="#ffb487"/>
        <path id="Trazado_821644" data-name="Trazado 821644" d="M224.806,341.938l6.127-13.912a5.058,5.058,0,0,1-.714-2.594V324.1H219.386v1.337a5.057,5.057,0,0,1-.712,2.59Z" transform="translate(-218.674 -320.434)" fill="#ffb487"/>
      </g>
      <path id="Trazado_821645" data-name="Trazado 821645" d="M203.621,191.525v8.839a12.81,12.81,0,0,1-12.81,12.81h0A12.81,12.81,0,0,1,178,200.364v-8.839Z" transform="translate(-148.768 -149.791)" fill="#ffcdac"/>
      <path id="Trazado_821646" data-name="Trazado 821646" d="M190.809,115.437h0A12.81,12.81,0,0,0,178,128.247v3.084h6.263A14.074,14.074,0,0,0,195.05,126.3h0l8.569,5.035v-3.084A12.81,12.81,0,0,0,190.809,115.437Z" transform="translate(-148.766 -86.199)" fill="#f5b955"/>
      <path id="Trazado_821647" data-name="Trazado 821647" d="M334.045,215.261v5.714a9.2,9.2,0,0,0,9.2,9.2h0a9.2,9.2,0,0,0,9.2-9.2v-5.714Z" transform="translate(-279.185 -169.629)" fill="#ffcdac"/>
      <path id="Trazado_821648" data-name="Trazado 821648" d="M334.045,168.2v-2.214a9.2,9.2,0,0,1,9.2-9.2h0a9.2,9.2,0,0,1,9.2,9.2V168.2H346.1a21.929,21.929,0,0,1-11.271-3.118h0" transform="translate(-279.185 -120.757)" fill="#878791"/>
      <path id="Trazado_821649" data-name="Trazado 821649" d="M247.382,492a1.643,1.643,0,1,0,1.161.481A1.654,1.654,0,0,0,247.382,492Z" transform="translate(-205.382 -400.919)"/>
      <path id="Trazado_821650" data-name="Trazado 821650" d="M75.309,141.836l-5.478-1.309v-2.173a10.839,10.839,0,0,0,5.066-9.167v-6.12a10.833,10.833,0,0,0-18.949-7.181A14.478,14.478,0,0,0,42.06,105.437h0a14.478,14.478,0,0,0-13.9,10.478,10.833,10.833,0,0,0-18.974,7.152v6.12a10.838,10.838,0,0,0,5.066,9.167v2.173l-5.478,1.309A11.4,11.4,0,0,0,0,152.956V164a1.642,1.642,0,0,0,1.642,1.642H14.775v4.927a1.642,1.642,0,0,0,1.642,1.642H34.434a1.642,1.642,0,1,0,0-3.285H27.1v-7.228a1.642,1.642,0,1,0-3.285,0v7.228H18.059v-7.41a11.957,11.957,0,0,1,9.2-11.664l8.077-1.936,5.2,11.824a1.642,1.642,0,0,0,1.5.981h0a1.642,1.642,0,0,0,1.5-.981l5.192-11.807,8.054,1.924a11.955,11.955,0,0,1,9.208,11.666v1.833a1.645,1.645,0,0,0,0,1.285v4.285H60.269v-7.228a1.642,1.642,0,0,0-3.285,0v7.228H48.941a1.642,1.642,0,1,0,0,3.285H67.635a1.642,1.642,0,0,0,1.642-1.642v-4.927H82.444A1.642,1.642,0,0,0,84.086,164v-11.04A11.4,11.4,0,0,0,75.309,141.836Zm-8.759.076-2.507,6-2.474-5.925a1.641,1.641,0,0,0,.011-.18c0-.015,0-.031,0-.046v-2.028a10.765,10.765,0,0,0,4.967,0v2.089C66.546,141.853,66.548,141.883,66.55,141.912Zm-31.905,1.319a11.4,11.4,0,0,0-3.357-1.4l-5.5-1.317v-2.154a10.917,10.917,0,0,0,3.394-3.384,14.556,14.556,0,0,0,5.46,5.838Zm-3.753-14.817v-3.8h4.621a15.674,15.674,0,0,0,11.1-4.589l6.606,3.881V128.8a11.167,11.167,0,0,1-22.326-.385Zm18.531,12.432a14.555,14.555,0,0,0,5.5-5.84,10.924,10.924,0,0,0,3.376,3.355v2.154l-5.5,1.317a11.406,11.406,0,0,0-3.375,1.411v-2.4Zm14.635-4.1a7.563,7.563,0,0,1-7.555-7.555v-.268c.006-.168.01-4.416.01-4.416a23.577,23.577,0,0,0,10.4,2.42h4.7v2.264A7.564,7.564,0,0,1,64.058,136.742Zm0-21.23a7.563,7.563,0,0,1,7.555,7.555v.572h-4.7a20.292,20.292,0,0,1-10.108-2.7A7.569,7.569,0,0,1,64.058,115.512Zm-33.166,4.377a11.168,11.168,0,0,1,22.336,0v.214l-6.1-3.581a1.642,1.642,0,0,0-2.091.361,12.4,12.4,0,0,1-9.529,4.447H30.892Zm-18.418,3.177a7.555,7.555,0,0,1,14.805-2.126,20.293,20.293,0,0,1-10.108,2.7h-4.7v-.572Zm0,3.856h4.7A23.576,23.576,0,0,0,27.583,124.5v4.689a7.555,7.555,0,0,1-15.11,0S12.473,126.923,12.473,126.923Zm7.555,13.1a10.831,10.831,0,0,0,2.478-.289v1.982c0,.031,0,.062,0,.093,0,.052,0,.1.01.155l-2.485,5.95-2.494-5.975c0-.039.005-.079.005-.118v-2.089A10.832,10.832,0,0,0,20.028,140.026Zm-5.254,21.486v.841H9.854v-7.3a1.642,1.642,0,0,0-3.285,0v7.3H3.285v-9.4a8.122,8.122,0,0,1,6.255-7.925l5.206-1.244,3.4,8.138A15.246,15.246,0,0,0,14.775,161.513Zm11.718-14.858a15.438,15.438,0,0,0-2.776.955l1.6-3.83,5.207,1.248a8.14,8.14,0,0,1,1.178.38ZM42.037,155l-4.107-9.344v-3.387a14.464,14.464,0,0,0,8.208.015v3.39Zm10.318-9.576a8.15,8.15,0,0,1,1.208-.393l5.194-1.245,1.606,3.847a15.438,15.438,0,0,0-2.815-.969ZM80.8,162.353H77.517v-7.3a1.642,1.642,0,0,0-3.285,0v7.3H69.278v-.833a15.245,15.245,0,0,0-3.358-9.575l3.408-8.161,5.218,1.247a8.122,8.122,0,0,1,6.255,7.925Z" transform="translate(0 -77.842)"/>
    </g>
  </g>
</svg>
