<svg xmlns="http://www.w3.org/2000/svg" xmlns:xlink="http://www.w3.org/1999/xlink" width="123" height="123" viewBox="0 0 123 123">
  <defs>
    <filter id="Elipse_4721" x="0" y="0" width="123" height="123" filterUnits="userSpaceOnUse">
      <feOffset dy="1" input="SourceAlpha"/>
      <feGaussianBlur stdDeviation="5.5" result="blur"/>
      <feFlood flood-color="#fff" flood-opacity="0.902"/>
      <feComposite operator="in" in2="blur"/>
      <feComposite in="SourceGraphic"/>
    </filter>
  </defs>
  <g id="Grupo_1074009" data-name="Grupo 1074009" transform="translate(-1070.833 -405.821)">
    <g transform="matrix(1, 0, 0, 1, 1070.83, 405.82)" filter="url(#Elipse_4721)">
      <g id="Elipse_4721-2" data-name="Elipse 4721" transform="translate(16.5 15.5)" fill="none" stroke="#fff" stroke-width="6">
        <circle cx="45" cy="45" r="45" stroke="none"/>
        <circle cx="45" cy="45" r="42" fill="none"/>
      </g>
    </g>
    <g id="obediente" transform="translate(1085.294 429.064)">
      <g id="Grupo_1074015" data-name="Grupo 1074015" transform="translate(19.337 12.729)">
        <path id="Trazado_821660" data-name="Trazado 821660" d="M77.033,303.051a4.992,4.992,0,0,0-4.986,4.986v5.845h9.972v-5.845A4.992,4.992,0,0,0,77.033,303.051Z" transform="translate(-71.116 -271.676)" fill="#dff6fd"/>
        <path id="Trazado_821661" data-name="Trazado 821661" d="M113.033,114.155a1.461,1.461,0,0,1-1.524,0c-8.9-5.448-14.822-11.139-14.822-22.278V87.465H66.381a.728.728,0,0,0-.728.728v28.78a9.054,9.054,0,0,1,14.978,6.854v5.845h2.2a1.311,1.311,0,0,1,1.31,1.31v11.5H114.3a.728.728,0,0,0,.728-.728V112.9q-.969.634-1.992,1.259Z" transform="translate(-65.653 -87.465)" fill="#dff6fd"/>
      </g>
      <g id="Grupo_1074016" data-name="Grupo 1074016" transform="translate(19.337 12.729)">
        <path id="Trazado_821662" data-name="Trazado 821662" d="M73.047,308.891v5.7H78.1V304.055c-.07,0-.14-.005-.21-.005A4.846,4.846,0,0,0,73.047,308.891Z" transform="translate(-71.971 -272.529)" fill="#c8effe"/>
        <path id="Trazado_821663" data-name="Trazado 821663" d="M71.57,114.62c.071,0,.14,0,.21.005V88.193a.728.728,0,0,1,.728-.728H66.381a.728.728,0,0,0-.728.728v28.582A9.168,9.168,0,0,1,71.57,114.62Z" transform="translate(-65.653 -87.465)" fill="#c8effe"/>
      </g>
      <g id="Grupo_1074022" data-name="Grupo 1074022" transform="translate(50.371 1.09)">
        <g id="Grupo_1074017" data-name="Grupo 1074017" transform="translate(0)">
          <path id="Trazado_821664" data-name="Trazado 821664" d="M279.7,14.7a1.455,1.455,0,0,0-.8,1.3V23.54c0,11.139,5.919,16.831,14.822,22.278a1.461,1.461,0,0,0,1.524,0c8.9-5.448,14.822-11.139,14.822-22.278V16.006a1.456,1.456,0,0,0-.8-1.3L295.128,7.643a1.455,1.455,0,0,0-1.3,0Z" transform="translate(-278.894 -7.49)" fill="#fac600"/>
        </g>
        <g id="Grupo_1074018" data-name="Grupo 1074018" transform="translate(0 5.002)">
          <path id="Trazado_821665" data-name="Trazado 821665" d="M284.125,50.507V41.86L279.7,44.073a1.455,1.455,0,0,0-.8,1.3v7.534c0,11.139,5.919,16.831,14.822,22.278a1.461,1.461,0,0,0,1.524,0c1.3-.793,2.529-1.592,3.69-2.412-8.893-5.445-14.8-11.136-14.8-22.268Z" transform="translate(-278.893 -41.86)" fill="#e8b800"/>
        </g>
        <g id="Grupo_1074021" data-name="Grupo 1074021" transform="translate(5.564 7.588)">
          <g id="Grupo_1074019" data-name="Grupo 1074019" transform="translate(0)">
            <circle id="Elipse_9955" data-name="Elipse 9955" cx="9.954" cy="9.954" r="9.954" fill="#4fc123"/>
          </g>
          <g id="Grupo_1074020" data-name="Grupo 1074020" transform="translate(0 0)">
            <path id="Trazado_821666" data-name="Trazado 821666" d="M321.346,69.584a9.956,9.956,0,0,1,7.843-9.728,9.954,9.954,0,1,0,0,19.456A9.957,9.957,0,0,1,321.346,69.584Z" transform="translate(-317.125 -59.63)" fill="#47a920"/>
          </g>
        </g>
      </g>
      <g id="Grupo_1074025" data-name="Grupo 1074025" transform="translate(12.539 39.884)">
        <path id="Trazado_821667" data-name="Trazado 821667" d="M47.415,288.958v-5.7a4.841,4.841,0,0,1,9.681,0v5.7h4.366v-5.7a9.207,9.207,0,0,0-18.413,0v5.7Z" transform="translate(-39.541 -274.052)" fill="#3675bb"/>
        <path id="Trazado_821668" data-name="Trazado 821668" d="M45.515,288.957v-5.7a9.207,9.207,0,0,1,7.973-9.122,9.195,9.195,0,0,0-10.44,9.122v5.7h2.467Z" transform="translate(-39.541 -274.051)" fill="#2b68b6"/>
        <g id="Grupo_1074023" data-name="Grupo 1074023" transform="translate(0 14.906)">
          <path id="Trazado_821669" data-name="Trazado 821669" d="M42.921,395.105H20.4a1.455,1.455,0,0,1-1.455-1.455V377.928a1.455,1.455,0,0,1,1.455-1.455H42.921a1.455,1.455,0,0,1,1.455,1.455V393.65A1.455,1.455,0,0,1,42.921,395.105Z" transform="translate(-18.948 -376.473)" fill="#fac600"/>
        </g>
        <g id="Grupo_1074024" data-name="Grupo 1074024" transform="translate(0 14.906)">
          <path id="Trazado_821670" data-name="Trazado 821670" d="M25.068,393.65V377.928a1.455,1.455,0,0,1,1.455-1.455H20.4a1.455,1.455,0,0,0-1.455,1.455V393.65a1.455,1.455,0,0,0,1.455,1.455h6.12A1.455,1.455,0,0,1,25.068,393.65Z" transform="translate(-18.948 -376.473)" fill="#e8b800"/>
        </g>
      </g>
      <g id="Grupo_1074026" data-name="Grupo 1074026" transform="translate(11.448 0)">
        <path id="Trazado_821671" data-name="Trazado 821671" d="M141.634,223.905h6.252a1.092,1.092,0,0,0,0-2.183h-6.252a1.092,1.092,0,1,0,0,2.183Z" transform="translate(-121.754 -189.454)"/>
        <path id="Trazado_821672" data-name="Trazado 821672" d="M141.634,260.253h25.392a1.092,1.092,0,1,0,0-2.183H141.634a1.092,1.092,0,1,0,0,2.183Z" transform="translate(-121.754 -220.512)"/>
        <path id="Trazado_821673" data-name="Trazado 821673" d="M276.361,294.417h-6.769a1.092,1.092,0,1,0,0,2.183h6.769a1.092,1.092,0,1,0,0-2.183Z" transform="translate(-231.09 -251.569)"/>
        <path id="Trazado_821674" data-name="Trazado 821674" d="M81.221,7.328,67.093.268a2.559,2.559,0,0,0-2.277,0L50.687,7.328h0a2.533,2.533,0,0,0-1.408,2.278v2.031H33.941a1.092,1.092,0,0,0,0,2.183H49.279v3.32a27.807,27.807,0,0,0,.358,4.548H31.327a1.092,1.092,0,0,0,0,2.183H50.1a21.354,21.354,0,0,0,1.085,3.107H31.327a1.092,1.092,0,1,0,0,2.183H52.305a21.471,21.471,0,0,0,1.261,1.9q.452.61.957,1.2H41.945a1.092,1.092,0,0,0,0,2.183h14.66a48.688,48.688,0,0,0,8.017,5.9,2.541,2.541,0,0,0,2.664,0l.331-.2V66.653H39.059V64.618a1.092,1.092,0,1,0-2.183,0v7.35a.364.364,0,0,1-.364.364H13.995a.364.364,0,0,1-.364-.364V56.246a.364.364,0,0,1,.364-.364H36.512a.364.364,0,0,1,.364.364v3.278a1.092,1.092,0,0,0,2.183,0V56.246a2.535,2.535,0,0,0-.083-.634H56.719a1.092,1.092,0,0,0,0-2.183H35.551V50.321H56.718a1.092,1.092,0,1,0,0-2.183H35.506a10.217,10.217,0,0,0-.79-3.107h11.3a1.092,1.092,0,1,0,0-2.183H33.436A10.279,10.279,0,0,0,20.428,40V13.821h8.419a1.092,1.092,0,1,0,0-2.183H20.064a1.821,1.821,0,0,0-1.819,1.819v28.1a10.27,10.27,0,0,0-3.29,7.536V53.7h-.961a2.55,2.55,0,0,0-2.547,2.547V71.967a2.55,2.55,0,0,0,2.547,2.547H36.512a2.55,2.55,0,0,0,2.547-2.547V68.836H67.981A1.821,1.821,0,0,0,69.8,67.017V38.744a33.254,33.254,0,0,0,8.542-7.68A22.521,22.521,0,0,0,82.63,17.141V9.607a2.533,2.533,0,0,0-1.408-2.278ZM29,53.7H21.5V49.091a3.749,3.749,0,0,1,7.5,0V53.7ZM17.138,49.091a8.115,8.115,0,1,1,16.23,0V53.7H31.186V49.091a5.932,5.932,0,0,0-11.864,0V53.7H17.138Zm63.308-31.95c0,10.49-5.472,15.945-14.3,21.347a.372.372,0,0,1-.385,0c-8.828-5.4-14.3-10.858-14.3-21.347V9.607a.362.362,0,0,1,.2-.326L65.792,2.22a.365.365,0,0,1,.325,0L80.245,9.281a.362.362,0,0,1,.2.326v7.534Z" transform="translate(-11.448 0)"/>
        <path id="Trazado_821675" data-name="Trazado 821675" d="M320.672,52.13a11.046,11.046,0,1,0,10.405,14.754,1.092,1.092,0,1,0-2.056-.733,8.867,8.867,0,1,1,.373-4.536,1.092,1.092,0,0,0,2.149-.382,11.025,11.025,0,0,0-10.872-9.1Z" transform="translate(-266.231 -44.543)"/>
        <path id="Trazado_821676" data-name="Trazado 821676" d="M360.664,105.626l-4.3,4.3-2.5-2.5a1.092,1.092,0,0,0-1.544,1.544l3.272,3.273a1.092,1.092,0,0,0,1.544,0l5.073-5.072a1.092,1.092,0,0,0-1.544-1.544Z" transform="translate(-302.437 -89.98)"/>
      </g>
    </g>
  </g>
</svg>
