<svg xmlns="http://www.w3.org/2000/svg" xmlns:xlink="http://www.w3.org/1999/xlink" width="123" height="123" viewBox="0 0 123 123">
  <defs>
    <filter id="Elipse_4721" x="0" y="0" width="123" height="123" filterUnits="userSpaceOnUse">
      <feOffset dy="1" input="SourceAlpha"/>
      <feGaussianBlur stdDeviation="5.5" result="blur"/>
      <feFlood flood-color="#fff" flood-opacity="0.902"/>
      <feComposite operator="in" in2="blur"/>
      <feComposite in="SourceGraphic"/>
    </filter>
  </defs>
  <g id="Grupo_1074012" data-name="Grupo 1074012" transform="translate(-1070.833 -405.821)">
    <g transform="matrix(1, 0, 0, 1, 1070.83, 405.82)" filter="url(#Elipse_4721)">
      <g id="Elipse_4721-2" data-name="Elipse 4721" transform="translate(16.5 15.5)" fill="none" stroke="#fff" stroke-width="6">
        <circle cx="45" cy="45" r="45" stroke="none"/>
        <circle cx="45" cy="45" r="42" fill="none"/>
      </g>
    </g>
    <g id="estadisticas_2_" data-name="estadisticas (2)" transform="translate(1094.113 418.028)">
      <g id="Grupo_1074027" data-name="Grupo 1074027" transform="translate(1.105 13.505)">
        <path id="Trazado_821677" data-name="Trazado 821677" d="M21.686,392.243H11.622A4.122,4.122,0,0,0,7.5,396.365v10.592H25.808V396.365A4.122,4.122,0,0,0,21.686,392.243Z" transform="translate(-7.5 -337.38)" fill="#2d86fe"/>
        <path id="Trazado_821678" data-name="Trazado 821678" d="M15.572,392.237a4.123,4.123,0,0,0-4.123,4.123v10.591H7.5V396.36a4.122,4.122,0,0,1,4.121-4.123Z" transform="translate(-7.5 -337.375)" fill="#0f5cc3"/>
        <path id="Trazado_821679" data-name="Trazado 821679" d="M145.937,326.693H135.873a4.122,4.122,0,0,0-4.122,4.122v20.25h18.308v-20.25A4.122,4.122,0,0,0,145.937,326.693Z" transform="translate(-113.443 -281.488)" fill="#a8f04b"/>
        <path id="Trazado_821680" data-name="Trazado 821680" d="M139.822,326.687a4.123,4.123,0,0,0-4.123,4.123v20.25H131.75V330.81a4.122,4.122,0,0,1,4.121-4.123Z" transform="translate(-113.442 -281.483)" fill="#82bd36"/>
        <path id="Trazado_821681" data-name="Trazado 821681" d="M270.187,235.944H260.123A4.122,4.122,0,0,0,256,240.066v33.622h18.308V240.066A4.122,4.122,0,0,0,270.187,235.944Z" transform="translate(-219.385 -204.111)" fill="#fcd770"/>
        <path id="Trazado_821682" data-name="Trazado 821682" d="M264.072,235.938a4.123,4.123,0,0,0-4.123,4.123v33.622H256V240.061a4.122,4.122,0,0,1,4.121-4.123Z" transform="translate(-219.385 -204.106)" fill="#ffc729"/>
        <path id="Trazado_821683" data-name="Trazado 821683" d="M394.437,122.345H384.373a4.122,4.122,0,0,0-4.122,4.122v50.36h18.308v-50.36A4.122,4.122,0,0,0,394.437,122.345Z" transform="translate(-325.328 -107.25)" fill="#c10a54"/>
        <path id="Trazado_821684" data-name="Trazado 821684" d="M388.322,122.34a4.123,4.123,0,0,0-4.123,4.123v50.36H380.25v-50.36a4.122,4.122,0,0,1,4.121-4.123Z" transform="translate(-325.327 -107.246)" fill="#9c0643"/>
        <path id="Trazado_821685" data-name="Trazado 821685" d="M103.731,19.9l-15.8,1.31,1.995,2.876-31,21.5,5.048,7.279,31-21.5,1.995,2.876Z" transform="translate(-51.348 -19.9)" fill="#ffc729"/>
      </g>
      <g id="Grupo_1074028" data-name="Grupo 1074028" transform="translate(0 12.4)">
        <path id="Trazado_821686" data-name="Trazado 821686" d="M74.336,161.044a1.105,1.105,0,0,0,1.105-1.105V120.076a5.232,5.232,0,0,0-5.226-5.226H60.149a5.232,5.232,0,0,0-5.226,5.226V132.55a5.2,5.2,0,0,0-3.017-.962H41.842a5.233,5.233,0,0,0-5.227,5.227v9.107a5.2,5.2,0,0,0-3.017-.962H23.534a5.233,5.233,0,0,0-5.227,5.227v5.394a5.2,5.2,0,0,0-3.017-.962H5.227A5.233,5.233,0,0,0,0,159.845v10.592a1.105,1.105,0,0,0,1.105,1.105H74.336a1.105,1.105,0,0,0,1.105-1.105V164.36a1.105,1.105,0,1,0-2.21,0v4.971h-16.1V120.076a3.02,3.02,0,0,1,3.016-3.016H70.215a3.02,3.02,0,0,1,3.016,3.016v39.863A1.1,1.1,0,0,0,74.336,161.044Zm-72.126-1.2a3.02,3.02,0,0,1,3.017-3.017H15.291a3.02,3.02,0,0,1,3.017,3.017v9.486H2.21Zm18.308-9.659a3.02,3.02,0,0,1,3.017-3.017H33.6a3.02,3.02,0,0,1,3.017,3.017v19.145h-16.1Zm18.308-13.371a3.02,3.02,0,0,1,3.017-3.017H51.906a3.02,3.02,0,0,1,3.017,3.017v32.516h-16.1Z" transform="translate(0 -99.754)"/>
        <path id="Trazado_821687" data-name="Trazado 821687" d="M56.673,47.1a1.1,1.1,0,0,0,1.538.278L88.3,26.509l1.365,1.968a1.105,1.105,0,0,0,1.907-.158l6.766-14.343A1.105,1.105,0,0,0,97.248,12.4l-15.8,1.31a1.105,1.105,0,0,0-.817,1.731l1.366,1.97-19.328,13.4a1.105,1.105,0,1,0,1.259,1.816L84.159,18.6a1.105,1.105,0,0,0,.279-1.538l-.9-1.3,11.99-.994L90.39,25.645l-.9-1.3a1.105,1.105,0,0,0-1.538-.278L57.859,44.928l-3.787-5.463L60.3,35.143a1.105,1.105,0,1,0-1.26-1.816L51.9,38.279a1.105,1.105,0,0,0-.278,1.538Z" transform="translate(-43.851 -12.4)"/>
      </g>
    </g>
  </g>
</svg>
