<svg xmlns="http://www.w3.org/2000/svg" width="295" height="191" viewBox="0 0 295 191">
  <g id="Grupo_1075085" data-name="Grupo 1075085" transform="translate(-1124.957 -2122)">
    <path id="Trazado_823206" data-name="Trazado 823206" d="M0,0H295V191H0Z" transform="translate(1124.957 2122)" fill="#fff"/>
    <path id="Trazado_823207" data-name="Trazado 823207" d="M.185,19,2.408,6.2l3.99.009a5.293,5.293,0,0,1,3.34.905A2.8,2.8,0,0,1,10.749,9.64a3.223,3.223,0,0,1-2.241,2.839,2.15,2.15,0,0,1,1.187.989,2.959,2.959,0,0,1,.36,1.709,3.7,3.7,0,0,1-1.419,2.817A5.629,5.629,0,0,1,5.1,19Zm3.551-5.572-.606,3.454,2.03.009a2.618,2.618,0,0,0,1.591-.47,1.866,1.866,0,0,0,.765-1.27A1.577,1.577,0,0,0,7.3,13.916a1.427,1.427,0,0,0-1.138-.479Zm.316-1.863,1.749.018a2.785,2.785,0,0,0,1.6-.457A1.772,1.772,0,0,0,8.139,9.9q.22-1.547-1.626-1.556l-1.9-.009Zm20.672.879H16.866V10.369h7.857Zm0,3.806H16.866V14.175h7.857Z" transform="translate(1175.957 2206)" fill="#12263f"/>
    <path id="Trazado_823208" data-name="Trazado 823208" d="M8.43,10.3a5.762,5.762,0,0,1-.977,3.609,3.409,3.409,0,0,1-2.859,1.25A3.433,3.433,0,0,1,1.75,13.93,5.594,5.594,0,0,1,.742,10.414V8.32A5.687,5.687,0,0,1,1.73,4.7,3.434,3.434,0,0,1,4.578,3.469,3.437,3.437,0,0,1,7.422,4.691,5.576,5.576,0,0,1,8.43,8.2Zm-2.258-2.3a4.165,4.165,0,0,0-.387-2.061,1.307,1.307,0,0,0-1.207-.645A1.284,1.284,0,0,0,3.4,5.9,3.9,3.9,0,0,0,3,7.823v2.768a4.372,4.372,0,0,0,.379,2.068,1.29,1.29,0,0,0,1.215.676,1.268,1.268,0,0,0,1.2-.649A4.268,4.268,0,0,0,6.172,10.7ZM8.43,34.3a5.762,5.762,0,0,1-.977,3.609,3.409,3.409,0,0,1-2.859,1.25A3.433,3.433,0,0,1,1.75,37.93,5.594,5.594,0,0,1,.742,34.414V32.32A5.687,5.687,0,0,1,1.73,28.7a3.434,3.434,0,0,1,2.848-1.234,3.437,3.437,0,0,1,2.844,1.223A5.576,5.576,0,0,1,8.43,32.2Zm-2.258-2.3a4.165,4.165,0,0,0-.387-2.061,1.307,1.307,0,0,0-1.207-.645A1.284,1.284,0,0,0,3.4,29.9a3.9,3.9,0,0,0-.4,1.92v2.768a4.372,4.372,0,0,0,.379,2.068,1.29,1.29,0,0,0,1.215.676,1.268,1.268,0,0,0,1.2-.649A4.268,4.268,0,0,0,6.172,34.7ZM8.43,58.3a5.762,5.762,0,0,1-.977,3.609,3.409,3.409,0,0,1-2.859,1.25A3.433,3.433,0,0,1,1.75,61.93,5.594,5.594,0,0,1,.742,58.414V56.32A5.687,5.687,0,0,1,1.73,52.7a3.434,3.434,0,0,1,2.848-1.234,3.437,3.437,0,0,1,2.844,1.223A5.576,5.576,0,0,1,8.43,56.2Zm-2.258-2.3a4.165,4.165,0,0,0-.387-2.061,1.307,1.307,0,0,0-1.207-.645A1.284,1.284,0,0,0,3.4,53.9a3.9,3.9,0,0,0-.4,1.92v2.768a4.372,4.372,0,0,0,.379,2.068,1.29,1.29,0,0,0,1.215.676,1.268,1.268,0,0,0,1.2-.649A4.268,4.268,0,0,0,6.172,58.7Z" transform="translate(1230.957 2182)" fill="#12263f"/>
    <path id="Trazado_823209" data-name="Trazado 823209" d="M8.43,10.3a5.762,5.762,0,0,1-.977,3.609,3.409,3.409,0,0,1-2.859,1.25A3.433,3.433,0,0,1,1.75,13.93,5.594,5.594,0,0,1,.742,10.414V8.32A5.687,5.687,0,0,1,1.73,4.7,3.434,3.434,0,0,1,4.578,3.469,3.437,3.437,0,0,1,7.422,4.691,5.576,5.576,0,0,1,8.43,8.2Zm-2.258-2.3a4.165,4.165,0,0,0-.387-2.061,1.307,1.307,0,0,0-1.207-.645A1.284,1.284,0,0,0,3.4,5.9,3.9,3.9,0,0,0,3,7.823v2.768a4.372,4.372,0,0,0,.379,2.068,1.29,1.29,0,0,0,1.215.676,1.268,1.268,0,0,0,1.2-.649A4.268,4.268,0,0,0,6.172,10.7ZM8.43,34.3a5.762,5.762,0,0,1-.977,3.609,3.409,3.409,0,0,1-2.859,1.25A3.433,3.433,0,0,1,1.75,37.93,5.594,5.594,0,0,1,.742,34.414V32.32A5.687,5.687,0,0,1,1.73,28.7a3.434,3.434,0,0,1,2.848-1.234,3.437,3.437,0,0,1,2.844,1.223A5.576,5.576,0,0,1,8.43,32.2Zm-2.258-2.3a4.165,4.165,0,0,0-.387-2.061,1.307,1.307,0,0,0-1.207-.645A1.284,1.284,0,0,0,3.4,29.9a3.9,3.9,0,0,0-.4,1.92v2.768a4.372,4.372,0,0,0,.379,2.068,1.29,1.29,0,0,0,1.215.676,1.268,1.268,0,0,0,1.2-.649A4.268,4.268,0,0,0,6.172,34.7ZM8.43,58.3a5.762,5.762,0,0,1-.977,3.609,3.409,3.409,0,0,1-2.859,1.25A3.433,3.433,0,0,1,1.75,61.93,5.594,5.594,0,0,1,.742,58.414V56.32A5.687,5.687,0,0,1,1.73,52.7a3.434,3.434,0,0,1,2.848-1.234,3.437,3.437,0,0,1,2.844,1.223A5.576,5.576,0,0,1,8.43,56.2Zm-2.258-2.3a4.165,4.165,0,0,0-.387-2.061,1.307,1.307,0,0,0-1.207-.645A1.284,1.284,0,0,0,3.4,53.9a3.9,3.9,0,0,0-.4,1.92v2.768a4.372,4.372,0,0,0,.379,2.068,1.29,1.29,0,0,0,1.215.676,1.268,1.268,0,0,0,1.2-.649A4.268,4.268,0,0,0,6.172,58.7Z" transform="translate(1260.957 2182)" fill="#12263f"/>
    <path id="Trazado_823210" data-name="Trazado 823210" d="M8.43,10.3a5.762,5.762,0,0,1-.977,3.609,3.409,3.409,0,0,1-2.859,1.25A3.433,3.433,0,0,1,1.75,13.93,5.594,5.594,0,0,1,.742,10.414V8.32A5.687,5.687,0,0,1,1.73,4.7,3.434,3.434,0,0,1,4.578,3.469,3.437,3.437,0,0,1,7.422,4.691,5.576,5.576,0,0,1,8.43,8.2Zm-2.258-2.3a4.165,4.165,0,0,0-.387-2.061,1.307,1.307,0,0,0-1.207-.645A1.284,1.284,0,0,0,3.4,5.9,3.9,3.9,0,0,0,3,7.823v2.768a4.372,4.372,0,0,0,.379,2.068,1.29,1.29,0,0,0,1.215.676,1.268,1.268,0,0,0,1.2-.649A4.268,4.268,0,0,0,6.172,10.7ZM8.43,34.3a5.762,5.762,0,0,1-.977,3.609,3.409,3.409,0,0,1-2.859,1.25A3.433,3.433,0,0,1,1.75,37.93,5.594,5.594,0,0,1,.742,34.414V32.32A5.687,5.687,0,0,1,1.73,28.7a3.434,3.434,0,0,1,2.848-1.234,3.437,3.437,0,0,1,2.844,1.223A5.576,5.576,0,0,1,8.43,32.2Zm-2.258-2.3a4.165,4.165,0,0,0-.387-2.061,1.307,1.307,0,0,0-1.207-.645A1.284,1.284,0,0,0,3.4,29.9a3.9,3.9,0,0,0-.4,1.92v2.768a4.372,4.372,0,0,0,.379,2.068,1.29,1.29,0,0,0,1.215.676,1.268,1.268,0,0,0,1.2-.649A4.268,4.268,0,0,0,6.172,34.7ZM8.43,58.3a5.762,5.762,0,0,1-.977,3.609,3.409,3.409,0,0,1-2.859,1.25A3.433,3.433,0,0,1,1.75,61.93,5.594,5.594,0,0,1,.742,58.414V56.32A5.687,5.687,0,0,1,1.73,52.7a3.434,3.434,0,0,1,2.848-1.234,3.437,3.437,0,0,1,2.844,1.223A5.576,5.576,0,0,1,8.43,56.2Zm-2.258-2.3a4.165,4.165,0,0,0-.387-2.061,1.307,1.307,0,0,0-1.207-.645A1.284,1.284,0,0,0,3.4,53.9a3.9,3.9,0,0,0-.4,1.92v2.768a4.372,4.372,0,0,0,.379,2.068,1.29,1.29,0,0,0,1.215.676,1.268,1.268,0,0,0,1.2-.649A4.268,4.268,0,0,0,6.172,58.7Z" transform="translate(1289.957 2182)" fill="#12263f"/>
    <path id="Trazado_823211" data-name="Trazado 823211" d="M8.43,10.3a5.762,5.762,0,0,1-.977,3.609,3.409,3.409,0,0,1-2.859,1.25A3.433,3.433,0,0,1,1.75,13.93,5.594,5.594,0,0,1,.742,10.414V8.32A5.687,5.687,0,0,1,1.73,4.7,3.434,3.434,0,0,1,4.578,3.469,3.437,3.437,0,0,1,7.422,4.691,5.576,5.576,0,0,1,8.43,8.2Zm-2.258-2.3a4.165,4.165,0,0,0-.387-2.061,1.307,1.307,0,0,0-1.207-.645A1.284,1.284,0,0,0,3.4,5.9,3.9,3.9,0,0,0,3,7.823v2.768a4.372,4.372,0,0,0,.379,2.068,1.29,1.29,0,0,0,1.215.676,1.268,1.268,0,0,0,1.2-.649A4.268,4.268,0,0,0,6.172,10.7ZM8.43,34.3a5.762,5.762,0,0,1-.977,3.609,3.409,3.409,0,0,1-2.859,1.25A3.433,3.433,0,0,1,1.75,37.93,5.594,5.594,0,0,1,.742,34.414V32.32A5.687,5.687,0,0,1,1.73,28.7a3.434,3.434,0,0,1,2.848-1.234,3.437,3.437,0,0,1,2.844,1.223A5.576,5.576,0,0,1,8.43,32.2Zm-2.258-2.3a4.165,4.165,0,0,0-.387-2.061,1.307,1.307,0,0,0-1.207-.645A1.284,1.284,0,0,0,3.4,29.9a3.9,3.9,0,0,0-.4,1.92v2.768a4.372,4.372,0,0,0,.379,2.068,1.29,1.29,0,0,0,1.215.676,1.268,1.268,0,0,0,1.2-.649A4.268,4.268,0,0,0,6.172,34.7ZM8.43,58.3a5.762,5.762,0,0,1-.977,3.609,3.409,3.409,0,0,1-2.859,1.25A3.433,3.433,0,0,1,1.75,61.93,5.594,5.594,0,0,1,.742,58.414V56.32A5.687,5.687,0,0,1,1.73,52.7a3.434,3.434,0,0,1,2.848-1.234,3.437,3.437,0,0,1,2.844,1.223A5.576,5.576,0,0,1,8.43,56.2Zm-2.258-2.3a4.165,4.165,0,0,0-.387-2.061,1.307,1.307,0,0,0-1.207-.645A1.284,1.284,0,0,0,3.4,53.9a3.9,3.9,0,0,0-.4,1.92v2.768a4.372,4.372,0,0,0,.379,2.068,1.29,1.29,0,0,0,1.215.676,1.268,1.268,0,0,0,1.2-.649A4.268,4.268,0,0,0,6.172,58.7Z" transform="translate(1318.957 2182)" fill="#12263f"/>
    <path id="Trazado_821990" data-name="Trazado 821990" d="M1494.043-9456.247h-5.655v-63.812h5.655" transform="translate(-264.043 11706.247)" fill="none" stroke="#12263f" stroke-width="1"/>
    <path id="Trazado_821991" data-name="Trazado 821991" d="M1488.388-9456.247h5.655v-63.812h-5.655" transform="translate(-159.043 11706.247)" fill="none" stroke="#12263f" stroke-width="1"/>
  </g>
</svg>
