<svg xmlns="http://www.w3.org/2000/svg" width="295" height="146" viewBox="0 0 295 146">
  <g id="Grupo_1075086" data-name="Grupo 1075086" transform="translate(-1124.957 -2375)">
    <path id="Trazado_823212" data-name="Trazado 823212" d="M0,0H295V146H0Z" transform="translate(1124.957 2375)" fill="#fff"/>
    <path id="Trazado_823213" data-name="Trazado 823213" d="M7.708,16.363H3.243L1.925,19H-.914L5.924,6.2H8.306L10.74,19H8.112ZM4.3,14.228H7.383L6.662,9.464Zm21.076-1.784H17.517V10.369h7.857Zm0,3.806H17.517V14.175h7.857Z" transform="translate(1165.957 2424)" fill="#12263f"/>
    <path id="Trazado_823214" data-name="Trazado 823214" d="M8.516,13.273A16.443,16.443,0,0,1,6.727,14.82,1.872,1.872,0,0,1,5.7,15.18q-1.234,0-1.164-2.18A8.063,8.063,0,0,1,3.09,14.648a2.155,2.155,0,0,1-1.363.531,1.42,1.42,0,0,1-1.168-.645,2.572,2.572,0,0,1-.48-1.582,4.243,4.243,0,0,1,.645-2.234A5.3,5.3,0,0,1,2.375,9a3.391,3.391,0,0,1,1.781-.656,1.382,1.382,0,0,1,1.367.9l1.6-.883h.438L6.87,10.649a9.894,9.894,0,0,0-.532,2.367q0,.672.476.672a1.066,1.066,0,0,0,.672-.324q.367-.324,1.031-.988ZM2.8,13.7q.781,0,1.473-1.332a5.391,5.391,0,0,0,.691-2.457,1.073,1.073,0,0,0-.2-.684.634.634,0,0,0-.523-.246q-.781,0-1.48,1.328a5.311,5.311,0,0,0-.7,2.445,1.069,1.069,0,0,0,.207.684A.644.644,0,0,0,2.8,13.7Z" transform="translate(1219.957 2400)" fill="#12263f"/>
    <path id="Trazado_823215" data-name="Trazado 823215" d="M8.516,13.273A16.443,16.443,0,0,1,6.727,14.82,1.872,1.872,0,0,1,5.7,15.18q-1.234,0-1.164-2.18A8.063,8.063,0,0,1,3.09,14.648a2.155,2.155,0,0,1-1.363.531,1.42,1.42,0,0,1-1.168-.645,2.572,2.572,0,0,1-.48-1.582,4.243,4.243,0,0,1,.645-2.234A5.3,5.3,0,0,1,2.375,9a3.391,3.391,0,0,1,1.781-.656,1.382,1.382,0,0,1,1.367.9l1.6-.883h.438L6.87,10.649a9.894,9.894,0,0,0-.532,2.367q0,.672.476.672a1.066,1.066,0,0,0,.672-.324q.367-.324,1.031-.988ZM2.8,13.7q.781,0,1.473-1.332a5.391,5.391,0,0,0,.691-2.457,1.073,1.073,0,0,0-.2-.684.634.634,0,0,0-.523-.246q-.781,0-1.48,1.328a5.311,5.311,0,0,0-.7,2.445,1.069,1.069,0,0,0,.207.684A.644.644,0,0,0,2.8,13.7Z" transform="translate(1219.957 2422)" fill="#12263f"/>
    <path id="Trazado_823216" data-name="Trazado 823216" d="M6.258,15H4V6.3l-2.7.836V5.3L6.016,3.609h.242Zm9.18,0H13.18V6.3l-2.7.836V5.3L15.2,3.609h.242Z" transform="translate(1227.957 2409)" fill="#12263f"/>
    <path id="Trazado_823218" data-name="Trazado 823218" d="M8.516,13.273A16.443,16.443,0,0,1,6.727,14.82,1.872,1.872,0,0,1,5.7,15.18q-1.234,0-1.164-2.18A8.063,8.063,0,0,1,3.09,14.648a2.155,2.155,0,0,1-1.363.531,1.42,1.42,0,0,1-1.168-.645,2.572,2.572,0,0,1-.48-1.582,4.243,4.243,0,0,1,.645-2.234A5.3,5.3,0,0,1,2.375,9a3.391,3.391,0,0,1,1.781-.656,1.382,1.382,0,0,1,1.367.9l1.6-.883h.438L6.87,10.649a9.894,9.894,0,0,0-.532,2.367q0,.672.476.672a1.066,1.066,0,0,0,.672-.324q.367-.324,1.031-.988ZM2.8,13.7q.781,0,1.473-1.332a5.391,5.391,0,0,0,.691-2.457,1.073,1.073,0,0,0-.2-.684.634.634,0,0,0-.523-.246q-.781,0-1.48,1.328a5.311,5.311,0,0,0-.7,2.445,1.069,1.069,0,0,0,.207.684A.644.644,0,0,0,2.8,13.7Z" transform="translate(1352.179 2400)" fill="#12263f"/>
    <path id="Trazado_823219" data-name="Trazado 823219" d="M8.516,13.273A16.443,16.443,0,0,1,6.727,14.82,1.872,1.872,0,0,1,5.7,15.18q-1.234,0-1.164-2.18A8.063,8.063,0,0,1,3.09,14.648a2.155,2.155,0,0,1-1.363.531,1.42,1.42,0,0,1-1.168-.645,2.572,2.572,0,0,1-.48-1.582,4.243,4.243,0,0,1,.645-2.234A5.3,5.3,0,0,1,2.375,9a3.391,3.391,0,0,1,1.781-.656,1.382,1.382,0,0,1,1.367.9l1.6-.883h.438L6.87,10.649a9.894,9.894,0,0,0-.532,2.367q0,.672.476.672a1.066,1.066,0,0,0,.672-.324q.367-.324,1.031-.988ZM2.8,13.7q.781,0,1.473-1.332a5.391,5.391,0,0,0,.691-2.457,1.073,1.073,0,0,0-.2-.684.634.634,0,0,0-.523-.246q-.781,0-1.48,1.328a5.311,5.311,0,0,0-.7,2.445,1.069,1.069,0,0,0,.207.684A.644.644,0,0,0,2.8,13.7Z" transform="translate(1352.179 2422.998)" fill="#12263f"/>
    <path id="Trazado_823220" data-name="Trazado 823220" d="M8.516,13.273A16.443,16.443,0,0,1,6.727,14.82,1.872,1.872,0,0,1,5.7,15.18q-1.234,0-1.164-2.18A8.063,8.063,0,0,1,3.09,14.648a2.155,2.155,0,0,1-1.363.531,1.42,1.42,0,0,1-1.168-.645,2.572,2.572,0,0,1-.48-1.582,4.243,4.243,0,0,1,.645-2.234A5.3,5.3,0,0,1,2.375,9a3.391,3.391,0,0,1,1.781-.656,1.382,1.382,0,0,1,1.367.9l1.6-.883h.438L6.87,10.649a9.894,9.894,0,0,0-.532,2.367q0,.672.476.672a1.066,1.066,0,0,0,.672-.324q.367-.324,1.031-.988ZM2.8,13.7q.781,0,1.473-1.332a5.391,5.391,0,0,0,.691-2.457,1.073,1.073,0,0,0-.2-.684.634.634,0,0,0-.523-.246q-.781,0-1.48,1.328a5.311,5.311,0,0,0-.7,2.445,1.069,1.069,0,0,0,.207.684A.644.644,0,0,0,2.8,13.7Z" transform="translate(1352.179 2466)" fill="#12263f"/>
    <path id="Trazado_823221" data-name="Trazado 823221" d="M6.258,17H4V8.3l-2.7.836V7.3L6.016,5.609h.242Zm6.75-8.453-1.516,8.914a3.516,3.516,0,0,1-1.02,2.2,2.984,2.984,0,0,1-2.168.773,6.8,6.8,0,0,1-1.172-.148l.18-1.8a4.309,4.309,0,0,0,.68.1,1.2,1.2,0,0,0,1.266-1.125l1.531-8.922ZM11,6.4a1.1,1.1,0,0,1,.328-.855,1.328,1.328,0,0,1,1.77-.035,1.108,1.108,0,0,1,.363.813,1.113,1.113,0,0,1-.328.863,1.257,1.257,0,0,1-.883.355,1.235,1.235,0,0,1-.863-.3A1.091,1.091,0,0,1,11,6.4Z" transform="translate(1360.179 2409)" fill="#12263f"/>
    <path id="Trazado_823222" data-name="Trazado 823222" d="M8.57,17H.773V15.453l3.68-3.922a9.078,9.078,0,0,0,1.121-1.445,2.322,2.322,0,0,0,.363-1.172,1.738,1.738,0,0,0-.383-1.191,1.382,1.382,0,0,0-1.094-.434,1.49,1.49,0,0,0-1.207.527A2.089,2.089,0,0,0,2.813,9.2H.547a3.729,3.729,0,0,1,.5-1.9,3.5,3.5,0,0,1,1.4-1.348A4.262,4.262,0,0,1,4.5,5.469a4.036,4.036,0,0,1,2.73.844A2.985,2.985,0,0,1,8.2,8.7a3.825,3.825,0,0,1-.437,1.719,9.551,9.551,0,0,1-1.5,2.039L3.68,15.18H8.57Zm4.438-8.453-1.516,8.914a3.516,3.516,0,0,1-1.02,2.2,2.984,2.984,0,0,1-2.168.773,6.8,6.8,0,0,1-1.172-.148l.18-1.8a4.309,4.309,0,0,0,.68.1,1.2,1.2,0,0,0,1.266-1.125l1.531-8.922ZM11,6.4a1.1,1.1,0,0,1,.328-.855,1.328,1.328,0,0,1,1.77-.035,1.108,1.108,0,0,1,.363.813,1.113,1.113,0,0,1-.328.863,1.257,1.257,0,0,1-.883.355,1.235,1.235,0,0,1-.863-.3A1.091,1.091,0,0,1,11,6.4Z" transform="translate(1360.179 2431.998)" fill="#12263f"/>
    <path id="Trazado_823223" data-name="Trazado 823223" d="M3.25,17H.984V8.547H3.25ZM.852,6.359a1.112,1.112,0,0,1,.34-.836A1.277,1.277,0,0,1,2.117,5.2a1.28,1.28,0,0,1,.922.328,1.105,1.105,0,0,1,.344.836,1.108,1.108,0,0,1-.348.844,1.283,1.283,0,0,1-.918.328A1.283,1.283,0,0,1,1.2,7.2,1.108,1.108,0,0,1,.852,6.359ZM8.07,8.547,6.555,17.461a3.516,3.516,0,0,1-1.02,2.2,2.984,2.984,0,0,1-2.168.773A6.8,6.8,0,0,1,2.2,20.289l.18-1.8a4.309,4.309,0,0,0,.68.1A1.2,1.2,0,0,0,4.32,17.469L5.852,8.547ZM6.063,6.4a1.1,1.1,0,0,1,.328-.855,1.328,1.328,0,0,1,1.77-.035,1.108,1.108,0,0,1,.363.813,1.113,1.113,0,0,1-.328.863,1.257,1.257,0,0,1-.883.355,1.235,1.235,0,0,1-.863-.3A1.091,1.091,0,0,1,6.063,6.4Z" transform="translate(1360.179 2475)" fill="#12263f"/>
    <path id="Trazado_823217" data-name="Trazado 823217" d="M8.57,15H.773V13.453l3.68-3.922A9.078,9.078,0,0,0,5.574,8.086a2.322,2.322,0,0,0,.363-1.172,1.738,1.738,0,0,0-.383-1.191,1.382,1.382,0,0,0-1.094-.434,1.49,1.49,0,0,0-1.207.527A2.089,2.089,0,0,0,2.813,7.2H.547a3.729,3.729,0,0,1,.5-1.9,3.5,3.5,0,0,1,1.4-1.348A4.262,4.262,0,0,1,4.5,3.469a4.036,4.036,0,0,1,2.73.844A2.985,2.985,0,0,1,8.2,6.7a3.825,3.825,0,0,1-.437,1.719,9.551,9.551,0,0,1-1.5,2.039L3.68,13.18H8.57Zm6.867,0H13.18V6.3l-2.7.836V5.3L15.2,3.609h.242Z" transform="translate(1227.957 2431)" fill="#12263f"/>
    <path id="Trazado_823224" data-name="Trazado 823224" d="M8.516,13.273A16.443,16.443,0,0,1,6.727,14.82,1.872,1.872,0,0,1,5.7,15.18q-1.234,0-1.164-2.18A8.063,8.063,0,0,1,3.09,14.648a2.155,2.155,0,0,1-1.363.531,1.42,1.42,0,0,1-1.168-.645,2.572,2.572,0,0,1-.48-1.582,4.243,4.243,0,0,1,.645-2.234A5.3,5.3,0,0,1,2.375,9a3.391,3.391,0,0,1,1.781-.656,1.382,1.382,0,0,1,1.367.9l1.6-.883h.438L6.87,10.649a9.894,9.894,0,0,0-.532,2.367q0,.672.476.672a1.066,1.066,0,0,0,.672-.324q.367-.324,1.031-.988ZM2.8,13.7q.781,0,1.473-1.332a5.391,5.391,0,0,0,.691-2.457,1.073,1.073,0,0,0-.2-.684.634.634,0,0,0-.523-.246q-.781,0-1.48,1.328a5.311,5.311,0,0,0-.7,2.445,1.069,1.069,0,0,0,.207.684A.644.644,0,0,0,2.8,13.7Z" transform="translate(1219.957 2466)" fill="#12263f"/>
    <path id="Trazado_823225" data-name="Trazado 823225" d="M7.234,15H4.969V6.547H7.234ZM4.836,4.359a1.112,1.112,0,0,1,.34-.836A1.277,1.277,0,0,1,6.1,3.2a1.28,1.28,0,0,1,.922.328,1.105,1.105,0,0,1,.344.836A1.108,1.108,0,0,1,7.02,5.2a1.283,1.283,0,0,1-.918.328A1.283,1.283,0,0,1,5.184,5.2,1.108,1.108,0,0,1,4.836,4.359ZM14.484,15H12.227V6.3l-2.7.836V5.3l4.711-1.687h.242Z" transform="translate(1227.957 2475)" fill="#12263f"/>
    <path id="Trazado_821992" data-name="Trazado 821992" d="M1494.043-9430.571h-5.655v-89.487h5.655" transform="translate(-277.043 11924.247)" fill="none" stroke="#12263f" stroke-width="1"/>
    <path id="Trazado_821999" data-name="Trazado 821999" d="M1488.388-9430.571h5.655v-89.487h-5.655" transform="translate(-114.209 11924.247)" fill="none" stroke="#12263f" stroke-width="1"/>
    <path id="Trazado_821993" data-name="Trazado 821993" d="M1509.842-9169.942v15.446" transform="translate(-274.043 11625.525)" fill="none" stroke="#12263f" stroke-width="1.5" stroke-dasharray="3"/>
    <path id="Trazado_823226" data-name="Trazado 823226" d="M8.516,13.273A16.443,16.443,0,0,1,6.727,14.82,1.872,1.872,0,0,1,5.7,15.18q-1.234,0-1.164-2.18A8.063,8.063,0,0,1,3.09,14.648a2.155,2.155,0,0,1-1.363.531,1.42,1.42,0,0,1-1.168-.645,2.572,2.572,0,0,1-.48-1.582,4.243,4.243,0,0,1,.645-2.234A5.3,5.3,0,0,1,2.375,9a3.391,3.391,0,0,1,1.781-.656,1.382,1.382,0,0,1,1.367.9l1.6-.883h.438L6.87,10.649a9.894,9.894,0,0,0-.532,2.367q0,.672.476.672a1.066,1.066,0,0,0,.672-.324q.367-.324,1.031-.988ZM2.8,13.7q.781,0,1.473-1.332a5.391,5.391,0,0,0,.691-2.457,1.073,1.073,0,0,0-.2-.684.634.634,0,0,0-.523-.246q-.781,0-1.48,1.328a5.311,5.311,0,0,0-.7,2.445,1.069,1.069,0,0,0,.207.684A.644.644,0,0,0,2.8,13.7Z" transform="translate(1266.957 2400)" fill="#12263f"/>
    <path id="Trazado_823227" data-name="Trazado 823227" d="M8.516,13.273A16.443,16.443,0,0,1,6.727,14.82,1.872,1.872,0,0,1,5.7,15.18q-1.234,0-1.164-2.18A8.063,8.063,0,0,1,3.09,14.648a2.155,2.155,0,0,1-1.363.531,1.42,1.42,0,0,1-1.168-.645,2.572,2.572,0,0,1-.48-1.582,4.243,4.243,0,0,1,.645-2.234A5.3,5.3,0,0,1,2.375,9a3.391,3.391,0,0,1,1.781-.656,1.382,1.382,0,0,1,1.367.9l1.6-.883h.438L6.87,10.649a9.894,9.894,0,0,0-.532,2.367q0,.672.476.672a1.066,1.066,0,0,0,.672-.324q.367-.324,1.031-.988ZM2.8,13.7q.781,0,1.473-1.332a5.391,5.391,0,0,0,.691-2.457,1.073,1.073,0,0,0-.2-.684.634.634,0,0,0-.523-.246q-.781,0-1.48,1.328a5.311,5.311,0,0,0-.7,2.445,1.069,1.069,0,0,0,.207.684A.644.644,0,0,0,2.8,13.7Z" transform="translate(1266.957 2422)" fill="#12263f"/>
    <path id="Trazado_823228" data-name="Trazado 823228" d="M6.258,15H4V6.3l-2.7.836V5.3L6.016,3.609h.242ZM17.75,15h-7.8V13.453l3.68-3.922a9.078,9.078,0,0,0,1.121-1.445,2.322,2.322,0,0,0,.363-1.172,1.738,1.738,0,0,0-.383-1.191,1.382,1.382,0,0,0-1.094-.434,1.49,1.49,0,0,0-1.207.527A2.089,2.089,0,0,0,11.992,7.2H9.727a3.729,3.729,0,0,1,.5-1.9,3.5,3.5,0,0,1,1.4-1.348,4.262,4.262,0,0,1,2.055-.488,4.036,4.036,0,0,1,2.73.844A2.985,2.985,0,0,1,17.383,6.7a3.825,3.825,0,0,1-.437,1.719,9.551,9.551,0,0,1-1.5,2.039L12.859,13.18H17.75Z" transform="translate(1274.957 2409)" fill="#12263f"/>
    <path id="Trazado_823229" data-name="Trazado 823229" d="M8.57,15H.773V13.453l3.68-3.922A9.078,9.078,0,0,0,5.574,8.086a2.322,2.322,0,0,0,.363-1.172,1.738,1.738,0,0,0-.383-1.191,1.382,1.382,0,0,0-1.094-.434,1.49,1.49,0,0,0-1.207.527A2.089,2.089,0,0,0,2.813,7.2H.547a3.729,3.729,0,0,1,.5-1.9,3.5,3.5,0,0,1,1.4-1.348A4.262,4.262,0,0,1,4.5,3.469a4.036,4.036,0,0,1,2.73.844A2.985,2.985,0,0,1,8.2,6.7a3.825,3.825,0,0,1-.437,1.719,9.551,9.551,0,0,1-1.5,2.039L3.68,13.18H8.57Zm9.18,0h-7.8V13.453l3.68-3.922a9.078,9.078,0,0,0,1.121-1.445,2.322,2.322,0,0,0,.363-1.172,1.738,1.738,0,0,0-.383-1.191,1.382,1.382,0,0,0-1.094-.434,1.49,1.49,0,0,0-1.207.527A2.089,2.089,0,0,0,11.992,7.2H9.727a3.729,3.729,0,0,1,.5-1.9,3.5,3.5,0,0,1,1.4-1.348,4.262,4.262,0,0,1,2.055-.488,4.036,4.036,0,0,1,2.73.844A2.985,2.985,0,0,1,17.383,6.7a3.825,3.825,0,0,1-.437,1.719,9.551,9.551,0,0,1-1.5,2.039L12.859,13.18H17.75Z" transform="translate(1274.957 2431)" fill="#12263f"/>
    <path id="Trazado_823230" data-name="Trazado 823230" d="M8.516,13.273A16.443,16.443,0,0,1,6.727,14.82,1.872,1.872,0,0,1,5.7,15.18q-1.234,0-1.164-2.18A8.063,8.063,0,0,1,3.09,14.648a2.155,2.155,0,0,1-1.363.531,1.42,1.42,0,0,1-1.168-.645,2.572,2.572,0,0,1-.48-1.582,4.243,4.243,0,0,1,.645-2.234A5.3,5.3,0,0,1,2.375,9a3.391,3.391,0,0,1,1.781-.656,1.382,1.382,0,0,1,1.367.9l1.6-.883h.438L6.87,10.649a9.894,9.894,0,0,0-.532,2.367q0,.672.476.672a1.066,1.066,0,0,0,.672-.324q.367-.324,1.031-.988ZM2.8,13.7q.781,0,1.473-1.332a5.391,5.391,0,0,0,.691-2.457,1.073,1.073,0,0,0-.2-.684.634.634,0,0,0-.523-.246q-.781,0-1.48,1.328a5.311,5.311,0,0,0-.7,2.445,1.069,1.069,0,0,0,.207.684A.644.644,0,0,0,2.8,13.7Z" transform="translate(1266.957 2466)" fill="#12263f"/>
    <path id="Trazado_823231" data-name="Trazado 823231" d="M7.234,15H4.969V6.547H7.234ZM4.836,4.359a1.112,1.112,0,0,1,.34-.836A1.277,1.277,0,0,1,6.1,3.2a1.28,1.28,0,0,1,.922.328,1.105,1.105,0,0,1,.344.836A1.108,1.108,0,0,1,7.02,5.2a1.283,1.283,0,0,1-.918.328A1.283,1.283,0,0,1,5.184,5.2,1.108,1.108,0,0,1,4.836,4.359ZM16.8,15H9V13.453l3.68-3.922A9.078,9.078,0,0,0,13.8,8.086a2.322,2.322,0,0,0,.363-1.172,1.738,1.738,0,0,0-.383-1.191,1.382,1.382,0,0,0-1.094-.434,1.49,1.49,0,0,0-1.207.527A2.089,2.089,0,0,0,11.039,7.2H8.773a3.729,3.729,0,0,1,.5-1.9,3.5,3.5,0,0,1,1.4-1.348,4.262,4.262,0,0,1,2.055-.488,4.036,4.036,0,0,1,2.73.844A2.985,2.985,0,0,1,16.43,6.7a3.825,3.825,0,0,1-.437,1.719,9.551,9.551,0,0,1-1.5,2.039L11.906,13.18H16.8Z" transform="translate(1274.957 2475)" fill="#12263f"/>
    <path id="Trazado_821994" data-name="Trazado 821994" d="M1509.842-9169.942v15.446" transform="translate(-227.043 11625.525)" fill="none" stroke="#12263f" stroke-width="1.5" stroke-dasharray="3"/>
    <path id="Trazado_821995" data-name="Trazado 821995" d="M1509.842-9169.942v15.446" transform="translate(-7839.151 911.157) rotate(90)" fill="none" stroke="#12263f" stroke-width="1.5" stroke-dasharray="3"/>
    <path id="Trazado_821996" data-name="Trazado 821996" d="M1509.842-9169.942v15.446" transform="translate(-7839.151 934.155) rotate(90)" fill="none" stroke="#12263f" stroke-width="1.5" stroke-dasharray="3"/>
    <path id="Trazado_821998" data-name="Trazado 821998" d="M1509.842-9169.942v15.446" transform="matrix(-0.574, 0.819, -0.819, -0.574, -5317.57, -4030.453)" fill="none" stroke="#12263f" stroke-width="1.5" stroke-dasharray="3"/>
    <path id="Trazado_821997" data-name="Trazado 821997" d="M1509.842-9169.942v15.446" transform="translate(-7839.151 977.157) rotate(90)" fill="none" stroke="#12263f" stroke-width="1.5" stroke-dasharray="3"/>
  </g>
</svg>
