<svg xmlns="http://www.w3.org/2000/svg" width="505" height="358.989" viewBox="0 0 505 358.989">
  <g id="Grupo_1075081" data-name="Grupo 1075081" transform="translate(-914.957 -3636.168)">
    <path id="Trazado_822008" data-name="Trazado 822008" d="M0,0H505V358.989H0Z" transform="translate(914.957 3636.168)" fill="#fff"/>
    <path id="Trazado_823204" data-name="Trazado 823204" d="M8.57,15H.773V13.453l3.68-3.922A9.078,9.078,0,0,0,5.574,8.086a2.322,2.322,0,0,0,.363-1.172,1.738,1.738,0,0,0-.383-1.191,1.382,1.382,0,0,0-1.094-.434,1.49,1.49,0,0,0-1.207.527A2.089,2.089,0,0,0,2.813,7.2H.547a3.729,3.729,0,0,1,.5-1.9,3.5,3.5,0,0,1,1.4-1.348A4.262,4.262,0,0,1,4.5,3.469a4.036,4.036,0,0,1,2.73.844A2.985,2.985,0,0,1,8.2,6.7a3.825,3.825,0,0,1-.437,1.719,9.551,9.551,0,0,1-1.5,2.039L3.68,13.18H8.57Zm33.758-3.961h-4.4V9.219h4.4ZM49.531,15H47.273V6.3l-2.7.836V5.3l4.711-1.687h.242Z" transform="translate(1099.957 3676.812)" fill="#12263f"/>
    <path id="Trazado_823205" data-name="Trazado 823205" d="M8.57,15H.773V13.453l3.68-3.922A9.078,9.078,0,0,0,5.574,8.086a2.322,2.322,0,0,0,.363-1.172,1.738,1.738,0,0,0-.383-1.191,1.382,1.382,0,0,0-1.094-.434,1.49,1.49,0,0,0-1.207.527A2.089,2.089,0,0,0,2.813,7.2H.547a3.729,3.729,0,0,1,.5-1.9,3.5,3.5,0,0,1,1.4-1.348A4.262,4.262,0,0,1,4.5,3.469a4.036,4.036,0,0,1,2.73.844A2.985,2.985,0,0,1,8.2,6.7a3.825,3.825,0,0,1-.437,1.719,9.551,9.551,0,0,1-1.5,2.039L3.68,13.18H8.57Zm17.82-3.961h-4.4V9.219h4.4ZM47.719,10.3a5.762,5.762,0,0,1-.977,3.609,3.9,3.9,0,0,1-5.7.023,5.594,5.594,0,0,1-1.008-3.516V8.32A5.687,5.687,0,0,1,41.02,4.7a3.91,3.91,0,0,1,5.691-.012A5.576,5.576,0,0,1,47.719,8.2Zm-2.258-2.3a4.165,4.165,0,0,0-.387-2.061,1.307,1.307,0,0,0-1.207-.645,1.284,1.284,0,0,0-1.176.614,3.9,3.9,0,0,0-.4,1.92v2.768a4.372,4.372,0,0,0,.379,2.068,1.29,1.29,0,0,0,1.215.676,1.268,1.268,0,0,0,1.2-.649,4.268,4.268,0,0,0,.383-1.986Z" transform="translate(1099.957 3778.38)" fill="#12263f"/>
    <path id="Trazado_823206" data-name="Trazado 823206" d="M8.047,9.172H1.063V7.328H8.047Zm0,3.383H1.063V10.711H8.047Z" transform="translate(1046.957 3806.811)" fill="#12263f"/>
    <path id="Trazado_823207" data-name="Trazado 823207" d="M8.047,9.172H1.063V7.328H8.047Zm0,3.383H1.063V10.711H8.047Z" transform="translate(1046.957 3903.88)" fill="#12263f"/>
    <path id="Trazado_823208" data-name="Trazado 823208" d="M8.57,15H.773V13.453l3.68-3.922A9.078,9.078,0,0,0,5.574,8.086a2.322,2.322,0,0,0,.363-1.172,1.738,1.738,0,0,0-.383-1.191,1.382,1.382,0,0,0-1.094-.434,1.49,1.49,0,0,0-1.207.527A2.089,2.089,0,0,0,2.813,7.2H.547a3.729,3.729,0,0,1,.5-1.9,3.5,3.5,0,0,1,1.4-1.348A4.262,4.262,0,0,1,4.5,3.469a4.036,4.036,0,0,1,2.73.844A2.985,2.985,0,0,1,8.2,6.7a3.825,3.825,0,0,1-.437,1.719,9.551,9.551,0,0,1-1.5,2.039L3.68,13.18H8.57Zm33.758-3.961h-4.4V9.219h4.4Zm4.016-2.727h1.2a1.7,1.7,0,0,0,1.273-.43,1.574,1.574,0,0,0,.414-1.141,1.392,1.392,0,0,0-.41-1.07A1.59,1.59,0,0,0,47.7,5.289a1.666,1.666,0,0,0-1.086.355,1.137,1.137,0,0,0-.437.926H43.914a2.777,2.777,0,0,1,.48-1.6,3.2,3.2,0,0,1,1.344-1.105,4.485,4.485,0,0,1,1.9-.4,4.253,4.253,0,0,1,2.828.863,2.945,2.945,0,0,1,1.023,2.379,2.394,2.394,0,0,1-.477,1.438,3.1,3.1,0,0,1-1.25,1.008A2.826,2.826,0,0,1,51.2,10.188a2.8,2.8,0,0,1,.473,1.625,2.994,2.994,0,0,1-1.105,2.43,4.445,4.445,0,0,1-2.926.914,4.214,4.214,0,0,1-2.785-.9,2.934,2.934,0,0,1-1.082-2.375h2.258a1.308,1.308,0,0,0,.48,1.047,2,2,0,0,0,2.445-.02,1.47,1.47,0,0,0,.457-1.129q0-1.7-1.875-1.7h-1.2Z" transform="translate(1099.957 3879.948)" fill="#12263f"/>
    <path id="Trazado_823209" data-name="Trazado 823209" d="M5.258,11.039H.859V9.219h4.4ZM12.461,15H10.2V6.3l-2.7.836V5.3l4.711-1.687h.242Zm20.133-3.961H28.2V9.219h4.4ZM54.063,15h-7.8V13.453l3.68-3.922a9.078,9.078,0,0,0,1.121-1.445,2.322,2.322,0,0,0,.363-1.172,1.738,1.738,0,0,0-.383-1.191,1.382,1.382,0,0,0-1.094-.434,1.49,1.49,0,0,0-1.207.527A2.089,2.089,0,0,0,48.3,7.2H46.039a3.729,3.729,0,0,1,.5-1.9,3.5,3.5,0,0,1,1.4-1.348,4.262,4.262,0,0,1,2.055-.488,4.036,4.036,0,0,1,2.73.844A2.985,2.985,0,0,1,53.7,6.7a3.825,3.825,0,0,1-.437,1.719,9.551,9.551,0,0,1-1.5,2.039L49.172,13.18h4.891Z" transform="translate(1214.957 3778.38)" fill="#12263f"/>
    <path id="Trazado_823210" data-name="Trazado 823210" d="M8.43,10.3a5.762,5.762,0,0,1-.977,3.609,3.409,3.409,0,0,1-2.859,1.25A3.433,3.433,0,0,1,1.75,13.93,5.594,5.594,0,0,1,.742,10.414V8.32A5.687,5.687,0,0,1,1.73,4.7,3.434,3.434,0,0,1,4.578,3.469,3.437,3.437,0,0,1,7.422,4.691,5.576,5.576,0,0,1,8.43,8.2Zm-2.258-2.3a4.165,4.165,0,0,0-.387-2.061,1.307,1.307,0,0,0-1.207-.645A1.284,1.284,0,0,0,3.4,5.9,3.9,3.9,0,0,0,3,7.823v2.768a4.372,4.372,0,0,0,.379,2.068,1.29,1.29,0,0,0,1.215.676,1.268,1.268,0,0,0,1.2-.649A4.268,4.268,0,0,0,6.172,10.7ZM42.164,9.406l.656-5.781H49.2V5.508H44.672l-.281,2.445a3.58,3.58,0,0,1,1.711-.43,3.279,3.279,0,0,1,2.547,1.008,4.026,4.026,0,0,1,.922,2.82,4.124,4.124,0,0,1-.465,1.973,3.281,3.281,0,0,1-1.332,1.352,4.158,4.158,0,0,1-2.047.48,4.416,4.416,0,0,1-1.914-.418,3.4,3.4,0,0,1-1.395-1.176,3.2,3.2,0,0,1-.543-1.727h2.234a1.669,1.669,0,0,0,.5,1.105,1.573,1.573,0,0,0,1.113.395,1.388,1.388,0,0,0,1.18-.551,2.551,2.551,0,0,0,.414-1.559,2.11,2.11,0,0,0-.477-1.484,1.749,1.749,0,0,0-1.352-.516,1.954,1.954,0,0,0-1.3.422l-.219.2Z" transform="translate(1099.957 3730.812)" fill="#12263f"/>
    <path id="Trazado_823211" data-name="Trazado 823211" d="M5.258,11.039H.859V9.219h4.4Z" transform="translate(1183.957 3704.243)" fill="#12263f"/>
    <path id="Trazado_821992" data-name="Trazado 821992" d="M1494.043-9430.571h-5.655v-89.487h5.655" transform="translate(-402.043 13190.059)" fill="none" stroke="#12263f" stroke-width="1.5"/>
    <path id="Trazado_822005" data-name="Trazado 822005" d="M1494.043-9430.571h-5.655v-89.487h5.655" transform="translate(-402.043 13291.626)" fill="none" stroke="#12263f" stroke-width="1.5"/>
    <path id="Trazado_822006" data-name="Trazado 822006" d="M1494.043-9430.571h-5.655v-89.487h5.655" transform="translate(-402.043 13393.194)" fill="none" stroke="#12263f" stroke-width="1.5"/>
    <path id="Trazado_822007" data-name="Trazado 822007" d="M1488.388-9430.571h5.655v-89.487h-5.655" transform="translate(-326.603 13393.194)" fill="none" stroke="#12263f" stroke-width="1.5"/>
    <path id="Trazado_822001" data-name="Trazado 822001" d="M1494.043-9430.571h-5.655v-89.487h5.655" transform="translate(-279.086 13190.059)" fill="none" stroke="#12263f" stroke-width="1.5"/>
    <path id="Trazado_821999" data-name="Trazado 821999" d="M1488.388-9430.571h5.655v-89.487h-5.655" transform="translate(-329.431 13190.059)" fill="none" stroke="#12263f" stroke-width="1.5"/>
    <path id="Trazado_822000" data-name="Trazado 822000" d="M1488.388-9430.571h5.655v-89.487h-5.655" transform="translate(-206.474 13190.059)" fill="none" stroke="#12263f" stroke-width="1.5"/>
    <path id="Trazado_822002" data-name="Trazado 822002" d="M1488.388-9430.571h5.655v-89.487h-5.655" transform="translate(-206.474 13291.626)" fill="none" stroke="#12263f" stroke-width="1.5"/>
    <path id="Trazado_823212" data-name="Trazado 823212" d="M8.43,10.3a5.762,5.762,0,0,1-.977,3.609,3.409,3.409,0,0,1-2.859,1.25A3.433,3.433,0,0,1,1.75,13.93,5.594,5.594,0,0,1,.742,10.414V8.32A5.687,5.687,0,0,1,1.73,4.7,3.434,3.434,0,0,1,4.578,3.469,3.437,3.437,0,0,1,7.422,4.691,5.576,5.576,0,0,1,8.43,8.2Zm-2.258-2.3a4.165,4.165,0,0,0-.387-2.061,1.307,1.307,0,0,0-1.207-.645A1.284,1.284,0,0,0,3.4,5.9,3.9,3.9,0,0,0,3,7.823v2.768a4.372,4.372,0,0,0,.379,2.068,1.29,1.29,0,0,0,1.215.676,1.268,1.268,0,0,0,1.2-.649A4.268,4.268,0,0,0,6.172,10.7ZM53.609,15h-7.8V13.453l3.68-3.922a9.078,9.078,0,0,0,1.121-1.445,2.322,2.322,0,0,0,.363-1.172,1.738,1.738,0,0,0-.383-1.191A1.382,1.382,0,0,0,49.5,5.289a1.49,1.49,0,0,0-1.207.527A2.089,2.089,0,0,0,47.852,7.2H45.586a3.729,3.729,0,0,1,.5-1.9,3.5,3.5,0,0,1,1.4-1.348,4.262,4.262,0,0,1,2.055-.488,4.036,4.036,0,0,1,2.73.844A2.985,2.985,0,0,1,53.242,6.7,3.825,3.825,0,0,1,52.8,8.414a9.551,9.551,0,0,1-1.5,2.039L48.719,13.18h4.891Z" transform="translate(1222.834 3676.812)" fill="#12263f"/>
    <path id="Trazado_823213" data-name="Trazado 823213" d="M6.258,15H4V6.3l-2.7.836V5.3L6.016,3.609h.242Zm36.07-3.961h-4.4V9.219h4.4ZM51.844,15h-7.8V13.453l3.68-3.922a9.078,9.078,0,0,0,1.121-1.445,2.322,2.322,0,0,0,.363-1.172,1.738,1.738,0,0,0-.383-1.191,1.382,1.382,0,0,0-1.094-.434,1.49,1.49,0,0,0-1.207.527A2.089,2.089,0,0,0,46.086,7.2H43.82a3.729,3.729,0,0,1,.5-1.9,3.5,3.5,0,0,1,1.4-1.348,4.262,4.262,0,0,1,2.055-.488,4.036,4.036,0,0,1,2.73.844A2.985,2.985,0,0,1,51.477,6.7a3.825,3.825,0,0,1-.437,1.719,9.551,9.551,0,0,1-1.5,2.039L46.953,13.18h4.891Z" transform="translate(1222.834 3730.812)" fill="#12263f"/>
    <path id="Trazado_823214" data-name="Trazado 823214" d="M8.43,10.3a5.762,5.762,0,0,1-.977,3.609,3.409,3.409,0,0,1-2.859,1.25A3.433,3.433,0,0,1,1.75,13.93,5.594,5.594,0,0,1,.742,10.414V8.32A5.687,5.687,0,0,1,1.73,4.7,3.434,3.434,0,0,1,4.578,3.469,3.437,3.437,0,0,1,7.422,4.691,5.576,5.576,0,0,1,8.43,8.2Zm-2.258-2.3a4.165,4.165,0,0,0-.387-2.061,1.307,1.307,0,0,0-1.207-.645A1.284,1.284,0,0,0,3.4,5.9,3.9,3.9,0,0,0,3,7.823v2.768a4.372,4.372,0,0,0,.379,2.068,1.29,1.29,0,0,0,1.215.676,1.268,1.268,0,0,0,1.2-.649A4.268,4.268,0,0,0,6.172,10.7Zm20.219,3.044h-4.4V9.219h4.4ZM45.547,15H43.289V6.3l-2.7.836V5.3L45.3,3.609h.242Z" transform="translate(1099.957 3832.38)" fill="#12263f"/>
    <path id="Trazado_823215" data-name="Trazado 823215" d="M5.258,11.039H.859V9.219h4.4ZM12.461,15H10.2V6.3l-2.7.836V5.3l4.711-1.687h.242ZM51.781,4.885,47.383,15H45l4.406-9.555H43.75V3.625h8.031Z" transform="translate(1099.957 3933.948)" fill="#12263f"/>
    <path id="Trazado_823216" data-name="Trazado 823216" d="M1.109,9.406l.656-5.781H8.141V5.508H3.617L3.336,7.953a3.58,3.58,0,0,1,1.711-.43A3.279,3.279,0,0,1,7.594,8.531a4.026,4.026,0,0,1,.922,2.82,4.124,4.124,0,0,1-.465,1.973,3.281,3.281,0,0,1-1.332,1.352,4.158,4.158,0,0,1-2.047.48,4.416,4.416,0,0,1-1.914-.418,3.4,3.4,0,0,1-1.395-1.176A3.2,3.2,0,0,1,.82,11.836H3.055a1.669,1.669,0,0,0,.5,1.105,1.573,1.573,0,0,0,1.113.395,1.388,1.388,0,0,0,1.18-.551,2.551,2.551,0,0,0,.414-1.559,2.11,2.11,0,0,0-.477-1.484A1.749,1.749,0,0,0,4.43,9.227a1.954,1.954,0,0,0-1.3.422l-.219.2Zm17.313,1.633h-4.4V9.219h4.4Zm5.9-.664A11.99,11.99,0,0,1,24.8,6.969,8.989,8.989,0,0,1,26.2,4.105a5.251,5.251,0,0,1,2.016-1.73l.438,1.219A5.438,5.438,0,0,0,26.875,6.2a12.082,12.082,0,0,0-.641,4.125v.242a12.313,12.313,0,0,0,.633,4.141,5.544,5.544,0,0,0,1.789,2.648l-.437,1.2a5.253,5.253,0,0,1-1.98-1.684,8.838,8.838,0,0,1-1.4-2.785,11.918,11.918,0,0,1-.516-3.3Zm9.906.664h-4.4V9.219h4.4ZM43.742,15h-7.8V13.453l3.68-3.922a9.078,9.078,0,0,0,1.121-1.445,2.322,2.322,0,0,0,.363-1.172,1.738,1.738,0,0,0-.383-1.191,1.382,1.382,0,0,0-1.094-.434,1.49,1.49,0,0,0-1.207.527A2.089,2.089,0,0,0,37.984,7.2H35.719a3.729,3.729,0,0,1,.5-1.9,3.5,3.5,0,0,1,1.4-1.348,4.262,4.262,0,0,1,2.055-.488,4.036,4.036,0,0,1,2.73.844A2.985,2.985,0,0,1,43.375,6.7a3.825,3.825,0,0,1-.437,1.719,9.551,9.551,0,0,1-1.5,2.039L38.852,13.18h4.891Zm5.367-4.445a11.377,11.377,0,0,1-.508,3.4,9.225,9.225,0,0,1-1.461,2.883A5.264,5.264,0,0,1,45.1,18.555l-.437-1.2a5.494,5.494,0,0,0,1.75-2.578,11.939,11.939,0,0,0,.664-4.008v-.414a12.208,12.208,0,0,0-.637-4.117A5.727,5.727,0,0,0,44.664,3.57l.438-1.2a5.265,5.265,0,0,1,2,1.672,9.106,9.106,0,0,1,1.461,2.82,11.3,11.3,0,0,1,.543,3.336Z" transform="translate(1223.855 3832.38)" fill="#12263f"/>
  </g>
</svg>
