<svg xmlns="http://www.w3.org/2000/svg" width="610.043" height="353.787" viewBox="0 0 610.043 353.787">
  <g id="Grupo_1075080" data-name="Grupo 1075080" transform="translate(-179.957 -4847)">
    <path id="Trazado_822009" data-name="Trazado 822009" d="M0,0H610.043V353.787H0Z" transform="translate(179.957 4847)" fill="#fff"/>
    <path id="Trazado_823191" data-name="Trazado 823191" d="M8.047,9.172H1.063V7.328H8.047Zm0,3.383H1.063V10.711H8.047Z" transform="translate(253.569 5016)" fill="#12263f"/>
    <path id="Trazado_822005" data-name="Trazado 822005" d="M1494.043-9430.571h-5.655v-89.487h5.655" transform="translate(-1199.431 14501.814)" fill="none" stroke="#12263f" stroke-width="1.5"/>
    <path id="Trazado_822014" data-name="Trazado 822014" d="M1488.388-9430.571h5.655v-89.487h-5.655" transform="translate(-1051.431 14501.814)" fill="none" stroke="#12263f" stroke-width="1.5"/>
    <path id="Trazado_823192" data-name="Trazado 823192" d="M9.945,11.211A4.025,4.025,0,0,1,8.59,14.1a4.76,4.76,0,0,1-3.223,1.055,4.28,4.28,0,0,1-3.441-1.473A6.038,6.038,0,0,1,.672,9.641v-.7A6.819,6.819,0,0,1,1.25,6.055,4.332,4.332,0,0,1,2.9,4.137a4.629,4.629,0,0,1,2.5-.668A4.637,4.637,0,0,1,8.57,4.523,4.326,4.326,0,0,1,9.961,7.484H7.617A2.376,2.376,0,0,0,7,5.887a2.271,2.271,0,0,0-1.605-.5,1.991,1.991,0,0,0-1.754.84,4.707,4.707,0,0,0-.6,2.605V9.7a5.038,5.038,0,0,0,.559,2.7,1.954,1.954,0,0,0,1.762.852,2.314,2.314,0,0,0,1.621-.5A2.241,2.241,0,0,0,7.6,11.211ZM14.119,20H12.8V14.923l-1.572.488V14.34l2.748-.984h.141Z" transform="translate(387.957 4961)" fill="#12263f"/>
    <path id="Trazado_823193" data-name="Trazado 823193" d="M9.945,11.211A4.025,4.025,0,0,1,8.59,14.1a4.76,4.76,0,0,1-3.223,1.055,4.28,4.28,0,0,1-3.441-1.473A6.038,6.038,0,0,1,.672,9.641v-.7A6.819,6.819,0,0,1,1.25,6.055,4.332,4.332,0,0,1,2.9,4.137a4.629,4.629,0,0,1,2.5-.668A4.637,4.637,0,0,1,8.57,4.523,4.326,4.326,0,0,1,9.961,7.484H7.617A2.376,2.376,0,0,0,7,5.887a2.271,2.271,0,0,0-1.605-.5,1.991,1.991,0,0,0-1.754.84,4.707,4.707,0,0,0-.6,2.605V9.7a5.038,5.038,0,0,0,.559,2.7,1.954,1.954,0,0,0,1.762.852,2.314,2.314,0,0,0,1.621-.5A2.241,2.241,0,0,0,7.6,11.211ZM15.468,20H10.92v-.9l2.146-2.288a5.3,5.3,0,0,0,.654-.843,1.354,1.354,0,0,0,.212-.684,1.013,1.013,0,0,0-.223-.695.806.806,0,0,0-.638-.253.869.869,0,0,0-.7.308,1.218,1.218,0,0,0-.257.809H10.788a2.175,2.175,0,0,1,.289-1.107,2.04,2.04,0,0,1,.818-.786,2.486,2.486,0,0,1,1.2-.285,2.354,2.354,0,0,1,1.593.492,1.741,1.741,0,0,1,.567,1.39,2.231,2.231,0,0,1-.255,1,5.571,5.571,0,0,1-.875,1.189l-1.508,1.59h2.853Z" transform="translate(387.957 4995)" fill="#12263f"/>
    <path id="Trazado_823194" data-name="Trazado 823194" d="M9.945,11.211A4.025,4.025,0,0,1,8.59,14.1a4.76,4.76,0,0,1-3.223,1.055,4.28,4.28,0,0,1-3.441-1.473A6.038,6.038,0,0,1,.672,9.641v-.7A6.819,6.819,0,0,1,1.25,6.055,4.332,4.332,0,0,1,2.9,4.137a4.629,4.629,0,0,1,2.5-.668A4.637,4.637,0,0,1,8.57,4.523,4.326,4.326,0,0,1,9.961,7.484H7.617A2.376,2.376,0,0,0,7,5.887a2.271,2.271,0,0,0-1.605-.5,1.991,1.991,0,0,0-1.754.84,4.707,4.707,0,0,0-.6,2.605V9.7a5.038,5.038,0,0,0,.559,2.7,1.954,1.954,0,0,0,1.762.852,2.314,2.314,0,0,0,1.621-.5A2.241,2.241,0,0,0,7.6,11.211Zm2.241,3.858.041.57a1.721,1.721,0,0,1,1.417-.661,1.431,1.431,0,0,1,1.167.46,2.147,2.147,0,0,1,.392,1.376V20H13.887V16.847a.854.854,0,0,0-.182-.608.816.816,0,0,0-.606-.189.906.906,0,0,0-.834.474V20H10.947V15.069Z" transform="translate(387.957 5065)" fill="#12263f"/>
    <path id="Trazado_823195" data-name="Trazado 823195" d="M9.945,11.211A4.025,4.025,0,0,1,8.59,14.1a4.76,4.76,0,0,1-3.223,1.055,4.28,4.28,0,0,1-3.441-1.473A6.038,6.038,0,0,1,.672,9.641v-.7A6.819,6.819,0,0,1,1.25,6.055,4.332,4.332,0,0,1,2.9,4.137a4.629,4.629,0,0,1,2.5-.668A4.637,4.637,0,0,1,8.57,4.523,4.326,4.326,0,0,1,9.961,7.484H7.617A2.376,2.376,0,0,0,7,5.887a2.271,2.271,0,0,0-1.605-.5,1.991,1.991,0,0,0-1.754.84,4.707,4.707,0,0,0-.6,2.605V9.7a5.038,5.038,0,0,0,.559,2.7,1.954,1.954,0,0,0,1.762.852,2.314,2.314,0,0,0,1.621-.5A2.241,2.241,0,0,0,7.6,11.211Z" transform="translate(232.957 5016)" fill="#12263f"/>
    <g id="Grupo_1074159" data-name="Grupo 1074159" transform="translate(-393 22)">
      <path id="Trazado_822010" data-name="Trazado 822010" d="M1082.658-6714v43.7" transform="translate(-369.043 11700)" fill="none" stroke="#12263f" stroke-width="1.5"/>
      <path id="Trazado_822011" data-name="Trazado 822011" d="M1082.658-6714v43.7" transform="translate(-354.043 11700)" fill="none" stroke="#12263f" stroke-width="1.5"/>
      <path id="Trazado_822012" data-name="Trazado 822012" d="M1082.658-6714v43.7" transform="translate(-339.041 11700)" fill="none" stroke="#12263f" stroke-width="1.5"/>
    </g>
    <g id="Grupo_1074160" data-name="Grupo 1074160" transform="translate(-245.615 22)">
      <path id="Trazado_822010-2" data-name="Trazado 822010" d="M1082.658-6714v43.7" transform="translate(-369.043 11700)" fill="none" stroke="#12263f" stroke-width="1.5"/>
      <path id="Trazado_822011-2" data-name="Trazado 822011" d="M1082.658-6714v43.7" transform="translate(-354.043 11700)" fill="none" stroke="#12263f" stroke-width="1.5"/>
      <path id="Trazado_822012-2" data-name="Trazado 822012" d="M1082.658-6714v43.7" transform="translate(-339.041 11700)" fill="none" stroke="#12263f" stroke-width="1.5"/>
    </g>
    <path id="Trazado_823196" data-name="Trazado 823196" d="M1.008,17V15H3.281v2Zm0,5V20H3.281v2Zm0,5V25H3.281v2Z" transform="translate(391.957 5025.5)" fill="#12263f"/>
  </g>
</svg>
