<svg xmlns="http://www.w3.org/2000/svg" xmlns:xlink="http://www.w3.org/1999/xlink" width="110.031" height="110.031" viewBox="0 0 110.031 110.031">
  <defs>
    <filter id="Elipse_9677" x="0" y="0" width="110.031" height="110.031" filterUnits="userSpaceOnUse">
      <feOffset dy="1" input="SourceAlpha"/>
      <feGaussianBlur stdDeviation="8" result="blur"/>
      <feFlood flood-color="#fff"/>
      <feComposite operator="in" in2="blur"/>
      <feComposite in="SourceGraphic"/>
    </filter>
  </defs>
  <g id="Grupo_1072268" data-name="Grupo 1072268" transform="translate(-835 -3214)">
    <g transform="matrix(1, 0, 0, 1, 835, 3214)" filter="url(#Elipse_9677)">
      <path id="Elipse_9677-2" data-name="Elipse 9677" d="M31.016,3.649A27.367,27.367,0,1,0,58.382,31.016,27.4,27.4,0,0,0,31.016,3.649m0-3.649A31.016,31.016,0,1,1,0,31.016,31.016,31.016,0,0,1,31.016,0Z" transform="translate(24 23)" fill="#fff"/>
    </g>
    <g id="idea" transform="translate(869.513 3247.751)">
      <path id="Trazado_683878" data-name="Trazado 683878" d="M34.886,52v3.154A3.944,3.944,0,0,1,30.943,59.1a4,4,0,0,1-1.656-.363A3.955,3.955,0,0,1,27,55.154V52Z" transform="translate(-10.44 -13.958)" fill="#b3b3b3"/>
      <path id="Trazado_683879" data-name="Trazado 683879" d="M31.984,52a12.933,12.933,0,0,1-2.7,6.734A3.955,3.955,0,0,1,27,55.154V52Z" transform="translate(-10.44 -13.958)" fill="#ccc"/>
      <path id="Trazado_683880" data-name="Trazado 683880" d="M36.408,27.545a5.945,5.945,0,0,0-2.271,4.692V32.6H23.1v-.363a5.975,5.975,0,0,0-2.3-4.708,12.623,12.623,0,0,1,9.251-22.45c.158.016.308.039.457.063a12.618,12.618,0,0,1,5.9,22.4Z" transform="translate(-8.114 -4.021)" fill="#ffc239"/>
      <path id="Trazado_683881" data-name="Trazado 683881" d="M30.51,5.141A65.546,65.546,0,0,1,23.98,32.6H23.1v-.363a5.975,5.975,0,0,0-2.3-4.708,12.623,12.623,0,0,1,9.251-22.45C30.21,5.094,30.36,5.118,30.51,5.141Z" transform="translate(-8.114 -4.021)" fill="#ffe266"/>
      <path id="Trazado_683882" data-name="Trazado 683882" d="M32.674,37.194a.789.789,0,0,1-.789-.789V27.731H28.731v8.674a.789.789,0,0,1-1.577,0V27.731h-.789a2.366,2.366,0,1,1,2.366-2.366v.789h3.154v-.789a2.366,2.366,0,1,1,2.366,2.366h-.789v8.674A.789.789,0,0,1,32.674,37.194Zm.789-11.04h.789a.789.789,0,1,0-.789-.789Zm-7.1-1.577a.789.789,0,0,0,0,1.577h.789v-.789A.79.79,0,0,0,26.366,24.577Z" transform="translate(-9.806 -7.827)" fill="#ffad1d"/>
      <g id="Grupo_157034" data-name="Grupo 157034">
        <path id="Trazado_683883" data-name="Trazado 683883" d="M10.731,20.577H6.789a.789.789,0,1,1,0-1.577h3.943a.789.789,0,1,1,0,1.577Z" transform="translate(-6 -6.981)" fill="#ffc239"/>
        <path id="Trazado_683884" data-name="Trazado 683884" d="M15.087,7.752a.783.783,0,0,1-.48-.163l-3.127-2.4a.788.788,0,1,1,.96-1.251l3.127,2.4a.789.789,0,0,1-.481,1.414Z" transform="translate(-7.094 -3.762)" fill="#ffc239"/>
        <path id="Trazado_683885" data-name="Trazado 683885" d="M11.961,35.16a.789.789,0,0,1-.481-1.414l3.127-2.4a.788.788,0,1,1,.96,1.251L12.441,35a.783.783,0,0,1-.48.163Z" transform="translate(-7.094 -9.557)" fill="#ffc239"/>
        <path id="Trazado_683886" data-name="Trazado 683886" d="M55.731,20.577H51.789a.789.789,0,1,1,0-1.577h3.943a.789.789,0,0,1,0,1.577Z" transform="translate(-15.514 -6.981)" fill="#ffc239"/>
        <path id="Trazado_683887" data-name="Trazado 683887" d="M47.651,7.749a.789.789,0,0,1-.481-1.414l3.127-2.4a.789.789,0,1,1,.96,1.251l-3.127,2.4A.783.783,0,0,1,47.651,7.749Z" transform="translate(-14.639 -3.759)" fill="#ffc239"/>
        <path id="Trazado_683888" data-name="Trazado 683888" d="M50.777,35.16A.783.783,0,0,1,50.3,35l-3.127-2.4a.788.788,0,1,1,.96-1.251l3.127,2.4a.789.789,0,0,1-.481,1.414Z" transform="translate(-14.639 -9.557)" fill="#ffc239"/>
      </g>
      <path id="Trazado_683889" data-name="Trazado 683889" d="M37.194,44.52a2.345,2.345,0,0,1-.615,1.577,2.345,2.345,0,0,1,.615,1.577,2.373,2.373,0,0,1-2.366,2.366H25.366A2.373,2.373,0,0,1,23,47.674a2.345,2.345,0,0,1,.615-1.577,2.33,2.33,0,0,1,0-3.154A2.345,2.345,0,0,1,23,41.366,2.373,2.373,0,0,1,25.366,39h9.463a2.373,2.373,0,0,1,2.366,2.366,2.345,2.345,0,0,1-.615,1.577A2.345,2.345,0,0,1,37.194,44.52Z" transform="translate(-9.594 -11.21)" fill="#e6e6e6"/>
      <path id="Trazado_683890" data-name="Trazado 683890" d="M31.209,39a18.828,18.828,0,0,1-4.755,11.04H25.366A2.373,2.373,0,0,1,23,47.674a2.345,2.345,0,0,1,.615-1.577,2.33,2.33,0,0,1,0-3.154A2.345,2.345,0,0,1,23,41.366,2.373,2.373,0,0,1,25.366,39Z" transform="translate(-9.594 -11.21)" fill="#f2f2f2"/>
    </g>
  </g>
</svg>
