<svg xmlns="http://www.w3.org/2000/svg" xmlns:xlink="http://www.w3.org/1999/xlink" width="101.828" height="101.828" viewBox="0 0 101.828 101.828">
  <defs>
    <filter id="Elipse_9677" x="0" y="0" width="101.828" height="101.828" filterUnits="userSpaceOnUse">
      <feOffset dy="1" input="SourceAlpha"/>
      <feGaussianBlur stdDeviation="8" result="blur"/>
      <feFlood flood-color="#fff"/>
      <feComposite operator="in" in2="blur"/>
      <feComposite in="SourceGraphic"/>
    </filter>
  </defs>
  <g id="Grupo_1072268" data-name="Grupo 1072268" transform="translate(-835 -3214)">
    <g transform="matrix(1, 0, 0, 1, 835, 3214)" filter="url(#Elipse_9677)">
      <path id="Elipse_9677-2" data-name="Elipse 9677" d="M26.914,3.166A23.748,23.748,0,1,0,50.662,26.914,23.775,23.775,0,0,0,26.914,3.166m0-3.166A26.914,26.914,0,1,1,0,26.914,26.914,26.914,0,0,1,26.914,0Z" transform="translate(24 23)" fill="#fff"/>
    </g>
    <g id="Grupo_1071856" data-name="Grupo 1071856" transform="translate(864.277 3242.277)">
      <g id="Grupo_61581" data-name="Grupo 61581" transform="translate(0 0)">
        <g id="Grupo_61580" data-name="Grupo 61580">
          <path id="Trazado_110596" data-name="Trazado 110596" d="M1068.15,3410.249a11.194,11.194,0,0,0-1.193.064,11.465,11.465,0,0,0-9.525,9.491,10.786,10.786,0,0,0,16.395,10.4,7.787,7.787,0,0,1,3.48-1.222q.449-.04.91-.04.438,0,.869.031a7.8,7.8,0,0,1,3.532,1.234A10.786,10.786,0,0,0,1099,3419.8a11.463,11.463,0,0,0-9.525-9.488,11.107,11.107,0,0,0-1.189-.064Z" transform="translate(-1056.641 -3389.396)" fill="#b8aff8"/>
          <circle id="Elipse_4474" data-name="Elipse 4474" cx="2.157" cy="2.157" r="2.157" transform="translate(24.448 29.479)" fill="#68d0e8"/>
          <path id="Trazado_110597" data-name="Trazado 110597" d="M1102.793,3421.921c-8.655,9.7-28.147,13.309-35.759,14.381a10.746,10.746,0,0,0,12.609.921,7.786,7.786,0,0,1,3.48-1.222c.3-.024.605-.036.912-.036s.582.01.869.031a7.8,7.8,0,0,1,3.532,1.234,10.786,10.786,0,0,0,16.38-10.409A10.23,10.23,0,0,0,1102.793,3421.921Z" transform="translate(-1062.46 -3396.417)" fill="#a194f5"/>
          <path id="Trazado_110598" data-name="Trazado 110598" d="M1075.4,3424.683h2.876v3.6h3.6v2.876h-3.6v3.6H1075.4v-3.6h-3.6v-2.876h3.6Z" transform="translate(-1065.328 -3398.078)" fill="#1425dd"/>
          <g id="Grupo_61579" data-name="Grupo 61579" transform="translate(29.482 25.164)">
            <circle id="Elipse_4475" data-name="Elipse 4475" cx="2.157" cy="2.157" r="2.157" fill="#f7d99e"/>
            <circle id="Elipse_4476" data-name="Elipse 4476" cx="2.157" cy="2.157" r="2.157" transform="translate(0 8.629)" fill="#f7d99e"/>
          </g>
          <circle id="Elipse_4477" data-name="Elipse 4477" cx="2.157" cy="2.157" r="2.157" transform="translate(34.515 29.479)" fill="#68d0e8"/>
          <path id="Trazado_110599" data-name="Trazado 110599" d="M1106.083,3405.909v-2.876h2.876v2.876" transform="translate(-1085.946 -3385.056)" fill="#a194f5"/>
          <path id="Trazado_110600" data-name="Trazado 110600" d="M1120.667,3432.705a2.131,2.131,0,0,1,.321,1.117,2.146,2.146,0,0,1-3.274,1.836,2.151,2.151,0,1,0,2.954-2.954Z" transform="translate(-1092.941 -3402.903)" fill="#04b1d9"/>
          <path id="Trazado_110601" data-name="Trazado 110601" d="M1133.3,3421.879a2.146,2.146,0,0,1-2.954,2.954,2.151,2.151,0,1,0,2.954-2.954Z" transform="translate(-1100.537 -3396.391)" fill="#b58f47"/>
          <path id="Trazado_110602" data-name="Trazado 110602" d="M1145.926,3432.705a2.127,2.127,0,0,1,.321,1.117,2.146,2.146,0,0,1-3.275,1.836,2.151,2.151,0,1,0,2.954-2.954Z" transform="translate(-1108.133 -3402.903)" fill="#04b1d9"/>
          <path id="Trazado_110603" data-name="Trazado 110603" d="M1133.3,3443.53a2.146,2.146,0,0,1-2.954,2.954,2.151,2.151,0,1,0,2.954-2.954Z" transform="translate(-1100.537 -3409.413)" fill="#b58f47"/>
          <path id="Trazado_110604" data-name="Trazado 110604" d="M1071.8,3435.878v.7h3.6v3.6h2.876v-3.6h3.6V3433.7h-1.2C1077.829,3435.685,1073.5,3435.883,1071.8,3435.878Z" transform="translate(-1065.328 -3403.504)" fill="#675bb6"/>
          <path id="Trazado_110605" data-name="Trazado 110605" d="M1106.083,3406.488v.2h2.876v-2.362A5.441,5.441,0,0,1,1106.083,3406.488Z" transform="translate(-1085.946 -3385.831)" fill="#1425dd"/>
          <path id="Trazado_110606" data-name="Trazado 110606" d="M1080.784,3426.474h-2.876V3423.6a.719.719,0,0,0-.719-.719h-2.876a.719.719,0,0,0-.719.719v2.876h-2.876a.72.72,0,0,0-.719.719v2.876a.719.719,0,0,0,.719.719h2.876v2.876a.72.72,0,0,0,.719.719h2.876a.719.719,0,0,0,.719-.719v-2.876h2.876a.719.719,0,0,0,.719-.719v-2.876A.719.719,0,0,0,1080.784,3426.474Zm-.719,2.876h-2.876a.719.719,0,0,0-.719.719v2.876h-1.438v-2.876a.719.719,0,0,0-.719-.719h-2.876v-1.438h2.876a.719.719,0,0,0,.719-.719v-2.876h1.438v2.876a.72.72,0,0,0,.719.719h2.876v1.438Z" transform="translate(-1064.243 -3396.993)" fill="#453d7a"/>
          <path id="Trazado_110607" data-name="Trazado 110607" d="M1130.609,3425.023a2.876,2.876,0,1,0-2.876-2.876A2.877,2.877,0,0,0,1130.609,3425.023Zm0-4.314a1.438,1.438,0,1,1-1.438,1.438A1.438,1.438,0,0,1,1130.609,3420.708Z" transform="translate(-1098.968 -3394.822)" fill="#453d7a"/>
          <path id="Trazado_110608" data-name="Trazado 110608" d="M1130.609,3440.921a2.876,2.876,0,1,0,2.876,2.876A2.876,2.876,0,0,0,1130.609,3440.921Zm0,4.314a1.438,1.438,0,1,1,1.438-1.438A1.438,1.438,0,0,1,1130.609,3445.235Z" transform="translate(-1098.968 -3407.844)" fill="#453d7a"/>
          <path id="Trazado_110609" data-name="Trazado 110609" d="M1117.98,3430.095a2.876,2.876,0,1,0,2.876,2.876A2.876,2.876,0,0,0,1117.98,3430.095Zm0,4.315a1.438,1.438,0,1,1,1.438-1.438A1.438,1.438,0,0,1,1117.98,3434.409Z" transform="translate(-1091.372 -3401.333)" fill="#453d7a"/>
          <path id="Trazado_110610" data-name="Trazado 110610" d="M1143.239,3430.095a2.876,2.876,0,1,0,2.876,2.876A2.876,2.876,0,0,0,1143.239,3430.095Zm0,4.315a1.438,1.438,0,1,1,1.438-1.438A1.438,1.438,0,0,1,1143.239,3434.409Z" transform="translate(-1106.564 -3401.333)" fill="#453d7a"/>
          <path id="Trazado_110611" data-name="Trazado 110611" d="M1088.467,3378.132a11.915,11.915,0,0,0-1.269-.072h-7.91v-2.876h-1.438v-1.438a2.876,2.876,0,0,0-2.876-2.876h-3.6a1.438,1.438,0,1,1,0-2.876h11.5a2.876,2.876,0,1,0,0-5.752h-3.6a1.437,1.437,0,0,1-1.438-1.438v-2.876h-1.438v2.876a2.877,2.877,0,0,0,2.876,2.876h3.6a1.438,1.438,0,1,1,0,2.876h-11.5a2.876,2.876,0,0,0,0,5.753h3.6a1.438,1.438,0,0,1,1.438,1.438v1.438h-1.438v2.876h-7.91a11.672,11.672,0,0,0-1.27.072,12.151,12.151,0,0,0-10.163,10.123,11.505,11.505,0,0,0,17.488,11.09,7.044,7.044,0,0,1,3.156-1.116,11.112,11.112,0,0,1,1.672-.005,7.092,7.092,0,0,1,3.205,1.127,11.5,11.5,0,0,0,17.478-11.1A12.148,12.148,0,0,0,1088.467,3378.132Zm-12.054-1.51h1.438v1.438h-1.438Zm18.289,19.655a10.06,10.06,0,0,1-12.791,1.852,8.471,8.471,0,0,0-3.861-1.34q-.456-.034-.919-.033c-.327,0-.647.014-.969.039a8.464,8.464,0,0,0-3.8,1.328,10.066,10.066,0,0,1-15.3-9.707,10.778,10.778,0,0,1,8.887-8.852,10.189,10.189,0,0,1,1.115-.064H1087.2a10.5,10.5,0,0,1,1.115.059,10.782,10.782,0,0,1,8.887,8.853A9.992,9.992,0,0,1,1094.7,3396.277Z" transform="translate(-1055.557 -3357.927)" fill="#453d7a"/>
        </g>
      </g>
    </g>
  </g>
</svg>
