<svg xmlns="http://www.w3.org/2000/svg" xmlns:xlink="http://www.w3.org/1999/xlink" width="190" height="406" viewBox="0 0 190 406">
  <defs>
    <clipPath id="clip-path">
      <rect id="Rectángulo_376776" data-name="Rectángulo 376776" width="190" height="406" transform="translate(1229.957 8146)" fill="#222b89" opacity="0.76"/>
    </clipPath>
    <clipPath id="clip-path-2">
      <rect id="Rectángulo_376770" data-name="Rectángulo 376770" width="21.062" height="22.66" fill="none"/>
    </clipPath>
    <clipPath id="clip-path-3">
      <rect id="Rectángulo_376771" data-name="Rectángulo 376771" width="26.389" height="28.392" fill="none"/>
    </clipPath>
    <clipPath id="clip-path-4">
      <rect id="Rectángulo_376774" data-name="Rectángulo 376774" width="26.39" height="28.392" fill="none"/>
    </clipPath>
    <clipPath id="clip-path-5">
      <rect id="Rectángulo_376775" data-name="Rectángulo 376775" width="26.39" height="28.392" fill="#fff"/>
    </clipPath>
  </defs>
  <g id="Enmascarar_grupo_1044231" data-name="Enmascarar grupo 1044231" transform="translate(-1229.957 -8146)" clip-path="url(#clip-path)">
    <g id="Grupo_1074523" data-name="Grupo 1074523" transform="translate(1177.003 8269.998)" opacity="0.75">
      <ellipse id="Elipse_10038" data-name="Elipse 10038" cx="60.076" cy="60.075" rx="60.076" ry="60.075" transform="translate(89.118 106.075)" fill="#e600ff"/>
      <g id="Elipse_10039" data-name="Elipse 10039" transform="translate(0 0)" fill="#5deae5" stroke="#707070" stroke-width="1">
        <ellipse cx="66.076" cy="66.075" rx="66.076" ry="66.075" stroke="none"/>
        <ellipse cx="66.076" cy="66.075" rx="65.576" ry="65.575" fill="none"/>
      </g>
    </g>
    <path id="Rectángulo_376769" data-name="Rectángulo 376769" d="M13,0H68.138a0,0,0,0,1,0,0V353a0,0,0,0,1,0,0H0a0,0,0,0,1,0,0V13A13,13,0,0,1,13,0Z" transform="translate(1230 8199.998)" fill="#222b89"/>
    <g id="Grupo_1074529" data-name="Grupo 1074529" transform="translate(166.388 3664.973)">
      <g id="destello" transform="translate(1204.181 4506.266)">
        <path id="Trazado_822597" data-name="Trazado 822597" d="M27.073,16.921H15.483L26.227,0H12.691L0,25.381H9.983L0,49.07Z" transform="matrix(0.839, 0.545, -0.545, 0.839, 26.726, 0)" fill="#e8eaff"/>
      </g>
      <g id="destello-2" data-name="destello" transform="translate(1067.824 4534.722) rotate(-96)">
        <path id="Trazado_822598" data-name="Trazado 822598" d="M28.013,17.508H16.02L27.138,0H13.131L0,26.262H10.33L0,50.774Z" transform="matrix(0.839, 0.545, -0.545, 0.839, 27.653, 0)" fill="#1425dd"/>
      </g>
      <g id="Grupo_1074525" data-name="Grupo 1074525" transform="matrix(0.966, -0.259, 0.259, 0.966, 1139.025, 4766.43)">
        <g id="Grupo_1074524" data-name="Grupo 1074524" transform="translate(0 0)" clip-path="url(#clip-path-2)">
          <path id="Trazado_822599" data-name="Trazado 822599" d="M1.641,22.66,0,21.546c1.091-1.607,2.729-1.657,4.045-1.7,1.24-.038,1.966-.1,2.465-.829s.284-1.43-.139-2.6c-.448-1.238-1.006-2.779.085-4.386s2.729-1.657,4.045-1.7c1.24-.038,1.966-.095,2.464-.829s.284-1.43-.139-2.6c-.448-1.238-1.006-2.779.085-4.386S15.641.87,16.956.83C18.2.792,18.923.734,19.421,0l1.641,1.114c-1.091,1.608-2.729,1.658-4.045,1.7-1.24.038-1.966.1-2.465.83s-.284,1.43.139,2.6c.448,1.238,1.006,2.779-.085,4.386s-2.729,1.657-4.045,1.7c-1.24.038-1.966.1-2.465.829s-.284,1.43.139,2.6c.448,1.238,1.006,2.779-.085,4.386s-2.729,1.657-4.045,1.7c-1.24.038-1.966.1-2.465.829" transform="translate(0 0)" fill="#ff06cc"/>
        </g>
      </g>
      <g id="Grupo_1074527" data-name="Grupo 1074527" transform="translate(1084.267 4593.755) rotate(-82)">
        <g id="Grupo_1074526" data-name="Grupo 1074526" transform="translate(0 0)" clip-path="url(#clip-path-3)">
          <path id="Trazado_822600" data-name="Trazado 822600" d="M2.056,28.392,0,27c1.367-2.014,3.419-2.076,5.068-2.127,1.554-.047,2.463-.119,3.088-1.039s.355-1.792-.174-3.253c-.562-1.551-1.26-3.481.107-5.5s3.419-2.076,5.068-2.127c1.554-.047,2.463-.119,3.088-1.039s.355-1.792-.174-3.254c-.562-1.551-1.26-3.481.107-5.5S19.6,1.09,21.246,1.039C22.8.992,23.709.92,24.334,0L26.39,1.4C25.022,3.41,22.97,3.473,21.321,3.523c-1.554.047-2.464.119-3.088,1.039s-.355,1.792.174,3.254c.562,1.551,1.26,3.481-.107,5.5s-3.419,2.076-5.068,2.127c-1.554.047-2.463.119-3.088,1.039s-.355,1.792.174,3.253c.562,1.551,1.26,3.481-.107,5.5S6.793,27.3,5.144,27.353c-1.554.047-2.464.119-3.088,1.039" transform="translate(0 0)" fill="#ff06cc"/>
        </g>
      </g>
      <g id="Grupo_1074528" data-name="Grupo 1074528" transform="matrix(0.259, -0.966, 0.966, 0.259, 1075.617, 4816.453)">
        <line id="Línea_2433" data-name="Línea 2433" x2="34.339" y2="8.994" transform="translate(0 0)" fill="none" stroke="#fc20cc" stroke-linecap="round" stroke-width="3"/>
        <line id="Línea_2434" data-name="Línea 2434" x2="34.339" y2="8.994" transform="translate(236.055 49.845)" fill="none" stroke="#fc20cc" stroke-linecap="round" stroke-width="3"/>
      </g>
      <circle id="Elipse_10040" data-name="Elipse 10040" cx="8.319" cy="8.319" r="8.319" transform="translate(1135.492 4582.666)" fill="#fff"/>
      <ellipse id="Elipse_10041" data-name="Elipse 10041" cx="8.319" cy="7.487" rx="8.319" ry="7.487" transform="translate(1173.611 4822.911)" fill="#fff"/>
      <circle id="Elipse_10042" data-name="Elipse 10042" cx="4.991" cy="4.991" r="4.991" transform="translate(1243.63 4765.555)" fill="#fff"/>
      <ellipse id="Elipse_10043" data-name="Elipse 10043" cx="5.407" cy="4.991" rx="5.407" ry="4.991" transform="translate(1083.862 4697.938)" fill="#fff"/>
      <circle id="Elipse_10044" data-name="Elipse 10044" cx="4.991" cy="4.991" r="4.991" transform="translate(1142.148 4501.274)" fill="#fff"/>
      <circle id="Elipse_10045" data-name="Elipse 10045" cx="2.08" cy="2.08" r="2.08" transform="translate(1109.597 4685.917)" fill="#fff"/>
      <ellipse id="Elipse_10046" data-name="Elipse 10046" cx="2.08" cy="2.496" rx="2.08" ry="2.496" transform="translate(1200.231 4623.26)" fill="#fff"/>
      <circle id="Elipse_10047" data-name="Elipse 10047" cx="2.496" cy="2.496" r="2.496" transform="translate(1119.539 4741.387)" fill="#fff"/>
    </g>
    <g id="Grupo_1074530" data-name="Grupo 1074530" transform="matrix(0.719, 0.695, -0.695, 0.719, 1202.392, 8272.361)">
      <line id="Línea_2435" data-name="Línea 2435" x2="47.5" y2="12.44" transform="translate(21.901 -39.222)" fill="none" stroke="#fc20cc" stroke-linecap="round" stroke-width="3"/>
      <line id="Línea_2436" data-name="Línea 2436" x2="47.5" y2="12.44" transform="translate(265.643 26.603)" fill="none" stroke="#fc20cc" stroke-linecap="round" stroke-width="3"/>
    </g>
    <g id="_01" data-name="01" transform="translate(1119.949 8111.758)">
      <g id="Grupo_1074571" data-name="Grupo 1074571" transform="translate(110.051 45.872)">
        <path id="Trazado_822678" data-name="Trazado 822678" d="M812.495,965.1,828.3,918.982l57.947-27-4.995,25.329-.682.622a4.821,4.821,0,0,0-1.5,4.407l.583,3.279-22.111-5.962s-22.214,15.691-12.509,34.451a14.038,14.038,0,0,0,7,6.446l8.891,3.775a9.882,9.882,0,0,0,8.379-.328h0l10.433,5.892a19.207,19.207,0,0,0,26.459-7.827c11.354-21.672,25.563-73.2,24.01-128.553a28.572,28.572,0,0,0-4.734-14.934l-15.819-23.955.063-3.888a10.258,10.258,0,0,0-4.831-8.874l-49.643-31.712-11.5.456L812.495,731.77Z" transform="translate(-743.734 -611.114)" fill="#f9a21b"/>
        <path id="Trazado_822679" data-name="Trazado 822679" d="M925.36,856.81v131.8c18.089-8.389,34.026-20.428,46.9-32.238q1.985-1.815,3.872-3.626c4.862-4.653,9.226-9.209,13.037-13.42a90.637,90.637,0,0,0,21.927-44.313l4.886-26.414L960.1,834.63l-17.258,11.019Z" transform="translate(-856.599 -689.178)" fill="#1f4168"/>
        <g id="Grupo_1074562" data-name="Grupo 1074562" transform="translate(82.009 26.56)">
          <g id="Grupo_1074560" data-name="Grupo 1074560" transform="translate(3.544 30.552)">
            <g id="Grupo_1074556" data-name="Grupo 1074556">
              <path id="Trazado_822680" data-name="Trazado 822680" d="M946.169,767.256l6.162-.364h0l2.606-24.842,43.606,4.575L994.726,783a19.652,19.652,0,0,0,2.408,11.67l2.059,3.669-21.677,15.25a55.614,55.614,0,0,1-21.322,9.1l-30.835,6.034,20.806-61.462Z" transform="translate(-925.36 -676.028)" fill="#ffc89f"/>
              <path id="Trazado_822681" data-name="Trazado 822681" d="M937.465,568.074h0a31.125,31.125,0,0,0,34.2-27.708l3.968-37.816a31.125,31.125,0,0,0-27.708-34.2h0a31.125,31.125,0,0,0-34.2,27.708l-3.968,37.816a31.125,31.125,0,0,0,27.708,34.2Z" transform="translate(-898.172 -468.175)" fill="#ffc89f"/>
              <path id="Trazado_822682" data-name="Trazado 822682" d="M1081.791,868.667a28.5,28.5,0,0,1-13.391,1.162l.506-4.819C1072.751,867.29,1078.04,869.149,1081.791,868.667Z" transform="translate(-1042.44 -769.347)" fill="#ff9a6c"/>
            </g>
            <g id="Grupo_1074559" data-name="Grupo 1074559" transform="translate(20.293 30.387)">
              <g id="Grupo_1074557" data-name="Grupo 1074557" transform="translate(0 9.198)">
                <path id="Trazado_822683" data-name="Trazado 822683" d="M1109.271,654.136a2.8,2.8,0,1,0,3.078-2.495A2.8,2.8,0,0,0,1109.271,654.136Z" transform="translate(-1105.651 -646.986)" fill="#1b1a2e"/>
                <path id="Trazado_822684" data-name="Trazado 822684" d="M1099.764,634.085a8.547,8.547,0,0,1,1.4-.692c.241-.1.484-.181.728-.263.251-.065.494-.147.747-.2a8.762,8.762,0,0,1,3.057-.161l.191.014.188.036.376.075.376.075c.125.029.244.077.366.113.244.079.49.152.733.236.234.108.468.212.7.316l.354.157.333.2.67.4c.436.28.841.608,1.275.9-.388-.349-.774-.7-1.186-1.032l-.656-.441-.328-.219-.352-.181c-.234-.12-.47-.241-.709-.357-.248-.094-.5-.178-.75-.268-.125-.041-.248-.092-.379-.123l-.39-.082-.391-.082-.2-.041-.2-.019a8.273,8.273,0,0,0-5.966,1.637Z" transform="translate(-1099.759 -632.381)" fill="#1b1a2e"/>
              </g>
              <g id="Grupo_1074558" data-name="Grupo 1074558" transform="translate(29.243 12.266)">
                <path id="Trazado_822685" data-name="Trazado 822685" d="M987.961,666.856a2.8,2.8,0,1,0,3.078-2.5A2.8,2.8,0,0,0,987.961,666.856Z" transform="translate(-984.34 -659.709)" fill="#1b1a2e"/>
                <path id="Trazado_822686" data-name="Trazado 822686" d="M978.455,646.815a8.534,8.534,0,0,1,1.4-.692c.241-.1.484-.181.728-.263.251-.065.494-.147.747-.2a8.757,8.757,0,0,1,3.057-.161l.19.014.188.036.376.075.376.075c.125.029.244.077.366.113.243.08.489.152.733.236.234.108.468.212.7.316l.354.157.333.2.67.4c.436.28.841.607,1.275.9-.388-.35-.774-.7-1.186-1.032l-.656-.441-.328-.219-.352-.181c-.234-.121-.47-.241-.709-.357-.248-.094-.5-.178-.75-.268-.125-.041-.248-.092-.379-.123l-.39-.082-.391-.082-.2-.041-.2-.019a8.273,8.273,0,0,0-5.966,1.637Z" transform="translate(-978.45 -645.111)" fill="#1b1a2e"/>
              </g>
              <path id="Trazado_822687" data-name="Trazado 822687" d="M1081.842,709.592c-.359,1.159-.682,2.329-1,3.5s-.62,2.343-.916,3.517a7.814,7.814,0,0,0-.313,1.818,4.951,4.951,0,0,0,.287,1.834,3.2,3.2,0,0,0,1.075,1.5c.5.34,1,.685,1.509,1.015-.465-.388-.945-.759-1.415-1.143a3.012,3.012,0,0,1-.935-1.461,5.069,5.069,0,0,1-.217-1.743,7.714,7.714,0,0,1,.321-1.75c.289-1.177.579-2.353.844-3.536s.53-2.365.759-3.556Z" transform="translate(-1066.127 -681.78)" fill="#1b1a2e"/>
              <path id="Trazado_822688" data-name="Trazado 822688" d="M1046.734,779.578a5.424,5.424,0,0,0,2.437,2.811,5.146,5.146,0,0,0,1.9.677,5.517,5.517,0,0,0,2.1-.053,5.911,5.911,0,0,0,3.373-2.141,6.159,6.159,0,0,0,.918-1.651,4.638,4.638,0,0,0,.3-1.861c-.783.439-1.461.839-2.095,1.188l-.217.113c-.193.106-.386.2-.574.3a10.175,10.175,0,0,1-2.389.892,7.336,7.336,0,0,1-1.172.154c-.205.022-.415,0-.634.019-.214-.022-.446,0-.68-.036s-.494-.041-.75-.075c-.048,0-.1-.014-.147-.019C1048.395,779.8,1047.621,779.672,1046.734,779.578Z" transform="translate(-1033.488 -733.213)" fill="#e43f5a"/>
              <path id="Trazado_822689" data-name="Trazado 822689" d="M1055.46,783.645a3.921,3.921,0,0,0,.569.475,4.012,4.012,0,0,0,3.09.579,4.144,4.144,0,0,0,2.555-1.736,4.662,4.662,0,0,0,.347-.663l-.217.113c-.193.106-.386.2-.574.3a10.162,10.162,0,0,1-2.389.892,7.315,7.315,0,0,1-1.172.154c-.2.022-.415,0-.634.019-.215-.022-.446,0-.68-.036s-.494-.041-.75-.075C1055.559,783.66,1055.508,783.65,1055.46,783.645Z" transform="translate(-1039.844 -736.962)" fill="#fff"/>
              <path id="Trazado_822690" data-name="Trazado 822690" d="M1096.37,597.364c1.232-.031,2.213-.067,3.151-.046a22.675,22.675,0,0,1,2.6.176l.157.01.157.031.313.051c.106.012.212.027.318.036s.21.048.318.065c.212.046.431.075.656.109.217.06.444.1.675.149.113.027.236.039.357.06s.231.068.352.094c.239.06.492.108.754.157a12.126,12.126,0,0,0,1.685.313,6.2,6.2,0,0,0-.779-1.62c-.179-.231-.369-.458-.571-.677-.1-.113-.2-.217-.309-.323s-.229-.19-.35-.277c-.239-.178-.484-.359-.738-.523-.265-.145-.545-.272-.825-.4-.142-.06-.282-.125-.427-.174l-.448-.12a5.559,5.559,0,0,0-.914-.178,6.463,6.463,0,0,0-3.609.579,3.192,3.192,0,0,0-.4.214c-.13.077-.26.152-.386.236a6.387,6.387,0,0,0-.7.567A4.149,4.149,0,0,0,1096.37,597.364Z" transform="translate(-1095.551 -594.228)" fill="#1b1a2e"/>
              <path id="Trazado_822691" data-name="Trazado 822691" d="M975.06,610.084c1.232-.031,2.213-.068,3.151-.046a22.648,22.648,0,0,1,2.6.176l.157.01.157.031.313.051c.106.012.212.027.318.036s.21.048.318.065c.212.046.431.075.656.108.217.06.444.1.675.149.113.026.236.039.357.06s.231.068.352.094c.239.06.492.108.755.157a12.113,12.113,0,0,0,1.685.313,5.251,5.251,0,0,0-.333-.844,5.02,5.02,0,0,0-.446-.776q-.268-.347-.571-.677c-.1-.113-.2-.217-.308-.323s-.229-.191-.35-.277c-.239-.178-.484-.359-.738-.523-.265-.145-.545-.272-.824-.4-.142-.06-.282-.125-.427-.174l-.448-.12A5.561,5.561,0,0,0,981.2,607a6.463,6.463,0,0,0-3.609.579,3.186,3.186,0,0,0-.4.215c-.13.077-.26.152-.386.236a6.382,6.382,0,0,0-.7.566A4.152,4.152,0,0,0,975.06,610.084Z" transform="translate(-944.997 -603.881)" fill="#1b1a2e"/>
            </g>
          </g>
          <path id="Trazado_822692" data-name="Trazado 822692" d="M824.849,437.685s-7.1-6.6-13.2-21.665a26.276,26.276,0,0,1,7.174-29.757,64.618,64.618,0,0,1,14.474-9.45,27.9,27.9,0,0,1,5.19-8.008,10.586,10.586,0,0,1,8.03-3.286l10.959.376.412-5.164a8.676,8.676,0,0,1,8.428-7.77h0s.193-.451.612-1.2a20.314,20.314,0,0,1,26.715-8.211c5.446,2.7,6.1,4.732,6.974,13.394l5.918,5.94a11.652,11.652,0,0,1,3.334,9.563c-.586,5.055-3.782,11.781-3.782,11.781l5.4,4.269a9.809,9.809,0,0,1,2.987,10.614l-10.549,31.58L902.327,443.5a16.9,16.9,0,0,1-8.35,12.572l-9.421,4.465,3.97-38.245-7.468-9.035a17.493,17.493,0,0,1-3.915-12.969l1.061-10.118-11.282,6.591a39.35,39.35,0,0,1-17.663,5.313l-20.8,1.157-3.614,34.451Z" transform="translate(-809.72 -341.436)" fill="#1b1a2e"/>
          <g id="Grupo_1074561" data-name="Grupo 1074561" transform="translate(72.711 78.373)">
            <rect id="Rectángulo_376779" data-name="Rectángulo 376779" width="13.529" height="22.462" rx="6.764" transform="translate(13.455 23.752) rotate(-174.01)" fill="#ffc89f"/>
            <path id="Trazado_822693" data-name="Trazado 822693" d="M894.442,685.45a7.191,7.191,0,0,1,1.584.581,6.083,6.083,0,0,1,1.331.962,5.528,5.528,0,0,1,1,1.275,4.993,4.993,0,0,1,.593,1.492,5.1,5.1,0,0,1,.145,1.6c-.022.552-.089,1.131-.116,1.7-.072,1.138-.12,2.278-.106,3.426.253-1.119.441-2.244.608-3.373.087-.569.161-1.119.224-1.7a5.515,5.515,0,0,0-2.01-4.788,5.477,5.477,0,0,0-1.538-.873,5.365,5.365,0,0,0-1.709-.292Z" transform="translate(-887.607 -680.893)" fill="#ff9a6c"/>
            <path id="Trazado_822694" data-name="Trazado 822694" d="M913.768,724.782c-.075-.345-.171-.653-.253-.959s-.166-.6-.244-.9-.147-.6-.217-.906-.137-.625-.239-.964a2.485,2.485,0,0,0-.27,1,3.323,3.323,0,0,0,.506,1.984,2.5,2.5,0,0,0,.716.75Z" transform="translate(-906.012 -707.911)" fill="#ff9a6c"/>
          </g>
          <path id="Trazado_822695" data-name="Trazado 822695" d="M846.59,442.9a63.538,63.538,0,0,1,6.593.545q3.283.409,6.523,1.073a87.9,87.9,0,0,1,12.714,3.573c2.068.759,4.11,1.589,6.111,2.507,1.991.938,3.963,1.926,5.87,3.03.485.263.955.55,1.425.839s.945.566,1.408.863c.916.61,1.854,1.193,2.741,1.849,1.822,1.244,3.534,2.637,5.226,4.055a64.466,64.466,0,0,0-10.674-7.82l-1.437-.829-1.463-.779-.733-.386-.745-.364c-.5-.241-.991-.492-1.492-.723-2.006-.933-4.052-1.774-6.125-2.543a85.087,85.087,0,0,0-12.776-3.512A73.026,73.026,0,0,0,846.59,442.9Z" transform="translate(-798.835 -418.441)" fill="#1f4168"/>
          <path id="Trazado_822696" data-name="Trazado 822696" d="M856.692,389.25a41.351,41.351,0,0,1,6.024.569,47.808,47.808,0,0,1,5.9,1.328,41.489,41.489,0,0,1,10.978,4.937,33.972,33.972,0,0,1,8.833,8.136,34.412,34.412,0,0,1,3.216,5.108c.494.88.882,1.813,1.3,2.734.219.456.376.935.557,1.408l.535,1.417a36.473,36.473,0,0,0-5.407-10.814l-.931-1.2c-.308-.4-.665-.764-1-1.15l-.506-.569c-.171-.186-.357-.359-.535-.54-.362-.354-.714-.723-1.085-1.068a36.706,36.706,0,0,0-4.8-3.729,37.141,37.141,0,0,0-5.361-2.864,42.3,42.3,0,0,0-5.723-2.039,43.818,43.818,0,0,0-11.99-1.659Z" transform="translate(-800.098 -377.724)" fill="#1f4168"/>
          <path id="Trazado_822697" data-name="Trazado 822697" d="M884.536,400.9a15,15,0,0,0-3.749-1.217,17.732,17.732,0,0,0-3.944-.325,17.044,17.044,0,0,0-3.917.569c-.316.094-.644.154-.95.277l-.931.338a8.614,8.614,0,0,0-.9.4c-.3.142-.593.287-.885.434a22.934,22.934,0,0,1,3.727-1.208c.632-.159,1.278-.251,1.921-.352.321-.048.649-.06.972-.092l.487-.041.487-.007c.325,0,.651-.031.976-.014l.976.036.972.094c.323.039.646.092.969.13s.641.116.964.171.636.145.955.222a16.7,16.7,0,0,1,1.876.581Z" transform="translate(-793.64 -385.392)" fill="#1f4168"/>
          <path id="Trazado_822698" data-name="Trazado 822698" d="M862.763,437.815a30.742,30.742,0,0,0-.887-3.746c-.364-1.232-.81-2.44-1.29-3.633a32.454,32.454,0,0,0-1.711-3.459,21.03,21.03,0,0,0-2.235-3.136c.35.54.742,1.044,1.056,1.6.35.535.653,1.1.962,1.656.591,1.131,1.155,2.276,1.632,3.462.5,1.174.938,2.375,1.352,3.585.207.605.4,1.213.586,1.827s.366,1.227.535,1.847Z" transform="translate(-768.82 -403.975)" fill="#1f4168"/>
          <path id="Trazado_822699" data-name="Trazado 822699" d="M973.109,439.54c-.868-.169-1.745-.287-2.623-.4s-1.757-.2-2.64-.268c-1.765-.147-3.534-.222-5.3-.248-1.769,0-3.541.017-5.306.135-.882.048-1.765.13-2.644.21s-1.757.207-2.633.323c1.765-.111,3.524-.239,5.289-.284,1.762-.065,3.527-.089,5.292-.06,1.765,0,3.527.08,5.289.171S971.351,439.345,973.109,439.54Z" transform="translate(-902.144 -415.192)" fill="#1f4168"/>
          <path id="Trazado_822700" data-name="Trazado 822700" d="M1000.18,462.646c1.415-.6,2.845-1.174,4.291-1.7.718-.275,1.446-.523,2.17-.786l2.184-.738c2.924-.952,5.88-1.8,8.871-2.5a87.426,87.426,0,0,1,9.054-1.7l2.288-.282c.764-.082,1.531-.12,2.3-.186l1.15-.094c.383-.022.769-.024,1.152-.036l2.307-.067a62.766,62.766,0,0,0-9.226.419,80.805,80.805,0,0,0-9.1,1.637c-2.994.733-5.962,1.577-8.876,2.582a83.323,83.323,0,0,0-8.565,3.457Z" transform="translate(-976.603 -427.269)" fill="#1f4168"/>
          <path id="Trazado_822701" data-name="Trazado 822701" d="M1047.333,514.95a37.558,37.558,0,0,1,.906-8.1,39.584,39.584,0,0,1,2.611-7.714,43.109,43.109,0,0,1,9.43-13.181,53.367,53.367,0,0,1,13.309-9.327,69.132,69.132,0,0,1,7.5-3.223c2.565-.918,5.178-1.7,7.823-2.37-2.656.62-5.287,1.35-7.875,2.22a68.708,68.708,0,0,0-7.557,3.151,52.94,52.94,0,0,0-13.423,9.317,42.84,42.84,0,0,0-9.431,13.312,39.331,39.331,0,0,0-2.538,7.782,37.691,37.691,0,0,0-.752,8.138Z" transform="translate(-1040.938 -439.789)" fill="#1f4168"/>
          <path id="Trazado_822702" data-name="Trazado 822702" d="M981.05,535.89a33.489,33.489,0,0,1,4.549-3.934,47.954,47.954,0,0,1,5.048-3.266,57.93,57.93,0,0,1,11.017-4.768c1.914-.6,3.85-1.123,5.81-1.548.487-.118.984-.2,1.473-.3s.981-.2,1.48-.272c.991-.152,1.979-.328,2.975-.441a82.023,82.023,0,0,1,12.02-.62c-1-.034-2.008-.077-3.013-.094-1.005.012-2.01-.012-3.016.026s-2.01.065-3.013.159l-1.5.116c-.5.048-1,.111-1.5.164a64.372,64.372,0,0,0-11.8,2.5,56.44,56.44,0,0,0-11.043,4.862,47.973,47.973,0,0,0-5.019,3.356c-.8.615-1.574,1.254-2.321,1.928a24.075,24.075,0,0,0-2.131,2.133Z" transform="translate(-961.468 -477.448)" fill="#1f4168"/>
          <path id="Trazado_822703" data-name="Trazado 822703" d="M877.24,528.847a44.589,44.589,0,0,0,5.337-3.734,52.977,52.977,0,0,0,4.8-4.414,42.069,42.069,0,0,0,4.122-5.055,32.686,32.686,0,0,0,3.141-5.7l-.757,1.439c-.128.239-.246.482-.381.718l-.427.692c-.287.46-.55.933-.851,1.381L891.3,515.5a45.239,45.239,0,0,1-4.154,4.976,58.008,58.008,0,0,1-4.725,4.445c-.829.7-1.671,1.379-2.536,2.03s-1.741,1.29-2.642,1.895Z" transform="translate(-805.665 -469.32)" fill="#1f4168"/>
          <path id="Trazado_822704" data-name="Trazado 822704" d="M890.619,523.53q-.611,1.584-1.331,3.119l-.728,1.531c-.258.5-.506,1.01-.771,1.509a61.709,61.709,0,0,1-3.447,5.824c-.6.955-1.275,1.861-1.926,2.782l-1.036,1.338c-.174.222-.345.448-.521.665l-.545.648c-.364.432-.721.868-1.092,1.292l-1.152,1.242c-.193.207-.379.422-.576.622l-.605.593-1.208,1.191a44.454,44.454,0,0,0,4.824-4.778l.564-.636c.183-.217.354-.443.53-.665l1.053-1.335c.661-.921,1.348-1.825,1.96-2.782a56.9,56.9,0,0,0,3.4-5.889A45.927,45.927,0,0,0,890.619,523.53Z" transform="translate(-801.266 -479.633)" fill="#1f4168"/>
          <path id="Trazado_822705" data-name="Trazado 822705" d="M847.523,570.9c.463-3.782.892-7.567,1.316-11.354l.62-5.682c.193-1.895.439-3.782.564-5.694a41.343,41.343,0,0,0-.911-11.4,34.633,34.633,0,0,0-4.207-10.595,31.758,31.758,0,0,1,2.391,5.176,40.409,40.409,0,0,1,1.572,5.474,42.027,42.027,0,0,1,.832,11.325c-.113,1.892-.352,3.787-.533,5.682l-.574,5.687c-.371,3.792-.738,7.584-1.07,11.381Z" transform="translate(-753.32 -481.645)" fill="#1f4168"/>
          <path id="Trazado_822706" data-name="Trazado 822706" d="M910.244,750.181a3.183,3.183,0,1,1-2.833-3.5A3.182,3.182,0,0,1,910.244,750.181Z" transform="translate(-827.71 -648.978)" fill="#f9a21b"/>
          <path id="Trazado_822707" data-name="Trazado 822707" d="M1092.522,833.772a28,28,0,0,0,3.153,3.584,29.906,29.906,0,0,0,3.71,3.018,29.608,29.608,0,0,0,4.156,2.367l1.095.48,1.111.436,1.13.386,1.145.335-1.126-.4-1.109-.434-1.094-.468-1.075-.509a33.5,33.5,0,0,1-7.818-5.354,35.758,35.758,0,0,1-3.281-3.45Z" transform="translate(-1070.942 -715.085)" fill="#ff9a6c"/>
          <path id="Trazado_822708" data-name="Trazado 822708" d="M1125.765,865.01c-.159,1.041-.292,2.085-.422,3.131-.07.521-.121,1.046-.181,1.569a12.113,12.113,0,0,1-.229,1.548,7.807,7.807,0,0,1-1.261,2.823l-.921,1.282c-.3.434-.608.861-.9,1.3.673-.812,1.323-1.637,1.972-2.471a7.682,7.682,0,0,0,1.345-2.881,12.317,12.317,0,0,0,.212-1.577c.051-.523.106-1.046.147-1.572C1125.618,867.112,1125.7,866.063,1125.765,865.01Z" transform="translate(-1095.755 -738.794)" fill="#ff9a6c"/>
        </g>
        <g id="Grupo_1074563" data-name="Grupo 1074563" transform="translate(137.519 313.936)" opacity="0.4">
          <path id="Trazado_822709" data-name="Trazado 822709" d="M935.84,1534.546l9.04-.95a9.457,9.457,0,0,1,8.768,4.028l1.533,2.218-19.338-5.3Z" transform="translate(-935.84 -1533.544)" fill="#a65b3c"/>
        </g>
        <g id="Grupo_1074564" data-name="Grupo 1074564" transform="translate(128.844 258.512)" opacity="0.4">
          <path id="Trazado_822710" data-name="Trazado 822710" d="M971.943,1325.984l-13.673,6.371,7.131-5.807a22.23,22.23,0,0,0,4.913-5.624l10.566-17.294-8.934,22.354Z" transform="translate(-958.27 -1303.63)" fill="#a65b3c"/>
        </g>
        <g id="Grupo_1074565" data-name="Grupo 1074565" transform="translate(68.76 156.471)" opacity="0.4">
          <path id="Trazado_822711" data-name="Trazado 822711" d="M1228.79,891.5v10.961l6.456-11.272a18.626,18.626,0,0,1,4.062-4.9l6.962-5.947Z" transform="translate(-1228.79 -880.34)" fill="#1f4168"/>
        </g>
        <g id="Grupo_1074566" data-name="Grupo 1074566" transform="translate(68.761 263.567)" opacity="0.4">
          <path id="Trazado_822712" data-name="Trazado 822712" d="M1090.67,1345v15.467c18.089-8.389,34.026-20.428,46.9-32.238l3.871-3.625-15.855,10.87a40.743,40.743,0,0,1-16.662,6.637Z" transform="translate(-1090.67 -1324.6)" fill="#1f4168"/>
        </g>
        <g id="Grupo_1074567" data-name="Grupo 1074567" transform="translate(99.684 336.508)" opacity="0.4">
          <path id="Trazado_822713" data-name="Trazado 822713" d="M1151.884,1632.906s-4.682,4.175-6.714-5.725Z" transform="translate(-1145.17 -1627.18)" fill="#a65b3c"/>
        </g>
        <path id="Trazado_822714" data-name="Trazado 822714" d="M1028.942,1571.358a34.574,34.574,0,0,0,5.048-8.6,32.241,32.241,0,0,0,2.35-9.708,30.244,30.244,0,0,0-.087-5.012,29.288,29.288,0,0,0-1-4.908c-.123-.4-.268-.791-.4-1.188l-.205-.593c-.072-.2-.159-.386-.239-.578l-.485-1.155c-.176-.378-.369-.75-.552-1.124-.354-.757-.8-1.461-1.222-2.184-.2-.366-.453-.7-.68-1.049l-.7-1.037.675,1.051c.219.354.463.692.656,1.063.4.73.832,1.442,1.167,2.206.176.376.366.747.535,1.126l.468,1.155c.075.193.159.383.229.579l.2.591c.128.4.268.786.383,1.186a30.927,30.927,0,0,1,.962,4.879,30.015,30.015,0,0,1,.063,4.971,32.643,32.643,0,0,1-2.28,9.657,37.46,37.46,0,0,1-2.146,4.5c-.4.728-.829,1.444-1.285,2.141s-.928,1.384-1.449,2.034Z" transform="translate(-901.988 -1220.121)" fill="#a65b3c"/>
        <path id="Trazado_822715" data-name="Trazado 822715" d="M925.382,1535.873c1.943.583,3.891,1.143,5.841,1.695l5.858,1.635,5.872,1.579,2.941.771,2.948.747-2.917-.861L943,1540.6l-5.858-1.635-5.872-1.579c-1.96-.516-3.922-1.029-5.892-1.519Z" transform="translate(-789.461 -1221.373)" fill="#a65b3c"/>
        <path id="Trazado_822716" data-name="Trazado 822716" d="M974.042,1472.9c.877-.719,1.738-1.456,2.594-2.2s1.7-1.5,2.553-2.244,1.683-1.516,2.514-2.288l1.244-1.157c.41-.393.824-.779,1.227-1.177-.441.357-.87.726-1.307,1.09l-1.29,1.109c-.858.74-1.7,1.5-2.553,2.244s-1.683,1.516-2.514,2.288-1.661,1.543-2.471,2.333Z" transform="translate(-836.523 -1166.707)" fill="#a65b3c"/>
        <path id="Trazado_822717" data-name="Trazado 822717" d="M922.49,1258.029l2.249-5.472,2.228-5.479,4.416-10.973,4.363-10.995,2.165-5.506,2.141-5.514-2.249,5.47-2.227,5.479-4.416,10.976L926.8,1247.01l-2.165,5.5Z" transform="translate(-779.973 -977.163)" fill="#a65b3c"/>
        <path id="Trazado_822718" data-name="Trazado 822718" d="M1176.082,834.855c2.336-.841,4.662-1.709,6.986-2.579l6.965-2.64,6.942-2.693,3.464-1.364,3.455-1.389-3.5,1.278-3.488,1.3-6.964,2.64L1183,832.1c-2.312.906-4.621,1.818-6.921,2.753Z" transform="translate(-1104.947 -681.255)" fill="#a65b3c"/>
        <path id="Trazado_822719" data-name="Trazado 822719" d="M977.079,1030.26l-2.64,15.525-.326,1.94-.161.971c-.055.323-.123.644-.186.967-.248,1.287-.535,2.567-.839,3.843q-.933,3.822-2.179,7.557a90.652,90.652,0,0,1-14.953,27.5q-1.222,1.54-2.512,3.025c-.427.5-.868.981-1.3,1.473s-.887.964-1.343,1.434c-1.808,1.9-3.717,3.7-5.667,5.45-3.908,3.5-8,6.786-12.193,9.944s-8.493,6.167-12.878,9.05-8.845,5.653-13.411,8.247a238.271,238.271,0,0,0,26.392-17.159c4.2-3.146,8.312-6.425,12.236-9.92,1.957-1.75,3.876-3.548,5.7-5.446.46-.47.9-.959,1.345-1.441s.878-.979,1.3-1.478q1.291-1.49,2.512-3.037a90.847,90.847,0,0,0,14.929-27.59q1.247-3.739,2.167-7.574c.3-1.278.586-2.56.832-3.852.06-.323.128-.644.183-.969l.159-.972.321-1.943,2.517-15.546Z" transform="translate(-813.148 -837.649)" fill="#a65b3c"/>
        <path id="Trazado_822720" data-name="Trazado 822720" d="M1301.7,626a.4.4,0,0,0,.4-.4V231.663a.4.4,0,1,0-.805,0V625.6A.4.4,0,0,0,1301.7,626Z" transform="translate(-1233.344 -231.26)" fill="#1f4168"/>
        <path id="Trazado_822721" data-name="Trazado 822721" d="M1220.39,1347.738l-39.1-20.794-11.566-17.67a8.58,8.58,0,0,0-2.683-2.608l-12.745-7.849a4.765,4.765,0,0,0-1.955-.677l-3.491-.4-3.678-1.663a2.744,2.744,0,0,0-3.85,2.963c.309,1.579,1.533,3.442,4.744,5.279l-18.885-3.426-11.369-2.122a2.626,2.626,0,0,0-1.514,5.019l23.692,8.923-.569,5.479a5.8,5.8,0,0,0,.608,3.238l1.239,2.413-.2,2.093a3.888,3.888,0,0,0,1.22,3.2l1.745,1.627.5,2.442a4.9,4.9,0,0,0,3.31,3.683l23.834,7.615,43.3,36.929s14.322-13.946,7.413-33.694Z" transform="translate(-1106.577 -1039.198)" fill="#ffc89f"/>
        <path id="Trazado_822722" data-name="Trazado 822722" d="M1373.64,1331.04c.976.275,1.958.523,2.938.769s1.969.47,2.953.706c.988.217,1.974.444,2.965.651l1.487.306c.5.094.993.2,1.492.282-.487-.14-.979-.265-1.466-.4l-1.473-.371c-.981-.246-1.969-.47-2.953-.706-.988-.217-1.974-.444-2.965-.651S1374.638,1331.218,1373.64,1331.04Z" transform="translate(-1334.154 -1065.921)" fill="#ff9a6c"/>
        <path id="Trazado_822723" data-name="Trazado 822723" d="M1439.13,1365.86a26.341,26.341,0,0,0,1.987,1.791,25.8,25.8,0,0,0,2.138,1.6,29.585,29.585,0,0,0-4.125-3.394Z" transform="translate(-1407.72 -1092.347)" fill="#ff9a6c"/>
        <path id="Trazado_822724" data-name="Trazado 822724" d="M1285.249,378.277V379.9l-2.707,2.623-4.756,2.15a2.675,2.675,0,0,0-1.572,2.437v1.574s-4.211.436-5.6.675a3.754,3.754,0,0,0-2.975,4.115l.164,2.244h0a3.614,3.614,0,0,0-2.49,3.71l.014.19a3.614,3.614,0,0,0,3.185,3.312l2.454.282v2.068a3.4,3.4,0,0,0,2.847,3.351l11.434,1.866v3.293l6.364-2.507a3.663,3.663,0,0,0,2.319-3.406v-1.567a3.662,3.662,0,0,0-1.709-3.1h0l.244-.27a5.706,5.706,0,0,0,1.466-3.821h0a3.78,3.78,0,0,0-2.534-3.57h0l.644-.484a4.721,4.721,0,0,0,1.887-3.778h0a4.722,4.722,0,0,0-2.582-4.209l-1.155-.588,1.577-1.485a2.761,2.761,0,0,0,.87-2.015h0a2.769,2.769,0,0,0-1.781-2.587l-5.614-2.138Z" transform="translate(-1216.488 -342.831)" fill="#ffc89f"/>
        <path id="Trazado_822725" data-name="Trazado 822725" d="M1257.233,561.7v8.879l3.512-.485,4.223.54a2.554,2.554,0,0,0,2.435-3.973c-1.307-1.907-4.149-3.932-10.171-4.959Z" transform="translate(-1188.472 -482.042)" fill="#ffc89f"/>
        <path id="Trazado_822726" data-name="Trazado 822726" d="M1280.792,414.6c1.191,0,2.382-.031,3.573-.063s2.379-.084,3.57-.128a13.63,13.63,0,0,0,1.791-.157,8.638,8.638,0,0,0,1.736-.487l1.658-.663c.55-.229,1.1-.451,1.651-.687-.567.186-1.128.383-1.692.576l-1.683.6a9.774,9.774,0,0,1-1.707.446,13,13,0,0,1-1.767.133c-1.188.063-2.379.111-3.568.183s-2.377.145-3.565.246Z" transform="translate(-1221.067 -368.749)" fill="#ff9a6c"/>
        <path id="Trazado_822727" data-name="Trazado 822727" d="M1275.795,449.977c1.967.036,3.934.046,5.9.051l5.9-.012,5.9-.07,2.948-.055,2.948-.08-2.951-.039-2.95-.012-5.9.014-5.9.07c-1.967.034-3.932.07-5.9.133Z" transform="translate(-1224.478 -397.087)" fill="#ff9a6c"/>
        <path id="Trazado_822728" data-name="Trazado 822728" d="M1272.38,481.378c1.772.051,3.541.072,5.313.094l5.313.029,5.313-.027,2.656-.034,2.656-.058-2.656-.06-2.656-.034-5.313-.029-5.313.026C1275.921,481.306,1274.152,481.327,1272.38,481.378Z" transform="translate(-1217.9 -420.994)" fill="#ff9a6c"/>
        <path id="Trazado_822729" data-name="Trazado 822729" d="M1286.9,511.961a11.5,11.5,0,0,0,1.719.352,11.151,11.151,0,0,0,1.753.113,12.78,12.78,0,0,0-3.471-.465Z" transform="translate(-1218.14 -444.291)" fill="#ff9a6c"/>
      </g>
      <g id="peeking_26_Convertido_" data-name="peeking_26 [Convertido]" transform="translate(-625.352 -124.758)">
        <g id="FRONT" transform="translate(782.507 292.889)">
          <g id="Grupo_1074569" data-name="Grupo 1074569" transform="translate(0 0)">
            <path id="Trazado_822730" data-name="Trazado 822730" d="M1252.7,637.275a17.231,17.231,0,0,1,32.763,8.266l3.194,4.5L1283.8,652.1a17.228,17.228,0,1,1-31.1-14.829Z" transform="translate(-1250.922 -627.36)" fill="#fff"/>
            <path id="Trazado_822731" data-name="Trazado 822731" d="M1320.952,696.665l-4.627-4.644a.74.74,0,0,1,0-1.044l1.478-1.478a.739.739,0,0,1,1.045,0l2.624,2.641,5.97-5.935a.74.74,0,0,1,1.043,0l1.478,1.48a.738.738,0,0,1,0,1.046L1322,696.667a.74.74,0,0,1-1.043,0Z" transform="translate(-1305.788 -673.893)" fill="#1f4068"/>
            <path id="Trazado_822732" data-name="Trazado 822732" d="M1267.554,661.648a17.352,17.352,0,0,0,15.655-9.837l4.937-2.1-3.248-4.572a17.339,17.339,0,1,0-17.344,16.508Zm20.276-12.026-4.773,2.03-.016.035a17.116,17.116,0,1,1,1.65-6.526v.035l3.139,4.422Z" transform="translate(-1250.25 -626.987)" fill="#1f4068"/>
          </g>
        </g>
      </g>
      <g id="Grupo_1074572" data-name="Grupo 1074572" transform="translate(204.426 192.188)">
        <g id="Grupo_1074553" data-name="Grupo 1074553" transform="translate(41.231 27.554)">
          <path id="Trazado_822676" data-name="Trazado 822676" d="M623.717,604.969H569.47V577.785h5.752V569.76l6.906,8.025h41.59Z" transform="translate(-569.398 -569.563)" fill="#fff"/>
          <path id="Trazado_822677" data-name="Trazado 822677" d="M568.99,603.93h54.393V576.6H581.754l-7.014-8.15v8.15h-5.75Zm54.246-.148h-54.1V576.747h5.75v-7.9l6.8,7.9h41.549Z" transform="translate(-568.99 -568.45)" fill="#1f4068"/>
          <g id="Grupo_1074552" data-name="Grupo 1074552" transform="translate(8.605 19.2)">
            <circle id="Elipse_10058" data-name="Elipse 10058" cx="1.864" cy="1.864" r="1.864" transform="matrix(0.759, -0.651, 0.651, 0.759, 0, 2.428)" fill="#1f4068"/>
            <circle id="Elipse_10059" data-name="Elipse 10059" cx="1.864" cy="1.864" r="1.864" transform="translate(10.837 3.625) rotate(-67.68)" fill="#1f4068"/>
            <circle id="Elipse_10060" data-name="Elipse 10060" cx="1.864" cy="1.864" r="1.864" transform="translate(21.477 3.625) rotate(-67.68)" fill="#1f4068"/>
            <circle id="Elipse_10061" data-name="Elipse 10061" cx="1.864" cy="1.864" r="1.864" transform="translate(32.527 0.926) rotate(-5.44)" fill="#1f4068"/>
          </g>
        </g>
      </g>
    </g>
    <g id="destello-3" data-name="destello" transform="matrix(-0.966, 0.259, -0.259, -0.966, 1315, 8510.75)">
      <path id="Trazado_822661" data-name="Trazado 822661" d="M25.18,15.738H14.4L24.393,0H11.8L0,23.606H9.285L0,45.639Z" transform="matrix(0.839, 0.545, -0.545, 0.839, 24.857, 0)" fill="#fff"/>
    </g>
    <g id="Grupo_1074541" data-name="Grupo 1074541" transform="translate(1179.567 8293.223)">
      <line id="Línea_2437" data-name="Línea 2437" y1="23.848" x2="26" transform="translate(205.017)" fill="none" stroke="#fc20cc" stroke-linecap="round" stroke-width="3"/>
    </g>
    <g id="Grupo_1074543" data-name="Grupo 1074543" transform="translate(1381.705 8395.475) rotate(-56)">
      <g id="Grupo_1074542" data-name="Grupo 1074542" transform="translate(0 0)" clip-path="url(#clip-path-4)">
        <path id="Trazado_822662" data-name="Trazado 822662" d="M2.056,0,0,1.4C1.367,3.41,3.419,3.472,5.068,3.523c1.554.047,2.463.119,3.088,1.039s.355,1.792-.174,3.253c-.562,1.551-1.261,3.481.107,5.5s3.419,2.076,5.068,2.127c1.554.047,2.463.119,3.088,1.039s.355,1.792-.174,3.254c-.562,1.551-1.261,3.481.107,5.5S19.6,27.3,21.245,27.352c1.554.047,2.464.119,3.088,1.039L26.389,27c-1.367-2.014-3.419-2.077-5.068-2.127-1.554-.047-2.464-.119-3.088-1.039s-.355-1.792.174-3.254c.562-1.551,1.261-3.481-.107-5.5S14.881,13,13.232,12.953c-1.554-.047-2.463-.119-3.088-1.039s-.355-1.792.174-3.253c.562-1.551,1.261-3.481-.107-5.5S6.793,1.089,5.144,1.039C3.59.991,2.68.92,2.056,0" transform="translate(0 0)" fill="#ff06cc"/>
      </g>
    </g>
    <g id="Grupo_1074545" data-name="Grupo 1074545" transform="translate(1266.92 8336.475) rotate(-56)">
      <g id="Grupo_1074544" data-name="Grupo 1074544" transform="translate(0 0)" clip-path="url(#clip-path-5)">
        <path id="Trazado_822663" data-name="Trazado 822663" d="M2.056,0,0,1.4C1.367,3.41,3.419,3.472,5.068,3.523c1.554.047,2.463.119,3.088,1.039s.355,1.792-.174,3.253c-.562,1.551-1.261,3.481.107,5.5s3.419,2.076,5.068,2.127c1.554.047,2.463.119,3.088,1.039s.355,1.792-.174,3.254c-.562,1.551-1.261,3.481.107,5.5S19.6,27.3,21.245,27.352c1.554.047,2.464.119,3.088,1.039L26.389,27c-1.367-2.014-3.419-2.077-5.068-2.127-1.554-.047-2.464-.119-3.088-1.039s-.355-1.792.174-3.254c.562-1.551,1.261-3.481-.107-5.5S14.881,13,13.232,12.953c-1.554-.047-2.463-.119-3.088-1.039s-.355-1.792.174-3.253c.562-1.551,1.261-3.481-.107-5.5S6.793,1.089,5.144,1.039C3.59.991,2.68.92,2.056,0" transform="translate(0 0)" fill="#fff"/>
      </g>
    </g>
    <g id="destello-4" data-name="destello" transform="matrix(0.391, 0.921, -0.921, 0.391, 1409.877, 8418.45)">
      <path id="Trazado_822664" data-name="Trazado 822664" d="M28.013,17.508H16.02L27.138,0H13.131L0,26.262H10.33L0,50.774Z" transform="matrix(0.839, 0.545, -0.545, 0.839, 27.653, 0)" fill="#1425dd"/>
    </g>
  </g>
</svg>
