<svg xmlns="http://www.w3.org/2000/svg" width="138.5" height="62.5" viewBox="0 0 138.5 62.5">
  <g id="Grupo_1075082" data-name="Grupo 1075082" transform="translate(-396.207 -7910.676)">
    <g id="Grupo_1073227" data-name="Grupo 1073227" transform="translate(-35.793 -76.074)">
      <g id="Grupo_893603" data-name="Grupo 893603" transform="translate(0 605.25)">
        <path id="Trazado_689814" data-name="Trazado 689814" d="M-5063-4303h58.3" transform="translate(5495 11701)" fill="none" stroke="#222b89" stroke-width="2"/>
        <path id="Polígono_31" data-name="Polígono 31" d="M7.5,0,15,12H0Z" transform="translate(494.5 7390.5) rotate(90)" fill="#222b89"/>
      </g>
      <g id="Grupo_893602" data-name="Grupo 893602" transform="translate(432 8025.25)">
        <path id="Trazado_689814-2" data-name="Trazado 689814" d="M-5004.7-4303H-5063" transform="translate(5067.203 4310.5)" fill="none" stroke="#222b89" stroke-width="2"/>
        <path id="Polígono_31-2" data-name="Polígono 31" d="M7.5,0,15,12H0Z" transform="translate(0 15) rotate(-90)" fill="#222b89"/>
      </g>
    </g>
    <g id="Grupo_1073225" data-name="Grupo 1073225" transform="translate(-35.793 -76.074)">
      <g id="Grupo_893600" data-name="Grupo 893600" transform="translate(541 7986.75) rotate(90)">
        <path id="Trazado_689814-3" data-name="Trazado 689814" d="M0,0H58.3" transform="translate(0 7.5)" fill="none" stroke="#222b89" stroke-width="2"/>
        <path id="Polígono_31-3" data-name="Polígono 31" d="M7.5,0,15,12H0Z" transform="translate(62.5 0) rotate(90)" fill="#222b89"/>
      </g>
      <g id="Grupo_893601" data-name="Grupo 893601" transform="translate(-6835 8481.25) rotate(-90)">
        <path id="Trazado_689814-4" data-name="Trazado 689814" d="M-5063-4303h58.3" transform="translate(5495 11701)" fill="none" stroke="#222b89" stroke-width="2"/>
        <path id="Polígono_31-4" data-name="Polígono 31" d="M7.5,0,15,12H0Z" transform="translate(494.5 7390.5) rotate(90)" fill="#222b89"/>
      </g>
    </g>
  </g>
</svg>
