<svg xmlns="http://www.w3.org/2000/svg" xmlns:xlink="http://www.w3.org/1999/xlink" width="190" height="406" viewBox="0 0 190 406">
  <defs>
    <clipPath id="clip-path">
      <rect id="Rectángulo_376269" data-name="Rectángulo 376269" width="190" height="406" transform="translate(1229.957 8146)" fill="#222b89" opacity="0.76"/>
    </clipPath>
    <clipPath id="clip-path-2">
      <rect id="Rectángulo_376234" data-name="Rectángulo 376234" width="21.062" height="22.66" fill="none"/>
    </clipPath>
    <clipPath id="clip-path-3">
      <rect id="Rectángulo_376235" data-name="Rectángulo 376235" width="26.389" height="28.392" fill="none"/>
    </clipPath>
    <clipPath id="clip-path-4">
      <rect id="Rectángulo_376236" data-name="Rectángulo 376236" width="26.39" height="28.392" fill="none"/>
    </clipPath>
    <clipPath id="clip-path-5">
      <rect id="Rectángulo_376236-2" data-name="Rectángulo 376236" width="26.39" height="28.392" fill="#fff"/>
    </clipPath>
  </defs>
  <g id="Enmascarar_grupo_1044174" data-name="Enmascarar grupo 1044174" transform="translate(-1229.957 -8146)" clip-path="url(#clip-path)">
    <g id="Grupo_1073274" data-name="Grupo 1073274" transform="translate(1177.003 8269.998)" opacity="0.75">
      <ellipse id="Elipse_9848" data-name="Elipse 9848" cx="60.076" cy="60.075" rx="60.076" ry="60.075" transform="translate(89.118 106.075)" fill="#e600ff"/>
      <g id="Elipse_9849" data-name="Elipse 9849" transform="translate(0 0)" fill="#5deae5" stroke="#707070" stroke-width="1">
        <ellipse cx="66.076" cy="66.075" rx="66.076" ry="66.075" stroke="none"/>
        <ellipse cx="66.076" cy="66.075" rx="65.576" ry="65.575" fill="none"/>
      </g>
    </g>
    <path id="Rectángulo_376233" data-name="Rectángulo 376233" d="M13,0H60.138a0,0,0,0,1,0,0V353a0,0,0,0,1,0,0H0a0,0,0,0,1,0,0V13A13,13,0,0,1,13,0Z" transform="translate(1230 8199.998)" fill="#222b89"/>
    <g id="Grupo_1073283" data-name="Grupo 1073283" transform="translate(166.388 3664.973)">
      <g id="destello" transform="translate(1204.181 4506.266)">
        <path id="Trazado_820068" data-name="Trazado 820068" d="M27.073,16.921H15.483L26.227,0H12.691L0,25.381H9.983L0,49.07Z" transform="matrix(0.839, 0.545, -0.545, 0.839, 26.726, 0)" fill="#e8eaff"/>
      </g>
      <g id="destello-2" data-name="destello" transform="translate(1067.824 4534.722) rotate(-96)">
        <path id="Trazado_820070" data-name="Trazado 820070" d="M28.013,17.508H16.02L27.138,0H13.131L0,26.262H10.33L0,50.774Z" transform="matrix(0.839, 0.545, -0.545, 0.839, 27.653, 0)" fill="#1425dd"/>
      </g>
      <g id="Grupo_1073276" data-name="Grupo 1073276" transform="matrix(0.966, -0.259, 0.259, 0.966, 1139.025, 4766.43)">
        <g id="Grupo_1073275" data-name="Grupo 1073275" transform="translate(0 0)" clip-path="url(#clip-path-2)">
          <path id="Trazado_820072" data-name="Trazado 820072" d="M1.641,22.66,0,21.546c1.091-1.607,2.729-1.657,4.045-1.7,1.24-.038,1.966-.1,2.465-.829s.284-1.43-.139-2.6c-.448-1.238-1.006-2.779.085-4.386s2.729-1.657,4.045-1.7c1.24-.038,1.966-.095,2.464-.829s.284-1.43-.139-2.6c-.448-1.238-1.006-2.779.085-4.386S15.641.87,16.956.83C18.2.792,18.923.734,19.421,0l1.641,1.114c-1.091,1.608-2.729,1.658-4.045,1.7-1.24.038-1.966.1-2.465.83s-.284,1.43.139,2.6c.448,1.238,1.006,2.779-.085,4.386s-2.729,1.657-4.045,1.7c-1.24.038-1.966.1-2.465.829s-.284,1.43.139,2.6c.448,1.238,1.006,2.779-.085,4.386s-2.729,1.657-4.045,1.7c-1.24.038-1.966.1-2.465.829" transform="translate(0 0)" fill="#ff06cc"/>
        </g>
      </g>
      <g id="Grupo_1073278" data-name="Grupo 1073278" transform="translate(1084.267 4593.755) rotate(-82)">
        <g id="Grupo_1073277" data-name="Grupo 1073277" transform="translate(0 0)" clip-path="url(#clip-path-3)">
          <path id="Trazado_820073" data-name="Trazado 820073" d="M2.056,28.392,0,27c1.367-2.014,3.419-2.076,5.068-2.127,1.554-.047,2.463-.119,3.088-1.039s.355-1.792-.174-3.253c-.562-1.551-1.26-3.481.107-5.5s3.419-2.076,5.068-2.127c1.554-.047,2.463-.119,3.088-1.039s.355-1.792-.174-3.254c-.562-1.551-1.26-3.481.107-5.5S19.6,1.09,21.246,1.039C22.8.992,23.709.92,24.334,0L26.39,1.4C25.022,3.41,22.97,3.473,21.321,3.523c-1.554.047-2.464.119-3.088,1.039s-.355,1.792.174,3.254c.562,1.551,1.26,3.481-.107,5.5s-3.419,2.076-5.068,2.127c-1.554.047-2.463.119-3.088,1.039s-.355,1.792.174,3.253c.562,1.551,1.26,3.481-.107,5.5S6.793,27.3,5.144,27.353c-1.554.047-2.464.119-3.088,1.039" transform="translate(0 0)" fill="#ff06cc"/>
        </g>
      </g>
      <g id="Grupo_1073282" data-name="Grupo 1073282" transform="matrix(0.259, -0.966, 0.966, 0.259, 1075.617, 4816.453)">
        <line id="Línea_401" data-name="Línea 401" x2="34.339" y2="8.994" transform="translate(0 0)" fill="none" stroke="#fc20cc" stroke-linecap="round" stroke-width="3"/>
        <line id="Línea_402" data-name="Línea 402" x2="34.339" y2="8.994" transform="translate(236.055 49.845)" fill="none" stroke="#fc20cc" stroke-linecap="round" stroke-width="3"/>
      </g>
      <circle id="Elipse_9850" data-name="Elipse 9850" cx="8.319" cy="8.319" r="8.319" transform="translate(1135.492 4582.666)" fill="#fff"/>
      <ellipse id="Elipse_9851" data-name="Elipse 9851" cx="8.319" cy="7.487" rx="8.319" ry="7.487" transform="translate(1173.611 4822.911)" fill="#fff"/>
      <circle id="Elipse_9852" data-name="Elipse 9852" cx="4.991" cy="4.991" r="4.991" transform="translate(1243.63 4765.555)" fill="#fff"/>
      <ellipse id="Elipse_9853" data-name="Elipse 9853" cx="5.407" cy="4.991" rx="5.407" ry="4.991" transform="translate(1083.862 4697.938)" fill="#fff"/>
      <circle id="Elipse_9854" data-name="Elipse 9854" cx="4.991" cy="4.991" r="4.991" transform="translate(1142.148 4501.274)" fill="#fff"/>
      <circle id="Elipse_9855" data-name="Elipse 9855" cx="2.08" cy="2.08" r="2.08" transform="translate(1109.597 4685.917)" fill="#fff"/>
      <ellipse id="Elipse_9856" data-name="Elipse 9856" cx="2.08" cy="2.496" rx="2.08" ry="2.496" transform="translate(1200.231 4623.26)" fill="#fff"/>
      <circle id="Elipse_9857" data-name="Elipse 9857" cx="2.496" cy="2.496" r="2.496" transform="translate(1119.539 4741.387)" fill="#fff"/>
    </g>
    <g id="Grupo_1073340" data-name="Grupo 1073340" transform="matrix(0.719, 0.695, -0.695, 0.719, 1202.392, 8272.361)">
      <line id="Línea_403" data-name="Línea 403" x2="47.5" y2="12.44" transform="translate(21.901 -39.222)" fill="none" stroke="#fc20cc" stroke-linecap="round" stroke-width="3"/>
      <line id="Línea_404" data-name="Línea 404" x2="47.5" y2="12.44" transform="translate(265.643 26.603)" fill="none" stroke="#fc20cc" stroke-linecap="round" stroke-width="3"/>
    </g>
    <g id="_01" data-name="01" transform="translate(1119.949 8111.758)">
      <g id="CHARACTER" transform="translate(110.051 51.195)">
        <g id="Grupo_1073359" data-name="Grupo 1073359">
          <path id="Trazado_820224" data-name="Trazado 820224" d="M763.19,1700.9l-.406,78.585h68.131l-7.829-64.077Z" transform="translate(-703.616 -1390.497)" fill="#1b1a2e"/>
          <path id="Trazado_820225" data-name="Trazado 820225" d="M763.19,944.2l16.824,4.747-1.057,28.7c23.258,13.207,52.364,16.2,52.364,16.2l.212-49.749a109.24,109.24,0,0,1,10.418-45.951l12.918-27.419c4.545,2.411,9.112,4.541,13.516,4.436,9.735-.229,13.7-9.07,13.7-9.07s9.45-27.257,10.674-41.074c.935-10.546-4.923-20.593-13.407-26.93-6.144-4.585-26.327-22.485-26.327-22.485s1.092-8.013-7.312-12.422c-11.275-5.919-26.312-11.725-35.132-15.526-4.258-1.836-9.063-2.443-13.733.63L763.192,743V944.2Z" transform="translate(-703.616 -633.797)" fill="#f9a21b"/>
          <path id="Trazado_820226" data-name="Trazado 820226" d="M842.355,816.759a26.4,26.4,0,0,1-4.823,7.639,22.691,22.691,0,0,0-4.337,7.16c-7.326,19.616-36.425,97.544-46.942,125.723a94.72,94.72,0,0,0-5.211,21.086l-1.027,8.036-10.181-2.871-6.644-1.874V957.391s9.767-38.108,19.017-78.821a.1.1,0,0,1,0-.011h0c5.541-24.4,10.9-49.73,13.854-68.354,1.246-7.839,3.961-12.949,6.221-16.007h0a17.214,17.214,0,0,1,3.6-3.779c8.946,5.81,20.122,13.165,38.114,16.73A20.548,20.548,0,0,1,842.355,816.759Z" transform="translate(-703.616 -671.257)" fill="#1f4168"/>
          <g id="Grupo_1073357" data-name="Grupo 1073357" transform="translate(91.704 4.772)">
            <g id="Grupo_1073355" data-name="Grupo 1073355" transform="translate(3.66 35.124)">
              <g id="Grupo_1073351" data-name="Grupo 1073351">
                <path id="Trazado_820227" data-name="Trazado 820227" d="M1000.723,670.388,960.334,653.04l-11,32.632h0c3.537,11.861,12.871,24.35,12.871,24.35a125.316,125.316,0,0,0,27.2-1.787,22.256,22.256,0,0,0,1.708-8.16h0Z" transform="translate(-946.023 -602.628)" fill="#ffc89f"/>
                <path id="Trazado_820228" data-name="Trazado 820228" d="M952.974,500.276h0a28.019,28.019,0,0,0,35.289-18.02l10.548-32.563a28.019,28.019,0,0,0-18.02-35.289h0a28.019,28.019,0,0,0-35.289,18.02l-10.548,32.563A28.019,28.019,0,0,0,952.974,500.276Z" transform="translate(-933.583 -413.033)" fill="#ffc89f"/>
                <path id="Trazado_820229" data-name="Trazado 820229" d="M953.474,779.76,952.01,784.1s3.367,2.583,11.47,3.2c0,0-5.734-1.09-10.006-7.54Z" transform="translate(-948.14 -702.623)" fill="#f5b687"/>
              </g>
              <g id="Grupo_1073354" data-name="Grupo 1073354" transform="translate(14.724 21.569)">
                <g id="Grupo_1073352" data-name="Grupo 1073352" transform="translate(0 7.881)">
                  <path id="Trazado_820230" data-name="Trazado 820230" d="M1003.807,575.378a2.521,2.521,0,1,0,3.176-1.622A2.521,2.521,0,0,0,1003.807,575.378Z" transform="translate(-1003.683 -569.35)" fill="#1b1b2f"/>
                  <path id="Trazado_820231" data-name="Trazado 820231" d="M1006.484,553.96a7.431,7.431,0,0,1,5.56-.332,1.893,1.893,0,0,1,.336.124l.328.145.328.145c.107.052.208.12.311.179.2.126.409.246.609.376.189.147.374.3.559.447l.275.225.248.256.494.51c.3.366.576.75.851,1.13-.33-.338-.624-.7-.956-1.031l-.517-.473-.256-.235-.281-.2q-.284-.2-.561-.41c-.2-.12-.4-.229-.6-.345-.1-.055-.2-.12-.3-.168l-.317-.137a4.972,4.972,0,0,0-.643-.254,7.873,7.873,0,0,0-2.722-.429c-.231,0-.462.023-.7.034-.231.027-.462.057-.691.1a7.913,7.913,0,0,0-1.359.349Z" transform="translate(-1005.893 -553.239)" fill="#1b1b2f"/>
                </g>
                <g id="Grupo_1073353" data-name="Grupo 1073353" transform="translate(25.18 16.039)">
                  <path id="Trazado_820232" data-name="Trazado 820232" d="M1123.687,614.218a2.522,2.522,0,1,0,3.176-1.622A2.521,2.521,0,0,0,1123.687,614.218Z" transform="translate(-1123.563 -608.19)" fill="#1b1b2f"/>
                  <path id="Trazado_820233" data-name="Trazado 820233" d="M1126.365,592.8a7.431,7.431,0,0,1,5.56-.332,1.894,1.894,0,0,1,.336.124l.328.145.328.145c.107.052.208.12.311.179.2.126.41.246.609.376.189.147.374.3.559.447l.275.225.248.256.494.51c.3.365.575.75.85,1.13-.33-.338-.624-.7-.956-1.031l-.517-.473-.256-.235-.281-.2q-.283-.2-.561-.41c-.2-.12-.4-.229-.6-.345-.1-.055-.2-.12-.3-.168l-.317-.137a5.017,5.017,0,0,0-.643-.254,7.871,7.871,0,0,0-2.722-.428c-.231,0-.462.023-.7.034-.231.027-.462.057-.691.1a7.92,7.92,0,0,0-1.359.349Z" transform="translate(-1125.773 -592.079)" fill="#1b1b2f"/>
                </g>
                <path id="Trazado_820234" data-name="Trazado 820234" d="M1040.189,634.87c-.422,1.008-.874,2-1.332,2.991s-.929,1.974-1.4,2.958a6.9,6.9,0,0,0-.609,1.481,4.532,4.532,0,0,0-.134,1.575,2.714,2.714,0,0,0,.55,1.46c.342.424.7.84,1.031,1.271-.386-.386-.761-.781-1.141-1.176a2.879,2.879,0,0,1-.666-1.527,4.426,4.426,0,0,1,.088-1.67,7.092,7.092,0,0,1,.615-1.544c.481-.979.962-1.958,1.464-2.926s1-1.939,1.535-2.892Z" transform="translate(-1029.564 -609.844)" fill="#1b1b2f"/>
                <path id="Trazado_820235" data-name="Trazado 820235" d="M1036.961,712.149a5.506,5.506,0,0,1-1.115,1.288,5.286,5.286,0,0,1-3.377,1.262,4.867,4.867,0,0,1-1.869-.349,5.179,5.179,0,0,1-.83-.41,5.3,5.3,0,0,1-.714-.546,4.906,4.906,0,0,1-1.615-2.945c.819.262,1.519.536,2.157.752.227.08.443.147.657.206.2.069.4.1.59.153.191.031.378.082.559.1a6.241,6.241,0,0,0,1.05.082,9.32,9.32,0,0,0,2.266-.332c.382-.1.773-.212,1.2-.342.5-.157,1.046-.332,1.651-.515a4.2,4.2,0,0,1-.6,1.59Z" transform="translate(-1022.45 -669.549)" fill="#e43f5a"/>
                <path id="Trazado_820236" data-name="Trazado 820236" d="M1044.008,713.394a3.871,3.871,0,0,1-3.209,1.727,3.771,3.771,0,0,1-2.687-1.088,4.223,4.223,0,0,1-.422-.51c.227.08.443.147.657.206.2.069.4.1.59.153.191.031.378.082.558.1a6.226,6.226,0,0,0,1.05.082,9.316,9.316,0,0,0,2.266-.332c.382-.1.773-.212,1.2-.342Z" transform="translate(-1030.547 -671.871)" fill="#fff"/>
                <path id="Trazado_820237" data-name="Trazado 820237" d="M1016.81,517.634a3.739,3.739,0,0,1,1.193-1.126,5.747,5.747,0,0,1,.725-.37c.126-.052.254-.094.384-.137a2.943,2.943,0,0,1,.4-.116,5.8,5.8,0,0,1,3.293.16,4.913,4.913,0,0,1,.773.328l.372.191c.12.069.231.151.345.233.225.162.445.328.653.5.194.193.376.4.553.6.09.1.174.206.256.311s.147.225.212.344c.137.231.26.468.374.706a4.72,4.72,0,0,1,.244.771,4.631,4.631,0,0,1,.13.809,10.971,10.971,0,0,1-1.432-.584c-.223-.09-.437-.181-.636-.275-.1-.044-.2-.1-.294-.147s-.206-.074-.3-.118c-.2-.082-.386-.164-.567-.254-.191-.071-.378-.137-.557-.216-.092-.036-.174-.084-.267-.116s-.183-.061-.273-.093l-.267-.1-.13-.057-.136-.038a21.408,21.408,0,0,0-2.254-.643c-.821-.2-1.691-.353-2.785-.565Z" transform="translate(-1014.053 -515.72)" fill="#1b1b2f"/>
                <path id="Trazado_820238" data-name="Trazado 820238" d="M1136.69,556.477a3.739,3.739,0,0,1,1.193-1.126,5.729,5.729,0,0,1,.725-.37c.126-.052.254-.094.384-.137a2.915,2.915,0,0,1,.395-.115,5.818,5.818,0,0,1,3.293.16,4.914,4.914,0,0,1,.773.328l.372.191a4.116,4.116,0,0,1,.345.233c.225.162.445.328.653.5.193.193.376.4.552.6.091.1.174.206.256.311s.147.225.212.345c.136.231.26.468.374.706a4.706,4.706,0,0,1,.243.771,4.613,4.613,0,0,1,.13.809,10.932,10.932,0,0,1-1.432-.584c-.223-.09-.437-.181-.636-.275-.1-.044-.2-.1-.294-.147s-.206-.074-.3-.118c-.2-.082-.386-.164-.567-.254-.191-.071-.378-.137-.557-.216-.092-.036-.174-.084-.267-.115s-.183-.061-.273-.092l-.267-.1-.13-.057-.137-.038a21.383,21.383,0,0,0-2.254-.643c-.821-.2-1.691-.353-2.785-.565Z" transform="translate(-1108.753 -546.406)" fill="#1b1b2f"/>
              </g>
            </g>
            <path id="Trazado_820239" data-name="Trazado 820239" d="M979.125,316.258l2.264-7.469a69.76,69.76,0,0,0-38.039-18.4s-5.854,4.419-9.536,13.642c0,0,4.167.416,5.455-2.962,0,0,1.663,1.2.393,3.688,0,0,1.063-.895,1.4-3.726l.92,1.071a3.4,3.4,0,0,1,.67,3.251c-2.308,7.158-13.552,5.539-17.27,1.5-10.267-3.743-12.142-12.525-4.73-19.076C918.4,275.147,933.3,275.6,933.3,275.6c-4.783-12.676,6.833-23.294,6.833-23.294a39.243,39.243,0,0,0-2.39,7.748c2.037-10.563,14.31-14.249,14.31-14.249-7.874,29.774,36.182,29.568,36.182,29.568,10.908,28.244,25,30.469,25,30.469a9.757,9.757,0,0,1-5.262.941l1.806,1.122c3.8,25.463-10.84,36.419-10.84,36.419a70.439,70.439,0,0,0,1.687-7.2c-.057.191-.113.382-.172.569A20.178,20.178,0,0,1,985.5,351.2c-13.5,3.016-15.8,12.378-15.8,12.378l11.239-35.548-1.588-4.287a11.738,11.738,0,0,1-.225-7.48Z" transform="translate(-916.158 -245.81)" fill="#1b1a2e"/>
            <g id="Grupo_1073356" data-name="Grupo 1073356" transform="translate(54.942 83.303)">
              <rect id="Rectángulo_376267" data-name="Rectángulo 376267" width="11.882" height="19.729" rx="5.941" transform="translate(11.304 22.431) rotate(-162.05)" fill="#ffc89f"/>
              <path id="Trazado_820240" data-name="Trazado 820240" d="M1221.772,662.82a4.664,4.664,0,0,1,1.42.557,4.771,4.771,0,0,1,1.166,1.029,4.838,4.838,0,0,1,.859,4.489c-.16.492-.326.952-.5,1.424-.349.939-.718,1.871-1.145,2.785.191-.989.439-1.962.705-2.928.124-.481.288-.969.406-1.437a4.5,4.5,0,0,0,.166-1.4,4.4,4.4,0,0,0-.237-1.386,4.816,4.816,0,0,0-.62-1.275,5.4,5.4,0,0,0-.966-1.069,6.429,6.429,0,0,0-1.252-.792Z" transform="translate(-1212.521 -658.533)" fill="#ff9a6c"/>
              <path id="Trazado_820241" data-name="Trazado 820241" d="M1212.349,701.29a2.14,2.14,0,0,1-.487-.773,2.883,2.883,0,0,1-.074-1.8,2.155,2.155,0,0,1,.422-.809c.029.311.029.594.038.872l.023.817.042.817c.015.279.038.561.033.872Z" transform="translate(-1204.548 -686.252)" fill="#ff9a6c"/>
            </g>
            <path id="Trazado_820242" data-name="Trazado 820242" d="M981.092,470.527a5.622,5.622,0,0,1-3.146-1.164,4.96,4.96,0,0,1-1.12-1.292,5.469,5.469,0,0,1-.655-1.586,6.593,6.593,0,0,1,.122-3.4,8.089,8.089,0,0,1,1.663-2.983,9.446,9.446,0,0,1,2.7-2.084,11.919,11.919,0,0,1,3.214-1.128,19,19,0,0,1,6.753,0c-.563-.042-1.122-.109-1.684-.139-.563-.008-1.124-.057-1.687-.019l-.842.025-.838.082c-.139.015-.279.023-.418.046l-.414.071c-.275.053-.555.084-.826.155a12.425,12.425,0,0,0-3.134,1.143,9.209,9.209,0,0,0-2.607,2.042,7.8,7.8,0,0,0-1.628,2.863,6.615,6.615,0,0,0-.16,3.277,5.238,5.238,0,0,0,.594,1.542,4.843,4.843,0,0,0,1.052,1.275,5.689,5.689,0,0,0,3.054,1.273Z" transform="translate(-963.434 -412.311)" fill="#1f4168"/>
            <path id="Trazado_820243" data-name="Trazado 820243" d="M970.544,502.622a7.12,7.12,0,0,0,.428,2.2,9.3,9.3,0,0,0,.987,2,9.474,9.474,0,0,0,3.153,3.09,6.022,6.022,0,0,0,2.054.773,4.554,4.554,0,0,0,2.17-.16,4.97,4.97,0,0,0,1.872-1.159,9.485,9.485,0,0,0,1.411-1.746,8.654,8.654,0,0,1-1.308,1.848,5.119,5.119,0,0,1-1.9,1.271,4.533,4.533,0,0,1-2.288.21,6.289,6.289,0,0,1-2.161-.784,9.411,9.411,0,0,1-3.195-3.226,7.809,7.809,0,0,1-1.224-4.321Z" transform="translate(-959.115 -448.679)" fill="#1f4168"/>
            <path id="Trazado_820244" data-name="Trazado 820244" d="M937.55,428.1a19.68,19.68,0,0,1,4.785-2.84,23.006,23.006,0,0,1,5.364-1.546,22.67,22.67,0,0,1,5.581-.164c.462.061.926.1,1.386.185l.689.116.683.147a24.527,24.527,0,0,1,2.676.777,27.778,27.778,0,0,0-5.453-1,24.656,24.656,0,0,0-8.219.8,27.107,27.107,0,0,0-2.621.889,23.477,23.477,0,0,0-2.512,1.168A19.075,19.075,0,0,0,937.55,428.1Z" transform="translate(-933.057 -386.139)" fill="#1f4168"/>
            <path id="Trazado_820245" data-name="Trazado 820245" d="M952.11,415.409a4.671,4.671,0,0,1,1.388-1.147,7.764,7.764,0,0,1,.821-.395c.288-.1.573-.2.868-.279a9.825,9.825,0,0,1,3.621-.187l.452.05c.149.021.3.059.445.088l.888.183c.294.069.58.168.872.25s.582.164.863.275c.559.229,1.124.435,1.674.683.538.273,1.078.536,1.609.815-.561-.218-1.111-.456-1.666-.68s-1.128-.4-1.689-.6c-.573-.164-1.147-.33-1.722-.477l-.876-.168c-.147-.025-.292-.061-.439-.08l-.443-.044c-.294-.027-.588-.082-.884-.086l-.888-.015c-.3.017-.59.046-.884.069s-.582.1-.876.145c-.29.061-.571.153-.857.233a7.733,7.733,0,0,0-.817.347,4.94,4.94,0,0,0-1.458,1.021Z" transform="translate(-944.559 -378.133)" fill="#1f4168"/>
            <path id="Trazado_820246" data-name="Trazado 820246" d="M997.78,387.65a14.437,14.437,0,0,1,3.623.685,16.08,16.08,0,0,1,3.369,1.533,17.288,17.288,0,0,1,1.527,1.057l.7.609c.113.105.239.2.344.311l.317.34c.208.229.431.443.624.685l.565.735a6.269,6.269,0,0,1,.506.773q.239.394.471.792c-.181-.248-.361-.5-.536-.748a6.446,6.446,0,0,0-.557-.727l-.59-.7c-.2-.231-.431-.431-.645-.649-.42-.441-.907-.809-1.367-1.208-.5-.347-.981-.72-1.514-1.017a17.334,17.334,0,0,0-3.289-1.573l-.867-.29c-.294-.08-.586-.172-.882-.244A15.26,15.26,0,0,0,997.78,387.65Z" transform="translate(-980.636 -357.858)" fill="#1f4168"/>
            <path id="Trazado_820247" data-name="Trazado 820247" d="M1018.334,313.64a8.57,8.57,0,0,0,.334,3.972,10,10,0,0,0,1.941,3.47,13.717,13.717,0,0,0,3.01,2.615,21.278,21.278,0,0,0,3.56,1.834,37.464,37.464,0,0,0,7.751,2.1l.993.172,1,.136,1,.137c.334.044.668.069,1,.105.67.063,1.336.158,2.008.2l2.015.151a61.61,61.61,0,0,1-8.055-.67l-1-.155c-.332-.061-.662-.134-.994-.2l-.991-.206-.983-.248a31.17,31.17,0,0,1-3.859-1.246,21.642,21.642,0,0,1-3.6-1.882,13.222,13.222,0,0,1-3.037-2.695,10.115,10.115,0,0,1-1.9-3.573,9.232,9.232,0,0,1-.34-2,7.276,7.276,0,0,1,.143-2.014Z" transform="translate(-996.746 -299.393)" fill="#1f4168"/>
            <path id="Trazado_820248" data-name="Trazado 820248" d="M1271.38,503.424a21.013,21.013,0,0,0,3.68,3.018c.338.206.666.433,1.01.628s.689.395,1.038.582l1.069.519c.357.17.731.3,1.1.456a21.385,21.385,0,0,0,4.566,1.283,20.65,20.65,0,0,0,2.363.294,10.7,10.7,0,0,0,1.191.053l1.2.027-1.2.05a10.9,10.9,0,0,1-1.2.013,20.707,20.707,0,0,1-2.39-.214,20.208,20.208,0,0,1-4.64-1.235,20.669,20.669,0,0,1-4.23-2.273c-.334-.22-.643-.479-.966-.714s-.62-.508-.924-.767a15.717,15.717,0,0,1-1.663-1.724Z" transform="translate(-1196.768 -449.311)" fill="#1f4168"/>
            <path id="Trazado_820249" data-name="Trazado 820249" d="M1254.531,459.61q-.132,1.267-.153,2.539c-.019.846,0,1.693.054,2.537a17.939,17.939,0,0,0,.96,4.944,8.1,8.1,0,0,0,2.888,4,8.259,8.259,0,0,0,4.806,1.262l-.636.027a4.332,4.332,0,0,1-.639,0l-.639-.04-.632-.105a7.015,7.015,0,0,1-2.384-.949,8.186,8.186,0,0,1-3.037-4.081,17.321,17.321,0,0,1-.91-5.033,24.232,24.232,0,0,1,.326-5.087Z" transform="translate(-1183.19 -414.703)" fill="#1f4168"/>
            <path id="Trazado_820250" data-name="Trazado 820250" d="M1317.51,607.632q.334-1.235.607-2.483t.5-2.5a48.307,48.307,0,0,0,.651-5.056,31.9,31.9,0,0,0,.023-5.087,19.379,19.379,0,0,0-1.015-4.982,15.608,15.608,0,0,1,.813,2.428,21.062,21.062,0,0,1,.428,2.531,29.477,29.477,0,0,1,.044,5.131,43.009,43.009,0,0,1-.722,5.077,40.121,40.121,0,0,1-1.33,4.944Z" transform="translate(-1233.209 -515.746)" fill="#1f4168"/>
          </g>
          <path id="Trazado_820251" data-name="Trazado 820251" d="M1131.716,1140.52l-7.469,31.042-10.636,46.806.233-9.836a101.514,101.514,0,0,1,5.121-29.517Z" transform="translate(-980.433 -947.821)" fill="#a65b3c" opacity="0.4"/>
          <path id="Trazado_820252" data-name="Trazado 820252" d="M882.182,847.276s-1.533-5.251-5.623-4.148a12.3,12.3,0,0,1-3.239,4.148s5.841-4.1,8.86,0Z" transform="translate(-790.614 -712.773)" fill="#a65b3c" opacity="0.4"/>
          <path id="Trazado_820253" data-name="Trazado 820253" d="M1117.49,962.262s4.861-3.35,7.833,2.334a9.272,9.272,0,0,0-.756,3.8s-2.3-8.4-7.077-6.129Z" transform="translate(-983.498 -806.23)" fill="#a65b3c" opacity="0.4"/>
          <path id="Trazado_820254" data-name="Trazado 820254" d="M928.269,993.29c-10.882,30.864-14.237,82.532-43.153,121.56l-.876-3.64C895.912,1079.943,920.7,1013.559,928.269,993.29Z" transform="translate(-799.241 -831.515)" fill="#a65b3c" opacity="0.4"/>
          <path id="Trazado_820255" data-name="Trazado 820255" d="M795.011,914.762v.011c-8.847,51.189-31.821,140.842-31.821,140.842v-42.462c23.617-57.085,31.821-98.392,31.821-98.392Z" transform="translate(-703.616 -769.48)" fill="#a65b3c" opacity="0.4"/>
          <path id="Trazado_820256" data-name="Trazado 820256" d="M968.579,1452.08l-10.586,15.184-2.283-2.18S964.236,1457.409,968.579,1452.08Z" transform="translate(-855.699 -1193.94)" fill="#a65b3c" opacity="0.4"/>
          <path id="Trazado_820257" data-name="Trazado 820257" d="M782.207,1210.1s-11.828,63.83-15.409,104.105l-3.608-1.016v-24.268S772.957,1250.813,782.207,1210.1Z" transform="translate(-703.616 -1002.786)" fill="#1f4168" opacity="0.4"/>
          <path id="Trazado_820258" data-name="Trazado 820258" d="M1178.351,898.21c-.08,1.153-.181,2.306-.277,3.459l-.328,3.453c-.229,2.3-.491,4.6-.76,6.9-.286,2.3-.576,4.589-.9,6.881s-.679,4.577-1.063,6.858l.454-3.438q.23-1.72.449-3.438c.294-2.294.588-4.587.855-6.883.288-2.294.546-4.592.809-6.89l.764-6.9Z" transform="translate(-1028.944 -756.406)" fill="#a65b3c"/>
          <path id="Trazado_820259" data-name="Trazado 820259" d="M1108.13,963.32a9.785,9.785,0,0,1,2.386-1.756,6.281,6.281,0,0,1,2.875-.765,4.354,4.354,0,0,1,1.481.273,4.68,4.68,0,0,1,1.294.765,5.52,5.52,0,0,1,.538.523,6.258,6.258,0,0,1,.472.578c.149.2.269.416.406.624s.233.437.346.655a8.1,8.1,0,0,0-1.863-2.252,5,5,0,0,0-1.258-.71,4.232,4.232,0,0,0-1.418-.242,6.357,6.357,0,0,0-2.8.7,10.1,10.1,0,0,0-1.275.729,11.451,11.451,0,0,0-1.183.882Z" transform="translate(-976.104 -805.849)" fill="#a65b3c"/>
          <path id="Trazado_820260" data-name="Trazado 820260" d="M931.574,993.132c-1.766,5.117-3.218,10.336-4.552,15.581s-2.556,10.519-3.774,15.791c-2.43,10.548-4.86,21.1-7.816,31.523a231.018,231.018,0,0,1-10.849,30.6,161.136,161.136,0,0,1-7.3,14.5,137.037,137.037,0,0,1-8.87,13.594,137.555,137.555,0,0,0,8.782-13.644,161.7,161.7,0,0,0,7.265-14.508q3.277-7.426,5.925-15.109c1.775-5.112,3.375-10.284,4.85-15.489,2.974-10.407,5.43-20.956,7.881-31.5,1.231-5.27,2.46-10.544,3.812-15.787s2.852-10.45,4.65-15.556Z" transform="translate(-802.535 -831.389)" fill="#a65b3c"/>
          <path id="Trazado_820261" data-name="Trazado 820261" d="M795.011,914.77c-1.745,8.45-3.915,16.81-6.234,25.119s-4.844,16.564-7.509,24.772l-2.065,6.133-1.038,3.065-1.077,3.052-2.157,6.1-2.245,6.07-1.122,3.035c-.376,1.01-.775,2.012-1.161,3.02l-2.338,6.035-.588,1.506-.613,1.5-1.225,3-2.449,5.99,2.4-6.009,1.2-3,.6-1.5.576-1.512,2.321-6.041c.384-1.008.781-2.01,1.153-3.022l1.113-3.037,2.229-6.075,2.14-6.106,1.069-3.054,1.027-3.066,2.048-6.137q4.03-12.3,7.574-24.745l.878-3.113c.29-1.04.563-2.081.846-3.123l.838-3.125.807-3.132C793.083,923.18,794.117,918.99,795.011,914.77Z" transform="translate(-703.616 -769.488)" fill="#a65b3c"/>
          <path id="Trazado_820262" data-name="Trazado 820262" d="M911.189,1592.13c.027,1.512.092,3.023.172,4.533l.124,2.264.151,2.262c.214,3.016.487,6.026.838,9.03.158,1.5.361,3,.553,4.5l.326,2.243.164,1.122.183,1.119.365,2.237.414,2.228.2,1.115.229,1.111.46,2.222c-.691-2.943-1.342-5.9-1.832-8.887l-.2-1.117-.17-1.122-.336-2.245c-.2-1.5-.407-3-.571-4.5-.332-3.007-.609-6.022-.79-9.042l-.124-2.266-.095-2.266c-.044-1.512-.076-3.024-.069-4.537Z" transform="translate(-820.527 -1304.573)" fill="#a65b3c"/>
          <path id="Trazado_820263" data-name="Trazado 820263" d="M1172.643,1121.61l-.96,4.4-.994,4.39c-.668,2.926-1.361,5.845-2.052,8.765s-1.409,5.833-2.138,8.744l-1.1,4.365-1.136,4.354,4.173-17.511Z" transform="translate(-1020.444 -932.883)" fill="#a65b3c"/>
          <path id="Trazado_820264" data-name="Trazado 820264" d="M977.172,1399.37c-1.5,2.237-3.1,4.409-4.757,6.536s-3.386,4.2-5.159,6.226-3.632,3.987-5.545,5.888-3.926,3.7-5.99,5.427l1.5-1.349c.25-.225.5-.448.75-.677l.731-.7c.487-.464.981-.922,1.464-1.391l1.428-1.428c1.886-1.92,3.737-3.877,5.5-5.911q2.675-3.025,5.19-6.188l1.252-1.586,1.231-1.6c.819-1.069,1.624-2.149,2.4-3.249Z" transform="translate(-855.707 -1152.301)" fill="#a65b3c"/>
          <path id="Trazado_820265" data-name="Trazado 820265" d="M1151.607,977.042a9.655,9.655,0,0,0-.452,1.579,10.048,10.048,0,0,0-.206,1.624,8.016,8.016,0,0,0,.468,3.2,7.311,7.311,0,0,0,1.771,2.7,11.291,11.291,0,0,0,2.67,1.888c-.248-.116-.5-.229-.746-.353s-.487-.258-.718-.412-.464-.3-.68-.475c-.109-.086-.223-.166-.328-.256l-.311-.277a7.228,7.228,0,0,1-1.855-2.741,7.912,7.912,0,0,1-.432-3.283,9.3,9.3,0,0,1,.819-3.193Z" transform="translate(-1009.783 -818.678)" fill="#a65b3c"/>
          <path id="Trazado_820266" data-name="Trazado 820266" d="M1198.55,1249.433a52.136,52.136,0,0,1,7.975.269,54.934,54.934,0,0,1,7.862,1.411c1.292.332,2.565.729,3.82,1.174a37.216,37.216,0,0,1,3.7,1.521,34.132,34.132,0,0,1,3.506,1.917,32.3,32.3,0,0,1,3.229,2.348,33.9,33.9,0,0,0-6.8-4.119c-1.208-.548-2.434-1.059-3.691-1.487s-2.522-.825-3.81-1.151a57.161,57.161,0,0,0-7.826-1.456q-1.979-.239-3.97-.347c-1.327-.078-2.657-.118-3.987-.082Z" transform="translate(-1047.532 -1033.817)" fill="#a65b3c"/>
          <path id="Trazado_820267" data-name="Trazado 820267" d="M858.18,768.15c-.886.685-1.735,1.416-2.567,2.163-.412.378-.832.75-1.231,1.141l-.607.58-.595.592c-1.579,1.584-3.107,3.22-4.541,4.938-.367.42-.71.863-1.067,1.294s-.71.865-1.044,1.313L845.51,781.5l-.981,1.361c-.67.9-1.271,1.84-1.9,2.768-.321.458-.6.941-.905,1.414l-.895,1.422.847-1.451c.288-.481.557-.972.865-1.441.611-.939,1.2-1.895,1.855-2.8.321-.46.636-.922.968-1.376l1.014-1.342c.332-.452.685-.886,1.04-1.323s.7-.88,1.063-1.3l1.1-1.271c.372-.42.756-.828,1.134-1.241s.771-.815,1.159-1.218c.2-.2.389-.405.588-.6l.6-.584a47.023,47.023,0,0,1,5.113-4.361Z" transform="translate(-764.948 -653.664)" fill="#a65b3c"/>
          <path id="Trazado_820268" data-name="Trazado 820268" d="M894.886,848.972c-.1-.4-.206-.79-.336-1.176s-.263-.769-.422-1.143a9.347,9.347,0,0,0-1.176-2.111,4.476,4.476,0,0,0-1.834-1.5,3.582,3.582,0,0,0-1.168-.252,4.822,4.822,0,0,0-1.21.111,4.371,4.371,0,0,1,1.21-.214,3.7,3.7,0,0,1,1.224.2,4.48,4.48,0,0,1,1.943,1.523,8.863,8.863,0,0,1,1.159,2.178A11.391,11.391,0,0,1,894.886,848.972Z" transform="translate(-802.796 -712.548)" fill="#a65b3c"/>
          <path id="Trazado_820269" data-name="Trazado 820269" d="M850.885,843.692a12.027,12.027,0,0,1-1.647,2.7,8.873,8.873,0,0,1-2.38,2.1,6,6,0,0,1-1.487.594,4.687,4.687,0,0,1-1.594.132,6.3,6.3,0,0,1-2.958-1.084l.353.179a3.9,3.9,0,0,0,.353.172,6.184,6.184,0,0,0,.733.279,5.352,5.352,0,0,0,4.495-.456,9.1,9.1,0,0,0,2.361-2.025,13.141,13.141,0,0,0,.951-1.25,13.906,13.906,0,0,0,.819-1.346Z" transform="translate(-764.94 -713.338)" fill="#a65b3c"/>
          <path id="Trazado_820270" data-name="Trazado 820270" d="M930.7,842.91q.63,1.56,1.315,3.094t1.4,3.056c.958,2.025,1.958,4.031,3.023,6,.517.993,1.071,1.966,1.613,2.947.567.964,1.117,1.941,1.708,2.894l.874,1.435.909,1.414.452.708.47.7.939,1.395c-1.323-1.809-2.607-3.65-3.781-5.562l-.45-.712-.431-.723-.855-1.449c-.546-.979-1.111-1.949-1.632-2.943-1.052-1.983-2.056-3.989-2.983-6.032s-1.806-4.108-2.567-6.217Z" transform="translate(-835.942 -712.721)" fill="#1b1a2e"/>
          <path id="Trazado_820271" data-name="Trazado 820271" d="M1017.913,950.582a65.491,65.491,0,0,1-6.635,1.025c-.557.061-1.113.124-1.672.164s-1.115.1-1.674.132l-1.676.107-1.678.073c-2.239.061-4.48.09-6.717,0-1.12-.027-2.237-.107-3.354-.174-.559-.029-1.115-.092-1.674-.143l-1.672-.16c2.233.143,4.466.281,6.7.315,2.235.059,4.472.031,6.707-.044s4.466-.225,6.692-.429c1.113-.1,2.224-.227,3.333-.367s2.216-.3,3.319-.5Z" transform="translate(-883.703 -797.776)" fill="#1b1a2e"/>
          <rect id="Rectángulo_376268" data-name="Rectángulo 376268" width="0.815" height="369.044" transform="translate(58.761)" fill="#1b1a2e"/>
          <g id="Grupo_1073358" data-name="Grupo 1073358" transform="translate(38.636 36.837)">
            <path id="Trazado_820272" data-name="Trazado 820272" d="M684.444,446.816a32.13,32.13,0,0,1,5.463-1.229,6.083,6.083,0,0,0,1.844-.479c1.691-.748,5.4-2.235,8.219-2.264,3.764-.038-.79-7.893-9.769-4.394a8.558,8.558,0,0,0-.836-10.233s5.23-3.237,1.294-10.538c0,0,4.526-3.006,1.065-8.675,0,0,3.8-9.254-7.28-10.534v4.646l-1.682,1.445s-7.059-2.42-9.479,3.331c0,0-5.19-.485-8.164,1.374a2.713,2.713,0,0,0,.756,4.894l.073.019s-2.819.985-2.4,3.35c.355,2,2.964,3.245,2.964,3.245s-1.178,4.029,3.592,6.9,7.412,4.655,7.412,4.655l6.929,5.4v9.074Z" transform="translate(-663.507 -398.47)" fill="#ffc89f"/>
            <path id="Trazado_820273" data-name="Trazado 820273" d="M700.647,512.1a2.863,2.863,0,0,1-.718.269,4.449,4.449,0,0,1-.76.118,6.3,6.3,0,0,1-1.538-.088,9.8,9.8,0,0,1-2.888-1.033,14.622,14.622,0,0,1-1.311-.8,12.093,12.093,0,0,0-1.3-.786,20.856,20.856,0,0,0-2.808-1.183c-.962-.33-1.932-.632-2.907-.924l-2.93-.853c-.979-.281-1.953-.576-2.922-.9-.483-.162-.962-.338-1.435-.534a6.264,6.264,0,0,1-1.346-.727l.013-.017a6.669,6.669,0,0,0,1.374.645c.475.176.962.326,1.447.477.973.3,1.953.563,2.932.849,1.957.559,3.915,1.141,5.816,1.878.949.37,1.888.769,2.8,1.225s1.75,1.054,2.661,1.493a10.991,10.991,0,0,0,2.838,1.029,6.682,6.682,0,0,0,1.5.137,3.981,3.981,0,0,0,1.474-.294l.01.019Z" transform="translate(-674.782 -482.348)" fill="#ff9a6c"/>
            <path id="Trazado_820274" data-name="Trazado 820274" d="M699.579,475.995a3.192,3.192,0,0,1-.666.454c-.12.063-.244.116-.366.174l-.38.141a6.821,6.821,0,0,1-1.59.292,9.714,9.714,0,0,1-3.195-.412c-1.04-.3-2-.783-3-1.162-.991-.4-2.008-.737-3.025-1.059s-2.05-.6-3.084-.863-2.077-.494-3.125-.678a30.4,30.4,0,0,0-3.167-.416,18.244,18.244,0,0,0-3.195.017v-.021A15.424,15.424,0,0,1,678,472.3c.267.017.536.023.8.05l.8.078c.267.027.531.071.8.109s.531.08.794.13a40.527,40.527,0,0,1,6.209,1.647c1.01.355,2.016.718,3.016,1.1.5.185,1,.391,1.5.571l.752.269c.252.086.51.147.765.223a10.734,10.734,0,0,0,3.138.418,7.2,7.2,0,0,0,1.567-.237,4.347,4.347,0,0,0,1.428-.678l.015.015Z" transform="translate(-672.42 -456.778)" fill="#ff9a6c"/>
            <path id="Trazado_820275" data-name="Trazado 820275" d="M728.185,444.459a4.818,4.818,0,0,1-1.706,2.029,6.158,6.158,0,0,1-2.514.922,9.432,9.432,0,0,1-2.686-.008,10.045,10.045,0,0,1-1.319-.271c-.439-.12-.849-.286-1.275-.408a22.924,22.924,0,0,0-5.215-.977c-.441-.034-.886-.05-1.328-.046-.223,0-.439.013-.668.015a1.835,1.835,0,0,1-.67-.137,1.877,1.877,0,0,1-.968-.918,1.774,1.774,0,0,1-.088-1.311,1.777,1.777,0,0,0,1.092,2.134,1.763,1.763,0,0,0,.634.113c.214-.006.443-.027.666-.029q.671-.019,1.34.019a22.252,22.252,0,0,1,5.268.939c.431.128.847.3,1.267.416a9.654,9.654,0,0,0,1.292.273,9.993,9.993,0,0,0,2.638.038,6.06,6.06,0,0,0,2.481-.849,4.884,4.884,0,0,0,1.762-1.943Z" transform="translate(-699.967 -433.923)" fill="#ff9a6c"/>
            <path id="Trazado_820276" data-name="Trazado 820276" d="M769.2,585.734a2.728,2.728,0,0,1-1.176,1.342,2.418,2.418,0,0,1-.876.286,3.07,3.07,0,0,1-.92-.038,4.553,4.553,0,0,1-.868-.284,5.79,5.79,0,0,1-.79-.441,8.5,8.5,0,0,1-1.378-1.149c.242.176.47.363.718.529s.487.336.744.483a5.382,5.382,0,0,0,1.615.658,2.642,2.642,0,0,0,1.68-.183,2.6,2.6,0,0,0,.706-.5,3.139,3.139,0,0,0,.544-.7Z" transform="translate(-742.252 -546.176)" fill="#ff9a6c"/>
          </g>
          <path id="Trazado_820277" data-name="Trazado 820277" d="M658.027,1296.533s-12.47-8.166-34.651-8.551l-10.637,46.806c-20.418,4.108-43.559.775-53.968-6.992-4.928-3.678-9.429-12.132-11.666-16.829a18.723,18.723,0,0,0-3.659-5.175c-2.458-2.462-5.524-6.053-9.332-16.024-.956-2.5-3.936-2.573-4.984.248-1.75,4.709-.832,10.47,2.149,15.417a12.352,12.352,0,0,1,.807,1.578,6.048,6.048,0,0,1-6.49,8.276c-10.034-1.5-8.507-.358-18.718-6.59-6.06-3.7-10.3-4.636-13.012-4.655-1.362-.009-3.816.793-1.97,3.478.63.934,2.4,2.128,5.8,4.542,12.831,9.114,14.5,11.584,14.5,11.584a23.4,23.4,0,0,0-5.759.614,3.947,3.947,0,0,0-1.752,6.654l2.533,2.457-.332,3.119a6.31,6.31,0,0,0,1.716,5.031l2.514,2.63c.038.145.078.29.118.433a15.811,15.811,0,0,0,15.581,11.378c7.209-.155,14.529-.364,20.626-.55,7.32-.227,40.2,9.267,63.414,14.533a20.2,20.2,0,0,0,22.611-10.83c6.963-14.224,17.515-37.751,24.556-62.584Z" transform="translate(-479.563 -1064.241)" fill="#ffc89f"/>
          <path id="Trazado_820278" data-name="Trazado 820278" d="M611.232,1504.41c1.134.763,2.266,1.529,3.432,2.239s2.344,1.4,3.543,2.05,2.422,1.258,3.661,1.832c.617.292,1.243.561,1.874.824s1.264.514,1.909.745a32.432,32.432,0,0,1-3.85-1.422c-1.256-.546-2.485-1.151-3.695-1.794-.3-.162-.6-.334-.9-.5s-.6-.336-.888-.515l-.88-.527c-.292-.178-.578-.367-.865-.554-.578-.365-1.136-.765-1.7-1.151s-1.1-.813-1.647-1.224Z" transform="translate(-583.574 -1235.279)" fill="#ff9a6c"/>
          <path id="Trazado_820279" data-name="Trazado 820279" d="M634.93,1458.092c.563.485,1.109.991,1.649,1.5s1.071,1.031,1.6,1.559,1.04,1.063,1.544,1.611,1,1.1,1.473,1.676l-.8-.779-.79-.785-1.575-1.575c-.521-.529-1.046-1.054-1.56-1.592l-.773-.8c-.254-.273-.513-.54-.762-.815Z" transform="translate(-602.296 -1198.688)" fill="#ff9a6c"/>
          <path id="Trazado_820280" data-name="Trazado 820280" d="M698.74,1417.69c.5.1,1,.187,1.508.265s1.008.155,1.514.218c1.01.128,2.025.229,3.043.263.508.021,1.017.029,1.525.019s1.014-.055,1.518-.1a9.81,9.81,0,0,0,1.5-.279,6.561,6.561,0,0,0,1.424-.54,7.465,7.465,0,0,1-2.9.978,17.292,17.292,0,0,1-3.073.137,28.73,28.73,0,0,1-3.056-.313,26.56,26.56,0,0,1-3-.641Z" transform="translate(-652.703 -1166.647)" fill="#ff9a6c"/>
          <path id="Trazado_820281" data-name="Trazado 820281" d="M1113.612,1510.6a17.8,17.8,0,0,1,4.308-.031,20.011,20.011,0,0,1,4.218.934,20.239,20.239,0,0,1,2,.834,16.875,16.875,0,0,1,1.878,1.075,16.216,16.216,0,0,1,3.239,2.839,18.932,18.932,0,0,0-1.59-1.447,16.671,16.671,0,0,0-1.737-1.256,17.948,17.948,0,0,0-3.856-1.849,21.637,21.637,0,0,0-6.31-1.145,17.534,17.534,0,0,0-2.149.044Z" transform="translate(-980.433 -1240.052)" fill="#ff9a6c"/>
          <path id="Trazado_820282" data-name="Trazado 820282" d="M629.792,1555.732a6.3,6.3,0,0,0,.777.638c.269.2.55.38.836.552a16.232,16.232,0,0,0,1.781.914l.46.2.468.183c.309.13.63.225.943.344s.638.2.958.307.647.181.968.281c-.332-.055-.664-.12-1-.183-.325-.084-.655-.16-.981-.252a14.589,14.589,0,0,1-1.907-.689,12.011,12.011,0,0,1-1.783-.97,6.946,6.946,0,0,1-1.527-1.328Z" transform="translate(-598.236 -1275.819)" fill="#ff9a6c"/>
          <path id="Trazado_820283" data-name="Trazado 820283" d="M633.377,1465.629a6.864,6.864,0,0,0-.687-.042,5.974,5.974,0,0,0-.674.029,5.569,5.569,0,0,0-.668.1c-.223.044-.441.111-.668.168a2.429,2.429,0,0,1,.624-.326,2.9,2.9,0,0,1,.691-.155,2.85,2.85,0,0,1,.708.017A2.053,2.053,0,0,1,633.377,1465.629Z" transform="translate(-598.939 -1204.456)" fill="#ff9a6c"/>
        </g>
      </g>
    </g>
    <g id="destello-3" data-name="destello" transform="matrix(-0.966, 0.259, -0.259, -0.966, 1315, 8510.75)">
      <path id="Trazado_820069" data-name="Trazado 820069" d="M25.18,15.738H14.4L24.393,0H11.8L0,23.606H9.285L0,45.639Z" transform="matrix(0.839, 0.545, -0.545, 0.839, 24.857, 0)" fill="#fff"/>
    </g>
    <g id="Grupo_1073361" data-name="Grupo 1073361" transform="translate(1179.567 8293.223)">
      <line id="Línea_400" data-name="Línea 400" y1="23.848" x2="26" transform="translate(205.017)" fill="none" stroke="#fc20cc" stroke-linecap="round" stroke-width="3"/>
    </g>
    <g id="Grupo_1073362" data-name="Grupo 1073362" transform="translate(1381.705 8395.475) rotate(-56)">
      <g id="Grupo_1073279" data-name="Grupo 1073279" transform="translate(0 0)" clip-path="url(#clip-path-4)">
        <path id="Trazado_820074" data-name="Trazado 820074" d="M2.056,0,0,1.4C1.367,3.41,3.419,3.472,5.068,3.523c1.554.047,2.463.119,3.088,1.039s.355,1.792-.174,3.253c-.562,1.551-1.261,3.481.107,5.5s3.419,2.076,5.068,2.127c1.554.047,2.463.119,3.088,1.039s.355,1.792-.174,3.254c-.562,1.551-1.261,3.481.107,5.5S19.6,27.3,21.245,27.352c1.554.047,2.464.119,3.088,1.039L26.389,27c-1.367-2.014-3.419-2.077-5.068-2.127-1.554-.047-2.464-.119-3.088-1.039s-.355-1.792.174-3.254c.562-1.551,1.261-3.481-.107-5.5S14.881,13,13.232,12.953c-1.554-.047-2.463-.119-3.088-1.039s-.355-1.792.174-3.253c.562-1.551,1.261-3.481-.107-5.5S6.793,1.089,5.144,1.039C3.59.991,2.68.92,2.056,0" transform="translate(0 0)" fill="#ff06cc"/>
      </g>
    </g>
    <g id="Grupo_1073363" data-name="Grupo 1073363" transform="translate(1266.92 8336.475) rotate(-56)">
      <g id="Grupo_1073279-2" data-name="Grupo 1073279" transform="translate(0 0)" clip-path="url(#clip-path-5)">
        <path id="Trazado_820074-2" data-name="Trazado 820074" d="M2.056,0,0,1.4C1.367,3.41,3.419,3.472,5.068,3.523c1.554.047,2.463.119,3.088,1.039s.355,1.792-.174,3.253c-.562,1.551-1.261,3.481.107,5.5s3.419,2.076,5.068,2.127c1.554.047,2.463.119,3.088,1.039s.355,1.792-.174,3.254c-.562,1.551-1.261,3.481.107,5.5S19.6,27.3,21.245,27.352c1.554.047,2.464.119,3.088,1.039L26.389,27c-1.367-2.014-3.419-2.077-5.068-2.127-1.554-.047-2.464-.119-3.088-1.039s-.355-1.792.174-3.254c.562-1.551,1.261-3.481-.107-5.5S14.881,13,13.232,12.953c-1.554-.047-2.463-.119-3.088-1.039s-.355-1.792.174-3.253c.562-1.551,1.261-3.481-.107-5.5S6.793,1.089,5.144,1.039C3.59.991,2.68.92,2.056,0" transform="translate(0 0)" fill="#fff"/>
      </g>
    </g>
    <g id="destello-4" data-name="destello" transform="matrix(0.391, 0.921, -0.921, 0.391, 1409.877, 8418.45)">
      <path id="Trazado_820071" data-name="Trazado 820071" d="M28.013,17.508H16.02L27.138,0H13.131L0,26.262H10.33L0,50.774Z" transform="matrix(0.839, 0.545, -0.545, 0.839, 27.653, 0)" fill="#1425dd"/>
    </g>
  </g>
</svg>
