<svg xmlns="http://www.w3.org/2000/svg" xmlns:xlink="http://www.w3.org/1999/xlink" width="111.114" height="111.114" viewBox="0 0 111.114 111.114">
  <defs>
    <filter id="Elipse_9677" x="0" y="0" width="111.114" height="111.114" filterUnits="userSpaceOnUse">
      <feOffset dy="1" input="SourceAlpha"/>
      <feGaussianBlur stdDeviation="8" result="blur"/>
      <feFlood flood-color="#fff"/>
      <feComposite operator="in" in2="blur"/>
      <feComposite in="SourceGraphic"/>
    </filter>
  </defs>
  <g id="Grupo_1072268" data-name="Grupo 1072268" transform="translate(-835 -3214)">
    <g transform="matrix(1, 0, 0, 1, 835, 3214)" filter="url(#Elipse_9677)">
      <path id="Elipse_9677-2" data-name="Elipse 9677" d="M31.557,3.713A27.845,27.845,0,1,0,59.4,31.557,27.876,27.876,0,0,0,31.557,3.713m0-3.713A31.557,31.557,0,1,1,0,31.557,31.557,31.557,0,0,1,31.557,0Z" transform="translate(24 23)" fill="#1425dd"/>
    </g>
    <g id="codigo-binario_2_" data-name="codigo-binario (2)" transform="translate(868.678 3246.093)">
      <path id="Trazado_820442" data-name="Trazado 820442" d="M370.62,183.167H368l1.308,2.616v8.778a1.308,1.308,0,0,0,2.616,0V184.475A1.308,1.308,0,0,0,370.62,183.167Z" transform="translate(-335.916 -167.196)" fill="#02e885"/>
      <path id="Trazado_820443" data-name="Trazado 820443" d="M354.312,183.167a1.308,1.308,0,1,0,0,2.616h1.308v-1.308A1.308,1.308,0,0,0,354.312,183.167Z" transform="translate(-322.224 -167.196)" fill="#05ff77"/>
      <path id="Trazado_820444" data-name="Trazado 820444" d="M14.043,187.745a1.962,1.962,0,1,0-3.924,0v3.546a1.962,1.962,0,0,0,3.924,0c0,3.2,0,4.578-1.962,4.578A4.583,4.583,0,0,1,7.5,191.291v-3.546a4.583,4.583,0,0,1,4.578-4.578C14.043,183.167,14.043,184.475,14.043,187.745Z" transform="translate(-6.849 -167.196)" fill="#05ff77"/>
      <path id="Trazado_820445" data-name="Trazado 820445" d="M64.581,187.745v3.546A4.583,4.583,0,0,1,60,195.868c1.081,0,1.962-2.053,1.962-4.578v-3.546c0-2.524-.881-4.578-1.962-4.578A4.583,4.583,0,0,1,64.581,187.745Z" transform="translate(-54.771 -167.196)" fill="#02e885"/>
      <path id="Trazado_820446" data-name="Trazado 820446" d="M152.619,183.167H150l1.308,2.616v8.778a1.308,1.308,0,0,0,2.616,0V184.475A1.308,1.308,0,0,0,152.619,183.167Z" transform="translate(-136.924 -167.196)" fill="#02e885"/>
      <path id="Trazado_820447" data-name="Trazado 820447" d="M136.311,183.167a1.308,1.308,0,0,0,0,2.616h1.308v-1.308A1.308,1.308,0,0,0,136.311,183.167Z" transform="translate(-123.232 -167.196)" fill="#05ff77"/>
      <path id="Trazado_820448" data-name="Trazado 820448" d="M232.043,187.745a1.962,1.962,0,1,0-3.924,0v3.546a1.962,1.962,0,0,0,3.924,0c0,3.2,0,4.578-1.962,4.578a4.583,4.583,0,0,1-4.578-4.578v-3.546a4.583,4.583,0,0,1,4.578-4.578C232.043,183.167,232.043,184.475,232.043,187.745Z" transform="translate(-205.84 -167.196)" fill="#05ff77"/>
      <path id="Trazado_820449" data-name="Trazado 820449" d="M282.581,187.745v3.546A4.583,4.583,0,0,1,278,195.868c1.081,0,1.962-2.053,1.962-4.578v-3.546c0-2.524-.881-4.578-1.962-4.578A4.583,4.583,0,0,1,282.581,187.745Z" transform="translate(-253.763 -167.196)" fill="#02e885"/>
      <path id="Trazado_820450" data-name="Trazado 820450" d="M462.113,183.167H459.5l1.308,2.616v8.778a1.308,1.308,0,1,0,2.616,0V184.475A1.308,1.308,0,0,0,462.113,183.167Z" transform="translate(-419.431 -167.196)" fill="#02e885"/>
      <path id="Trazado_820451" data-name="Trazado 820451" d="M445.8,183.167a1.308,1.308,0,1,0,0,2.616h1.308v-1.308A1.308,1.308,0,0,0,445.8,183.167Z" transform="translate(-405.739 -167.196)" fill="#05ff77"/>
      <path id="Trazado_820452" data-name="Trazado 820452" d="M104.54,12.078a1.962,1.962,0,1,0-3.924,0v3.546a1.962,1.962,0,1,0,3.924,0c0,3.2,0,4.578-1.962,4.578A4.583,4.583,0,0,1,98,15.624V12.078A4.583,4.583,0,0,1,102.578,7.5c1.962,0,1.962,1.308,1.962,4.578Z" transform="translate(-89.455 -6.846)" fill="#05ff77"/>
      <path id="Trazado_820453" data-name="Trazado 820453" d="M155.078,12.078v3.546A4.583,4.583,0,0,1,150.5,20.2c1.081,0,1.962-2.053,1.962-4.578V12.078c0-2.524-.881-4.578-1.962-4.578a4.583,4.583,0,0,1,4.578,4.578Z" transform="translate(-137.377 -6.846)" fill="#02e885"/>
      <path id="Trazado_820454" data-name="Trazado 820454" d="M462.116,7.5H459.5l1.308,2.616v8.778a1.308,1.308,0,0,0,2.616,0V8.808A1.308,1.308,0,0,0,462.116,7.5Z" transform="translate(-419.434 -6.846)" fill="#02e885"/>
      <path id="Trazado_820455" data-name="Trazado 820455" d="M445.808,7.5a1.308,1.308,0,1,0,0,2.616h1.308V8.808A1.308,1.308,0,0,0,445.808,7.5Z" transform="translate(-405.742 -6.846)" fill="#05ff77"/>
      <path id="Trazado_820456" data-name="Trazado 820456" d="M243.616,7.5H241l1.308,2.616v8.778a1.308,1.308,0,1,0,2.616,0V8.808A1.308,1.308,0,0,0,243.616,7.5Z" transform="translate(-219.986 -6.846)" fill="#02e885"/>
      <path id="Trazado_820457" data-name="Trazado 820457" d="M227.308,7.5a1.308,1.308,0,1,0,0,2.616h1.308V8.808A1.308,1.308,0,0,0,227.308,7.5Z" transform="translate(-206.294 -6.846)" fill="#05ff77"/>
      <path id="Trazado_820458" data-name="Trazado 820458" d="M25.116,7.5H22.5l1.308,2.616v8.778a1.308,1.308,0,1,0,2.616,0V8.808A1.308,1.308,0,0,0,25.116,7.5Z" transform="translate(-20.538 -6.846)" fill="#02e885"/>
      <path id="Trazado_820459" data-name="Trazado 820459" d="M8.808,7.5a1.308,1.308,0,1,0,0,2.616h1.308V8.808A1.308,1.308,0,0,0,8.808,7.5Z" transform="translate(-6.846 -6.846)" fill="#05ff77"/>
      <path id="Trazado_820460" data-name="Trazado 820460" d="M323.04,12.078a1.962,1.962,0,1,0-3.924,0v3.546a1.962,1.962,0,1,0,3.924,0c0,3.2,0,4.578-1.962,4.578a4.583,4.583,0,0,1-4.578-4.578V12.078A4.583,4.583,0,0,1,321.078,7.5c1.962,0,1.962,1.308,1.962,4.578Z" transform="translate(-288.903 -6.846)" fill="#05ff77"/>
      <path id="Trazado_820461" data-name="Trazado 820461" d="M373.578,12.078v3.546A4.583,4.583,0,0,1,369,20.2c1.081,0,1.962-2.053,1.962-4.578V12.078c0-2.524-.881-4.578-1.962-4.578a4.583,4.583,0,0,1,4.578,4.578Z" transform="translate(-336.825 -6.846)" fill="#02e885"/>
      <path id="Trazado_820462" data-name="Trazado 820462" d="M104.54,363.411a1.962,1.962,0,0,0-3.924,0v3.546a1.962,1.962,0,1,0,3.924,0c0,3.2,0,4.578-1.962,4.578A4.583,4.583,0,0,1,98,366.957v-3.546a4.583,4.583,0,0,1,4.578-4.578C104.54,358.833,104.54,360.141,104.54,363.411Z" transform="translate(-89.455 -327.545)" fill="#05ff77"/>
      <path id="Trazado_820463" data-name="Trazado 820463" d="M155.078,363.411v3.546a4.583,4.583,0,0,1-4.578,4.578c1.081,0,1.962-2.053,1.962-4.578v-3.546c0-2.524-.881-4.578-1.962-4.578A4.583,4.583,0,0,1,155.078,363.411Z" transform="translate(-137.377 -327.545)" fill="#02e885"/>
      <path id="Trazado_820464" data-name="Trazado 820464" d="M462.116,358.833H459.5l1.308,2.616v8.778a1.308,1.308,0,0,0,2.616,0V360.141A1.308,1.308,0,0,0,462.116,358.833Z" transform="translate(-419.434 -327.545)" fill="#02e885"/>
      <path id="Trazado_820465" data-name="Trazado 820465" d="M445.808,358.833a1.308,1.308,0,0,0,0,2.616h1.308v-1.308A1.308,1.308,0,0,0,445.808,358.833Z" transform="translate(-405.742 -327.545)" fill="#05ff77"/>
      <path id="Trazado_820466" data-name="Trazado 820466" d="M243.616,358.833H241l1.308,2.616v8.778a1.308,1.308,0,0,0,2.616,0V360.141A1.308,1.308,0,0,0,243.616,358.833Z" transform="translate(-219.986 -327.545)" fill="#02e885"/>
      <path id="Trazado_820467" data-name="Trazado 820467" d="M227.308,358.833a1.308,1.308,0,0,0,0,2.616h1.308v-1.308A1.308,1.308,0,0,0,227.308,358.833Z" transform="translate(-206.294 -327.545)" fill="#05ff77"/>
      <path id="Trazado_820468" data-name="Trazado 820468" d="M25.116,358.833H22.5l1.308,2.616v8.778a1.308,1.308,0,0,0,2.616,0V360.141A1.308,1.308,0,0,0,25.116,358.833Z" transform="translate(-20.538 -327.545)" fill="#02e885"/>
      <path id="Trazado_820469" data-name="Trazado 820469" d="M8.808,358.833a1.308,1.308,0,0,0,0,2.616h1.308v-1.308A1.308,1.308,0,0,0,8.808,358.833Z" transform="translate(-6.846 -327.545)" fill="#05ff77"/>
      <path id="Trazado_820470" data-name="Trazado 820470" d="M323.04,363.411a1.962,1.962,0,1,0-3.924,0v3.546a1.962,1.962,0,1,0,3.924,0c0,3.2,0,4.578-1.962,4.578a4.583,4.583,0,0,1-4.578-4.578v-3.546a4.583,4.583,0,0,1,4.578-4.578C323.04,358.833,323.04,360.141,323.04,363.411Z" transform="translate(-288.903 -327.545)" fill="#05ff77"/>
      <path id="Trazado_820471" data-name="Trazado 820471" d="M373.578,363.411v3.546A4.583,4.583,0,0,1,369,371.534c1.081,0,1.962-2.053,1.962-4.578v-3.546c0-2.524-.881-4.578-1.962-4.578A4.583,4.583,0,0,1,373.578,363.411Z" transform="translate(-336.825 -327.545)" fill="#02e885"/>
      <path id="Trazado_820472" data-name="Trazado 820472" d="M133.389,182.018a.654.654,0,0,0,.654-.654v-3.735a1.964,1.964,0,0,0-1.962-1.962h-2.616a1.962,1.962,0,0,0,0,3.924h.654v8.124a1.962,1.962,0,1,0,3.924,0v-3.735a.654.654,0,0,0-1.308,0v3.735a.654.654,0,1,1-1.308,0v-8.777a.654.654,0,0,0-.654-.654h-1.308a.654.654,0,1,1,0-1.308h2.616a.655.655,0,0,1,.654.654v3.735A.654.654,0,0,0,133.389,182.018Z" transform="translate(-116.385 -160.35)"/>
      <path id="Trazado_820473" data-name="Trazado 820473" d="M0,180.9v3.546a5.232,5.232,0,1,0,10.463,0V180.9A5.232,5.232,0,1,0,0,180.9Zm9.155,0v3.546a3.924,3.924,0,0,1-7.847,0V180.9a3.924,3.924,0,0,1,7.847,0Z" transform="translate(-0.003 -160.35)"/>
      <path id="Trazado_820474" data-name="Trazado 820474" d="M30,208.283v3.546a2.616,2.616,0,1,0,5.232,0v-3.546a2.616,2.616,0,1,0-5.232,0Zm3.924,0v3.546a1.308,1.308,0,1,1-2.616,0v-3.546a1.308,1.308,0,1,1,2.616,0Z" transform="translate(-27.387 -187.734)"/>
      <path id="Trazado_820475" data-name="Trazado 820475" d="M350.082,189.676a1.964,1.964,0,0,0,1.962-1.962V177.629a1.964,1.964,0,0,0-1.962-1.962h-2.616a1.962,1.962,0,1,0,0,3.924h.654v8.124A1.964,1.964,0,0,0,350.082,189.676Zm-2.616-11.393a.654.654,0,1,1,0-1.308h2.616a.655.655,0,0,1,.654.654v10.086a.654.654,0,0,1-1.308,0v-8.778a.654.654,0,0,0-.654-.654Z" transform="translate(-315.378 -160.35)"/>
      <path id="Trazado_820476" data-name="Trazado 820476" d="M223.235,189.675a5.238,5.238,0,0,0,5.232-5.232V180.9a5.232,5.232,0,1,0-10.463,0v3.546A5.238,5.238,0,0,0,223.235,189.675Zm-3.924-8.777a3.924,3.924,0,1,1,7.847,0v3.546a3.924,3.924,0,0,1-7.847,0Z" transform="translate(-198.994 -160.349)"/>
      <path id="Trazado_820477" data-name="Trazado 820477" d="M250.619,214.445a2.619,2.619,0,0,0,2.616-2.616v-3.546a2.616,2.616,0,0,0-5.232,0v3.546A2.619,2.619,0,0,0,250.619,214.445Zm-1.308-6.162a1.308,1.308,0,1,1,2.616,0v3.546a1.308,1.308,0,1,1-2.616,0Z" transform="translate(-226.379 -187.734)"/>
      <path id="Trazado_820478" data-name="Trazado 820478" d="M441.575,189.676a1.964,1.964,0,0,0,1.962-1.962V177.629a1.964,1.964,0,0,0-1.962-1.962h-2.616a1.962,1.962,0,1,0,0,3.924h.654v8.124A1.964,1.964,0,0,0,441.575,189.676Zm-2.616-11.393a.654.654,0,0,1,0-1.308h2.616a.655.655,0,0,1,.654.654v10.086a.654.654,0,1,1-1.308,0v-8.778a.654.654,0,0,0-.654-.654Z" transform="translate(-398.893 -160.35)"/>
      <path id="Trazado_820479" data-name="Trazado 820479" d="M220.462,3.924h.654v8.124a1.962,1.962,0,0,0,3.924,0V1.962A1.964,1.964,0,0,0,223.078,0h-2.616a1.962,1.962,0,0,0,0,3.924Zm0-2.616h2.616a.655.655,0,0,1,.654.654V12.047a.654.654,0,0,1-1.308,0V3.27a.654.654,0,0,0-.654-.654h-1.308a.654.654,0,0,1,0-1.308Z" transform="translate(-199.448)"/>
      <path id="Trazado_820480" data-name="Trazado 820480" d="M95.732,0A5.238,5.238,0,0,0,90.5,5.232V8.778a5.232,5.232,0,0,0,10.463,0V5.232A5.238,5.238,0,0,0,95.732,0Zm3.924,8.778a3.924,3.924,0,1,1-7.847,0V5.232a3.924,3.924,0,1,1,7.847,0Z" transform="translate(-82.609)"/>
      <path id="Trazado_820481" data-name="Trazado 820481" d="M123.116,30a2.619,2.619,0,0,0-2.616,2.616v3.546a2.616,2.616,0,0,0,5.232,0V32.616A2.619,2.619,0,0,0,123.116,30Zm1.308,6.162a1.308,1.308,0,1,1-2.616,0V32.616a1.308,1.308,0,1,1,2.616,0Z" transform="translate(-109.993 -27.384)"/>
      <path id="Trazado_820482" data-name="Trazado 820482" d="M441.578,0h-2.616a1.962,1.962,0,0,0,0,3.924h.654v8.124a1.962,1.962,0,1,0,3.924,0V1.962A1.964,1.964,0,0,0,441.578,0Zm.654,12.047a.654.654,0,1,1-1.308,0V3.27a.654.654,0,0,0-.654-.654h-1.308a.654.654,0,0,1,0-1.308h2.616a.655.655,0,0,1,.654.654Z" transform="translate(-398.896)"/>
      <path id="Trazado_820483" data-name="Trazado 820483" d="M1.962,3.924h.654v8.124a1.962,1.962,0,0,0,3.924,0V1.962A1.964,1.964,0,0,0,4.578,0H1.962a1.962,1.962,0,1,0,0,3.924Zm0-2.616H4.578a.655.655,0,0,1,.654.654V12.047a.654.654,0,1,1-1.308,0V3.27a.654.654,0,0,0-.654-.654H1.962a.654.654,0,1,1,0-1.308Z"/>
      <path id="Trazado_820484" data-name="Trazado 820484" d="M314.232,0A5.238,5.238,0,0,0,309,5.232V8.778a5.232,5.232,0,0,0,10.463,0V5.232A5.238,5.238,0,0,0,314.232,0Zm3.924,8.778a3.924,3.924,0,1,1-7.847,0V5.232a3.924,3.924,0,1,1,7.847,0Z" transform="translate(-282.057)"/>
      <path id="Trazado_820485" data-name="Trazado 820485" d="M341.616,30A2.619,2.619,0,0,0,339,32.616v3.546a2.616,2.616,0,0,0,5.232,0V32.616A2.619,2.619,0,0,0,341.616,30Zm1.308,6.162a1.308,1.308,0,0,1-2.616,0V32.616a1.308,1.308,0,0,1,2.616,0Z" transform="translate(-309.441 -27.384)"/>
      <path id="Trazado_820486" data-name="Trazado 820486" d="M223.078,351.333h-2.616a1.962,1.962,0,1,0,0,3.924h.654v8.124a1.962,1.962,0,0,0,3.924,0V353.295A1.964,1.964,0,0,0,223.078,351.333Zm.654,12.047a.654.654,0,0,1-1.308,0V354.6a.654.654,0,0,0-.654-.654h-1.308a.654.654,0,0,1,0-1.308h2.616a.655.655,0,0,1,.654.654Z" transform="translate(-199.448 -320.699)"/>
      <path id="Trazado_820487" data-name="Trazado 820487" d="M95.732,351.333a5.238,5.238,0,0,0-5.232,5.232v3.546a5.232,5.232,0,0,0,10.463,0v-3.546A5.238,5.238,0,0,0,95.732,351.333Zm3.924,8.778a3.924,3.924,0,0,1-7.847,0v-3.546a3.924,3.924,0,0,1,7.847,0Z" transform="translate(-82.609 -320.699)"/>
      <path id="Trazado_820488" data-name="Trazado 820488" d="M123.116,381.333a2.619,2.619,0,0,0-2.616,2.616v3.546a2.616,2.616,0,0,0,5.232,0v-3.546A2.619,2.619,0,0,0,123.116,381.333Zm1.308,6.162a1.308,1.308,0,1,1-2.616,0v-3.546a1.308,1.308,0,1,1,2.616,0Z" transform="translate(-109.993 -348.083)"/>
      <path id="Trazado_820489" data-name="Trazado 820489" d="M441.578,351.333h-2.616a1.962,1.962,0,0,0,0,3.924h.654v8.124a1.962,1.962,0,1,0,3.924,0V353.295A1.964,1.964,0,0,0,441.578,351.333Zm.654,12.047a.654.654,0,0,1-1.308,0V354.6a.654.654,0,0,0-.654-.654h-1.308a.654.654,0,0,1,0-1.308h2.616a.655.655,0,0,1,.654.654Z" transform="translate(-398.896 -320.699)"/>
      <path id="Trazado_820490" data-name="Trazado 820490" d="M4.578,351.333H1.962a1.962,1.962,0,1,0,0,3.924h.654v8.124a1.962,1.962,0,0,0,3.924,0V353.295A1.964,1.964,0,0,0,4.578,351.333Zm.654,12.047a.654.654,0,0,1-1.308,0V354.6a.654.654,0,0,0-.654-.654H1.962a.654.654,0,0,1,0-1.308H4.578a.655.655,0,0,1,.654.654Z" transform="translate(0 -320.699)"/>
      <path id="Trazado_820491" data-name="Trazado 820491" d="M314.232,351.333A5.238,5.238,0,0,0,309,356.565v3.546a5.232,5.232,0,0,0,10.463,0v-3.546A5.238,5.238,0,0,0,314.232,351.333Zm3.924,8.778a3.924,3.924,0,0,1-7.847,0v-3.546a3.924,3.924,0,0,1,7.847,0Z" transform="translate(-282.057 -320.699)"/>
      <path id="Trazado_820492" data-name="Trazado 820492" d="M341.616,381.333A2.619,2.619,0,0,0,339,383.949v3.546a2.616,2.616,0,1,0,5.232,0v-3.546A2.619,2.619,0,0,0,341.616,381.333Zm1.308,6.162a1.308,1.308,0,0,1-2.616,0v-3.546a1.308,1.308,0,0,1,2.616,0Z" transform="translate(-309.441 -348.083)"/>
    </g>
  </g>
</svg>
