<svg xmlns="http://www.w3.org/2000/svg" xmlns:xlink="http://www.w3.org/1999/xlink" width="400" height="312" viewBox="0 0 400 312">
  <defs>
    <clipPath id="clip-path">
      <rect id="Rectángulo_376052" data-name="Rectángulo 376052" width="400" height="312" transform="translate(1019.957 3377)" fill="#222b89" stroke="#707070" stroke-width="1" opacity="0.76"/>
    </clipPath>
    <clipPath id="clip-path-2">
      <rect id="Rectángulo_376048" data-name="Rectángulo 376048" width="21.062" height="22.66" fill="none"/>
    </clipPath>
    <clipPath id="clip-path-3">
      <rect id="Rectángulo_376049" data-name="Rectángulo 376049" width="26.389" height="28.392" fill="none"/>
    </clipPath>
    <clipPath id="clip-path-4">
      <rect id="Rectángulo_376050" data-name="Rectángulo 376050" width="26.39" height="28.392" fill="none"/>
    </clipPath>
  </defs>
  <g id="Enmascarar_grupo_1044156" data-name="Enmascarar grupo 1044156" transform="translate(-1019.957 -3377)" clip-path="url(#clip-path)">
    <g id="Grupo_1072612" data-name="Grupo 1072612" transform="translate(21.046 -16)">
      <g id="Grupo_1072609" data-name="Grupo 1072609" transform="translate(1073.914 3443)" opacity="0.75">
        <ellipse id="Elipse_9741" data-name="Elipse 9741" cx="66.076" cy="66.075" rx="66.076" ry="66.075" transform="translate(104.118 66.075)" fill="#e600ff"/>
        <g id="Elipse_9742" data-name="Elipse 9742" transform="translate(0 0)" fill="#5deae5" stroke="#707070" stroke-width="1">
          <ellipse cx="66.076" cy="66.075" rx="66.076" ry="66.075" stroke="none"/>
          <ellipse cx="66.076" cy="66.075" rx="65.576" ry="65.575" fill="none"/>
        </g>
      </g>
      <path id="Trazado_821014" data-name="Trazado 821014" d="M13,0H137a13,13,0,0,1,13,13V215H0V13A13,13,0,0,1,13,0Z" transform="translate(1130.031 3490)" fill="#222b89"/>
      <g id="Grupo_1072619" data-name="Grupo 1072619" transform="translate(63.299 -1162.024)">
        <g id="destello" transform="translate(1226.061 4567.552)">
          <path id="Trazado_818948" data-name="Trazado 818948" d="M27.073,16.921H15.483L26.227,0H12.691L0,25.381H9.983L0,49.07Z" transform="matrix(0.839, 0.545, -0.545, 0.839, 26.726, 0)" fill="#fff"/>
        </g>
        <g id="destello-2" data-name="destello" transform="matrix(-0.966, 0.259, -0.259, -0.966, 1103.068, 4774.25)">
          <path id="Trazado_818949" data-name="Trazado 818949" d="M25.18,15.738H14.4L24.393,0H11.8L0,23.606H9.285L0,45.639Z" transform="matrix(0.839, 0.545, -0.545, 0.839, 24.857, 0)" fill="#fff"/>
        </g>
        <g id="destello-3" data-name="destello" transform="matrix(-0.588, -0.809, 0.809, -0.588, 1014.675, 4679.953)">
          <path id="Trazado_818950" data-name="Trazado 818950" d="M28.013,17.508H16.02L27.138,0H13.131L0,26.262H10.33L0,50.774Z" transform="matrix(0.839, 0.545, -0.545, 0.839, 27.653, 0)" fill="#1425dd"/>
        </g>
        <g id="destello-4" data-name="destello" transform="matrix(0.391, 0.921, -0.921, 0.391, 1267.405, 4760.717)">
          <path id="Trazado_818951" data-name="Trazado 818951" d="M28.013,17.508H16.02L27.138,0H13.131L0,26.262H10.33L0,50.774Z" transform="matrix(0.839, 0.545, -0.545, 0.839, 27.653, 0)" fill="#1425dd"/>
        </g>
        <g id="Grupo_1072611" data-name="Grupo 1072611" transform="matrix(0.966, -0.259, 0.259, 0.966, 1139.025, 4766.43)">
          <g id="Grupo_1072610" data-name="Grupo 1072610" transform="translate(0 0)" clip-path="url(#clip-path-2)">
            <path id="Trazado_818952" data-name="Trazado 818952" d="M1.641,22.66,0,21.546c1.091-1.607,2.729-1.657,4.045-1.7,1.24-.038,1.966-.1,2.465-.829s.284-1.43-.139-2.6c-.448-1.238-1.006-2.779.085-4.386s2.729-1.657,4.045-1.7c1.24-.038,1.966-.095,2.464-.829s.284-1.43-.139-2.6c-.448-1.238-1.006-2.779.085-4.386S15.641.87,16.956.83C18.2.792,18.923.734,19.421,0l1.641,1.114c-1.091,1.608-2.729,1.658-4.045,1.7-1.24.038-1.966.1-2.465.83s-.284,1.43.139,2.6c.448,1.238,1.006,2.779-.085,4.386s-2.729,1.657-4.045,1.7c-1.24.038-1.966.1-2.465.829s-.284,1.43.139,2.6c.448,1.238,1.006,2.779-.085,4.386s-2.729,1.657-4.045,1.7c-1.24.038-1.966.1-2.465.829" transform="translate(0 0)" fill="#ff06cc"/>
          </g>
        </g>
        <g id="Grupo_1072613" data-name="Grupo 1072613" transform="matrix(0.695, -0.719, 0.719, 0.695, 1086.761, 4574.255)">
          <g id="Grupo_1072612-2" data-name="Grupo 1072612" transform="translate(0 0)" clip-path="url(#clip-path-3)">
            <path id="Trazado_818953" data-name="Trazado 818953" d="M2.056,28.392,0,27c1.367-2.014,3.419-2.076,5.068-2.127,1.554-.047,2.463-.119,3.088-1.039s.355-1.792-.174-3.253c-.562-1.551-1.26-3.481.107-5.5s3.419-2.076,5.068-2.127c1.554-.047,2.463-.119,3.088-1.039s.355-1.792-.174-3.254c-.562-1.551-1.26-3.481.107-5.5S19.6,1.09,21.246,1.039C22.8.992,23.709.92,24.334,0L26.39,1.4C25.022,3.41,22.97,3.473,21.321,3.523c-1.554.047-2.464.119-3.088,1.039s-.355,1.792.174,3.254c.562,1.551,1.26,3.481-.107,5.5s-3.419,2.076-5.068,2.127c-1.554.047-2.463.119-3.088,1.039s-.355,1.792.174,3.253c.562,1.551,1.26,3.481-.107,5.5S6.793,27.3,5.144,27.353c-1.554.047-2.464.119-3.088,1.039" transform="translate(0 0)" fill="#ff06cc"/>
          </g>
        </g>
        <g id="Grupo_1072615" data-name="Grupo 1072615" transform="translate(1237.197 4727.816) rotate(-56)">
          <g id="Grupo_1072614" data-name="Grupo 1072614" transform="translate(0 0)" clip-path="url(#clip-path-4)">
            <path id="Trazado_818954" data-name="Trazado 818954" d="M2.056,0,0,1.4C1.367,3.41,3.419,3.472,5.068,3.523c1.554.047,2.463.119,3.088,1.039s.355,1.792-.174,3.253c-.562,1.551-1.261,3.481.107,5.5s3.419,2.076,5.068,2.127c1.554.047,2.463.119,3.088,1.039s.355,1.792-.174,3.254c-.562,1.551-1.261,3.481.107,5.5S19.6,27.3,21.245,27.352c1.554.047,2.464.119,3.088,1.039L26.389,27c-1.367-2.014-3.419-2.077-5.068-2.127-1.554-.047-2.464-.119-3.088-1.039s-.355-1.792.174-3.254c.562-1.551,1.261-3.481-.107-5.5S14.881,13,13.232,12.953c-1.554-.047-2.463-.119-3.088-1.039s-.355-1.792.174-3.253c.562-1.551,1.261-3.481-.107-5.5S6.793,1.089,5.144,1.039C3.59.991,2.68.92,2.056,0" transform="translate(0 0)" fill="#ff06cc"/>
          </g>
        </g>
        <g id="Grupo_1072616" data-name="Grupo 1072616" transform="translate(1006.179 4620.806)">
          <line id="Línea_368" data-name="Línea 368" y1="13.822" x2="52.776" transform="translate(0 140.02)" fill="none" stroke="#fc20cc" stroke-linecap="round" stroke-width="3"/>
          <line id="Línea_369" data-name="Línea 369" y1="13.822" x2="52.776" transform="translate(205.017)" fill="none" stroke="#fc20cc" stroke-linecap="round" stroke-width="3"/>
        </g>
        <g id="Grupo_1072618" data-name="Grupo 1072618" transform="matrix(0.259, -0.966, 0.966, 0.259, 1075.617, 4816.453)">
          <line id="Línea_372" data-name="Línea 372" x2="34.339" y2="8.994" transform="translate(0 0)" fill="none" stroke="#fc20cc" stroke-linecap="round" stroke-width="3"/>
          <line id="Línea_373" data-name="Línea 373" x2="34.339" y2="8.994" transform="translate(236.055 49.845)" fill="none" stroke="#fc20cc" stroke-linecap="round" stroke-width="3"/>
        </g>
        <circle id="Elipse_9744" data-name="Elipse 9744" cx="8.319" cy="8.319" r="8.319" transform="translate(1133.681 4581.666)" fill="#fff"/>
        <ellipse id="Elipse_9745" data-name="Elipse 9745" cx="8.319" cy="7.487" rx="8.319" ry="7.487" transform="translate(1173.611 4822.911)" fill="#fff"/>
        <circle id="Elipse_9746" data-name="Elipse 9746" cx="4.991" cy="4.991" r="4.991" transform="translate(1256.799 4740.555)" fill="#fff"/>
        <ellipse id="Elipse_9747" data-name="Elipse 9747" cx="5.407" cy="4.991" rx="5.407" ry="4.991" transform="translate(1044.669 4728.077)" fill="#fff"/>
        <circle id="Elipse_9748" data-name="Elipse 9748" cx="4.991" cy="4.991" r="4.991" transform="translate(1018.049 4615.773)" fill="#fff"/>
        <circle id="Elipse_9749" data-name="Elipse 9749" cx="2.08" cy="2.08" r="2.08" transform="translate(990.597 4723.917)" fill="#fff"/>
        <ellipse id="Elipse_9750" data-name="Elipse 9750" cx="2.08" cy="2.496" rx="2.08" ry="2.496" transform="translate(1200.231 4623.26)" fill="#fff"/>
        <circle id="Elipse_9751" data-name="Elipse 9751" cx="2.496" cy="2.496" r="2.496" transform="translate(1119.539 4741.387)" fill="#fff"/>
      </g>
      <g id="Grupo_1072607" data-name="Grupo 1072607" transform="translate(1111.031 3370)">
        <g id="Peeking_8_Convertido_" data-name="Peeking_8 [Convertido]" transform="translate(0.369 31.27)">
          <g id="BACK" transform="translate(89.896 27.839)">
            <g id="Grupo_1072551" data-name="Grupo 1072551" transform="translate(0 0)">
              <g id="Grupo_1072550" data-name="Grupo 1072550">
                <path id="Trazado_818816" data-name="Trazado 818816" d="M643.885,527s14.963-21.181-5.435-37.613c0,0,26.206,6.941,38.954-25.072,0,0,12.24,16.48,28.516,2.67,0,0,1.315,16.277,23.676,16.607,0,0-10.03,21.045,17.1,32.472,0,0-24.169,4.029-20.964,33.377,0,0-27.7-11.508-44.146,10.441,0,0-6.659-12.413-23.019-9.947,0,0,2.694-16.929-14.683-22.933Z" transform="translate(-638.45 -447.433)" fill="#f0f2f5"/>
                <path id="Trazado_818817" data-name="Trazado 818817" d="M475.712,561.507a2.51,2.51,0,0,0,1.895.733,2.819,2.819,0,0,0,2.7-2.781,2.512,2.512,0,0,0-.791-1.872,2.73,2.73,0,1,0-3.8,3.919Zm19.867-23.846L480.6,553.8l2.4,2.328,15.67-15.468-3.1-3Z" transform="translate(-380.965 -445.907)" fill="#f0f2f5"/>
                <path id="Trazado_818818" data-name="Trazado 818818" d="M376.507,1605.728a1.97,1.97,0,0,0,.51,1.511,2.213,2.213,0,0,0,3.03.228,1.974,1.974,0,0,0,.731-1.417,2.142,2.142,0,1,0-4.271-.324Zm24.349.006-17.249-.924-.2,2.618,17.191,1.681Z" transform="translate(606.66 -1343.238) rotate(31)" fill="#f0f2f5"/>
                <path id="Trazado_818819" data-name="Trazado 818819" d="M1233.312,384.171a1.971,1.971,0,0,0,1.351-.846,2.213,2.213,0,0,0-.481-3,1.971,1.971,0,0,0-1.548-.382,2.142,2.142,0,1,0,.676,4.229Zm-5.648-23.685,3.107,16.992,2.592-.416-2.356-17.112Z" transform="translate(-1222.137 -359.95)" fill="#f0f2f5"/>
              </g>
            </g>
          </g>
          <g id="CHARACTER" transform="translate(27.12 27.841)">
            <g id="Grupo_1072588" data-name="Grupo 1072588">
              <path id="Trazado_818820" data-name="Trazado 818820" d="M1029.74,1890.84v28h53.511l-2.28-15.943A462.393,462.393,0,0,1,1029.74,1890.84Z" transform="translate(-975.538 -1643.15)" fill="#1b1a2e"/>
              <path id="Trazado_818821" data-name="Trazado 818821" d="M738.891,890.093V1060.5c8.405,3.86,33.621,4.661,48.566,3.566a.082.082,0,0,0,.028,0c.626-.045,1.236-.1,1.825-.147a.021.021,0,0,1,.01,0c4.079-.366,7.19-.887,8.664-1.537L792.4,1044.27l1.686-2.833a9.028,9.028,0,0,0,.992-6.818c-1.506-6.012-3.653-19.587,1.014-37.862l.019-.011c.82-.482,28.605-17.018,42.35-53.5,2.594-6.884-.057-16.288-5.852-20.818-5.969-4.665-13.219-9.339-22.65-18.689a10.277,10.277,0,0,0-.414-5.58,10.662,10.662,0,0,0-6.13-6.4c-8.038-2.882-26.779-7.462-42.979-6.279a10.648,10.648,0,0,0-8.158,4.354l-13.389.269Z" transform="translate(-684.689 -800.285)" fill="#f9a21b"/>
              <g id="Grupo_1072560" data-name="Grupo 1072560" transform="translate(70.817 11.07)">
                <g id="Grupo_1072559" data-name="Grupo 1072559" transform="translate(0 10.568)">
                  <g id="Grupo_1072552" data-name="Grupo 1072552" transform="translate(0)">
                    <path id="Trazado_818822" data-name="Trazado 818822" d="M973.891,800.3l-.835-3.016h0a4.017,4.017,0,0,0,4.775-3.1l4.6-21.815,33.137,5.245s-6.736,19.194-5.629,23.832a6.628,6.628,0,0,0,5.309,4.912h0a72.633,72.633,0,0,1-11.086,8.2S979.985,813.94,968.82,831l5.156-19.817a20.973,20.973,0,0,0-.084-10.884Z" transform="translate(-968.82 -727.281)" fill="#ffc89f"/>
                    <path id="Trazado_818823" data-name="Trazado 818823" d="M932.7,562.947h0a21.632,21.632,0,0,0,24.353-18.516l3.566-26.185A21.632,21.632,0,0,0,942.1,493.892h0a21.632,21.632,0,0,0-24.353,18.516l-3.566,26.185A21.632,21.632,0,0,0,932.7,562.947Z" transform="translate(-905.193 -493.692)" fill="#ffc89f"/>
                    <path id="Trazado_818824" data-name="Trazado 818824" d="M965.07,880.457a18.089,18.089,0,0,0,5.614.335c.471-.037.938-.116,1.408-.183s.927-.191,1.393-.283c.235-.042.458-.123.686-.186l.683-.2c.453-.141.893-.32,1.34-.479.44-.176.866-.388,1.3-.581s.84-.442,1.257-.667c.408-.241.8-.506,1.2-.759s.765-.558,1.144-.841a17.975,17.975,0,0,0,3.828-4.121,27.591,27.591,0,0,1-4.192,3.634c-.388.248-.765.51-1.152.756-.4.228-.788.471-1.191.688s-.809.43-1.225.623-.833.38-1.26.545-.851.338-1.286.479-.872.28-1.314.4-.885.238-1.335.327l-.676.128c-.227.04-.45.1-.678.123a27.609,27.609,0,0,1-5.542.267Z" transform="translate(-937.565 -811.202)" fill="#ff9a6c"/>
                    <path id="Trazado_818825" data-name="Trazado 818825" d="M1155.44,832.7a12.3,12.3,0,0,0,.875,2.846c.1.228.2.455.315.678l.346.663c.121.218.256.429.382.644l.406.629a15.414,15.414,0,0,0,1.926,2.288,12.4,12.4,0,0,0,2.348,1.832c-.649-.754-1.288-1.487-1.9-2.241s-1.184-1.527-1.733-2.32l-.408-.6c-.131-.2-.256-.409-.39-.608l-.384-.615c-.118-.21-.244-.417-.37-.625-.487-.838-.943-1.7-1.416-2.573Z" transform="translate(-1145.48 -777.85)" fill="#ff9a6c"/>
                  </g>
                  <g id="Grupo_1072555" data-name="Grupo 1072555" transform="translate(4.378 28.329)">
                    <rect id="Rectángulo_376021" data-name="Rectángulo 376021" width="9.174" height="15.233" rx="4.587" transform="translate(52.34 22.218) rotate(-172.25)" fill="#ffc89f"/>
                    <rect id="Rectángulo_376022" data-name="Rectángulo 376022" width="9.174" height="15.233" rx="4.587" transform="translate(9.09 16.331) rotate(-172.25)" fill="#ffc89f"/>
                    <g id="Grupo_1072553" data-name="Grupo 1072553" transform="translate(48.802 10.035)">
                      <path id="Trazado_818826" data-name="Trazado 818826" d="M911.984,735.75a1.605,1.605,0,0,1,.783.951,3.721,3.721,0,0,1,.191,1.218,6,6,0,0,1-.5,2.406,3.212,3.212,0,0,1-.655.966,1.41,1.41,0,0,1-.4.29c-.021.008-.034.008-.032.013s.013.013.008.016-.053-.052-.078-.128a2.342,2.342,0,0,1-.087-.579c-.013-.21-.006-.427,0-.647.011-.438.048-.88.076-1.33a7.806,7.806,0,0,0-.438,1.28,5.71,5.71,0,0,0-.126.678,2.351,2.351,0,0,0,.008.744.845.845,0,0,0,.228.453.6.6,0,0,0,.3.157.726.726,0,0,0,.3-.006,1.789,1.789,0,0,0,.725-.395,3.378,3.378,0,0,0,.884-1.183,5.068,5.068,0,0,0,.414-2.781,3.422,3.422,0,0,0-.456-1.346,2,2,0,0,0-.485-.529,1.29,1.29,0,0,0-.647-.248Z" transform="translate(-910.645 -734.951)" fill="#ff9a6c"/>
                      <path id="Trazado_818827" data-name="Trazado 818827" d="M919.724,733.384a4.129,4.129,0,0,0,.322-.756c.078-.241.139-.474.2-.688a2.783,2.783,0,0,1,.2-.545.45.45,0,0,1,.173-.188,1.225,1.225,0,0,1,.369-.124.686.686,0,0,0-.395-.257.739.739,0,0,0-.539.1,1.354,1.354,0,0,0-.555.8,2.152,2.152,0,0,0-.06.851,1.852,1.852,0,0,0,.288.807Z" transform="translate(-919.42 -730.81)" fill="#ff9a6c"/>
                    </g>
                    <g id="Grupo_1072554" data-name="Grupo 1072554" transform="translate(2.464 3.974)">
                      <path id="Trazado_818828" data-name="Trazado 818828" d="M1202.5,697.616a1.267,1.267,0,0,0-.689.065,1.965,1.965,0,0,0-.61.38,3.4,3.4,0,0,0-.8,1.175,5.068,5.068,0,0,0-.345,2.791,3.386,3.386,0,0,0,.534,1.375,1.8,1.8,0,0,0,.592.574.749.749,0,0,0,.285.086.609.609,0,0,0,.335-.071.844.844,0,0,0,.34-.375,2.386,2.386,0,0,0,.207-.715,5.869,5.869,0,0,0,.06-.688,7.7,7.7,0,0,0-.079-1.351c-.092.44-.175.877-.281,1.3-.053.212-.105.422-.175.623a2.37,2.37,0,0,1-.239.534c-.045.066-.1.112-.11.1s.01-.01.013-.013-.008-.008-.027-.021a1.387,1.387,0,0,1-.312-.387,3.192,3.192,0,0,1-.374-1.105,6.009,6.009,0,0,1,.159-2.454,3.694,3.694,0,0,1,.51-1.123,1.6,1.6,0,0,1,1.01-.707Z" transform="translate(-1199.99 -696.907)" fill="#ff9a6c"/>
                      <path id="Trazado_818829" data-name="Trazado 818829" d="M1193.26,696.046a1.862,1.862,0,0,0,.494-.7,2.146,2.146,0,0,0,.17-.836,1.344,1.344,0,0,0-.32-.921.732.732,0,0,0-.493-.24.692.692,0,0,0-.45.142,1.22,1.22,0,0,1,.322.218.453.453,0,0,1,.117.228,2.72,2.72,0,0,1,.044.578c0,.223,0,.464.01.717A4.073,4.073,0,0,0,1193.26,696.046Z" transform="translate(-1190.229 -693.349)" fill="#ff9a6c"/>
                    </g>
                  </g>
                  <g id="Grupo_1072558" data-name="Grupo 1072558" transform="translate(17.484 19.463)">
                    <g id="Grupo_1072556" data-name="Grupo 1072556" transform="translate(0 6.403)">
                      <path id="Trazado_818830" data-name="Trazado 818830" d="M1114.786,674.473a1.947,1.947,0,1,0,2.192-1.667A1.947,1.947,0,0,0,1114.786,674.473Z" transform="translate(-1113.008 -669.677)" fill="#1b1b2f"/>
                      <path id="Trazado_818831" data-name="Trazado 818831" d="M1100.5,654.774a8,8,0,0,1,2.045-.626,6.46,6.46,0,0,1,2.081-.015,3.629,3.629,0,0,1,.51.1l.254.057c.084.021.164.058.248.083l.5.167c.157.076.317.149.479.218l.243.108.23.134.468.264c.3.188.592.406.911.6a10.729,10.729,0,0,0-.759-.8l-.435-.345-.222-.17-.241-.142c-.16-.1-.324-.189-.489-.278s-.348-.144-.521-.215c-.087-.034-.175-.073-.265-.1l-.275-.07a4.047,4.047,0,0,0-.553-.12,5.327,5.327,0,0,0-2.244.133,4.889,4.889,0,0,0-1.958,1.021Z" transform="translate(-1100.5 -653.557)" fill="#1b1b2f"/>
                    </g>
                    <g id="Grupo_1072557" data-name="Grupo 1072557" transform="translate(20.25 9.16)">
                      <path id="Trazado_818832" data-name="Trazado 818832" d="M989.626,691.513a1.947,1.947,0,1,0,2.192-1.667A1.947,1.947,0,0,0,989.626,691.513Z" transform="translate(-987.848 -686.716)" fill="#1b1b2f"/>
                      <path id="Trazado_818833" data-name="Trazado 818833" d="M975.34,671.814a8,8,0,0,1,2.045-.626,6.464,6.464,0,0,1,2.081-.015,3.635,3.635,0,0,1,.51.1l.254.057c.084.021.163.058.248.082l.5.167c.157.076.317.149.479.218l.243.108.23.134.468.264c.3.188.592.406.911.6a10.682,10.682,0,0,0-.759-.8l-.435-.345-.222-.17-.241-.142c-.16-.1-.324-.189-.489-.278s-.348-.144-.521-.215c-.087-.034-.175-.073-.265-.1l-.275-.07a4.071,4.071,0,0,0-.553-.12,5.33,5.33,0,0,0-2.244.133,4.889,4.889,0,0,0-1.958,1.021Z" transform="translate(-975.34 -670.597)" fill="#1b1b2f"/>
                    </g>
                    <path id="Trazado_818834" data-name="Trazado 818834" d="M1084.741,723.94c-.333.781-.617,1.576-.882,2.377s-.508,1.607-.743,2.416a5.427,5.427,0,0,0-.254,1.288,3.48,3.48,0,0,0,.189,1.325,2.226,2.226,0,0,0,.78,1.09c.354.235.705.466,1.073.681-.294-.306-.607-.592-.913-.88a2.111,2.111,0,0,1-.552-1.011,3.487,3.487,0,0,1-.084-1.173,5.266,5.266,0,0,1,.264-1.178c.223-.812.442-1.626.631-2.446s.367-1.647.492-2.487Z" transform="translate(-1074.087 -706.15)" fill="#1b1b2f"/>
                    <path id="Trazado_818835" data-name="Trazado 818835" d="M1095.981,616.226c.9.068,1.578.105,2.22.173s1.192.118,1.749.215a1,1,0,0,1,.209.032l.21.039c.071.01.141.021.214.028s.141.034.214.045c.144.032.293.052.445.074.149.039.3.073.463.1.079.016.163.024.248.036s.16.044.246.06c.168.039.345.068.531.1a8.238,8.238,0,0,0,1.215.185,3.316,3.316,0,0,0-.181-.629,3.585,3.585,0,0,0-.272-.581c-.115-.173-.238-.346-.37-.511-.065-.086-.136-.163-.205-.244s-.154-.146-.236-.214c-.162-.139-.332-.272-.505-.4-.184-.112-.377-.212-.574-.307-.1-.047-.2-.1-.3-.134l-.316-.1a3.858,3.858,0,0,0-.646-.149,4.437,4.437,0,0,0-2.576.362,2.223,2.223,0,0,0-.286.154c-.094.055-.186.108-.275.168a4.5,4.5,0,0,0-.5.408,2.853,2.853,0,0,0-.723,1.091Z" transform="translate(-1095.249 -613.985)" fill="#1b1b2f"/>
                    <path id="Trazado_818836" data-name="Trazado 818836" d="M970.832,633.266c.9.068,1.578.105,2.22.173s1.192.118,1.749.215a1,1,0,0,1,.209.032l.21.039c.071.01.141.021.214.027s.141.034.214.045c.142.032.293.052.445.074.149.039.3.073.463.1.079.016.163.024.248.036s.16.044.246.06c.167.039.345.068.531.1a8.267,8.267,0,0,0,1.215.184,3.313,3.313,0,0,0-.181-.629,3.6,3.6,0,0,0-.272-.581c-.115-.173-.238-.346-.371-.511-.065-.086-.136-.163-.206-.244s-.154-.146-.236-.214c-.162-.139-.332-.272-.5-.4-.185-.112-.377-.212-.574-.307-.1-.047-.2-.1-.3-.134l-.316-.1a3.857,3.857,0,0,0-.646-.149,4.438,4.438,0,0,0-2.576.362,2.215,2.215,0,0,0-.286.154c-.094.055-.186.108-.275.168a4.517,4.517,0,0,0-.5.408,2.854,2.854,0,0,0-.723,1.091Z" transform="translate(-949.85 -628.268)" fill="#1b1b2f"/>
                  </g>
                </g>
                <path id="Trazado_818837" data-name="Trazado 818837" d="M832.99,452.577s2.393-3.81.565-5.385c-3.708-3.194-19.888,4.045-14.039,19.721,0,0-6.76.447-3.242-10.1,0,0-3.283,6.81-1.217,10.187,0,0-5.27-.214-6.033-5.459a7.672,7.672,0,0,0,1.369,4.106A3.887,3.887,0,0,1,807,461.264a15.313,15.313,0,0,1,1.571-6.341,13.9,13.9,0,0,0-2.353,11.633s-5.2-.065-5.553-5.962a8.743,8.743,0,0,0,1.214,4.666,3.3,3.3,0,0,1-2.55-1.186s1.621,5.6-2.189,9.664c0,0,1.362-3.208-4.126-12.586s.456-18.123,6.143-21.132c3.39-1.794,10.365-5.063,13.537-7.216,4.475-3.037,12.4-10.513,20.949,5.4,0,0,2.653-3.305,5.595-1.338s6.646,6.386,11.515,9.164.631,7.446,3.433,13.309,7.438,8.061,8.677,2.982c0,0,1.882,7.244-4.066,4.165,0,0,1.354,4.309,4.456,5.305,0,0-1.786,3.15-5.745-.364a7.23,7.23,0,0,0,3.176,2.364s-1.759,1.8-4.792-1.226c0,0-.67,5.063.728,5.253,0,0-5.927,2.508-7.664-2.854,0,0-2.2-.984-6.739,6.367,0,0,1.411-7.2,1.259-7.024s-2.495,2.278-1.83,4.94c0,0-4.239-3.8-1.725-11.7,0,0-2.176,4.317-1.44,6.687,0,0-2.8-.3,1.047-7.76,3.9-7.562-2.06-16.631-6.543-13.889Z" transform="translate(-787.709 -428.377)" fill="#1b1b2f"/>
                <path id="Trazado_818838" data-name="Trazado 818838" d="M838.348,466.94a10.813,10.813,0,0,1,1.113-1.765,4.124,4.124,0,0,1,1.451-1.212,2.35,2.35,0,0,1,1.681-.076,6.909,6.909,0,0,1,1.7.869,14.18,14.18,0,0,1,1.628,1.272,17.368,17.368,0,0,1,1.461,1.542c.456.545.887,1.112,1.3,1.694s.8,1.183,1.22,1.776c.21.3.435.592.678.875a9.841,9.841,0,0,0,.78.8,21.057,21.057,0,0,0,1.712,1.367c.581.427,1.17.835,1.76,1.238.3.2.584.392.906.591s.628.367.924.542a6.92,6.92,0,0,1,1.552,1.15,4.265,4.265,0,0,1,.953,1.6,7.379,7.379,0,0,1,.338,1.982,18.574,18.574,0,0,1-.042,2.115.064.064,0,0,0,.062.07.069.069,0,0,0,.066-.042,9.965,9.965,0,0,0,.555-2.11,6.936,6.936,0,0,0-.016-2.26,4.94,4.94,0,0,0-.985-2.158,6.924,6.924,0,0,0-1.76-1.518l-3.6-2.249c-.592-.377-1.179-.759-1.725-1.168a13.631,13.631,0,0,1-1.565-1.335,35.066,35.066,0,0,1-2.8-3.218,24.081,24.081,0,0,0-2.752-3.4,5.116,5.116,0,0,0-2.034-1.152,3.433,3.433,0,0,0-1.257-.11,3.041,3.041,0,0,0-1.212.395,4.153,4.153,0,0,0-1.569,1.741,6.09,6.09,0,0,0-.647,2.111.065.065,0,0,0,.058.073.067.067,0,0,0,.066-.036v0Z" transform="translate(-792.346 -457.097)" fill="#1b1b2f"/>
                <path id="Trazado_818839" data-name="Trazado 818839" d="M1207.282,508.7a9.706,9.706,0,0,0-1.584.9,12.743,12.743,0,0,0-1.432,1.136,13.475,13.475,0,0,0-1.27,1.324,9.652,9.652,0,0,0-1.056,1.5,11.837,11.837,0,0,0-.767,1.675c-.217.573-.411,1.149-.6,1.723a30.1,30.1,0,0,0-.946,3.508,9.962,9.962,0,0,0-.217,1.851,6.5,6.5,0,0,0,.273,1.914,7.45,7.45,0,0,0,.8,1.764,15.268,15.268,0,0,0,1.057,1.5l1.1,1.382c.359.459.71.922,1.053,1.4.691.943,1.325,1.937,2,2.938a.065.065,0,0,0,.092.018.067.067,0,0,0,.028-.07,15.557,15.557,0,0,0-1.246-3.416,21.161,21.161,0,0,0-1.917-3.085,13.217,13.217,0,0,1-1.8-2.825,7.045,7.045,0,0,1-.393-1.582,12.353,12.353,0,0,1-.116-1.713,8.807,8.807,0,0,1,.628-3.435,12.782,12.782,0,0,1,1.874-2.946l1.052-1.374q.532-.682,1.1-1.346c.377-.443.767-.877,1.16-1.319l1.21-1.322a.066.066,0,0,0,0-.092.067.067,0,0,0-.071-.011l-.008,0Z" transform="translate(-1197.937 -495.693)" fill="#1b1b2f"/>
                <path id="Trazado_818840" data-name="Trazado 818840" d="M1110.454,443.757l-3.375,1.678c-1.113.555-2.237,1.055-3.328,1.665-.549.3-1.1.594-1.679.848a10.81,10.81,0,0,1-1.781.6,16.139,16.139,0,0,1-3.726.367,15.389,15.389,0,0,0-3.856.633l-.474.147-.468.172c-.316.105-.613.257-.919.393a10.25,10.25,0,0,0-1.707,1.063,9.169,9.169,0,0,0-2.55,3.077,7.569,7.569,0,0,0-.838,3.807.065.065,0,0,0,.07.06.064.064,0,0,0,.058-.049v-.006a10.108,10.108,0,0,1,1.542-3.318,9.972,9.972,0,0,1,2.521-2.48,14.354,14.354,0,0,1,3.171-1.618,20.474,20.474,0,0,1,3.547-.9c1.268-.251,2.5-.638,3.723-.964.613-.168,1.228-.328,1.851-.474s1.252-.286,1.872-.468a13.094,13.094,0,0,0,3.485-1.636,15.276,15.276,0,0,0,1.56-1.136,9.77,9.77,0,0,0,1.38-1.359.067.067,0,0,0-.01-.094.067.067,0,0,0-.071-.008h0Z" transform="translate(-1082.711 -441.261)" fill="#1b1b2f"/>
                <path id="Trazado_818841" data-name="Trazado 818841" d="M992.574,484.554a10.515,10.515,0,0,0-3.922-3.322,6.968,6.968,0,0,0-2.545-.673,6.013,6.013,0,0,0-2.618.421,12.412,12.412,0,0,0-4.145,3.129c-1.181,1.257-2.218,2.618-3.294,3.949,1.226-1.2,2.372-2.474,3.584-3.665a21.282,21.282,0,0,1,1.906-1.668,9.1,9.1,0,0,1,2.14-1.262,6.242,6.242,0,0,1,4.809.139,10.525,10.525,0,0,1,2.183,1.256,13.034,13.034,0,0,1,1.9,1.7Z" transform="translate(-946.993 -472.104)" fill="#1f4068"/>
                <path id="Trazado_818842" data-name="Trazado 818842" d="M1042.448,568.343a9.9,9.9,0,0,1,.118-2.055,17.952,17.952,0,0,1,.4-2.01,18.144,18.144,0,0,1,1.455-3.807,17.806,17.806,0,0,1,2.268-3.378,20.689,20.689,0,0,1,3.04-2.764,13.927,13.927,0,0,0-3.339,2.488,14.9,14.9,0,0,0-2.432,3.416,15.18,15.18,0,0,0-1.385,3.954,13.822,13.822,0,0,0-.262,2.077,7.72,7.72,0,0,0,.136,2.079Z" transform="translate(-1014.868 -533.951)" fill="#1f4068"/>
                <path id="Trazado_818843" data-name="Trazado 818843" d="M955.426,515.442a5.329,5.329,0,0,0,1.755-2.372,5.165,5.165,0,0,0,.322-1.485,5.569,5.569,0,0,0-.126-1.519,7.072,7.072,0,0,0-1.317-2.692,10.151,10.151,0,0,0-2.129-2.043,19.6,19.6,0,0,1,1.8,2.278,9.665,9.665,0,0,1,.688,1.246,6.237,6.237,0,0,1,.455,1.327,5.438,5.438,0,0,1-.073,2.762A6.832,6.832,0,0,1,955.426,515.442Z" transform="translate(-908.352 -492.879)" fill="#1f4068"/>
                <path id="Trazado_818844" data-name="Trazado 818844" d="M1117.742,622.578a5.262,5.262,0,0,1-.8-1.416,6.676,6.676,0,0,1-.372-1.544l-.045-.4-.015-.4c-.029-.269.01-.537,0-.809l.05-.819c.029-.273.062-.548.073-.833-.121.254-.222.518-.322.783-.071.272-.154.545-.2.825a5.905,5.905,0,0,0-.052,1.715,4.7,4.7,0,0,0,.521,1.649,3.11,3.11,0,0,0,1.162,1.244Z" transform="translate(-1094.807 -585.945)" fill="#1f4068"/>
                <path id="Trazado_818845" data-name="Trazado 818845" d="M929.448,544.034a2.61,2.61,0,0,0-.769-1.307,1.713,1.713,0,0,0-.728-.395,1.534,1.534,0,0,0-.854.042,2.665,2.665,0,0,0-1.231.979,4.629,4.629,0,0,0-.686,1.332c.341-.366.655-.735.992-1.065a3.082,3.082,0,0,1,1.09-.752,1.3,1.3,0,0,1,1.17.18A4.6,4.6,0,0,1,929.448,544.034Z" transform="translate(-875.635 -523.859)" fill="#1f4068"/>
                <path id="Trazado_818846" data-name="Trazado 818846" d="M898.367,557.961a9.3,9.3,0,0,0-1.529-1.05,11.839,11.839,0,0,1-1.476-1.014,7.282,7.282,0,0,1-1.22-1.275,14.966,14.966,0,0,1-.953-1.552,5.473,5.473,0,0,0,.612,1.773,5.278,5.278,0,0,0,1.23,1.454,7.14,7.14,0,0,0,1.618.973c.57.256,1.142.448,1.715.691Z" transform="translate(-839.378 -532.895)" fill="#1f4068"/>
                <path id="Trazado_818847" data-name="Trazado 818847" d="M863.851,637.658a9.583,9.583,0,0,0,2.116-1.961,10.936,10.936,0,0,0,1.508-2.487,10.328,10.328,0,0,0,.777-2.806,8.339,8.339,0,0,0-.116-2.885,13.936,13.936,0,0,1-.285,2.818A13.562,13.562,0,0,1,867,633a14.74,14.74,0,0,1-1.356,2.453,18.032,18.032,0,0,1-1.793,2.2Z" transform="translate(-804.588 -595.299)" fill="#1f4068"/>
                <path id="Trazado_818848" data-name="Trazado 818848" d="M891.5,696.12a4.05,4.05,0,0,1,.5-.838c.186-.265.4-.514.6-.764.421-.494.861-.974,1.307-1.446l1.359-1.414c.455-.474.914-.945,1.344-1.458a13.64,13.64,0,0,0-1.62,1.16c-.262.2-.5.437-.751.655s-.474.466-.71.7a12.447,12.447,0,0,0-1.254,1.563,6.692,6.692,0,0,0-.5.879,2.715,2.715,0,0,0-.281.966Z" transform="translate(-837.352 -647.838)" fill="#1f4068"/>
                <path id="Trazado_818849" data-name="Trazado 818849" d="M867.312,663.95a13.06,13.06,0,0,0-1.285,2.869,11.742,11.742,0,0,0-.565,3.121,6.775,6.775,0,0,0,.594,3.142,5.009,5.009,0,0,0,.925,1.314,5.079,5.079,0,0,0,1.294.906,6.823,6.823,0,0,1-1.1-1.076,5.53,5.53,0,0,1-.744-1.309,5.97,5.97,0,0,1-.371-1.453,7.969,7.969,0,0,1-.074-1.51,15.13,15.13,0,0,1,.435-3.029,27.974,27.974,0,0,1,.895-2.975Z" transform="translate(-804.801 -625.835)" fill="#1f4068"/>
                <path id="Trazado_818850" data-name="Trazado 818850" d="M932.684,662.28a6.507,6.507,0,0,0-.857,1.142,9.562,9.562,0,0,0-.649,1.268,8.427,8.427,0,0,0-.443,1.358,5.6,5.6,0,0,0-.163,1.422c.2-.438.369-.87.548-1.3l.537-1.28.531-1.288C932.362,663.172,932.534,662.736,932.684,662.28Z" transform="translate(-879.743 -624.435)" fill="#1f4068"/>
                <path id="Trazado_818851" data-name="Trazado 818851" d="M915.308,586.73a9.693,9.693,0,0,1,1.88,2.754,8.09,8.09,0,0,1,.728,3.183,9.351,9.351,0,0,1-.532,3.239,17.324,17.324,0,0,1-1.417,3.048,10.757,10.757,0,0,0,1.8-2.906,9.008,9.008,0,0,0,.515-1.655,8.437,8.437,0,0,0,.157-1.738,7.465,7.465,0,0,0-.885-3.349,7.347,7.347,0,0,0-2.242-2.574Z" transform="translate(-863.025 -561.109)" fill="#1f4068"/>
                <path id="Trazado_818852" data-name="Trazado 818852" d="M823.46,655.01a8.9,8.9,0,0,0-.162,2.742,8.734,8.734,0,0,0,.663,2.7,6.474,6.474,0,0,0,1.62,2.278,5.741,5.741,0,0,0,2.429,1.3,8.134,8.134,0,0,1-2.145-1.589c-.155-.157-.288-.332-.432-.5s-.264-.349-.377-.539a7.229,7.229,0,0,1-.618-1.158,11.092,11.092,0,0,1-.739-2.545,17.2,17.2,0,0,1-.239-2.691Z" transform="translate(-757.706 -618.342)" fill="#1f4068"/>
                <path id="Trazado_818853" data-name="Trazado 818853" d="M1129.944,582.406a9.516,9.516,0,0,1-.348-3.807,6.731,6.731,0,0,1,1.409-3.44,7.131,7.131,0,0,1,1.348-1.3,15.347,15.347,0,0,1,1.613-1.013,26.483,26.483,0,0,0,3.288-2.1c-1.181.553-2.351,1.087-3.514,1.675a11.041,11.041,0,0,0-1.7,1.021,7.546,7.546,0,0,0-1.429,1.408,6.831,6.831,0,0,0-.963,1.76,7.247,7.247,0,0,0-.4,1.953,8.378,8.378,0,0,0,.693,3.838Z" transform="translate(-1116.457 -547.715)" fill="#1f4068"/>
                <path id="Trazado_818854" data-name="Trazado 818854" d="M901.72,516.567a1.5,1.5,0,0,1,.989-.217,2.422,2.422,0,0,1,.924.374,10.944,10.944,0,0,1,1.605,1.34l1.539,1.49a17.561,17.561,0,0,0,1.641,1.411c-.43-.584-.88-1.142-1.346-1.691s-.951-1.081-1.474-1.587a7.505,7.505,0,0,0-1.77-1.317,2.374,2.374,0,0,0-1.108-.273,1.432,1.432,0,0,0-.558.137,1.508,1.508,0,0,0-.44.333Z" transform="translate(-850.808 -501.903)" fill="#1f4068"/>
                <path id="Trazado_818855" data-name="Trazado 818855" d="M943.15,524.56c.277-1,.508-1.966.833-2.9a12.418,12.418,0,0,1,.557-1.367,8.132,8.132,0,0,1,.8-1.27,3.477,3.477,0,0,0-1.147,1.063,5.867,5.867,0,0,0-.7,1.408,7.247,7.247,0,0,0-.34,1.521,5.842,5.842,0,0,0,0,1.55Z" transform="translate(-894.426 -504.354)" fill="#1f4068"/>
                <path id="Trazado_818856" data-name="Trazado 818856" d="M808.78,641.35a4.571,4.571,0,0,0,.665,1.6,5.821,5.821,0,0,0,1.149,1.323,5.747,5.747,0,0,0,1.487.929,5.247,5.247,0,0,0,1.678.429c-.254-.144-.518-.244-.764-.382s-.5-.256-.728-.408a9.36,9.36,0,0,1-1.333-.961,9.5,9.5,0,0,1-1.16-1.167,11.79,11.79,0,0,1-.992-1.361Z" transform="translate(-741.112 -606.892)" fill="#1f4068"/>
                <path id="Trazado_818857" data-name="Trazado 818857" d="M939.311,491.77c0-.6-.016-1.189,0-1.772.013-.29.019-.579.058-.861a3.983,3.983,0,0,1,.162-.814,1.037,1.037,0,0,1,1.013-.883,4.824,4.824,0,0,1,1.641.466,3.1,3.1,0,0,0-1.615-.87,1.27,1.27,0,0,0-1,.272,1.845,1.845,0,0,0-.536.861,4.789,4.789,0,0,0-.128,1.846,6.843,6.843,0,0,0,.406,1.755Z" transform="translate(-890.584 -477.532)" fill="#1f4068"/>
                <path id="Trazado_818858" data-name="Trazado 818858" d="M1100.022,477.432c-.659.629-1.3,1.264-1.959,1.874s-1.338,1.193-2.047,1.734a21.365,21.365,0,0,1-2.209,1.506,23.142,23.142,0,0,1-2.407,1.217,10.206,10.206,0,0,0,2.6-.859,13.44,13.44,0,0,0,2.335-1.453,15.92,15.92,0,0,0,2.016-1.861,16.211,16.211,0,0,0,1.673-2.16Z" transform="translate(-1073.104 -469.493)" fill="#1f4068"/>
                <path id="Trazado_818859" data-name="Trazado 818859" d="M1014.5,454.806a8.648,8.648,0,0,0-1.537-1.459,9.514,9.514,0,0,0-1.84-1.089,8.389,8.389,0,0,0-4.22-.73,9.287,9.287,0,0,0-2.112.461c-.171.055-.335.133-.5.2a4.966,4.966,0,0,0-.492.218l-.481.24c-.155.087-.307.183-.461.275a13.32,13.32,0,0,0-3.2,2.77,18.962,18.962,0,0,1,3.406-2.417,10.03,10.03,0,0,1,3.891-1.228,7.951,7.951,0,0,1,2.037.058,9.4,9.4,0,0,1,1.98.527,10.876,10.876,0,0,1,1.853.925,11.3,11.3,0,0,1,1.679,1.249Z" transform="translate(-972.732 -447.753)" fill="#1f4068"/>
                <path id="Trazado_818860" data-name="Trazado 818860" d="M1209.693,520.75a10.516,10.516,0,0,0-1.727,1.065,12.051,12.051,0,0,0-1.524,1.349,10.184,10.184,0,0,0-1.252,1.613,6.936,6.936,0,0,0-.83,1.857c.374-.566.754-1.107,1.164-1.624s.841-1.013,1.3-1.489.926-.938,1.406-1.4.979-.9,1.466-1.374Z" transform="translate(-1201.05 -505.804)" fill="#1f4068"/>
                <path id="Trazado_818861" data-name="Trazado 818861" d="M1182.961,562.06a12.992,12.992,0,0,0-1.7,3.744,12.787,12.787,0,0,0-.4,2.04,11.011,11.011,0,0,0-.028,2.09,9.392,9.392,0,0,0,.406,2.056,8.815,8.815,0,0,0,.869,1.9,9.64,9.64,0,0,0,2.865,2.953,12.283,12.283,0,0,1-2.513-3.153,9.7,9.7,0,0,1-1.108-3.8,13.1,13.1,0,0,1,.3-3.987,18.748,18.748,0,0,1,1.312-3.843Z" transform="translate(-1172.51 -540.431)" fill="#1f4068"/>
                <path id="Trazado_818862" data-name="Trazado 818862" d="M1102.514,477.44q-1.269,1.575-2.55,3.124c-.861,1.029-1.723,2.055-2.628,3.04s-1.815,1.964-2.794,2.874a22.787,22.787,0,0,1-3.132,2.5,14.492,14.492,0,0,0,3.4-2.2,28.77,28.77,0,0,0,2.911-2.828,40.243,40.243,0,0,0,2.561-3.139A34.354,34.354,0,0,0,1102.514,477.44Z" transform="translate(-1075.596 -469.502)" fill="#1f4068"/>
                <ellipse id="Elipse_9734" data-name="Elipse 9734" cx="3.699" cy="3.136" rx="3.699" ry="3.136" transform="translate(32.719 66.182) rotate(-172.25)" fill="#ff9a6c"/>
              </g>
              <rect id="Rectángulo_376023" data-name="Rectángulo 376023" width="0.485" height="275.692" transform="translate(54.023)" fill="#1b1a2e"/>
              <path id="Trazado_818863" data-name="Trazado 818863" d="M1052.99,819.37a3.4,3.4,0,0,0,1.642,1.325,4.2,4.2,0,0,0,2.147.254,3.619,3.619,0,0,0,1.964-.926,2.636,2.636,0,0,0,.877-1.914,3.139,3.139,0,0,1-1.123,1.626,3.863,3.863,0,0,1-1.79.733,4.045,4.045,0,0,1-.979.037,4.367,4.367,0,0,1-.974-.167A4.552,4.552,0,0,1,1052.99,819.37Z" transform="translate(-955.669 -743.983)" fill="#e3405a"/>
              <g id="Grupo_1072561" data-name="Grupo 1072561" transform="translate(96.522 148.253)" opacity="0.4">
                <path id="Trazado_818864" data-name="Trazado 818864" d="M790.58,1288.1c16.126-11.649,37.768-3.788,49.886-11.844,0,0-4.631,3.27-21.935,3.042-17.523-.231-27.95,8.8-27.95,8.8Z" transform="translate(-790.58 -1276.26)" fill="#a65b3c"/>
              </g>
              <g id="Grupo_1072562" data-name="Grupo 1072562" transform="translate(94.488 161.112)" opacity="0.4">
                <path id="Trazado_818865" data-name="Trazado 818865" d="M1004.894,1369.384s-3.943-14.4-20.574-13.075C984.32,1356.309,1004.894,1351.562,1004.894,1369.384Z" transform="translate(-984.32 -1355.736)" fill="#a65b3c"/>
              </g>
              <g id="Grupo_1072565" data-name="Grupo 1072565" transform="translate(93.637 135.451)">
                <g id="Grupo_1072563" data-name="Grupo 1072563" transform="translate(0.828)" opacity="0.4">
                  <path id="Trazado_818866" data-name="Trazado 818866" d="M955.912,1215.437c3.744-5.386,5.245-15.113,5.245-15.113a25.415,25.415,0,0,1-.165,4.014c-.209,1.731-.958,5.219,3.153,1.618,5.132-4.5,10.889-8.826,10.889-8.826-12.419,10.06-14.633,17.182-26.365,25.535A44.385,44.385,0,0,0,955.912,1215.437Z" transform="translate(-948.67 -1197.13)" fill="#a65b3c"/>
                </g>
                <g id="Grupo_1072564" data-name="Grupo 1072564" transform="translate(0 25.536)" opacity="0.4">
                  <path id="Trazado_818867" data-name="Trazado 818867" d="M1112.448,1354.96c-.537.4-.828.582-.828.582C1111.9,1355.348,1112.177,1355.154,1112.448,1354.96Z" transform="translate(-1111.62 -1354.96)" fill="#a65b3c"/>
                </g>
              </g>
              <g id="Grupo_1072566" data-name="Grupo 1072566" transform="translate(107.712 105.876)" opacity="0.4">
                <path id="Trazado_818868" data-name="Trazado 818868" d="M983.423,1028.389s5.881-9.656-.39-14.049l-5.567,5.906s10.578-8.926,5.959,8.143Z" transform="translate(-977.465 -1014.34)" fill="#a65b3c"/>
              </g>
              <g id="Grupo_1072567" data-name="Grupo 1072567" transform="translate(70.863 111.28)" opacity="0.4">
                <path id="Trazado_818869" data-name="Trazado 818869" d="M1029.76,1061.632s4.713-7.952,16.3-8.472c0,0,11.161-7.38,20.545-4.92,0,0-6.464-2.475-19.765,4.92C1046.842,1053.161,1035.222,1054.224,1029.76,1061.632Z" transform="translate(-1029.76 -1047.739)" fill="#a65b3c"/>
              </g>
              <g id="Grupo_1072568" data-name="Grupo 1072568" transform="translate(89.404 165.202)" opacity="0.4">
                <path id="Trazado_818870" data-name="Trazado 818870" d="M1051.433,1381.571a10.312,10.312,0,0,0,6.184,4.673s11.758,12.491,2.073,26.052c0,0,14.607-8.535.17-24.771,0,0-.647-8.768-8.426-5.956Z" transform="translate(-1051.433 -1381.013)" fill="#a65b3c"/>
              </g>
              <g id="Grupo_1072569" data-name="Grupo 1072569" transform="translate(91.729 163.21)" opacity="0.4">
                <path id="Trazado_818871" data-name="Trazado 818871" d="M1076.855,1372.616s-4.789-4.661-9.975-2.453C1066.88,1370.164,1075.514,1365.586,1076.855,1372.616Z" transform="translate(-1066.88 -1368.699)" fill="#a65b3c"/>
              </g>
              <g id="Grupo_1072570" data-name="Grupo 1072570" transform="translate(59.75 168.214)" opacity="0.4">
                <path id="Trazado_818872" data-name="Trazado 818872" d="M1181.338,1399.63s-11.342,17.49-27.958,23.99C1153.38,1423.619,1167.189,1421.99,1181.338,1399.63Z" transform="translate(-1153.38 -1399.63)" fill="#a65b3c"/>
              </g>
              <g id="Grupo_1072571" data-name="Grupo 1072571" transform="translate(64.97 92.546)" opacity="0.4">
                <path id="Trazado_818873" data-name="Trazado 818873" d="M1258.508,937.438s.383-2.064-2-5.488c0,0-3.99,1.667-4.81,4.878,0,0,3.749-7.692,6.81.61Z" transform="translate(-1251.699 -931.95)" fill="#a65b3c"/>
              </g>
              <g id="Grupo_1072572" data-name="Grupo 1072572" transform="translate(102.767 263.779)" opacity="0.4">
                <path id="Trazado_818874" data-name="Trazado 818874" d="M1060.159,1990.28a.168.168,0,0,1-.029,0h0A.15.15,0,0,0,1060.159,1990.28Z" transform="translate(-1060.13 -1990.28)" fill="#a65b3c"/>
              </g>
              <g id="Grupo_1072575" data-name="Grupo 1072575" transform="translate(54.202 187.264)">
                <g id="Grupo_1072573" data-name="Grupo 1072573" opacity="0.4">
                  <path id="Trazado_818875" data-name="Trazado 818875" d="M1039.4,1533.88a9.2,9.2,0,0,0-4.925,2.229q-.442.383-.872.781c-5.012,4.661-13.062,11.114-19.485,2.647-9.544-12.58-14.489-16.152-14.489-16.152-2.88,1.563-2.433-1.705-4.369-6.016a40.94,40.94,0,0,1,2.365,3.886,2.11,2.11,0,0,0,3.181,1.055,43.437,43.437,0,0,1,10.581,11.287c3.864,6.122,10.119,11.648,20.4,3.472a37.059,37.059,0,0,1,11.937-6.48,42.768,42.768,0,0,0,6.624-2.741c1.149-.673,1.946-1.176,2.1-1.273a.267.267,0,0,1,.027-.018l0,0s0,0,0,0a.025.025,0,0,0,0,.01l-.019.011c-4.668,18.275-2.521,31.85-1.015,37.862a9.027,9.027,0,0,1-.992,6.818l-1.686,2.833,5.582,18.108c-1.474.65-4.585,1.171-8.664,1.537,9.743-1.38,4.909-11.33,1.92-16.17a3.325,3.325,0,0,0-4.292-1.243c-11.955,5.868-27.406,6.622-27.406,6.622a128.835,128.835,0,0,0,29.934-8.011c5.8-4.109,0-6.413-2.555-7.172a6.562,6.562,0,0,0-1.9-.272c-31.16.159-43.233-24.3-43.233-24.3,10.135,17.458,32.074,22.516,40.586,23.852a6.338,6.338,0,0,0,2.285-.037c5.126-1.076,4.49-7.977,5.728-21.275.948-10.2-4.064-12.237-7.355-11.85Z" transform="translate(-995.26 -1517.37)" fill="#a65b3c"/>
                </g>
                <g id="Grupo_1072574" data-name="Grupo 1072574" transform="translate(41.384 49.31)" opacity="0.4">
                  <path id="Trazado_818876" data-name="Trazado 818876" d="M1100.558,1822.255c-.257-.031-.523-.069-.8-.115Z" transform="translate(-1099.76 -1822.14)" fill="#a65b3c"/>
                </g>
              </g>
              <g id="Grupo_1072576" data-name="Grupo 1072576" transform="translate(113.669 103.449)" opacity="0.4">
                <path id="Trazado_818877" data-name="Trazado 818877" d="M932.814,999.34s-2.28,11.458-11.6,16.476C921.21,1015.816,930.314,1014.423,932.814,999.34Z" transform="translate(-921.21 -999.34)" fill="#a65b3c"/>
              </g>
              <path id="Trazado_818878" data-name="Trazado 818878" d="M1151.636,1328.348a1.619,1.619,0,0,0,.584-1,1.739,1.739,0,0,0-.217-1.17,1.667,1.667,0,0,0-.4-.463,1.983,1.983,0,0,0-.254-.176l-.251-.149c-.338-.193-.663-.4-.99-.615a37.88,37.88,0,0,1-3.689-2.859q-.888-.762-1.741-1.561c-.574-.528-1.136-1.069-1.7-1.615l-.417-.411c-.141-.138-.265-.277-.429-.414a1.762,1.762,0,0,0-1.147-.393,1.738,1.738,0,0,0-1.107.439,3.686,3.686,0,0,0-.744.909,4.086,4.086,0,0,1,.8-.844,1.616,1.616,0,0,1,1.052-.345,1.584,1.584,0,0,1,1.011.4c.129.121.265.275.4.416l.4.426c1.086,1.129,2.218,2.215,3.4,3.242a31.143,31.143,0,0,0,3.765,2.827c.338.2.673.408,1.024.587l.26.139a1.777,1.777,0,0,1,.234.147,1.5,1.5,0,0,1,.38.4,1.609,1.609,0,0,1,.265,1.076,1.5,1.5,0,0,1-.16.549,1.658,1.658,0,0,1-.341.469Z" transform="translate(-1062.232 -1162.588)" fill="#a65b3c"/>
              <path id="Trazado_818879" data-name="Trazado 818879" d="M1115.283,1388.818c-.246-.162-.5-.311-.749-.459s-.494-.311-.741-.463c-.482-.322-.971-.634-1.425-.99a12.757,12.757,0,0,1-1.317-1.118c-.1-.1-.2-.207-.3-.309s-.2-.212-.286-.323a4.631,4.631,0,0,1-.511-.706,3.18,3.18,0,0,0,.383.8c.078.126.168.244.252.367s.185.233.281.345.2.222.3.327l.319.309c.223.194.447.39.684.564a11.514,11.514,0,0,0,1.493.95c.262.136.528.26.795.385s.545.222.822.319Z" transform="translate(-1020.547 -1218.692)" fill="#a65b3c"/>
              <path id="Trazado_818880" data-name="Trazado 818880" d="M1331.429,1524.389a1.99,1.99,0,0,1-1.828.11,1.919,1.919,0,0,1-.714-.563,2.386,2.386,0,0,1-.239-.395l-.23-.438a18.837,18.837,0,0,0-1.027-1.694,14.967,14.967,0,0,0-1.22-1.558c.328.573.67,1.133,1,1.7s.65,1.134.964,1.707l.235.43a2.157,2.157,0,0,0,.286.437,2.015,2.015,0,0,0,.853.6,1.984,1.984,0,0,0,1.021.094,1.845,1.845,0,0,0,.9-.429Z" transform="translate(-1271.678 -1332.185)" fill="#a65b3c"/>
              <path id="Trazado_818881" data-name="Trazado 818881" d="M1054.052,1551.451a21.689,21.689,0,0,1-3.435,2.064c-1.2.6-2.435,1.107-3.684,1.586-.625.238-1.255.464-1.888.681l-.953.322-.477.163-.474.173a36.078,36.078,0,0,0-3.7,1.6,37.577,37.577,0,0,0-3.5,2.008c-.561.369-1.12.744-1.66,1.142s-1.079.8-1.6,1.217-1.048.833-1.605,1.207c-.137.1-.273.192-.412.286l-.424.269-.424.269c-.144.086-.29.165-.435.249a15.486,15.486,0,0,1-3.682,1.543c-.159.05-.324.074-.485.112s-.324.074-.489.1c-.33.044-.657.105-.989.116a9.435,9.435,0,0,1-1.982-.053,9.624,9.624,0,0,1-3.705-1.327,12.051,12.051,0,0,1-1.61-1.158,15.614,15.614,0,0,1-1.433-1.379,24.419,24.419,0,0,1-2.438-3.156,40.264,40.264,0,0,0-4.94-6.367l-.7-.727-.722-.705c-.485-.464-.979-.922-1.484-1.364a35.57,35.57,0,0,0-3.16-2.5l-.018.026a38.4,38.4,0,0,1,3.068,2.592c.982.909,1.928,1.857,2.828,2.846.231.241.445.5.668.748s.443.5.652.76l.637.773.61.795c.1.133.205.264.3.4l.291.408c.194.272.391.54.582.814.367.56.736,1.108,1.1,1.679a23.277,23.277,0,0,0,2.471,3.205,15.61,15.61,0,0,0,1.476,1.395,12.286,12.286,0,0,0,1.66,1.175,9.7,9.7,0,0,0,3.83,1.32,9.168,9.168,0,0,0,2.032.018c.338-.019.672-.091,1-.141.167-.027.33-.074.5-.112s.332-.07.49-.125a16.418,16.418,0,0,0,3.692-1.615,29.269,29.269,0,0,0,3.314-2.289,36.677,36.677,0,0,1,6.813-4.215c.6-.3,1.209-.57,1.822-.835s1.236-.508,1.861-.744l.469-.176.473-.167.95-.33c.634-.225,1.264-.456,1.89-.7a37.8,37.8,0,0,0,3.671-1.667,19.674,19.674,0,0,0,3.378-2.191l-.02-.026Z" transform="translate(-941.796 -1355.638)" fill="#a65b3c"/>
              <path id="Trazado_818882" data-name="Trazado 818882" d="M975.79,1197.052a63.278,63.278,0,0,0-7.082,6.26l-.816.856-.793.877-.791.879-.781.887c-1.052,1.173-2.1,2.353-3.155,3.517l-1.592,1.744-1.605,1.729c-.548.563-1.086,1.138-1.644,1.689l-.84.825-.419.414c-.141.137-.288.267-.43.4a78.424,78.424,0,0,1-7.242,6.035l.018.026a54.1,54.1,0,0,0,7.46-5.81,77.993,77.993,0,0,0,6.427-6.939c.511-.6,1.013-1.207,1.534-1.8l.775-.89c.259-.3.528-.584.791-.875l.8-.867.825-.845.825-.843.845-.824.835-.832.853-.815.849-.819c.281-.275.578-.534.866-.8l.866-.8.432-.4.445-.386q.888-.777,1.765-1.569l-.021-.026Z" transform="translate(-854.97 -1061.613)" fill="#a65b3c"/>
              <path id="Trazado_818883" data-name="Trazado 818883" d="M899.741,1123.59a17.242,17.242,0,0,0-2.83,2.267,22.785,22.785,0,0,0-2.4,2.728c-.188.238-.358.49-.529.739l-.259.374-.129.188-.12.194-.474.777c-.162.257-.293.531-.437.8l-.214.4-.105.2-.094.207-.374.828c-.128.273-.225.561-.333.844s-.21.566-.311.851c.514-1.094,1.034-2.178,1.65-3.21a29.15,29.15,0,0,1,1.985-3c.183-.238.361-.479.545-.714l.573-.693q.583-.684,1.2-1.338a25.446,25.446,0,0,1,2.65-2.445Z" transform="translate(-769.601 -1000.038)" fill="#a65b3c"/>
              <path id="Trazado_818884" data-name="Trazado 818884" d="M1039.679,1216.88a40.143,40.143,0,0,1-.877,3.919c-.087.324-.176.646-.272.966s-.183.642-.289.959-.2.637-.3.954l-.329.947c-.105.317-.23.628-.343.942s-.231.628-.359.935l-.372.932-.4.921c-.256.618-.55,1.22-.828,1.83s-.6,1.2-.879,1.81q.262-.429.518-.864c.168-.291.348-.576.5-.874.312-.6.639-1.184.916-1.8a38.059,38.059,0,0,0,1.547-3.728,37.08,37.08,0,0,0,1.134-3.873,24.939,24.939,0,0,0,.633-3.98Z" transform="translate(-932.726 -1078.234)" fill="#a65b3c"/>
              <path id="Trazado_818885" data-name="Trazado 818885" d="M976.774,1028.389a17.314,17.314,0,0,0,1.754-3.456,16.149,16.149,0,0,0,.578-1.861,12.72,12.72,0,0,0,.312-1.93,9.346,9.346,0,0,0-.039-1.961,7.64,7.64,0,0,0-.5-1.9,6.743,6.743,0,0,0-1.031-1.663l-.332-.359c-.113-.116-.241-.218-.359-.328l-.181-.162c-.063-.05-.129-.1-.194-.146l-.393-.283a8.272,8.272,0,0,1,1.338,1.375,7.208,7.208,0,0,1,.921,1.658,8.625,8.625,0,0,1,.453,3.741,15.648,15.648,0,0,1-.806,3.733q-.306.91-.686,1.8c-.248.594-.527,1.173-.83,1.743Z" transform="translate(-863.105 -908.464)" fill="#a65b3c"/>
              <path id="Trazado_818886" data-name="Trazado 818886" d="M932.8,999.34a24.254,24.254,0,0,1-.71,2.5q-.41,1.233-.922,2.427c-.343.794-.714,1.576-1.123,2.336a24.394,24.394,0,0,1-1.33,2.22,22.229,22.229,0,0,1-1.548,2.071,20.515,20.515,0,0,1-1.775,1.88c-.306.3-.646.571-.969.859l-.51.4-.256.2-.264.188a20.693,20.693,0,0,1-2.2,1.392,17.41,17.41,0,0,0,4.364-2.852,20.384,20.384,0,0,0,3.424-3.958,24.791,24.791,0,0,0,2.417-4.64,23.376,23.376,0,0,0,1.4-5.025Z" transform="translate(-807.53 -895.891)" fill="#a65b3c"/>
              <path id="Trazado_818887" data-name="Trazado 818887" d="M1173.089,1081.187a10.971,10.971,0,0,0-1.2.01c-.4.023-.8.053-1.2.1a20.138,20.138,0,0,0-2.375.424,20.409,20.409,0,0,0-4.527,1.673,21.25,21.25,0,0,0-2.076,1.244,19.054,19.054,0,0,0-1.891,1.506,17.843,17.843,0,0,0-3.078,3.7l.369-.474c.123-.159.239-.32.372-.471.259-.306.511-.615.79-.9a20.436,20.436,0,0,1,1.713-1.662,20.345,20.345,0,0,1,3.948-2.652,23,23,0,0,1,4.441-1.717,23.325,23.325,0,0,1,2.335-.511,18.641,18.641,0,0,1,2.382-.265Z" transform="translate(-1085.924 -964.485)" fill="#a65b3c"/>
              <path id="Trazado_818888" data-name="Trazado 818888" d="M1050.285,1047.23a10.589,10.589,0,0,0-2.65-.6c-.452-.063-.906-.068-1.362-.094-.228-.018-.454,0-.683,0l-.683.013a23.889,23.889,0,0,0-5.37.93c-.435.133-.874.256-1.306.4l-1.278.474c-.212.081-.427.157-.637.243l-.621.278-1.241.562c-.814.4-1.608.845-2.408,1.27-.769.482-1.543.953-2.306,1.442.8-.425,1.589-.869,2.381-1.3l1.219-.594.608-.3c.2-.1.4-.207.612-.288l1.246-.529.621-.266c.21-.081.424-.154.636-.23l1.27-.461c.427-.139.862-.257,1.294-.387a26.44,26.44,0,0,1,5.3-.99l.675-.032c.225-.006.45-.031.675-.023.45.007.9,0,1.349.039a11.472,11.472,0,0,1,2.665.44Z" transform="translate(-942.575 -935.447)" fill="#a65b3c"/>
              <path id="Trazado_818889" data-name="Trazado 818889" d="M1000.919,1014.35c-.513.447-1,.914-1.484,1.39s-.951.961-1.419,1.451-.921.99-1.366,1.5-.885,1.024-1.3,1.563c.513-.447,1-.914,1.484-1.39s.951-.961,1.417-1.451.921-.992,1.366-1.5.885-1.024,1.3-1.563Z" transform="translate(-887.642 -908.472)" fill="#a65b3c"/>
              <path id="Trazado_818890" data-name="Trazado 818890" d="M1268.1,938.221a4.473,4.473,0,0,1,.66-1.433,6.582,6.582,0,0,1,.481-.621,7.584,7.584,0,0,1,.542-.571,14.151,14.151,0,0,1,1.2-1.037c.421-.327.853-.641,1.3-.948a7.526,7.526,0,0,0-1.443.743,8.357,8.357,0,0,0-1.28,1.011,5.7,5.7,0,0,0-1.013,1.293,3.231,3.231,0,0,0-.445,1.565Z" transform="translate(-1203.133 -840.796)" fill="#a65b3c"/>
              <path id="Trazado_818891" data-name="Trazado 818891" d="M1277.8,921.256c.016-.176.029-.353.041-.529l.016-.262.036-.26c.024-.173.041-.348.068-.519l.1-.515a14.647,14.647,0,0,1,.566-2.01,20.07,20.07,0,0,1,.8-1.932c.3-.631.633-1.251.994-1.859a10.2,10.2,0,0,0-1.218,1.743,12.446,12.446,0,0,0-.885,1.942,10.391,10.391,0,0,0-.51,2.076l-.06.532c-.011.178-.011.356-.016.534l0,.267c0,.089.011.178.018.267q.022.267.048.529Z" transform="translate(-1212.833 -823.831)" fill="#a65b3c"/>
              <path id="Trazado_818892" data-name="Trazado 818892" d="M1259.3,990.462l.358.88c.12.293.246.582.349.882l.327.891c.113.294.2.6.3.9a37.652,37.652,0,0,1,1.008,3.652c.265,1.234.5,2.475.658,3.728s.265,2.511.306,3.771.047,2.524-.01,3.785-.183,2.519-.336,3.771-.37,2.5-.642,3.734a33.4,33.4,0,0,1-.982,3.665,34.919,34.919,0,0,0,1.872-7.365,42.075,42.075,0,0,0,.424-7.6c-.052-1.27-.175-2.537-.338-3.8-.1-.628-.183-1.259-.307-1.882-.105-.628-.257-1.244-.4-1.864a37.537,37.537,0,0,0-1.1-3.647,36.442,36.442,0,0,0-1.482-3.5Z" transform="translate(-1192.38 -888.448)" fill="#a65b3c"/>
              <path id="Trazado_818893" data-name="Trazado 818893" d="M1256.689,965.87c-.447.28-.875.584-1.294.9s-.83.637-1.238.967-.8.672-1.193,1.023-.773.709-1.134,1.092c.448-.28.875-.584,1.294-.9s.83-.638,1.238-.968.8-.671,1.192-1.022.773-.709,1.136-1.092Z" transform="translate(-1184.91 -867.836)" fill="#a65b3c"/>
              <path id="Trazado_818894" data-name="Trazado 818894" d="M1251.619,927.35a10.259,10.259,0,0,1,1.888,2.885,9.717,9.717,0,0,1,.55,1.631c.079.278.121.563.178.849.036.142.042.288.063.432s.04.29.063.437c.011-.146.019-.293.026-.44a3.679,3.679,0,0,0,.005-.443,6.512,6.512,0,0,0-.089-.883,6.952,6.952,0,0,0-.5-1.709,7.031,7.031,0,0,0-.909-1.532,5.521,5.521,0,0,0-1.277-1.225Z" transform="translate(-1182.583 -835.549)" fill="#a65b3c"/>
              <path id="Trazado_818895" data-name="Trazado 818895" d="M1257.79,1152.684c.181-.765.354-1.531.55-2.291s.379-1.524.574-2.283c.395-1.518.806-3.032,1.249-4.535.228-.749.447-1.5.694-2.246.228-.751.5-1.485.746-2.23.532-1.474,1.1-2.937,1.746-4.37a36.269,36.269,0,0,0-1.982,4.281c-.566,1.469-1.06,2.966-1.513,4.472s-.838,3.034-1.184,4.568-.649,3.079-.88,4.634Z" transform="translate(-1192.534 -1009.376)" fill="#a65b3c"/>
              <path id="Trazado_818896" data-name="Trazado 818896" d="M1066.655,1413.323a22.507,22.507,0,0,1,2.131,2.835,24.781,24.781,0,0,1,1.712,3.1,23.5,23.5,0,0,1,1.239,3.305,19.7,19.7,0,0,1,.668,3.459,19.1,19.1,0,0,1,.021,3.521,20.353,20.353,0,0,1-.657,3.462l-.27.841c-.047.139-.086.283-.139.419l-.163.411c-.11.273-.215.55-.328.822l-.38.8-.188.4c-.065.133-.141.26-.21.39l-.427.778-.107.194-.12.188-.238.375-.471.754c.336-.487.694-.963,1.009-1.466l.461-.764c.076-.128.157-.252.228-.383l.205-.4.4-.8c.121-.272.235-.547.353-.82l.175-.411c.058-.137.1-.28.152-.421l.295-.844c.086-.286.16-.574.239-.863.039-.144.078-.288.113-.433l.086-.44c.053-.294.123-.586.162-.882l.112-.89a19.458,19.458,0,0,0,.008-3.581,20.746,20.746,0,0,0-2-6.839,22.519,22.519,0,0,0-4.068-5.826Z" transform="translate(-971.068 -1242.891)" fill="#a65b3c"/>
              <path id="Trazado_818897" data-name="Trazado 818897" d="M984.342,1357.985a18.545,18.545,0,0,1,3.307-.086,20.215,20.215,0,0,1,3.271.43,19.758,19.758,0,0,1,3.152.951,17.658,17.658,0,0,1,2.921,1.5c.228.152.466.29.686.453l.663.487c.217.168.422.35.634.523.1.089.214.171.312.267l.3.283.3.283.149.142.139.151.56.6c.186.2.349.424.526.633s.354.421.51.647l.484.668c.159.225.3.463.448.694l.222.349.11.175.1.181.4.725c.065.121.139.238.2.364l.18.372.361.746c.12.249.215.51.324.764l.323.765c-.186-.521-.364-1.047-.568-1.561l-.328-.764-.165-.382c-.053-.128-.123-.249-.183-.374-.254-.493-.5-.993-.794-1.464-.146-.238-.278-.482-.434-.714l-.472-.689c-.152-.235-.327-.451-.5-.67s-.341-.442-.528-.649l-.563-.618-.141-.155-.15-.146-.3-.291-.3-.291c-.1-.1-.21-.183-.316-.275-.214-.18-.422-.366-.641-.539l-.671-.5c-.223-.168-.464-.311-.7-.468a17.836,17.836,0,0,0-6.2-2.427,18.784,18.784,0,0,0-6.629-.1Z" transform="translate(-889.856 -1196.3)" fill="#a65b3c"/>
              <path id="Trazado_818898" data-name="Trazado 818898" d="M790.586,1288.041a35.582,35.582,0,0,1,5.669-3.127c.248-.109.49-.225.741-.327l.754-.293.754-.293.767-.259.767-.259c.254-.089.516-.157.773-.236.518-.152,1.032-.315,1.558-.44,1.042-.283,2.1-.524,3.157-.741.532-.1,1.061-.21,1.6-.3s1.069-.168,1.6-.243c2.145-.3,4.307-.458,6.47-.57l6.493-.291c2.165-.108,4.333-.235,6.49-.49.539-.063,1.078-.141,1.616-.211.537-.086,1.074-.172,1.608-.269l.8-.167c.265-.058.534-.1.8-.176l.791-.2.395-.1.39-.12a20.666,20.666,0,0,0,5.891-2.734l-.018-.027a22.294,22.294,0,0,1-5.943,2.517,41.952,41.952,0,0,1-6.365,1.154c-.537.053-1.074.115-1.613.162l-1.616.134q-1.619.126-3.239.222c-2.162.128-4.326.249-6.488.419l-1.621.133c-.54.052-1.079.1-1.62.147l-1.618.168-1.615.188c-1.074.142-2.149.293-3.22.474s-2.136.395-3.191.658a32.212,32.212,0,0,0-11.74,5.467l.019.026Z" transform="translate(-694.054 -1127.931)" fill="#a65b3c"/>
              <path id="Trazado_818899" data-name="Trazado 818899" d="M1066.88,1373.792a7.173,7.173,0,0,1,2.632-.5,9.156,9.156,0,0,1,2.636.38l.636.209c.212.071.411.175.618.259a12.84,12.84,0,0,1,1.2.6l.149.078.142.091.285.181.573.361c.367.26.726.537,1.1.8-.327-.314-.668-.616-1.006-.924l-.55-.409-.277-.2-.139-.1-.147-.087a10.058,10.058,0,0,0-1.207-.66l-.314-.143a2.786,2.786,0,0,0-.319-.133l-.655-.222a8.067,8.067,0,0,0-2.736-.322,5.875,5.875,0,0,0-2.623.751Z" transform="translate(-975.152 -1209.117)" fill="#a65b3c"/>
              <path id="Trazado_818900" data-name="Trazado 818900" d="M1093.812,1380.83a8.956,8.956,0,0,1,2.461-.427,5.653,5.653,0,0,1,2.4.429,4.616,4.616,0,0,1,1.039.633,4.948,4.948,0,0,1,.856.877,8.863,8.863,0,0,1,1.188,2.194,6.627,6.627,0,0,0-.984-2.344,4.7,4.7,0,0,0-1.969-1.657,5.325,5.325,0,0,0-2.543-.383,6.7,6.7,0,0,0-2.448.678Z" transform="translate(-1004.407 -1215.07)" fill="#a65b3c"/>
              <path id="Trazado_818901" data-name="Trazado 818901" d="M1181.34,1399.63c-.864,1.3-1.791,2.545-2.759,3.763s-1.959,2.416-3,3.573a74.829,74.829,0,0,1-6.609,6.562c-1.17,1.021-2.362,2.018-3.6,2.956s-2.5,1.84-3.807,2.684l-.485.322-.5.307-.992.612-1.01.582c-.168.1-.335.2-.506.29l-.515.275c-1.356.764-2.77,1.412-4.186,2.063a49.484,49.484,0,0,0,8.321-4.239,60.751,60.751,0,0,0,7.485-5.608c1.171-1.031,2.3-2.108,3.4-3.213s2.168-2.244,3.181-3.43a58.484,58.484,0,0,0,5.567-7.5Z" transform="translate(-1093.631 -1231.416)" fill="#a65b3c"/>
              <path id="Trazado_818902" data-name="Trazado 818902" d="M1070.24,1676.95a29.567,29.567,0,0,0,1.663,2.857c.605.922,1.236,1.828,1.908,2.705a48.7,48.7,0,0,0,4.377,4.967,47.435,47.435,0,0,0,10.588,7.917l.73.393c.243.133.485.264.738.379l1.5.72c.5.231,1.016.437,1.522.657.256.107.508.22.764.322l.778.288a46.225,46.225,0,0,0,6.347,1.9c1.084.217,2.162.463,3.257.6.547.079,1.091.175,1.639.238l1.647.164.823.079c.275.018.552.026.827.039l1.654.074.413.018h.414l.827-.006,1.654-.015-1.652-.034-.825-.015-.413-.006-.412-.026-1.649-.11c-.275-.019-.548-.034-.823-.058l-.82-.1-1.639-.186c-.545-.071-1.086-.175-1.629-.26-1.089-.155-2.16-.414-3.234-.644-.134-.031-.269-.057-.4-.089l-.4-.108-.8-.215-.8-.212c-.133-.037-.267-.068-.4-.108l-.393-.126-1.569-.5c-.264-.078-.518-.184-.775-.278l-.772-.29-.772-.289c-.254-.1-.5-.215-.757-.322-.5-.22-1.013-.427-1.51-.659l-1.48-.722c-.249-.116-.49-.248-.731-.38l-.723-.393a47.483,47.483,0,0,1-5.551-3.54,51.927,51.927,0,0,1-5.017-4.27,48.533,48.533,0,0,1-4.427-4.886,39.5,39.5,0,0,1-3.7-5.465Z" transform="translate(-1013.143 -1463.867)" fill="#a65b3c"/>
              <path id="Trazado_818903" data-name="Trazado 818903" d="M1046.48,1880.711c.655-.02,1.311-.058,1.966-.107s1.309-.1,1.962-.167q1.958-.2,3.909-.485c2.6-.38,5.177-.895,7.732-1.516a65.671,65.671,0,0,0,7.52-2.356c1.226-.476,2.43-1,3.616-1.568,1.178-.584,2.333-1.212,3.446-1.9a50.432,50.432,0,0,1-7.151,3.238c-1.233.437-2.467.872-3.723,1.242s-2.514.727-3.788,1.034-2.545.612-3.828.874-2.573.489-3.864.71-2.589.407-3.888.574-2.6.315-3.909.429Z" transform="translate(-971.627 -1627.87)" fill="#a65b3c"/>
              <path id="Trazado_818904" data-name="Trazado 818904" d="M1116.78,1360.518a5.868,5.868,0,0,1,.324-1.379,2.851,2.851,0,0,1,.736-1.128,2.111,2.111,0,0,1,.558-.361,2.385,2.385,0,0,1,.316-.121c.112-.024.22-.062.333-.078a5.781,5.781,0,0,1,1.412-.04,3.428,3.428,0,0,0-1.445-.21,2.321,2.321,0,0,0-1.39.569,2.649,2.649,0,0,0-.759,1.291,3.5,3.5,0,0,0-.084,1.456Z" transform="translate(-1026.822 -1195.844)" fill="#a65b3c"/>
              <g id="Grupo_1072577" data-name="Grupo 1072577" transform="translate(72.06 123.77)" opacity="0.8">
                <circle id="Elipse_9735" data-name="Elipse 9735" cx="1.239" cy="1.239" r="1.239" transform="translate(1.753 3.505) rotate(-135)" fill="#fff"/>
              </g>
              <g id="Grupo_1072578" data-name="Grupo 1072578" transform="translate(65.84 143.107)" opacity="0.8">
                <ellipse id="Elipse_9736" data-name="Elipse 9736" cx="1.239" cy="1.239" rx="1.239" ry="1.239" fill="#fff"/>
              </g>
              <g id="Grupo_1072579" data-name="Grupo 1072579" transform="translate(46.725 170.415)" opacity="0.8">
                <ellipse id="Elipse_9737" data-name="Elipse 9737" cx="1.911" cy="1.911" rx="1.911" ry="1.911" transform="translate(3.531 4.993) rotate(-157.5)" fill="#fff"/>
              </g>
              <g id="Grupo_1072583" data-name="Grupo 1072583" transform="translate(75.784 129.199)">
                <g id="Grupo_1072580" data-name="Grupo 1072580" transform="translate(7.25 3.396)" opacity="0.4">
                  <path id="Trazado_818905" data-name="Trazado 818905" d="M1086.975,1189.769s-11.509-3.5-18.395-10.289C1068.58,1179.48,1073.719,1187.915,1086.975,1189.769Z" transform="translate(-1068.58 -1179.48)" fill="#a65b3c"/>
                </g>
                <g id="Grupo_1072582" data-name="Grupo 1072582">
                  <path id="Trazado_818906" data-name="Trazado 818906" d="M1096.153,1165.192c-2.922-1.456-5.847-2.894-8.745-4.389q-1.092-.551-2.17-1.126-.539-.286-1.073-.586c-.175-.1-.362-.194-.548-.285l-.29-.11c-.1-.037-.2-.057-.3-.087a3.93,3.93,0,0,0-1.23-.112,3.84,3.84,0,0,0-1.2.29,3.564,3.564,0,0,0-.55.288l-.257.175-.24.2a3.787,3.787,0,0,0-.762.984q-1.175,2.148-2.322,4.31c-.765,1.442-1.532,2.881-2.283,4.33s-1.487,2.9-2.225,4.36l-.549,1.094c-.091.183-.183.362-.269.557a3.736,3.736,0,0,0-.189.6,3.3,3.3,0,0,0,.4,2.4l.029-.016a3.467,3.467,0,0,1-.351-1.154,3.382,3.382,0,0,1-.011-.6,4,4,0,0,1,.1-.589,3.622,3.622,0,0,1,.2-.56c.086-.176.188-.356.285-.534l.584-1.076c.773-1.437,1.547-2.874,2.306-4.318s1.5-2.9,2.247-4.349,1.48-2.907,2.209-4.368a3.64,3.64,0,0,1,.7-.964,3.226,3.226,0,0,1,1-.66,3.7,3.7,0,0,1,1.163-.294,3.639,3.639,0,0,1,1.2.115,2.986,2.986,0,0,1,.288.089l.278.113c.178.094.354.184.529.293.349.212.7.422,1.052.628q1.058.619,2.132,1.207c1.437.778,2.9,1.5,4.38,2.2s2.969,1.361,4.479,1.984l.013-.029Z" transform="translate(-1070.88 -1158.489)" fill="#a65b3c"/>
                  <path id="Trazado_818907" data-name="Trazado 818907" d="M1057.645,1212.806c.885,1.715,1.8,3.416,2.717,5.113l.7,1.27a3.676,3.676,0,0,0,2.255,1.856,4.424,4.424,0,0,0,.735.139l.72.078,2.882.283,1.44.141,1.438.154,1.44.155a3.962,3.962,0,0,0,.733,0,3.781,3.781,0,0,0,.72-.142,3.438,3.438,0,0,0,.678-.28,3.58,3.58,0,0,0,.613-.4,3.882,3.882,0,0,0,.521-.523,4.781,4.781,0,0,0,.4-.616q1.447-2.507,2.865-5.03c.947-1.681,1.895-3.362,2.823-5.055s1.856-3.383,2.775-5.08l.086-.159.081-.168.079-.17.062-.176.06-.178.042-.183c.013-.062.029-.121.04-.183l.021-.186a3.391,3.391,0,0,0-.163-1.468,3.51,3.51,0,0,0-1.956-2.076l-.013.029a3.581,3.581,0,0,1,1.133.864,3.4,3.4,0,0,1,.681,1.233,3.215,3.215,0,0,1,.108,1.39l-.026.173c-.013.057-.029.113-.044.17l-.044.168-.062.163-.063.163-.078.155-.078.155-.089.157c-.955,1.676-1.911,3.354-2.846,5.042s-1.87,3.375-2.8,5.067-1.844,3.39-2.754,5.092a3.435,3.435,0,0,1-2.092,1.8,3.648,3.648,0,0,1-.7.144,3.863,3.863,0,0,1-.712,0c-.479-.045-.958-.112-1.437-.167l-1.437-.173-1.435-.188-2.87-.371-.718-.086a4,4,0,0,1-.684-.136,3.679,3.679,0,0,1-1.222-.646,3.42,3.42,0,0,1-.88-1.069l-.71-1.26c-.955-1.676-1.917-3.349-2.906-5.008l-.029.016Z" transform="translate(-1057.174 -1193.217)" fill="#a65b3c"/>
                  <path id="Trazado_818908" data-name="Trazado 818908" d="M1086.951,1189.769c-.832-.3-1.662-.612-2.477-.953s-1.632-.678-2.441-1.034q-2.422-1.078-4.76-2.322l-1.16-.637c-.385-.214-.759-.45-1.141-.672l-.57-.337-.557-.358-.557-.358c-.184-.121-.377-.231-.553-.362l-1.082-.76-.272-.189-.26-.2-.523-.406c-.72-.516-1.356-1.131-2.039-1.7a30.054,30.054,0,0,0,4.034,3.464,43.533,43.533,0,0,0,4.529,2.8c1.569.832,3.174,1.594,4.815,2.268a46.052,46.052,0,0,0,5.017,1.756Z" transform="translate(-1061.306 -1176.084)" fill="#a65b3c"/>
                  <g id="Grupo_1072581" data-name="Grupo 1072581" transform="translate(15.222 4.825)" opacity="0.8">
                    <path id="Trazado_818909" data-name="Trazado 818909" d="M1114.73,1189.623a1.478,1.478,0,1,0,1.636-1.3A1.479,1.479,0,0,0,1114.73,1189.623Z" transform="translate(-1114.721 -1188.311)" fill="#fff"/>
                  </g>
                </g>
              </g>
              <path id="Trazado_818910" data-name="Trazado 818910" d="M1079.57,1993.07a13.46,13.46,0,0,0,1.154,4.623,12.362,12.362,0,0,0,1.184,2.092,11.652,11.652,0,0,0,1.589,1.812,10.905,10.905,0,0,0,4.166,2.359,14.275,14.275,0,0,0,4.732.576,16.779,16.779,0,0,1-4.653-.815,11.7,11.7,0,0,1-2.137-.974,10.577,10.577,0,0,1-1.888-1.385,12.419,12.419,0,0,1-2.763-3.771,15.659,15.659,0,0,1-.859-2.2,14.12,14.12,0,0,1-.521-2.315Z" transform="translate(-992.745 -1728.84)" fill="#1f4168"/>
              <path id="Trazado_818911" data-name="Trazado 818911" d="M1337.94,1998.612c.312,1.788.713,3.551,1.131,5.312.214.878.429,1.757.66,2.632s.469,1.749.725,2.618q-.2-1.347-.479-2.676c-.18-.888-.384-1.77-.591-2.65s-.434-1.757-.673-2.631-.492-1.743-.772-2.607Z" transform="translate(-1282.608 -1733.483)" fill="#1f4168"/>
              <path id="Trazado_818912" data-name="Trazado 818912" d="M1290.577,893.156s-8.913,15.071-22.31,23.444c0,0-11.669-19.857-22-50.459a16.168,16.168,0,0,0-6.949-8.878c-4.754-2.817-11.413-7.359-13.8-11.877l-1.218-.718a3.6,3.6,0,0,1-.56-5.8l.079-.068s-.858-4.213,1.872-6.124c0,0-1.966-3.954.246-5.813,1.521-1.278,5.355-1.555,5.355-1.555l-7.9-6.737s-5.661-4.14-5.791-4.14c-.1,0-3.48-1.412-4.907-3.582a1.634,1.634,0,0,1,1.218-2.524c1.513-.136,4.063.226,8.023,2.419l13.23,8.119s13.835,7.428,18.488,21.592c0,0,17.966,36.147,36.925,52.707Z" transform="translate(-1212.42 -735.756)" fill="#ffc89f"/>
              <g id="Grupo_1072584" data-name="Grupo 1072584" transform="translate(37.733 34.823)">
                <path id="Trazado_818913" data-name="Trazado 818913" d="M1291.9,613.919a25.773,25.773,0,0,1,4.378-.984,4.9,4.9,0,0,0,1.477-.383,19.6,19.6,0,0,1,6.585-1.814c3.014-.029-.634-6.325-7.826-3.521a6.855,6.855,0,0,0-.67-8.2s4.189-2.592,1.036-8.442c0,0,3.627-2.408.853-6.949,0,0,3.045-7.415-5.833-8.438v3.723l-1.348,1.157s-5.655-1.938-7.593,2.67c0,0-4.158-.388-6.541,1.1a2.175,2.175,0,0,0,.605,3.922l.058.015s-2.259.788-1.922,2.684c.283,1.6,2.374,2.6,2.374,2.6s-.943,3.228,2.876,5.53,5.938,3.729,5.938,3.729l5.551,4.33v7.269Z" transform="translate(-1275.126 -575.19)" fill="#ffc89f"/>
                <path id="Trazado_818914" data-name="Trazado 818914" d="M1352.485,691.524a4.746,4.746,0,0,1-1.2.139,6.7,6.7,0,0,1-1.194-.112,8.751,8.751,0,0,1-2.263-.775c-.178-.094-.359-.18-.537-.273l-.521-.309c-.349-.214-.705-.422-1.071-.605-.728-.372-1.476-.705-2.231-1.016s-1.527-.587-2.306-.833-1.56-.484-2.344-.7l-2.356-.637c-.39-.112-.781-.22-1.165-.351a5.527,5.527,0,0,1-1.11-.481l-.019.026a3.115,3.115,0,0,0,.516.338c.181.1.366.188.555.269.377.16.76.307,1.147.442.773.269,1.556.5,2.338.727l2.351.66c.78.227,1.56.456,2.333.709a13.387,13.387,0,0,1,2.244.943,8.778,8.778,0,0,1,1.018.662l.5.354c.175.11.353.214.531.319a7.336,7.336,0,0,0,1.137.5c.2.068.4.116.6.175.2.037.406.087.613.112a4.8,4.8,0,0,0,2.443-.246l-.011-.031Z" transform="translate(-1331.773 -667.711)" fill="#ff9a6c"/>
                <path id="Trazado_818915" data-name="Trazado 818915" d="M1347.589,654.633a3.557,3.557,0,0,1-1.152.51,6.109,6.109,0,0,1-1.246.17,9.331,9.331,0,0,1-2.495-.337c-.2-.058-.411-.1-.613-.168l-.605-.2c-.4-.138-.806-.294-1.208-.438l-2.411-.9c-.807-.293-1.625-.563-2.454-.788s-1.667-.435-2.517-.576a18.044,18.044,0,0,0-2.573-.27,11.619,11.619,0,0,0-2.574.183l.005.032a15.656,15.656,0,0,1,2.555.04c.848.071,1.691.2,2.527.356s1.671.332,2.5.531,1.654.429,2.477.662,1.636.5,2.429.83c.4.155.785.34,1.18.508l.6.251c.2.079.408.144.613.214a7.309,7.309,0,0,0,2.579.328,5.245,5.245,0,0,0,1.283-.256l.3-.121c.1-.05.2-.1.291-.149a2.449,2.449,0,0,0,.527-.382l-.023-.024Z" transform="translate(-1325.845 -639.259)" fill="#ff9a6c"/>
                <path id="Trazado_818916" data-name="Trazado 818916" d="M1322.641,621.8l-.11.239a.931.931,0,0,0-.089.257.75.75,0,0,0,.116.55.793.793,0,0,0,.476.335c.1.021.184.028.272.04l.259.032c.691.084,1.38.176,2.071.256s1.386.144,2.069.277a9.992,9.992,0,0,1,1.993.6c.159.07.311.144.479.215a3.341,3.341,0,0,0,.514.167,3.96,3.96,0,0,0,.534.091q.264.024.529.034a10.439,10.439,0,0,0,2.118-.1,6.469,6.469,0,0,0,2.027-.652,3.865,3.865,0,0,0,1.545-1.43l-.027-.018a4.306,4.306,0,0,1-1.631,1.22,7.31,7.31,0,0,1-1.968.54,13.008,13.008,0,0,1-2.056.137c-.172,0-.346-.01-.516-.015a3.494,3.494,0,0,1-.5-.057,3.967,3.967,0,0,1-.49-.123c-.157-.052-.325-.116-.492-.173s-.337-.105-.5-.157-.338-.092-.508-.133c-.34-.084-.679-.167-1.021-.243-.681-.157-1.364-.319-2.053-.442a20.977,20.977,0,0,0-2.086-.238l-.262-.018c-.086,0-.181-.008-.248-.018a.634.634,0,0,1-.38-.223.655.655,0,0,1-.146-.437.892.892,0,0,1,.05-.244l.068-.252-.029-.013Z" transform="translate(-1314.821 -614.259)" fill="#ff9a6c"/>
                <path id="Trazado_818917" data-name="Trazado 818917" d="M1333.644,769.841a2.593,2.593,0,0,1-1.031.906,2.1,2.1,0,0,1-1.3.125,4.515,4.515,0,0,1-1.276-.5c-.409-.226-.8-.492-1.2-.759a5.582,5.582,0,0,0,1.071.974,4.6,4.6,0,0,0,.636.369,3.55,3.55,0,0,0,.71.236,2.492,2.492,0,0,0,.76.028,1.979,1.979,0,0,0,.722-.246,2.069,2.069,0,0,0,.914-1.129Z" transform="translate(-1312.055 -738.154)" fill="#ff9a6c"/>
                <path id="Trazado_818918" data-name="Trazado 818918" d="M1346.89,596.367a5.958,5.958,0,0,0,.953-.023l.458-.042c.155-.018.309-.028.481-.058a1.2,1.2,0,0,0-.466-.2,1.785,1.785,0,0,0-.5-.026,2.071,2.071,0,0,0-.485.1,1.4,1.4,0,0,0-.44.241Z" transform="translate(-1330.115 -592.645)" fill="#ff9a6c"/>
              </g>
              <path id="Trazado_818919" data-name="Trazado 818919" d="M1563.391,913.017a8.421,8.421,0,0,0-1.678-.293,12.484,12.484,0,0,0-1.705-.029,12.669,12.669,0,0,0-1.694.2,10.1,10.1,0,0,0-1.644.442c.566-.06,1.121-.141,1.679-.193s1.116-.1,1.675-.126,1.118-.039,1.678-.042S1562.823,912.988,1563.391,913.017Z" transform="translate(-1540.933 -823.251)" fill="#ff9a6c"/>
              <path id="Trazado_818920" data-name="Trazado 818920" d="M1597.408,952.529a2.859,2.859,0,0,0-.838,0,4.426,4.426,0,0,0-.817.183,4.133,4.133,0,0,0-.767.335,3.112,3.112,0,0,0-.677.494c.272-.079.524-.178.78-.264s.51-.173.763-.257c.51-.17,1.021-.317,1.553-.49Z" transform="translate(-1581.04 -856.628)" fill="#ff9a6c"/>
              <path id="Trazado_818921" data-name="Trazado 818921" d="M1616,992.153a1.365,1.365,0,0,0-.5-.018,1.924,1.924,0,0,0-.476.126,1.543,1.543,0,0,0-.765.615c.168-.041.312-.1.459-.149s.286-.11.427-.167a6.1,6.1,0,0,0,.853-.409Z" transform="translate(-1602.859 -889.84)" fill="#ff9a6c"/>
              <path id="Trazado_818922" data-name="Trazado 818922" d="M1569.394,930.17a1.908,1.908,0,0,0-.772.395,2.412,2.412,0,0,0-.882,1.94,2.761,2.761,0,0,0,.062.429c.042-.141.06-.278.1-.413s.065-.267.113-.393a3.9,3.9,0,0,1,.783-1.38,5.07,5.07,0,0,1,.6-.576Z" transform="translate(-1548.727 -837.912)" fill="#ff9a6c"/>
              <path id="Trazado_818923" data-name="Trazado 818923" d="M1595.293,968.982a1.63,1.63,0,0,0-.45.361,2.287,2.287,0,0,0-.327.474,2,2,0,0,0-.186.55,1.291,1.291,0,0,0,.028.582c.079-.181.141-.348.217-.51s.149-.319.23-.477c.16-.317.333-.624.489-.982Z" transform="translate(-1578.925 -870.443)" fill="#ff9a6c"/>
              <path id="Trazado_818924" data-name="Trazado 818924" d="M1614.745,1002.25a1.016,1.016,0,0,0-.335.468,2.016,2.016,0,0,0-.134.553,2.51,2.51,0,0,0,0,.561,2.061,2.061,0,0,0,.139.548,3.632,3.632,0,0,0,.115-.545c.027-.178.047-.354.066-.529l.058-.523a3.906,3.906,0,0,1,.091-.534Z" transform="translate(-1601.604 -898.33)" fill="#ff9a6c"/>
              <g id="Grupo_1072587" data-name="Grupo 1072587" transform="translate(31.422 115.233)">
                <path id="Trazado_818925" data-name="Trazado 818925" d="M1385.182,1096a1.616,1.616,0,0,0,1.281-.629,24.968,24.968,0,0,1,14.751-9.056,1.618,1.618,0,0,0-.438-3.205A27.8,27.8,0,0,0,1383.9,1093.4a1.619,1.619,0,0,0,1.28,2.608Z" transform="translate(-1383.566 -1081.328)" fill="#112e4c"/>
                <ellipse id="Elipse_9738" data-name="Elipse 9738" cx="7.058" cy="7.058" rx="7.058" ry="7.058" transform="translate(2.32)" fill="#1f4168"/>
                <ellipse id="Elipse_9739" data-name="Elipse 9739" cx="5.6" cy="5.6" rx="5.6" ry="5.6" transform="translate(3.778 1.458)" fill="#f3faff"/>
                <path id="Trazado_818926" data-name="Trazado 818926" d="M1413.891,1092.031a5.681,5.681,0,1,0-5.681-5.681A5.686,5.686,0,0,0,1413.891,1092.031Zm0-11.2a5.519,5.519,0,1,1-5.519,5.519A5.523,5.523,0,0,1,1413.891,1080.833Z" transform="translate(-1404.513 -1079.295)" fill="#1b1a2e"/>
                <g id="Grupo_1072585" data-name="Grupo 1072585" transform="translate(9.296 1.458)">
                  <rect id="Rectángulo_376024" data-name="Rectángulo 376024" width="0.162" height="1.189" transform="translate(0 10.009)" fill="#1b1a2e"/>
                  <rect id="Rectángulo_376025" data-name="Rectángulo 376025" width="0.162" height="1.189" fill="#1b1a2e"/>
                </g>
                <g id="Grupo_1072586" data-name="Grupo 1072586" transform="translate(3.778 6.977)">
                  <rect id="Rectángulo_376026" data-name="Rectángulo 376026" width="1.189" height="0.162" transform="translate(10.009)" fill="#1b1a2e"/>
                  <rect id="Rectángulo_376027" data-name="Rectángulo 376027" width="1.189" height="0.162" fill="#1b1a2e"/>
                </g>
                <ellipse id="Elipse_9740" data-name="Elipse 9740" cx="0.374" cy="0.374" rx="0.374" ry="0.374" transform="translate(9.004 6.684)" fill="#1b1a2e"/>
                <rect id="Rectángulo_376028" data-name="Rectángulo 376028" width="0.162" height="2.534" transform="translate(9.296 4.522)" fill="#1b1a2e"/>
                <rect id="Rectángulo_376029" data-name="Rectángulo 376029" width="3.378" height="0.162" transform="translate(5.999 6.977)" fill="#1b1a2e"/>
              </g>
            </g>
          </g>
          <g id="FRONT" transform="translate(0 0)">
            <g id="Grupo_1072604" data-name="Grupo 1072604" transform="translate(0 0)">
              <g id="Grupo_1072593" data-name="Grupo 1072593" transform="translate(104.97 210.609)">
                <g id="Grupo_1072591" data-name="Grupo 1072591" transform="translate(0.74 13.48)">
                  <g id="Grupo_1072589" data-name="Grupo 1072589">
                    <path id="Trazado_818927" data-name="Trazado 818927" d="M285.37,683.236s10.077-14.264-3.66-25.331c0,0,17.649,4.674,26.234-16.885,0,0,8.242,11.1,19.2,1.8,0,0,.885,10.962,15.945,11.183,0,0-6.755,14.173,11.515,21.868,0,0-16.277,2.713-14.117,22.477,0,0-18.657-7.75-29.73,7.032,0,0-4.485-8.36-15.5-6.7C295.259,698.679,297.073,687.279,285.37,683.236Z" transform="translate(-280.979 -641.007)" fill="#fff"/>
                    <path id="Trazado_818928" data-name="Trazado 818928" d="M311.972,721.193a12.241,12.241,0,0,0-.613,1.632c-.044.139-.082.278-.12.419s-.078.28-.11.422l-.1.425-.084.429c-.031.142-.053.286-.074.43l-.068.432-.049.435c-.016.146-.032.29-.039.435-.016.291-.042.582-.04.874l-.006.439c0,.146.01.291.015.438a14.4,14.4,0,0,0,.552,3.456,14.694,14.694,0,0,0,1.387,3.22,17.524,17.524,0,0,0,2.1,2.805c.413.414.814.843,1.265,1.215l.33.288c.112.1.217.2.337.281l.7.532a27.7,27.7,0,0,0,6.109,3.364l.023-.2a14.185,14.185,0,0,0-1.783.494c-.581.2-1.155.422-1.713.678a18.67,18.67,0,0,0-3.2,1.812,17.434,17.434,0,0,0-5,5.336c-.17.256-.3.534-.451.8l-.217.406c-.071.136-.129.28-.194.419-.123.281-.259.558-.374.845l-.324.864a20.165,20.165,0,0,0-.887,3.579,28.039,28.039,0,0,0-.126,7.362l.238-.178c-.649-.26-1.3-.474-1.959-.675s-1.325-.375-2-.532a32.1,32.1,0,0,0-4.074-.684,30.344,30.344,0,0,0-4.129-.146,25.017,25.017,0,0,0-4.106.468,21.372,21.372,0,0,0-10.855,5.635,25.229,25.229,0,0,0-2.689,3.113l.029.021a25,25,0,0,1,2.762-3.027,22.02,22.02,0,0,1,3.246-2.482c.286-.184.584-.349.879-.521s.6-.327.9-.474.613-.294.922-.437.625-.269.945-.387a20.3,20.3,0,0,1,1.937-.642c.655-.183,1.317-.343,1.985-.466a28.13,28.13,0,0,1,8.132-.283,35.7,35.7,0,0,1,4.029.671q1,.226,1.977.515c.652.193,1.3.4,1.93.65l.269.107-.032-.283a28.5,28.5,0,0,1,.057-7.282,20.588,20.588,0,0,1,.819-3.551l.3-.861c.047-.146.116-.282.175-.422l.181-.419c.063-.139.117-.281.186-.417l.209-.406c.142-.269.27-.547.435-.8s.309-.526.477-.78l.523-.751c.184-.243.379-.477.568-.717.092-.121.2-.233.3-.346l.307-.34a16.991,16.991,0,0,1,2.76-2.391,18.549,18.549,0,0,1,3.192-1.776,17.4,17.4,0,0,1,1.71-.644,13.854,13.854,0,0,1,1.762-.453l.324-.058-.3-.139-1.574-.728c-.514-.264-1.023-.537-1.534-.806l-.743-.447-.371-.223c-.123-.076-.249-.146-.367-.23l-.717-.485-.358-.243c-.116-.084-.228-.175-.343-.262l-.684-.527c-.116-.084-.22-.184-.328-.278l-.324-.286c-.443-.367-.832-.793-1.243-1.2a17.108,17.108,0,0,1-2.084-2.736,14.437,14.437,0,0,1-1.98-6.535,15.982,15.982,0,0,1,.188-3.448l.073-.427.087-.424c.027-.142.063-.282.1-.422s.068-.281.108-.421a13.253,13.253,0,0,1,.555-1.642l-.032-.016Z" transform="translate(-249.876 -708.206)" fill="#1b1a2e"/>
                    <path id="Trazado_818929" data-name="Trazado 818929" d="M352.9,640.964a11.657,11.657,0,0,0,.87,1.065c.306.341.633.665.969.977a15.749,15.749,0,0,0,2.183,1.684,11.857,11.857,0,0,0,5.174,1.857l.692.044.694-.01c.058,0,.115,0,.173,0l.173-.016.345-.032.345-.034.34-.06.34-.06.17-.031c.057-.011.112-.027.167-.042l.668-.173c.113-.024.218-.07.328-.1l.327-.11.325-.11c.108-.039.212-.087.319-.129a18.392,18.392,0,0,0,4.686-2.844l-.17-.071a10.336,10.336,0,0,0,.642,2.616,12.276,12.276,0,0,0,2.959,4.472,13.117,13.117,0,0,0,2.136,1.652l.581.345.6.307c.2.108.406.193.612.283l.309.133.155.066.159.057.633.228.159.057.162.049.322.1.322.1c.107.032.215.065.324.087l.654.154c.108.024.217.053.327.074l.33.057.66.113c.442.063.887.107,1.33.16q.667.046,1.335.079l1.335.011v-.036a26.411,26.411,0,0,1-5.255-.731l-.641-.167c-.107-.026-.212-.06-.317-.094l-.314-.1-.314-.1-.157-.05-.154-.058-.615-.24-.154-.06-.15-.07-.3-.138c-.2-.091-.4-.175-.594-.283l-.582-.306-.561-.341a12.715,12.715,0,0,1-3.781-3.594,13.1,13.1,0,0,1-1.244-2.314,10.925,10.925,0,0,1-.707-2.527l-.026-.2-.144.126a15.879,15.879,0,0,1-4.593,2.9c-.105.042-.209.089-.317.126l-.325.1-.325.1a3.27,3.27,0,0,1-.327.094l-.665.147c-.055.011-.11.026-.167.034l-.168.023-.337.045a10.4,10.4,0,0,1-2.7.008,12.292,12.292,0,0,1-2.621-.631,13.776,13.776,0,0,1-2.438-1.17,17.356,17.356,0,0,1-4.14-3.508l-.029.021Z" transform="translate(-325.953 -640.94)" fill="#1b1a2e"/>
                    <path id="Trazado_818930" data-name="Trazado 818930" d="M582.416,705.346a11.7,11.7,0,0,0-1.291-1.838,14.912,14.912,0,0,0-1.576-1.605,14.355,14.355,0,0,0-3.8-2.4c-.343-.157-.7-.28-1.053-.409-.359-.113-.717-.233-1.084-.32-.362-.1-.736-.165-1.105-.241-.186-.034-.372-.055-.56-.084s-.374-.055-.561-.068a18.518,18.518,0,0,0-4.508.121l.176.178a11.539,11.539,0,0,0,.1-1.262c.013-.419.011-.84-.015-1.259a16.156,16.156,0,0,0-.327-2.493,14.726,14.726,0,0,0-.728-2.407,13.769,13.769,0,0,0-1.154-2.234,13.3,13.3,0,0,0-3.45-3.615,17.55,17.55,0,0,0-4.451-2.255l.031.094a17,17,0,0,0,.908-1.531c.28-.523.539-1.055.781-1.6a23.3,23.3,0,0,0,1.2-3.344,18.9,18.9,0,0,0,.62-7.054,16.64,16.64,0,0,0-.8-3.475l-.315-.836c-.118-.273-.249-.542-.372-.812-.065-.134-.12-.273-.193-.4l-.217-.391-.217-.392a4.379,4.379,0,0,0-.227-.385,21.84,21.84,0,0,0-4.762-5.286l-.159.314a15.639,15.639,0,0,0,2.132.343c.714.066,1.43.1,2.149.1a22.021,22.021,0,0,0,4.27-.453,21,21,0,0,0,7.841-3.383,24.892,24.892,0,0,0,3.257-2.786c.249-.256.482-.527.725-.79l.359-.4c.116-.136.223-.278.336-.417l.667-.838c.214-.286.413-.583.62-.872.426-.573.785-1.191,1.163-1.794.2-.3.359-.615.531-.927l.51-.94c.089-.154.157-.319.236-.479l.228-.482.456-.964L579.6,641l-.034-.013a36.408,36.408,0,0,1-4.085,7.444c-.21.285-.414.574-.629.854l-.675.819c-.113.136-.222.275-.34.408l-.361.388c-.243.257-.476.523-.725.773a24.638,24.638,0,0,1-3.242,2.717,21.2,21.2,0,0,1-7.727,3.288,21.63,21.63,0,0,1-4.2.435c-.7,0-1.409-.024-2.11-.087a15.7,15.7,0,0,1-2.076-.32l-.777-.183.618.5a21.729,21.729,0,0,1,4.721,5.173c.086.12.154.249.227.375l.217.382.217.382c.073.128.128.264.194.395.125.265.256.527.374.794l.319.819a16.9,16.9,0,0,1,.835,3.409,18.486,18.486,0,0,1-.523,6.993,23.123,23.123,0,0,1-1.173,3.331,19.856,19.856,0,0,1-1.686,3.1l-.045.068.076.026a16.581,16.581,0,0,1,4.388,2.281,13.191,13.191,0,0,1,1.84,1.65,12.386,12.386,0,0,1,1.495,1.961,13.675,13.675,0,0,1,1.1,2.207,14.143,14.143,0,0,1,.7,2.362,15.948,15.948,0,0,1,.307,2.446c.021.411.029.822.018,1.233a11.222,11.222,0,0,1-.089,1.222l-.029.209.205-.031a18.234,18.234,0,0,1,4.433-.147c.184.011.369.037.552.063s.367.047.55.079c.364.071.73.133,1.087.228.362.079.715.193,1.071.3.349.123.7.238,1.042.387a14.412,14.412,0,0,1,3.791,2.3,14.808,14.808,0,0,1,1.6,1.553,12.308,12.308,0,0,1,1.335,1.789l.032-.018Z" transform="translate(-552.62 -640.982)" fill="#1b1a2e"/>
                  </g>
                  <g id="Grupo_1072590" data-name="Grupo 1072590" transform="translate(27.978 23.184)">
                    <path id="Trazado_818931" data-name="Trazado 818931" d="M546.129,802.248a1.463,1.463,0,0,0,1.089-.461,1.643,1.643,0,0,0,0-2.255,1.463,1.463,0,0,0-1.089-.461,1.562,1.562,0,0,0-1.128.461,1.589,1.589,0,0,0,1.128,2.716ZM544.77,784.23l.282,12.814H547l.282-12.814Z" transform="translate(-544.54 -784.23)" fill="#1f4168"/>
                    <path id="Trazado_818932" data-name="Trazado 818932" d="M498.919,802.248a1.463,1.463,0,0,0,1.089-.461,1.643,1.643,0,0,0,0-2.255,1.462,1.462,0,0,0-1.089-.461,1.562,1.562,0,0,0-1.128.461,1.589,1.589,0,0,0,1.128,2.716ZM497.56,784.23l.282,12.814h1.948l.281-12.814Z" transform="translate(-489.692 -784.23)" fill="#1f4168"/>
                    <path id="Trazado_818933" data-name="Trazado 818933" d="M451.719,802.248a1.463,1.463,0,0,0,1.089-.461,1.643,1.643,0,0,0,0-2.255,1.462,1.462,0,0,0-1.089-.461,1.562,1.562,0,0,0-1.128.461,1.589,1.589,0,0,0,1.128,2.716ZM450.36,784.23l.281,12.814h1.948l.281-12.814Z" transform="translate(-434.855 -784.23)" fill="#1f4168"/>
                  </g>
                </g>
                <g id="Grupo_1072592" data-name="Grupo 1072592" transform="translate(0 0)">
                  <rect id="Rectángulo_376030" data-name="Rectángulo 376030" width="0.359" height="9.439" transform="translate(38.419 9.433) rotate(-174.8)" fill="#1b1a2e"/>
                  <rect id="Rectángulo_376031" data-name="Rectángulo 376031" width="0.361" height="9.439" transform="matrix(-0.753, -0.658, 0.658, -0.753, 55.507, 17.164)" fill="#1b1a2e"/>
                  <rect id="Rectángulo_376032" data-name="Rectángulo 376032" width="9.439" height="0.359" transform="matrix(-0.741, -0.672, 0.672, -0.741, 74.429, 66.467)" fill="#1b1a2e"/>
                  <rect id="Rectángulo_376033" data-name="Rectángulo 376033" width="9.439" height="0.359" transform="translate(46.354 85.925) rotate(-101.87)" fill="#1b1a2e"/>
                  <rect id="Rectángulo_376034" data-name="Rectángulo 376034" width="0.361" height="9.439" transform="translate(0.218 70.828) rotate(-127.23)" fill="#1b1a2e"/>
                  <rect id="Rectángulo_376035" data-name="Rectángulo 376035" width="5.792" height="0.359" transform="matrix(-0.603, -0.798, 0.798, -0.603, 12.862, 19.847)" fill="#1b1a2e"/>
                </g>
              </g>
              <g id="Grupo_1072598" data-name="Grupo 1072598" transform="translate(-32.258 91.454)">
                <g id="Grupo_1072596" data-name="Grupo 1072596" transform="translate(0.511 9.472)">
                  <g id="Grupo_1072594" data-name="Grupo 1072594">
                    <path id="Trazado_818934" data-name="Trazado 818934" d="M1482.839,1391.441s7.072-10.012-2.569-17.78c0,0,12.387,3.281,18.414-11.852,0,0,5.786,7.791,13.479,1.262,0,0,.621,7.693,11.191,7.849,0,0-4.741,9.947,8.083,15.35,0,0-11.424,1.9-9.908,15.777,0,0-13.1-5.44-20.867,4.935,0,0-3.147-5.868-10.881-4.7a9.977,9.977,0,0,0-6.941-10.84Z" transform="translate(-1479.752 -1361.8)" fill="#fff"/>
                    <path id="Trazado_818935" data-name="Trazado 818935" d="M1501.514,1418.09a8.587,8.587,0,0,0-.43,1.146c-.031.1-.058.2-.084.294s-.055.2-.078.3l-.07.3-.06.3c-.021.1-.037.2-.053.3l-.047.3-.034.306c-.011.1-.023.2-.028.306-.011.2-.029.409-.027.613l0,.307c0,.1.006.206.01.307a10.037,10.037,0,0,0,.387,2.425,10.314,10.314,0,0,0,.974,2.26,11.4,11.4,0,0,0,2.365,2.822l.231.2c.078.066.152.138.236.2l.489.374a19.5,19.5,0,0,0,4.288,2.362l.016-.137a10.185,10.185,0,0,0-1.251.346c-.408.141-.811.3-1.2.476a13.075,13.075,0,0,0-2.246,1.272,12.215,12.215,0,0,0-3.513,3.746c-.12.18-.214.375-.317.565l-.152.286c-.05.1-.091.2-.136.294-.087.2-.183.392-.262.592l-.226.607a14.292,14.292,0,0,0-.623,2.513,19.66,19.66,0,0,0-.089,5.166l.167-.125c-.455-.183-.912-.333-1.375-.474s-.93-.264-1.4-.374a22.441,22.441,0,0,0-2.859-.481,21.158,21.158,0,0,0-2.9-.1,17.447,17.447,0,0,0-2.883.328,15,15,0,0,0-7.619,3.956,17.58,17.58,0,0,0-1.887,2.186l.02.014a17.615,17.615,0,0,1,1.938-2.124,15.55,15.55,0,0,1,2.278-1.743c.2-.129.409-.246.616-.365s.419-.23.634-.332.43-.207.647-.306.438-.189.663-.272c.445-.173.9-.324,1.359-.451s.924-.239,1.395-.327a19.744,19.744,0,0,1,5.708-.2,24.94,24.94,0,0,1,2.828.471c.466.105.93.226,1.388.361s.916.283,1.354.456l.189.074-.023-.2a19.946,19.946,0,0,1,.04-5.111,14.418,14.418,0,0,1,.574-2.492l.214-.6c.032-.1.083-.2.123-.3l.128-.294c.044-.1.083-.2.131-.293l.147-.285c.1-.189.189-.383.306-.563s.217-.369.335-.547l.367-.527c.13-.17.266-.335.4-.5.065-.086.138-.163.209-.243l.215-.238a11.9,11.9,0,0,1,1.937-1.678,13.027,13.027,0,0,1,2.241-1.247,12.214,12.214,0,0,1,1.2-.452,9.893,9.893,0,0,1,1.236-.319l.226-.04-.21-.1-1.1-.511c-.361-.186-.718-.377-1.078-.566l-.521-.312-.26-.157c-.086-.053-.175-.1-.257-.16l-.5-.34-.251-.17c-.083-.06-.16-.123-.241-.184l-.48-.371c-.083-.06-.154-.13-.231-.2l-.227-.2c-.311-.259-.584-.557-.872-.84a11.948,11.948,0,0,1-1.463-1.92,10.124,10.124,0,0,1-1.39-4.587,11.133,11.133,0,0,1,.133-2.421l.05-.3.062-.3c.019-.1.045-.2.068-.3s.047-.2.076-.294a9.392,9.392,0,0,1,.39-1.154l-.023-.011Z" transform="translate(-1457.924 -1408.975)" fill="#1b1a2e"/>
                    <path id="Trazado_818936" data-name="Trazado 818936" d="M1530.22,1361.768a8.145,8.145,0,0,0,.61.747c.215.24.443.468.681.686a11.1,11.1,0,0,0,1.532,1.183,8.323,8.323,0,0,0,3.631,1.3l.487.031.487-.006c.041,0,.081,0,.121,0l.121-.011.243-.023.241-.024.24-.042.24-.042.12-.021c.039-.008.078-.02.118-.029l.469-.121a2.253,2.253,0,0,0,.23-.073l.228-.078.228-.078c.076-.027.149-.062.223-.091a12.906,12.906,0,0,0,3.289-2l-.12-.05a7.272,7.272,0,0,0,.452,1.836,8.7,8.7,0,0,0,.864,1.683,8.546,8.546,0,0,0,1.212,1.456,9.208,9.208,0,0,0,1.5,1.16l.408.241.422.215c.139.076.285.134.429.2l.217.094.109.047.111.041.445.16.112.039.113.034.226.066.227.067c.076.023.151.045.228.061l.459.108c.076.018.152.037.23.052l.231.041.464.079c.311.044.623.074.934.113.312.021.624.041.937.057l.937.008v-.026a18.545,18.545,0,0,1-3.687-.513l-.45-.116c-.076-.018-.149-.042-.222-.066l-.22-.071-.22-.071-.11-.035-.108-.042-.432-.168-.109-.042-.105-.049-.21-.1c-.141-.065-.283-.123-.417-.2l-.409-.215-.395-.24a8.934,8.934,0,0,1-2.655-2.522,9.162,9.162,0,0,1-.872-1.624,7.691,7.691,0,0,1-.5-1.773l-.019-.139-.1.089a11.11,11.11,0,0,1-3.225,2.032c-.074.029-.147.063-.221.089l-.228.071-.228.071a2.243,2.243,0,0,1-.23.066l-.466.1c-.039.008-.078.018-.116.024l-.118.016-.236.032a7.364,7.364,0,0,1-1.9.007,8.573,8.573,0,0,1-1.84-.443,9.554,9.554,0,0,1-1.71-.822,11.947,11.947,0,0,1-1.547-1.115,11.827,11.827,0,0,1-1.359-1.348l-.021.015Z" transform="translate(-1511.3 -1361.75)" fill="#1b1a2e"/>
                    <path id="Trazado_818937" data-name="Trazado 818937" d="M1691.349,1406.943a8.219,8.219,0,0,0-.906-1.29,10.406,10.406,0,0,0-1.106-1.126,10.051,10.051,0,0,0-2.67-1.683c-.241-.11-.492-.2-.74-.288s-.5-.163-.76-.225-.516-.117-.775-.17c-.129-.023-.262-.039-.393-.058s-.262-.039-.393-.049a13.022,13.022,0,0,0-3.165.084l.125.125a8.679,8.679,0,0,0,.071-.887c.01-.294.008-.589-.01-.883a11.4,11.4,0,0,0-.23-1.751,10.175,10.175,0,0,0-.511-1.691,9.765,9.765,0,0,0-.809-1.568,9.312,9.312,0,0,0-2.42-2.537,12.353,12.353,0,0,0-3.124-1.584l.021.066a12.289,12.289,0,0,0,.637-1.074q.293-.551.548-1.12a16.473,16.473,0,0,0,.84-2.348,13.291,13.291,0,0,0,.435-4.953,11.7,11.7,0,0,0-.561-2.44l-.222-.587c-.083-.193-.175-.38-.262-.571-.045-.094-.084-.191-.136-.283l-.152-.275-.152-.275c-.052-.091-.1-.185-.159-.27a15.333,15.333,0,0,0-3.341-3.71l-.112.22a11.119,11.119,0,0,0,1.5.241c.5.047,1,.073,1.508.07a15.414,15.414,0,0,0,3-.317,14.717,14.717,0,0,0,5.5-2.375,17.458,17.458,0,0,0,2.286-1.956c.175-.179.338-.371.51-.553l.252-.278c.083-.1.157-.2.236-.293l.468-.587c.149-.2.29-.408.435-.612.3-.4.55-.836.817-1.259.137-.209.252-.432.372-.65l.357-.658c.063-.108.11-.225.165-.337l.16-.338.321-.676.571-1.385-.024-.01a25.6,25.6,0,0,1-2.867,5.226c-.147.2-.29.4-.442.6l-.474.574c-.08.1-.157.193-.24.286l-.254.273c-.17.181-.333.367-.51.542a17.193,17.193,0,0,1-2.277,1.906,14.884,14.884,0,0,1-5.425,2.307,15.256,15.256,0,0,1-2.946.306q-.743,0-1.48-.061a10.87,10.87,0,0,1-1.458-.225l-.545-.128.434.348a15.254,15.254,0,0,1,3.314,3.631,2.9,2.9,0,0,1,.158.264l.152.269.152.269c.05.089.091.185.136.277.087.186.179.37.262.558l.223.574a11.8,11.8,0,0,1,.586,2.393,12.961,12.961,0,0,1-.367,4.909,16.149,16.149,0,0,1-.823,2.338,13.979,13.979,0,0,1-1.183,2.176l-.032.047.053.018a11.664,11.664,0,0,1,3.079,1.6,9.258,9.258,0,0,1,1.291,1.158,8.765,8.765,0,0,1,1.05,1.375,9.57,9.57,0,0,1,.768,1.548,10.013,10.013,0,0,1,.492,1.658,11.363,11.363,0,0,1,.217,1.717c.015.288.02.578.013.866a7.949,7.949,0,0,1-.063.858l-.02.147.144-.023a12.834,12.834,0,0,1,3.111-.1c.129.008.259.026.387.045s.257.032.387.055c.256.05.511.092.764.16s.5.136.751.209.493.167.731.272a10.122,10.122,0,0,1,2.661,1.616,10.365,10.365,0,0,1,1.125,1.09,8.6,8.6,0,0,1,.937,1.255l.023-.011Z" transform="translate(-1670.43 -1361.767)" fill="#1b1a2e"/>
                  </g>
                  <g id="Grupo_1072595" data-name="Grupo 1072595" transform="translate(19.644 16.273)">
                    <path id="Trazado_818938" data-name="Trazado 818938" d="M1665.855,1474.976a1.032,1.032,0,0,0,.765-.323,1.15,1.15,0,0,0,0-1.582,1.029,1.029,0,0,0-.765-.324,1.094,1.094,0,0,0-.791.324,1.115,1.115,0,0,0,.791,1.906Zm-.953-12.646.2,8.994h1.367l.2-8.994H1664.9Z" transform="translate(-1664.74 -1462.33)" fill="#1f4168"/>
                    <path id="Trazado_818939" data-name="Trazado 818939" d="M1632.725,1474.976a1.031,1.031,0,0,0,.765-.323,1.15,1.15,0,0,0,0-1.582,1.029,1.029,0,0,0-.765-.324,1.1,1.1,0,0,0-.791.324,1.115,1.115,0,0,0,.791,1.906Zm-.953-12.646.2,8.994h1.367l.2-8.994h-1.764Z" transform="translate(-1626.25 -1462.33)" fill="#1f4168"/>
                    <path id="Trazado_818940" data-name="Trazado 818940" d="M1599.595,1474.976a1.032,1.032,0,0,0,.765-.323,1.15,1.15,0,0,0,0-1.582,1.029,1.029,0,0,0-.765-.324,1.094,1.094,0,0,0-.791.324,1.115,1.115,0,0,0,.791,1.906Zm-.953-12.646.2,8.994h1.367l.2-8.994h-1.764Z" transform="translate(-1587.76 -1462.33)" fill="#1f4168"/>
                  </g>
                </g>
                <g id="Grupo_1072597" data-name="Grupo 1072597" transform="translate(0 0)">
                  <rect id="Rectángulo_376036" data-name="Rectángulo 376036" width="0.252" height="6.626" transform="translate(26.958 6.621) rotate(-174.8)" fill="#1b1a2e"/>
                  <rect id="Rectángulo_376037" data-name="Rectángulo 376037" width="0.252" height="6.626" transform="matrix(-0.753, -0.658, 0.658, -0.753, 38.958, 12.051)" fill="#1b1a2e"/>
                  <rect id="Rectángulo_376038" data-name="Rectángulo 376038" width="6.626" height="0.252" transform="matrix(-0.741, -0.672, 0.672, -0.741, 52.239, 46.66)" fill="#1b1a2e"/>
                  <rect id="Rectángulo_376039" data-name="Rectángulo 376039" width="6.626" height="0.252" transform="translate(32.543 60.31) rotate(-101.87)" fill="#1b1a2e"/>
                  <rect id="Rectángulo_376040" data-name="Rectángulo 376040" width="0.252" height="6.626" transform="translate(0.153 49.718) rotate(-127.23)" fill="#1b1a2e"/>
                  <rect id="Rectángulo_376041" data-name="Rectángulo 376041" width="4.064" height="0.252" transform="matrix(-0.603, -0.798, 0.798, -0.603, 9.022, 13.951)" fill="#1b1a2e"/>
                </g>
              </g>
              <g id="Grupo_1072603" data-name="Grupo 1072603" transform="translate(0)">
                <g id="Grupo_1072601" data-name="Grupo 1072601" transform="translate(0.627 11.485)">
                  <g id="Grupo_1072599" data-name="Grupo 1072599">
                    <path id="Trazado_818941" data-name="Trazado 818941" d="M1475.125,294.832s8.575-12.138-3.115-21.554c0,0,15.018,3.977,22.323-14.367,0,0,7.014,9.444,16.341,1.531,0,0,.754,9.328,13.568,9.517,0,0-5.747,12.06,9.8,18.608,0,0-13.85,2.309-12.013,19.126,0,0-15.875-6.595-25.3,5.983,0,0-3.815-7.114-13.191-5.7,0,0,1.544-9.7-8.415-13.141Z" transform="translate(-1471.392 -258.904)" fill="#fff"/>
                    <path id="Trazado_818942" data-name="Trazado 818942" d="M1497.7,327.115a10.344,10.344,0,0,0-.521,1.388c-.037.118-.071.238-.1.358s-.066.238-.094.359l-.086.362-.071.364c-.026.121-.045.244-.063.366l-.057.367-.041.371c-.013.123-.028.246-.034.37-.015.248-.036.5-.034.744l0,.372c0,.125.008.248.013.372a12.188,12.188,0,0,0,.469,2.941,12.512,12.512,0,0,0,1.18,2.739,14.8,14.8,0,0,0,1.791,2.386c.351.353.693.717,1.076,1.034l.281.246c.1.081.185.167.286.239l.592.453a23.53,23.53,0,0,0,5.2,2.862l.019-.167a11.991,11.991,0,0,0-1.516.421c-.5.17-.982.359-1.458.576a15.94,15.94,0,0,0-2.723,1.542,14.818,14.818,0,0,0-4.258,4.54c-.146.218-.259.455-.384.684l-.184.346c-.062.116-.11.238-.165.356-.105.239-.22.476-.317.718l-.275.736a17.31,17.31,0,0,0-.755,3.045,23.879,23.879,0,0,0-.107,6.263l.2-.15c-.552-.222-1.105-.4-1.668-.574s-1.128-.32-1.7-.453a27.276,27.276,0,0,0-3.466-.582,25.743,25.743,0,0,0-3.514-.125,21.132,21.132,0,0,0-3.495.4,18.169,18.169,0,0,0-9.237,4.8,21.446,21.446,0,0,0-2.288,2.649l.024.018a21.246,21.246,0,0,1,2.351-2.576,18.651,18.651,0,0,1,2.762-2.111c.244-.157.5-.3.748-.443s.508-.278.77-.4.523-.251.785-.37.532-.23.8-.33q.81-.313,1.647-.547c.558-.155,1.121-.291,1.689-.4a23.964,23.964,0,0,1,6.92-.241,29.994,29.994,0,0,1,3.428.571q.847.192,1.683.437c.555.163,1.11.343,1.642.553l.23.091-.027-.241a24.22,24.22,0,0,1,.048-6.2,17.457,17.457,0,0,1,.7-3.022l.259-.733c.041-.123.1-.239.149-.359l.154-.356c.053-.118.1-.239.159-.354l.178-.345c.121-.228.23-.464.37-.683s.264-.447.406-.663l.445-.639c.157-.207.322-.406.484-.61.079-.1.167-.2.254-.294l.261-.288a14.5,14.5,0,0,1,2.348-2.035,15.87,15.87,0,0,1,2.717-1.513,14.608,14.608,0,0,1,1.456-.547,12.016,12.016,0,0,1,1.5-.387l.275-.05-.256-.118-1.34-.62c-.437-.225-.87-.458-1.306-.686l-.631-.38-.316-.189c-.1-.065-.212-.123-.312-.2l-.61-.413-.3-.205c-.1-.071-.194-.149-.291-.223l-.583-.45c-.1-.071-.188-.157-.28-.238l-.275-.243c-.377-.314-.707-.675-1.058-1.018a14.512,14.512,0,0,1-1.773-2.328,12.26,12.26,0,0,1-1.684-5.561,13.593,13.593,0,0,1,.16-2.933l.061-.364.074-.361c.023-.121.055-.239.083-.359s.058-.239.092-.358a11.2,11.2,0,0,1,.472-1.4l-.027-.013Z" transform="translate(-1444.861 -316.069)" fill="#1b1a2e"/>
                    <path id="Trazado_818943" data-name="Trazado 818943" d="M1532.592,258.895a9.884,9.884,0,0,0,.741.906c.26.291.537.566.825.832a13.432,13.432,0,0,0,1.858,1.434,10.075,10.075,0,0,0,4.4,1.581l.589.037.591-.008c.049,0,.1,0,.147,0l.147-.015.293-.028.293-.029.29-.052.29-.052.144-.026c.049-.01.1-.024.142-.036l.568-.147c.1-.021.186-.058.28-.087l.277-.094.277-.094c.092-.032.181-.074.27-.11a15.681,15.681,0,0,0,3.987-2.42l-.146-.06a8.815,8.815,0,0,0,.547,2.226,10.484,10.484,0,0,0,2.517,3.805,11.094,11.094,0,0,0,1.817,1.406l.495.293.511.262c.168.092.346.163.521.241l.264.113.131.057.134.049.539.194.134.049.137.04.275.081.274.081c.091.027.183.055.277.074l.556.131c.092.021.185.045.278.063l.282.049.563.1c.377.053.754.091,1.131.138q.568.039,1.136.068l1.136.01v-.031a22.406,22.406,0,0,1-4.47-.623l-.545-.142c-.091-.021-.181-.05-.27-.079l-.267-.086-.267-.086-.134-.044-.131-.05-.524-.2-.131-.05-.128-.058-.256-.116c-.17-.078-.343-.149-.506-.241l-.5-.26-.479-.29a10.825,10.825,0,0,1-3.218-3.058,10.964,10.964,0,0,1-1.058-1.969,9.222,9.222,0,0,1-.6-2.15l-.023-.168-.123.108a13.512,13.512,0,0,1-3.909,2.464c-.091.036-.178.076-.269.108l-.277.087-.277.087a2.729,2.729,0,0,1-.278.081l-.565.125c-.047.01-.094.023-.141.029l-.144.019-.286.039a8.81,8.81,0,0,1-2.3.006,10.472,10.472,0,0,1-2.229-.537,11.743,11.743,0,0,1-2.074-1,14.762,14.762,0,0,1-3.522-2.985l-.024.018Z" transform="translate(-1509.664 -258.878)" fill="#1b1a2e"/>
                    <path id="Trazado_818944" data-name="Trazado 818944" d="M1727.872,313.633a9.9,9.9,0,0,0-1.1-1.565,12.585,12.585,0,0,0-1.341-1.366,12.219,12.219,0,0,0-3.236-2.04c-.291-.133-.6-.238-.9-.349-.306-.1-.61-.2-.922-.272s-.626-.141-.94-.205c-.158-.029-.317-.047-.476-.071s-.317-.047-.477-.058a15.854,15.854,0,0,0-3.836.1l.151.152a10.047,10.047,0,0,0,.086-1.074c.011-.358.01-.715-.011-1.071a13.76,13.76,0,0,0-.278-2.121,12.559,12.559,0,0,0-.62-2.048,11.805,11.805,0,0,0-.982-1.9,11.329,11.329,0,0,0-2.935-3.076,14.933,14.933,0,0,0-3.788-1.919l.026.079a14.885,14.885,0,0,0,.773-1.3c.238-.445.458-.9.665-1.357a19.867,19.867,0,0,0,1.018-2.846,16.089,16.089,0,0,0,.527-6,14.185,14.185,0,0,0-.68-2.958l-.268-.712c-.1-.233-.212-.461-.317-.692-.055-.115-.1-.233-.164-.343l-.184-.333-.184-.333c-.063-.11-.12-.223-.193-.328a18.577,18.577,0,0,0-4.051-4.5l-.134.267a13.453,13.453,0,0,0,1.815.293,18.161,18.161,0,0,0,1.828.084,18.79,18.79,0,0,0,3.634-.385,17.889,17.889,0,0,0,6.672-2.878,21.063,21.063,0,0,0,2.772-2.37c.212-.217.411-.448.616-.671l.306-.338c.1-.115.191-.236.286-.354l.568-.712c.181-.243.351-.5.527-.743.362-.489.667-1.013.99-1.527.167-.254.306-.523.451-.79l.434-.8c.076-.131.134-.272.2-.408l.194-.411.388-.82.692-1.678-.029-.011a30.945,30.945,0,0,1-3.477,6.334c-.18.243-.351.489-.536.728l-.574.7c-.1.115-.189.235-.29.346l-.307.33c-.206.218-.4.445-.617.659a20.883,20.883,0,0,1-2.759,2.31,18.067,18.067,0,0,1-6.575,2.8,18.4,18.4,0,0,1-3.572.371c-.6,0-1.2-.021-1.8-.074a13.034,13.034,0,0,1-1.767-.273l-.662-.155.526.422a18.432,18.432,0,0,1,4.017,4.4,3.573,3.573,0,0,1,.193.32l.184.325.185.325c.061.108.108.223.165.335.105.225.217.448.319.676l.27.7a14.379,14.379,0,0,1,.71,2.9,15.72,15.72,0,0,1-.445,5.951,19.56,19.56,0,0,1-1,2.835,16.946,16.946,0,0,1-1.433,2.639l-.039.057.065.023a14.083,14.083,0,0,1,3.733,1.94,11.2,11.2,0,0,1,1.564,1.4,10.628,10.628,0,0,1,1.273,1.668,11.644,11.644,0,0,1,.932,1.877,12.25,12.25,0,0,1,.6,2.01,13.68,13.68,0,0,1,.262,2.082c.018.349.024.7.015,1.05a9.59,9.59,0,0,1-.076,1.04l-.024.178.175-.026a15.506,15.506,0,0,1,3.773-.125c.157.01.314.032.469.053s.312.04.468.066c.309.061.62.113.926.194s.608.163.911.254.6.2.887.33a12.268,12.268,0,0,1,3.226,1.961,12.507,12.507,0,0,1,1.362,1.322,10.418,10.418,0,0,1,1.136,1.522l.028-.015Z" transform="translate(-1702.52 -258.87)" fill="#1b1a2e"/>
                  </g>
                  <g id="Grupo_1072600" data-name="Grupo 1072600" transform="translate(23.803 19.723)">
                    <path id="Trazado_818945" data-name="Trazado 818945" d="M1697,396.1a1.243,1.243,0,0,0,.927-.393,1.4,1.4,0,0,0,0-1.919,1.243,1.243,0,0,0-.927-.393,1.327,1.327,0,0,0-.959.393A1.353,1.353,0,0,0,1697,396.1Zm-1.155-15.332.24,10.9h1.657l.24-10.9h-2.137Z" transform="translate(-1695.65 -380.77)" fill="#1f4168"/>
                    <path id="Trazado_818946" data-name="Trazado 818946" d="M1656.833,396.1a1.242,1.242,0,0,0,.927-.393,1.4,1.4,0,0,0,0-1.919,1.242,1.242,0,0,0-.927-.393,1.327,1.327,0,0,0-.959.393,1.353,1.353,0,0,0,.959,2.312Zm-1.155-15.332.24,10.9h1.657l.24-10.9h-2.137Z" transform="translate(-1648.981 -380.77)" fill="#1f4168"/>
                    <path id="Trazado_818947" data-name="Trazado 818947" d="M1616.673,396.1a1.243,1.243,0,0,0,.927-.393,1.4,1.4,0,0,0,0-1.919,1.243,1.243,0,0,0-.927-.393,1.327,1.327,0,0,0-.959.393,1.353,1.353,0,0,0,.959,2.312Zm-1.155-15.332.239,10.9h1.657l.239-10.9h-2.137Z" transform="translate(-1602.323 -380.77)" fill="#1f4168"/>
                  </g>
                </g>
                <g id="Grupo_1072602" data-name="Grupo 1072602" transform="translate(0)">
                  <rect id="Rectángulo_376042" data-name="Rectángulo 376042" width="0.306" height="8.033" transform="translate(32.688 8.028) rotate(-174.8)" fill="#1b1a2e"/>
                  <rect id="Rectángulo_376043" data-name="Rectángulo 376043" width="0.306" height="8.033" transform="matrix(-0.753, -0.658, 0.658, -0.753, 47.232, 14.612)" fill="#1b1a2e"/>
                  <rect id="Rectángulo_376044" data-name="Rectángulo 376044" width="8.033" height="0.306" transform="matrix(-0.741, -0.672, 0.672, -0.741, 63.33, 56.566)" fill="#1b1a2e"/>
                  <rect id="Rectángulo_376045" data-name="Rectángulo 376045" width="8.033" height="0.306" transform="translate(39.418 73.149) rotate(-101.88)" fill="#1b1a2e"/>
                  <rect id="Rectángulo_376046" data-name="Rectángulo 376046" width="0.306" height="8.033" transform="translate(0.185 60.277) rotate(-127.23)" fill="#1b1a2e"/>
                  <rect id="Rectángulo_376047" data-name="Rectángulo 376047" width="4.928" height="0.306" transform="matrix(-0.603, -0.798, 0.798, -0.603, 10.946, 16.891)" fill="#1b1a2e"/>
                </g>
              </g>
            </g>
          </g>
        </g>
      </g>
      <g id="Grupo_1072620" data-name="Grupo 1072620" transform="matrix(0.719, 0.695, -0.695, 0.719, 1099.303, 3445.364)">
        <line id="Línea_370" data-name="Línea 370" x2="47.5" y2="12.44" transform="translate(0 0)" fill="none" stroke="#fc20cc" stroke-linecap="round" stroke-width="3"/>
        <line id="Línea_371" data-name="Línea 371" x2="47.5" y2="12.44" transform="translate(265.643 26.603)" fill="none" stroke="#fc20cc" stroke-linecap="round" stroke-width="3"/>
      </g>
    </g>
  </g>
</svg>
