<svg xmlns="http://www.w3.org/2000/svg" width="381.243" height="189" viewBox="0 0 381.243 189">
  <g id="Grupo_1075086" data-name="Grupo 1075086" transform="translate(-1000 -13119)">
    <g id="Grupo_893693" data-name="Grupo 893693" transform="translate(1000.5 13119.5)">
      <path id="Trazado_689897" data-name="Trazado 689897" d="M-.5,0H380.743" fill="none" stroke="#000" stroke-linejoin="round" stroke-width="1"/>
    </g>
    <g id="Grupo_1075085" data-name="Grupo 1075085">
      <path id="Trazado_823217" data-name="Trazado 823217" d="M0,0H381V163H0Z" transform="translate(1000.243 13145)" fill="#fff"/>
      <path id="Trazado_689884" data-name="Trazado 689884" d="M1.157-163.455h96.9v-25.421H1.157Z" transform="translate(999.343 13308.376)" fill="#c2c7f6" fill-rule="evenodd"/>
      <path id="Trazado_689885" data-name="Trazado 689885" d="M98.052-163.455H209.86v-25.421H98.052Z" transform="translate(999.343 13308.376)" fill="#c2c7f6" fill-rule="evenodd"/>
      <path id="Trazado_689886" data-name="Trazado 689886" d="M209.861-163.455H381.4v-25.421H209.861Z" transform="translate(999.343 13308.376)" fill="#c2c7f6" fill-rule="evenodd"/>
      <path id="Trazado_689887" data-name="Trazado 689887" d="M96.9-.5V188.144" transform="translate(1000.5 13119.5)" fill="none" stroke="#000" stroke-linejoin="round" stroke-width="1"/>
      <path id="Trazado_689888" data-name="Trazado 689888" d="M208.7-.5V188.144" transform="translate(1000.5 13119.5)" fill="none" stroke="#000" stroke-linejoin="round" stroke-width="1"/>
      <path id="Trazado_689889" data-name="Trazado 689889" d="M-.5,25.421H380.743" transform="translate(1000.5 13119.5)" fill="none" stroke="#000" stroke-linejoin="round" stroke-width="1"/>
      <path id="Trazado_689890" data-name="Trazado 689890" d="M-.5,50.841H380.743" transform="translate(1000.5 13119.5)" fill="none" stroke="#000" stroke-linejoin="round" stroke-width="1"/>
      <path id="Trazado_689891" data-name="Trazado 689891" d="M-.5,76.262H380.743" transform="translate(1000.5 13119.5)" fill="none" stroke="#000" stroke-linejoin="round" stroke-width="1"/>
      <path id="Trazado_689892" data-name="Trazado 689892" d="M-.5,106.876H380.743" transform="translate(1000.5 13119.5)" fill="none" stroke="#000" stroke-linejoin="round" stroke-width="1"/>
      <path id="Trazado_689893" data-name="Trazado 689893" d="M-.5,136.8H380.743" transform="translate(1000.5 13119.5)" fill="none" stroke="#000" stroke-linejoin="round" stroke-width="1"/>
      <path id="Trazado_689894" data-name="Trazado 689894" d="M-.5,162.224H380.743" transform="translate(1000.5 13119.5)" fill="none" stroke="#000" stroke-linejoin="round" stroke-width="1"/>
      <path id="Trazado_689895" data-name="Trazado 689895" d="M0-.5V188.144" transform="translate(1000.5 13119.5)" fill="none" stroke="#000" stroke-linejoin="round" stroke-width="1"/>
      <path id="Trazado_689896" data-name="Trazado 689896" d="M380.243-.5V188.144" transform="translate(1000.5 13119.5)" fill="#fff" stroke="#000" stroke-linejoin="round" stroke-width="1"/>
      <path id="Trazado_689898" data-name="Trazado 689898" d="M-.5,187.644H380.743" transform="translate(1000.5 13119.5)" fill="none" stroke="#000" stroke-linejoin="round" stroke-width="1"/>
      <path id="Trazado_823237" data-name="Trazado 823237" d="M9.064-4.751a6.008,6.008,0,0,1-.52,2.577A3.913,3.913,0,0,1,7.058-.465a4.113,4.113,0,0,1-2.218.6A4.141,4.141,0,0,1,2.632-.458a3.951,3.951,0,0,1-1.5-1.7A5.837,5.837,0,0,1,.588-4.7v-.492a5.977,5.977,0,0,1,.53-2.587,3.945,3.945,0,0,1,1.5-1.716,4.118,4.118,0,0,1,2.211-.6,4.118,4.118,0,0,1,2.211.6,3.945,3.945,0,0,1,1.5,1.716A5.96,5.96,0,0,1,9.064-5.2ZM6.986-5.2a4.188,4.188,0,0,0-.561-2.379,1.827,1.827,0,0,0-1.6-.813,1.827,1.827,0,0,0-1.593.8,4.141,4.141,0,0,0-.567,2.355v.485a4.241,4.241,0,0,0,.561,2.365,1.822,1.822,0,0,0,1.613.841,1.806,1.806,0,0,0,1.586-.81,4.216,4.216,0,0,0,.561-2.362ZM17.048-3.63a4.436,4.436,0,0,1-.776,2.738,2.488,2.488,0,0,1-2.1,1.029,2.3,2.3,0,0,1-1.812-.779V2.844H10.39V-7.4h1.832l.068.725a2.322,2.322,0,0,1,1.873-.861,2.5,2.5,0,0,1,2.126,1.012,4.556,4.556,0,0,1,.759,2.789Zm-1.976-.144a2.911,2.911,0,0,0-.366-1.593,1.191,1.191,0,0,0-1.063-.561,1.294,1.294,0,0,0-1.278.711v3.028a1.316,1.316,0,0,0,1.292.731Q15.072-1.456,15.072-3.773ZM21.641.137a3.631,3.631,0,0,1-2.649-1A3.548,3.548,0,0,1,17.97-3.521v-.191A4.468,4.468,0,0,1,18.4-5.7a3.161,3.161,0,0,1,1.22-1.354,3.425,3.425,0,0,1,1.8-.475,3.07,3.07,0,0,1,2.389.957,3.889,3.889,0,0,1,.872,2.714v.807h-4.71a1.835,1.835,0,0,0,.578,1.162,1.746,1.746,0,0,0,1.22.438,2.132,2.132,0,0,0,1.784-.827L24.526-1.2a2.966,2.966,0,0,1-1.2.981A3.947,3.947,0,0,1,21.641.137ZM21.415-5.94a1.234,1.234,0,0,0-.954.4,2.062,2.062,0,0,0-.468,1.14h2.748V-4.56a1.471,1.471,0,0,0-.355-1.02A1.274,1.274,0,0,0,21.415-5.94Zm8.51.4a5.367,5.367,0,0,0-.711-.055,1.447,1.447,0,0,0-1.47.759V0H25.769V-7.4h1.866l.055.882a1.831,1.831,0,0,1,1.647-1.019,2.07,2.07,0,0,1,.615.089Zm5,5.544a2.194,2.194,0,0,1-.2-.663,2.39,2.39,0,0,1-1.866.8,2.626,2.626,0,0,1-1.8-.629,2.023,2.023,0,0,1-.714-1.586,2.09,2.09,0,0,1,.872-1.8,4.3,4.3,0,0,1,2.519-.636h.909v-.424a1.219,1.219,0,0,0-.263-.82,1.035,1.035,0,0,0-.831-.308,1.177,1.177,0,0,0-.783.239.813.813,0,0,0-.284.656H30.506a1.984,1.984,0,0,1,.4-1.189,2.621,2.621,0,0,1,1.121-.858,4.086,4.086,0,0,1,1.627-.311,3.228,3.228,0,0,1,2.17.687,2.4,2.4,0,0,1,.8,1.931v3.206a3.536,3.536,0,0,0,.294,1.593V0ZM33.288-1.374a1.7,1.7,0,0,0,.807-.195,1.28,1.28,0,0,0,.547-.523V-3.363H33.9q-1.483,0-1.579,1.025l-.007.116a.791.791,0,0,0,.26.608A1.009,1.009,0,0,0,33.288-1.374ZM37.8-3.753a4.457,4.457,0,0,1,.776-2.755A2.517,2.517,0,0,1,40.7-7.533a2.265,2.265,0,0,1,1.784.807V-10.5h1.982V0H42.679l-.1-.786a2.325,2.325,0,0,1-1.9.923,2.511,2.511,0,0,1-2.1-1.029A4.6,4.6,0,0,1,37.8-3.753Zm1.976.147a2.92,2.92,0,0,0,.362,1.6,1.18,1.18,0,0,0,1.053.555,1.322,1.322,0,0,0,1.292-.774V-5.153A1.3,1.3,0,0,0,41.2-5.927Q39.774-5.927,39.774-3.606Zm5.878-.161a4.387,4.387,0,0,1,.424-1.962A3.1,3.1,0,0,1,47.3-7.062a3.56,3.56,0,0,1,1.849-.472,3.368,3.368,0,0,1,2.444.916,3.676,3.676,0,0,1,1.056,2.488l.014.506a3.866,3.866,0,0,1-.95,2.731A3.3,3.3,0,0,1,49.159.137,3.319,3.319,0,0,1,46.606-.889a3.934,3.934,0,0,1-.954-2.789Zm1.976.14a2.765,2.765,0,0,0,.4,1.612,1.308,1.308,0,0,0,1.135.558,1.311,1.311,0,0,0,1.121-.551,3.025,3.025,0,0,0,.4-1.763,2.737,2.737,0,0,0-.4-1.6,1.311,1.311,0,0,0-1.135-.568,1.29,1.29,0,0,0-1.121.565A3.076,3.076,0,0,0,47.628-3.626ZM58-5.544a5.367,5.367,0,0,0-.711-.055,1.447,1.447,0,0,0-1.47.759V0H53.841V-7.4h1.866l.055.882a1.831,1.831,0,0,1,1.647-1.019,2.07,2.07,0,0,1,.615.089Z" transform="translate(1019.635 13137.876)"/>
      <path id="Trazado_823238" data-name="Trazado 823238" d="M6.877-4.313H2.939v2.666H7.561V0H.889V-9.953H7.547v1.661H2.939V-5.92H6.877ZM10.719-7.4V.4a2.646,2.646,0,0,1-.649,1.9,2.468,2.468,0,0,1-1.873.68,4.017,4.017,0,0,1-.978-.116V1.306a3.708,3.708,0,0,0,.622.062q.9,0,.9-.95V-7.4ZM8.579-9.311a.973.973,0,0,1,.3-.731,1.117,1.117,0,0,1,.81-.287,1.117,1.117,0,0,1,.81.287.973.973,0,0,1,.3.731.97.97,0,0,1-.3.738,1.122,1.122,0,0,1-.8.287,1.122,1.122,0,0,1-.8-.287A.97.97,0,0,1,8.579-9.311ZM15.661.137a3.631,3.631,0,0,1-2.649-1A3.548,3.548,0,0,1,11.99-3.521v-.191A4.468,4.468,0,0,1,12.421-5.7a3.161,3.161,0,0,1,1.22-1.354,3.425,3.425,0,0,1,1.8-.475,3.07,3.07,0,0,1,2.389.957A3.889,3.889,0,0,1,18.7-3.862v.807h-4.71a1.835,1.835,0,0,0,.578,1.162,1.746,1.746,0,0,0,1.22.438,2.132,2.132,0,0,0,1.784-.827L18.546-1.2a2.966,2.966,0,0,1-1.2.981A3.947,3.947,0,0,1,15.661.137ZM15.435-5.94a1.234,1.234,0,0,0-.954.4,2.062,2.062,0,0,0-.468,1.14h2.748V-4.56a1.471,1.471,0,0,0-.355-1.02A1.274,1.274,0,0,0,15.435-5.94ZM21.669-7.4l.062.827a2.6,2.6,0,0,1,2.126-.964,1.973,1.973,0,0,1,1.962,1.128,2.54,2.54,0,0,1,2.222-1.128,2.206,2.206,0,0,1,1.791.7,3.221,3.221,0,0,1,.588,2.109V0H28.437V-4.717a1.408,1.408,0,0,0-.246-.919,1.091,1.091,0,0,0-.868-.291,1.233,1.233,0,0,0-1.23.848L26.1,0H24.124V-4.71a1.391,1.391,0,0,0-.253-.93,1.1,1.1,0,0,0-.861-.287,1.28,1.28,0,0,0-1.217.7V0H19.817V-7.4ZM38.588-3.63a4.436,4.436,0,0,1-.776,2.738,2.488,2.488,0,0,1-2.1,1.029,2.3,2.3,0,0,1-1.812-.779V2.844H31.93V-7.4h1.832l.068.725A2.322,2.322,0,0,1,35.7-7.533a2.5,2.5,0,0,1,2.126,1.012,4.556,4.556,0,0,1,.759,2.789Zm-1.976-.144a2.911,2.911,0,0,0-.366-1.593,1.191,1.191,0,0,0-1.063-.561,1.294,1.294,0,0,0-1.278.711v3.028a1.316,1.316,0,0,0,1.292.731Q36.613-1.456,36.613-3.773ZM41.89,0H39.907V-10.5H41.89ZM43.2-3.767a4.387,4.387,0,0,1,.424-1.962,3.1,3.1,0,0,1,1.22-1.333A3.56,3.56,0,0,1,46.7-7.533a3.368,3.368,0,0,1,2.444.916A3.676,3.676,0,0,1,50.2-4.129l.014.506a3.866,3.866,0,0,1-.95,2.731A3.3,3.3,0,0,1,46.709.137,3.319,3.319,0,0,1,44.156-.889,3.934,3.934,0,0,1,43.2-3.678Zm1.976.14a2.765,2.765,0,0,0,.4,1.612,1.308,1.308,0,0,0,1.135.558,1.311,1.311,0,0,0,1.121-.551,3.025,3.025,0,0,0,.4-1.763,2.737,2.737,0,0,0-.4-1.6A1.311,1.311,0,0,0,46.7-5.94a1.29,1.29,0,0,0-1.121.565A3.076,3.076,0,0,0,45.178-3.626Z" transform="translate(1127.925 13137.876)"/>
      <path id="Trazado_823239" data-name="Trazado 823239" d="M.889,0V-9.953H3.951A4.651,4.651,0,0,1,6.3-9.362,4.123,4.123,0,0,1,7.916-7.68,5.187,5.187,0,0,1,8.5-5.2v.458a5.2,5.2,0,0,1-.571,2.468A4.088,4.088,0,0,1,6.316-.6,4.686,4.686,0,0,1,3.972,0ZM2.939-8.292v6.645h.991A2.227,2.227,0,0,0,5.77-2.434a3.552,3.552,0,0,0,.649-2.249v-.526a3.609,3.609,0,0,0-.629-2.3,2.219,2.219,0,0,0-1.839-.783ZM13.287.137a3.631,3.631,0,0,1-2.649-1A3.548,3.548,0,0,1,9.616-3.521v-.191A4.468,4.468,0,0,1,10.047-5.7a3.161,3.161,0,0,1,1.22-1.354,3.425,3.425,0,0,1,1.8-.475,3.07,3.07,0,0,1,2.389.957,3.889,3.889,0,0,1,.872,2.714v.807h-4.71A1.835,1.835,0,0,0,12.2-1.894a1.746,1.746,0,0,0,1.22.438A2.132,2.132,0,0,0,15.2-2.283L16.172-1.2a2.966,2.966,0,0,1-1.2.981A3.947,3.947,0,0,1,13.287.137ZM13.061-5.94a1.234,1.234,0,0,0-.954.4,2.062,2.062,0,0,0-.468,1.14h2.748V-4.56a1.471,1.471,0,0,0-.355-1.02A1.274,1.274,0,0,0,13.061-5.94Zm8.42,3.9a.637.637,0,0,0-.359-.571,4.077,4.077,0,0,0-1.152-.373q-2.639-.554-2.639-2.242a2.032,2.032,0,0,1,.817-1.644,3.3,3.3,0,0,1,2.136-.66,3.547,3.547,0,0,1,2.252.663,2.09,2.09,0,0,1,.844,1.723H21.406a.956.956,0,0,0-.273-.7,1.157,1.157,0,0,0-.854-.277,1.182,1.182,0,0,0-.772.226.712.712,0,0,0-.273.574.609.609,0,0,0,.311.53,3.2,3.2,0,0,0,1.049.349,8.571,8.571,0,0,1,1.244.332A2.044,2.044,0,0,1,23.4-2.126a1.929,1.929,0,0,1-.868,1.637,3.745,3.745,0,0,1-2.242.625,3.912,3.912,0,0,1-1.651-.332A2.77,2.77,0,0,1,17.509-1.1a2.113,2.113,0,0,1-.41-1.248h1.873a1.031,1.031,0,0,0,.39.807,1.546,1.546,0,0,0,.971.28,1.43,1.43,0,0,0,.858-.215A.67.67,0,0,0,21.481-2.044Zm6.294.588a1.3,1.3,0,0,0,.889-.3,1.054,1.054,0,0,0,.355-.8h1.853a2.534,2.534,0,0,1-.41,1.377,2.706,2.706,0,0,1-1.1.971,3.455,3.455,0,0,1-1.548.345,3.211,3.211,0,0,1-2.5-1.008,3.99,3.99,0,0,1-.916-2.786v-.13A3.944,3.944,0,0,1,25.3-6.515a3.174,3.174,0,0,1,2.5-1.019,3.111,3.111,0,0,1,2.225.79,2.8,2.8,0,0,1,.851,2.1H29.019a1.358,1.358,0,0,0-.355-.938,1.185,1.185,0,0,0-.9-.361,1.19,1.19,0,0,0-1.042.5A2.916,2.916,0,0,0,26.367-3.8V-3.6a2.953,2.953,0,0,0,.349,1.643A1.2,1.2,0,0,0,27.775-1.456Zm8.406-4.088A5.367,5.367,0,0,0,35.47-5.6,1.447,1.447,0,0,0,34-4.84V0H32.025V-7.4h1.866l.055.882a1.831,1.831,0,0,1,1.647-1.019,2.07,2.07,0,0,1,.615.089ZM39.241,0H37.259V-7.4h1.982Zm-2.1-9.311a.973.973,0,0,1,.3-.731,1.117,1.117,0,0,1,.81-.287,1.12,1.12,0,0,1,.807.287.967.967,0,0,1,.3.731.97.97,0,0,1-.3.738,1.122,1.122,0,0,1-.8.287,1.122,1.122,0,0,1-.8-.287A.97.97,0,0,1,37.143-9.311ZM47.552-3.63a4.436,4.436,0,0,1-.776,2.738A2.488,2.488,0,0,1,44.68.137a2.3,2.3,0,0,1-1.812-.779V2.844H40.893V-7.4h1.832l.068.725a2.322,2.322,0,0,1,1.873-.861,2.5,2.5,0,0,1,2.126,1.012,4.556,4.556,0,0,1,.759,2.789Zm-1.976-.144a2.911,2.911,0,0,0-.366-1.593,1.191,1.191,0,0,0-1.063-.561,1.294,1.294,0,0,0-1.278.711v3.028a1.316,1.316,0,0,0,1.292.731Q45.576-1.456,45.576-3.773Zm6.3,2.317a1.3,1.3,0,0,0,.889-.3,1.054,1.054,0,0,0,.355-.8h1.853a2.534,2.534,0,0,1-.41,1.377,2.706,2.706,0,0,1-1.1.971,3.455,3.455,0,0,1-1.548.345,3.211,3.211,0,0,1-2.5-1.008,3.99,3.99,0,0,1-.916-2.786v-.13A3.944,3.944,0,0,1,49.4-6.515a3.174,3.174,0,0,1,2.5-1.019,3.111,3.111,0,0,1,2.225.79,2.8,2.8,0,0,1,.851,2.1H53.121a1.358,1.358,0,0,0-.355-.938,1.185,1.185,0,0,0-.9-.361,1.19,1.19,0,0,0-1.042.5A2.916,2.916,0,0,0,50.468-3.8V-3.6a2.953,2.953,0,0,0,.349,1.643A1.2,1.2,0,0,0,51.877-1.456ZM58.211,0H56.229V-7.4h1.982Zm-2.1-9.311a.973.973,0,0,1,.3-.731,1.117,1.117,0,0,1,.81-.287,1.12,1.12,0,0,1,.807.287.967.967,0,0,1,.3.731.97.97,0,0,1-.3.738,1.122,1.122,0,0,1-.8.287,1.122,1.122,0,0,1-.8-.287A.97.97,0,0,1,56.113-9.311Zm3.443,5.544a4.387,4.387,0,0,1,.424-1.962A3.1,3.1,0,0,1,61.2-7.062a3.56,3.56,0,0,1,1.849-.472,3.368,3.368,0,0,1,2.444.916,3.676,3.676,0,0,1,1.056,2.488l.014.506a3.866,3.866,0,0,1-.95,2.731A3.3,3.3,0,0,1,63.063.137,3.319,3.319,0,0,1,60.51-.889a3.934,3.934,0,0,1-.954-2.789Zm1.976.14a2.765,2.765,0,0,0,.4,1.612,1.308,1.308,0,0,0,1.135.558,1.311,1.311,0,0,0,1.121-.551,3.025,3.025,0,0,0,.4-1.763,2.737,2.737,0,0,0-.4-1.6,1.311,1.311,0,0,0-1.135-.568,1.29,1.29,0,0,0-1.121.565A3.076,3.076,0,0,0,61.531-3.626ZM63.439-10.5h2.153L63.7-8.381H62.092Zm6.184,3.1.062.854a2.582,2.582,0,0,1,2.126-.991,2.146,2.146,0,0,1,1.75.69,3.221,3.221,0,0,1,.588,2.064V0H72.173V-4.73a1.282,1.282,0,0,0-.273-.913,1.224,1.224,0,0,0-.909-.284,1.359,1.359,0,0,0-1.251.711V0H67.764V-7.4Z" transform="translate(1257.599 13137.876)"/>
      <path id="Trazado_823240" data-name="Trazado 823240" d="M1.8-4.4,6.084-2.673v1.34L.492-3.924v-1L6.084-7.506v1.34Z" transform="translate(1043.635 13163.376)"/>
      <path id="Trazado_823232" data-name="Trazado 823232" d="M5.523,0a2.657,2.657,0,0,1-.178-.779A2.822,2.822,0,0,1,3.24.137,2.611,2.611,0,0,1,1.446-.482a2,2,0,0,1-.7-1.569,2.091,2.091,0,0,1,.878-1.794,4.142,4.142,0,0,1,2.471-.639h1.23v-.581a1.42,1.42,0,0,0-.4-1.056A1.593,1.593,0,0,0,3.76-6.515a1.844,1.844,0,0,0-1.135.342,1.007,1.007,0,0,0-.458.827H.9a1.745,1.745,0,0,1,.393-1.07,2.683,2.683,0,0,1,1.066-.817,3.588,3.588,0,0,1,1.48-.3,2.924,2.924,0,0,1,2,.639,2.306,2.306,0,0,1,.752,1.76v3.4a4.162,4.162,0,0,0,.26,1.62V0Zm-2.1-.964a2.223,2.223,0,0,0,1.128-.308,1.861,1.861,0,0,0,.772-.8V-3.589H4.334q-2.324,0-2.324,1.36a1.151,1.151,0,0,0,.4.93A1.524,1.524,0,0,0,3.425-.964ZM12.9-4.4l4.279,1.729v1.34L11.59-3.924v-1l5.592-2.584v1.34Zm16.013.786a4.4,4.4,0,0,1-.779,2.724A2.49,2.49,0,0,1,26.044.137a2.578,2.578,0,0,1-2.167-.991L23.816,0H22.654V-10.5h1.265v3.917a2.564,2.564,0,0,1,2.112-.95,2.505,2.505,0,0,1,2.116,1.019,4.53,4.53,0,0,1,.769,2.789ZM27.651-3.76a3.417,3.417,0,0,0-.5-2,1.652,1.652,0,0,0-1.436-.7,1.857,1.857,0,0,0-1.8,1.162v3.2A1.909,1.909,0,0,0,25.73-.937a1.643,1.643,0,0,0,1.415-.7A3.634,3.634,0,0,0,27.651-3.76Z" transform="translate(1138.487 13163.376)"/>
      <path id="Trazado_823233" data-name="Trazado 823233" d="M5.523,0a2.657,2.657,0,0,1-.178-.779A2.822,2.822,0,0,1,3.24.137,2.611,2.611,0,0,1,1.446-.482a2,2,0,0,1-.7-1.569,2.091,2.091,0,0,1,.878-1.794,4.142,4.142,0,0,1,2.471-.639h1.23v-.581a1.42,1.42,0,0,0-.4-1.056A1.593,1.593,0,0,0,3.76-6.515a1.844,1.844,0,0,0-1.135.342,1.007,1.007,0,0,0-.458.827H.9a1.745,1.745,0,0,1,.393-1.07,2.683,2.683,0,0,1,1.066-.817,3.588,3.588,0,0,1,1.48-.3,2.924,2.924,0,0,1,2,.639,2.306,2.306,0,0,1,.752,1.76v3.4a4.162,4.162,0,0,0,.26,1.62V0Zm-2.1-.964a2.223,2.223,0,0,0,1.128-.308,1.861,1.861,0,0,0,.772-.8V-3.589H4.334q-2.324,0-2.324,1.36a1.151,1.151,0,0,0,.4.93A1.524,1.524,0,0,0,3.425-.964ZM13.244-7.4l.034.82a2.732,2.732,0,0,1,2.194-.957,2.115,2.115,0,0,1,2.112,1.189,2.8,2.8,0,0,1,.96-.861,2.837,2.837,0,0,1,1.4-.328q2.434,0,2.475,2.577V0H21.154V-4.881a1.7,1.7,0,0,0-.362-1.186,1.6,1.6,0,0,0-1.217-.393,1.677,1.677,0,0,0-1.169.42,1.706,1.706,0,0,0-.54,1.131V0H16.594V-4.847A1.411,1.411,0,0,0,15.015-6.46a1.692,1.692,0,0,0-1.7,1.06V0H12.048V-7.4ZM27.4.137a3.232,3.232,0,0,1-2.447-.988,3.666,3.666,0,0,1-.943-2.642v-.232a4.438,4.438,0,0,1,.42-1.965,3.28,3.28,0,0,1,1.176-1.354,2.956,2.956,0,0,1,1.637-.489,2.77,2.77,0,0,1,2.242.95,4.114,4.114,0,0,1,.8,2.721v.526H25.277a2.629,2.629,0,0,0,.639,1.767A2.009,2.009,0,0,0,27.471-.9a2.2,2.2,0,0,0,1.135-.273,2.851,2.851,0,0,0,.813-.725l.772.6A3.106,3.106,0,0,1,27.4.137Zm-.157-6.631a1.687,1.687,0,0,0-1.285.557,2.708,2.708,0,0,0-.643,1.562h3.705v-.1a2.409,2.409,0,0,0-.52-1.494A1.588,1.588,0,0,0,27.246-6.494Zm5.71-.9.041.93a2.7,2.7,0,0,1,2.215-1.066q2.345,0,2.365,2.646V0H36.312V-4.895a1.7,1.7,0,0,0-.366-1.183,1.466,1.466,0,0,0-1.118-.383,1.825,1.825,0,0,0-1.08.328,2.228,2.228,0,0,0-.725.861V0H31.759V-7.4Zm6.2,3.63a4.369,4.369,0,0,1,.427-1.955,3.187,3.187,0,0,1,1.189-1.34,3.238,3.238,0,0,1,1.74-.472,3.119,3.119,0,0,1,2.444,1.046,4.024,4.024,0,0,1,.933,2.782v.089a4.407,4.407,0,0,1-.414,1.938A3.14,3.14,0,0,1,44.294-.342a3.275,3.275,0,0,1-1.767.479A3.111,3.111,0,0,1,40.09-.909a4,4,0,0,1-.933-2.769Zm1.271.15A3.164,3.164,0,0,0,41-1.641,1.827,1.827,0,0,0,42.527-.9a1.816,1.816,0,0,0,1.531-.755,3.46,3.46,0,0,0,.567-2.116,3.159,3.159,0,0,0-.578-1.972,1.836,1.836,0,0,0-1.535-.755A1.816,1.816,0,0,0,41-5.749,3.434,3.434,0,0,0,40.429-3.616ZM51.06-6.262a3.79,3.79,0,0,0-.622-.048A1.667,1.667,0,0,0,48.75-5.25V0H47.485V-7.4h1.23l.021.854A1.969,1.969,0,0,1,50.5-7.533a1.292,1.292,0,0,1,.561.1ZM55.4-3.76a4.341,4.341,0,0,1,.8-2.758,2.592,2.592,0,0,1,2.146-1.015,2.59,2.59,0,0,1,2.071.882L60.47-7.4h1.162V2.844H60.367V-.684a2.654,2.654,0,0,1-2.037.82A2.551,2.551,0,0,1,56.194-.906a4.438,4.438,0,0,1-.8-2.765Zm1.265.144a3.291,3.291,0,0,0,.537,2A1.707,1.707,0,0,0,58.644-.9a1.894,1.894,0,0,0,1.723-1V-5.517a1.9,1.9,0,0,0-1.709-.978,1.72,1.72,0,0,0-1.456.728A3.583,3.583,0,0,0,56.662-3.616ZM68.237-.731A2.686,2.686,0,0,1,66.07.137a2.3,2.3,0,0,1-1.8-.687,2.974,2.974,0,0,1-.625-2.034V-7.4h1.265v4.778q0,1.682,1.367,1.682A1.893,1.893,0,0,0,68.2-2.017V-7.4h1.265V0h-1.2Zm6.229.868a3.232,3.232,0,0,1-2.447-.988,3.666,3.666,0,0,1-.943-2.642v-.232a4.438,4.438,0,0,1,.42-1.965,3.28,3.28,0,0,1,1.176-1.354,2.956,2.956,0,0,1,1.637-.489,2.77,2.77,0,0,1,2.242.95,4.114,4.114,0,0,1,.8,2.721v.526H72.34a2.629,2.629,0,0,0,.639,1.767A2.009,2.009,0,0,0,74.534-.9a2.2,2.2,0,0,0,1.135-.273,2.851,2.851,0,0,0,.813-.725l.772.6A3.106,3.106,0,0,1,74.466.137Zm-.157-6.631a1.687,1.687,0,0,0-1.285.557,2.708,2.708,0,0,0-.643,1.562h3.705v-.1a2.409,2.409,0,0,0-.52-1.494A1.588,1.588,0,0,0,74.309-6.494ZM88.558-3.616a4.4,4.4,0,0,1-.779,2.724A2.49,2.49,0,0,1,85.687.137,2.578,2.578,0,0,1,83.52-.854L83.458,0H82.3V-10.5h1.265v3.917a2.564,2.564,0,0,1,2.112-.95,2.505,2.505,0,0,1,2.116,1.019,4.53,4.53,0,0,1,.769,2.789ZM87.293-3.76a3.417,3.417,0,0,0-.5-2,1.652,1.652,0,0,0-1.436-.7,1.857,1.857,0,0,0-1.8,1.162v3.2A1.909,1.909,0,0,0,85.372-.937a1.643,1.643,0,0,0,1.415-.7A3.634,3.634,0,0,0,87.293-3.76Z" transform="translate(1250.349 13163.376)"/>
      <path id="Trazado_823241" data-name="Trazado 823241" d="M5.435-4.443.916-6.214v-1.3L6.754-4.929v1L.916-1.34V-2.652Z" transform="translate(1043.51 13188.876)"/>
      <path id="Trazado_823230" data-name="Trazado 823230" d="M5.523,0a2.657,2.657,0,0,1-.178-.779A2.822,2.822,0,0,1,3.24.137,2.611,2.611,0,0,1,1.446-.482a2,2,0,0,1-.7-1.569,2.091,2.091,0,0,1,.878-1.794,4.142,4.142,0,0,1,2.471-.639h1.23v-.581a1.42,1.42,0,0,0-.4-1.056A1.593,1.593,0,0,0,3.76-6.515a1.844,1.844,0,0,0-1.135.342,1.007,1.007,0,0,0-.458.827H.9a1.745,1.745,0,0,1,.393-1.07,2.683,2.683,0,0,1,1.066-.817,3.588,3.588,0,0,1,1.48-.3,2.924,2.924,0,0,1,2,.639,2.306,2.306,0,0,1,.752,1.76v3.4a4.162,4.162,0,0,0,.26,1.62V0Zm-2.1-.964a2.223,2.223,0,0,0,1.128-.308,1.861,1.861,0,0,0,.772-.8V-3.589H4.334q-2.324,0-2.324,1.36a1.151,1.151,0,0,0,.4.93A1.524,1.524,0,0,0,3.425-.964ZM16.532-4.443,12.014-6.214v-1.3l5.838,2.584v1L12.014-1.34V-2.652Zm12.581.827a4.4,4.4,0,0,1-.779,2.724A2.49,2.49,0,0,1,26.243.137a2.578,2.578,0,0,1-2.167-.991L24.014,0H22.852V-10.5h1.265v3.917a2.564,2.564,0,0,1,2.112-.95,2.505,2.505,0,0,1,2.116,1.019,4.53,4.53,0,0,1,.769,2.789ZM27.849-3.76a3.417,3.417,0,0,0-.5-2,1.652,1.652,0,0,0-1.436-.7,1.857,1.857,0,0,0-1.8,1.162v3.2A1.909,1.909,0,0,0,25.928-.937a1.643,1.643,0,0,0,1.415-.7A3.634,3.634,0,0,0,27.849-3.76Z" transform="translate(1138.362 13188.876)"/>
      <path id="Trazado_823231" data-name="Trazado 823231" d="M5.523,0a2.657,2.657,0,0,1-.178-.779A2.822,2.822,0,0,1,3.24.137,2.611,2.611,0,0,1,1.446-.482a2,2,0,0,1-.7-1.569,2.091,2.091,0,0,1,.878-1.794,4.142,4.142,0,0,1,2.471-.639h1.23v-.581a1.42,1.42,0,0,0-.4-1.056A1.593,1.593,0,0,0,3.76-6.515a1.844,1.844,0,0,0-1.135.342,1.007,1.007,0,0,0-.458.827H.9a1.745,1.745,0,0,1,.393-1.07,2.683,2.683,0,0,1,1.066-.817,3.588,3.588,0,0,1,1.48-.3,2.924,2.924,0,0,1,2,.639,2.306,2.306,0,0,1,.752,1.76v3.4a4.162,4.162,0,0,0,.26,1.62V0Zm-2.1-.964a2.223,2.223,0,0,0,1.128-.308,1.861,1.861,0,0,0,.772-.8V-3.589H4.334q-2.324,0-2.324,1.36a1.151,1.151,0,0,0,.4.93A1.524,1.524,0,0,0,3.425-.964ZM13.244-7.4l.034.82a2.732,2.732,0,0,1,2.194-.957,2.115,2.115,0,0,1,2.112,1.189,2.8,2.8,0,0,1,.96-.861,2.837,2.837,0,0,1,1.4-.328q2.434,0,2.475,2.577V0H21.154V-4.881a1.7,1.7,0,0,0-.362-1.186,1.6,1.6,0,0,0-1.217-.393,1.677,1.677,0,0,0-1.169.42,1.706,1.706,0,0,0-.54,1.131V0H16.594V-4.847A1.411,1.411,0,0,0,15.015-6.46a1.692,1.692,0,0,0-1.7,1.06V0H12.048V-7.4ZM28.9,0a2.657,2.657,0,0,1-.178-.779,2.822,2.822,0,0,1-2.105.916,2.611,2.611,0,0,1-1.794-.619,2,2,0,0,1-.7-1.569A2.091,2.091,0,0,1,25-3.845a4.142,4.142,0,0,1,2.471-.639H28.7v-.581a1.42,1.42,0,0,0-.4-1.056,1.593,1.593,0,0,0-1.169-.393A1.844,1.844,0,0,0,26-6.173a1.007,1.007,0,0,0-.458.827H24.272a1.745,1.745,0,0,1,.393-1.07,2.683,2.683,0,0,1,1.066-.817,3.588,3.588,0,0,1,1.48-.3,2.924,2.924,0,0,1,2,.639,2.306,2.306,0,0,1,.752,1.76v3.4a4.162,4.162,0,0,0,.26,1.62V0ZM26.8-.964a2.223,2.223,0,0,0,1.128-.308,1.861,1.861,0,0,0,.772-.8V-3.589h-.991q-2.324,0-2.324,1.36a1.151,1.151,0,0,0,.4.93A1.524,1.524,0,0,0,26.8-.964Zm7.473-.889L36-7.4h1.354L34.377,1.142q-.69,1.846-2.194,1.846l-.239-.021-.472-.089V1.853l.342.027a1.683,1.683,0,0,0,1-.26,1.88,1.88,0,0,0,.591-.95l.28-.752L31.048-7.4h1.381ZM38.05-3.767a4.369,4.369,0,0,1,.427-1.955,3.187,3.187,0,0,1,1.189-1.34,3.238,3.238,0,0,1,1.74-.472A3.119,3.119,0,0,1,43.85-6.487a4.024,4.024,0,0,1,.933,2.782v.089a4.407,4.407,0,0,1-.414,1.938A3.14,3.14,0,0,1,43.187-.342,3.275,3.275,0,0,1,41.42.137,3.111,3.111,0,0,1,38.983-.909a4,4,0,0,1-.933-2.769Zm1.271.15a3.164,3.164,0,0,0,.571,1.976A1.827,1.827,0,0,0,41.42-.9a1.816,1.816,0,0,0,1.531-.755,3.46,3.46,0,0,0,.567-2.116,3.159,3.159,0,0,0-.578-1.972,1.836,1.836,0,0,0-1.535-.755,1.816,1.816,0,0,0-1.511.745A3.434,3.434,0,0,0,39.321-3.616ZM49.953-6.262a3.79,3.79,0,0,0-.622-.048,1.667,1.667,0,0,0-1.688,1.06V0H46.378V-7.4h1.23l.021.854a1.969,1.969,0,0,1,1.764-.991,1.292,1.292,0,0,1,.561.1Zm4.337,2.5a4.341,4.341,0,0,1,.8-2.758,2.592,2.592,0,0,1,2.146-1.015,2.59,2.59,0,0,1,2.071.882l.055-.745h1.162V2.844H59.26V-.684a2.654,2.654,0,0,1-2.037.82A2.551,2.551,0,0,1,55.086-.906a4.438,4.438,0,0,1-.8-2.765Zm1.265.144a3.291,3.291,0,0,0,.537,2A1.707,1.707,0,0,0,57.537-.9a1.894,1.894,0,0,0,1.723-1V-5.517a1.9,1.9,0,0,0-1.709-.978,1.72,1.72,0,0,0-1.456.728A3.583,3.583,0,0,0,55.555-3.616ZM67.129-.731a2.686,2.686,0,0,1-2.167.868,2.3,2.3,0,0,1-1.8-.687,2.974,2.974,0,0,1-.625-2.034V-7.4H63.8v4.778q0,1.682,1.367,1.682A1.893,1.893,0,0,0,67.1-2.017V-7.4H68.36V0h-1.2Zm6.229.868a3.232,3.232,0,0,1-2.447-.988,3.666,3.666,0,0,1-.943-2.642v-.232a4.438,4.438,0,0,1,.42-1.965,3.28,3.28,0,0,1,1.176-1.354A2.956,2.956,0,0,1,73.2-7.533a2.77,2.77,0,0,1,2.242.95,4.114,4.114,0,0,1,.8,2.721v.526H71.232a2.629,2.629,0,0,0,.639,1.767A2.009,2.009,0,0,0,73.427-.9a2.2,2.2,0,0,0,1.135-.273,2.851,2.851,0,0,0,.813-.725l.772.6A3.106,3.106,0,0,1,73.358.137ZM73.2-6.494a1.687,1.687,0,0,0-1.285.557,2.708,2.708,0,0,0-.643,1.562h3.705v-.1a2.409,2.409,0,0,0-.52-1.494A1.588,1.588,0,0,0,73.2-6.494ZM87.45-3.616a4.4,4.4,0,0,1-.779,2.724A2.49,2.49,0,0,1,84.579.137a2.578,2.578,0,0,1-2.167-.991L82.351,0H81.189V-10.5h1.265v3.917a2.564,2.564,0,0,1,2.112-.95,2.505,2.505,0,0,1,2.116,1.019,4.53,4.53,0,0,1,.769,2.789ZM86.186-3.76a3.417,3.417,0,0,0-.5-2,1.652,1.652,0,0,0-1.436-.7,1.857,1.857,0,0,0-1.8,1.162v3.2A1.909,1.909,0,0,0,84.265-.937a1.643,1.643,0,0,0,1.415-.7A3.634,3.634,0,0,0,86.186-3.76Z" transform="translate(1250.786 13188.876)"/>
      <path id="Trazado_823234" data-name="Trazado 823234" d="M2.021-2.1v-1.16h8.262V-2.1Zm0,2.584V-.677h8.262V.483ZM10.283-5.08V-3.8L2.021-7.163v-.51l8.262-3.366v1.283L4.5-7.488v.141Z" transform="translate(1043.698 13214.876)"/>
      <path id="Trazado_823228" data-name="Trazado 823228" d="M5.523,0a2.657,2.657,0,0,1-.178-.779A2.822,2.822,0,0,1,3.24.137,2.611,2.611,0,0,1,1.446-.482a2,2,0,0,1-.7-1.569,2.091,2.091,0,0,1,.878-1.794,4.142,4.142,0,0,1,2.471-.639h1.23v-.581a1.42,1.42,0,0,0-.4-1.056A1.593,1.593,0,0,0,3.76-6.515a1.844,1.844,0,0,0-1.135.342,1.007,1.007,0,0,0-.458.827H.9a1.745,1.745,0,0,1,.393-1.07,2.683,2.683,0,0,1,1.066-.817,3.588,3.588,0,0,1,1.48-.3,2.924,2.924,0,0,1,2,.639,2.306,2.306,0,0,1,.752,1.76v3.4a4.162,4.162,0,0,0,.26,1.62V0Zm-2.1-.964a2.223,2.223,0,0,0,1.128-.308,1.861,1.861,0,0,0,.772-.8V-3.589H4.334q-2.324,0-2.324,1.36a1.151,1.151,0,0,0,.4.93A1.524,1.524,0,0,0,3.425-.964Z" transform="translate(1136.8 13214.376)"/>
      <path id="Trazado_823225" data-name="Trazado 823225" d="M2.021-2.1v-1.16h8.262V-2.1Zm0,2.584V-.677h8.262V.483ZM10.283-5.08V-3.8L2.021-7.163v-.51l8.262-3.366v1.283L4.5-7.488v.141Z" transform="translate(1147.925 13214.876)"/>
      <path id="Trazado_823226" data-name="Trazado 823226" d="M7.219-3.616A4.4,4.4,0,0,1,6.439-.892,2.49,2.49,0,0,1,4.348.137,2.578,2.578,0,0,1,2.181-.854L2.119,0H.957V-10.5H2.222v3.917a2.564,2.564,0,0,1,2.112-.95A2.505,2.505,0,0,1,6.45-6.515a4.53,4.53,0,0,1,.769,2.789ZM5.954-3.76a3.417,3.417,0,0,0-.5-2,1.652,1.652,0,0,0-1.436-.7A1.857,1.857,0,0,0,2.222-5.3v3.2A1.909,1.909,0,0,0,4.033-.937a1.643,1.643,0,0,0,1.415-.7A3.634,3.634,0,0,0,5.954-3.76Z" transform="translate(1161.925 13214.376)"/>
      <path id="Trazado_823227" data-name="Trazado 823227" d="M5.523,0a2.657,2.657,0,0,1-.178-.779A2.822,2.822,0,0,1,3.24.137,2.611,2.611,0,0,1,1.446-.482a2,2,0,0,1-.7-1.569,2.091,2.091,0,0,1,.878-1.794,4.142,4.142,0,0,1,2.471-.639h1.23v-.581a1.42,1.42,0,0,0-.4-1.056A1.593,1.593,0,0,0,3.76-6.515a1.844,1.844,0,0,0-1.135.342,1.007,1.007,0,0,0-.458.827H.9a1.745,1.745,0,0,1,.393-1.07,2.683,2.683,0,0,1,1.066-.817,3.588,3.588,0,0,1,1.48-.3,2.924,2.924,0,0,1,2,.639,2.306,2.306,0,0,1,.752,1.76v3.4a4.162,4.162,0,0,0,.26,1.62V0Zm-2.1-.964a2.223,2.223,0,0,0,1.128-.308,1.861,1.861,0,0,0,.772-.8V-3.589H4.334q-2.324,0-2.324,1.36a1.151,1.151,0,0,0,.4.93A1.524,1.524,0,0,0,3.425-.964ZM13.244-7.4l.034.82a2.732,2.732,0,0,1,2.194-.957,2.115,2.115,0,0,1,2.112,1.189,2.8,2.8,0,0,1,.96-.861,2.837,2.837,0,0,1,1.4-.328q2.434,0,2.475,2.577V0H21.154V-4.881a1.7,1.7,0,0,0-.362-1.186,1.6,1.6,0,0,0-1.217-.393,1.677,1.677,0,0,0-1.169.42,1.706,1.706,0,0,0-.54,1.131V0H16.594V-4.847A1.411,1.411,0,0,0,15.015-6.46a1.692,1.692,0,0,0-1.7,1.06V0H12.048V-7.4ZM27.4.137a3.232,3.232,0,0,1-2.447-.988,3.666,3.666,0,0,1-.943-2.642v-.232a4.438,4.438,0,0,1,.42-1.965,3.28,3.28,0,0,1,1.176-1.354,2.956,2.956,0,0,1,1.637-.489,2.77,2.77,0,0,1,2.242.95,4.114,4.114,0,0,1,.8,2.721v.526H25.277a2.629,2.629,0,0,0,.639,1.767A2.009,2.009,0,0,0,27.471-.9a2.2,2.2,0,0,0,1.135-.273,2.851,2.851,0,0,0,.813-.725l.772.6A3.106,3.106,0,0,1,27.4.137Zm-.157-6.631a1.687,1.687,0,0,0-1.285.557,2.708,2.708,0,0,0-.643,1.562h3.705v-.1a2.409,2.409,0,0,0-.52-1.494A1.588,1.588,0,0,0,27.246-6.494Zm5.71-.9.041.93a2.7,2.7,0,0,1,2.215-1.066q2.345,0,2.365,2.646V0H36.312V-4.895a1.7,1.7,0,0,0-.366-1.183,1.466,1.466,0,0,0-1.118-.383,1.825,1.825,0,0,0-1.08.328,2.228,2.228,0,0,0-.725.861V0H31.759V-7.4Zm6.2,3.63a4.369,4.369,0,0,1,.427-1.955,3.187,3.187,0,0,1,1.189-1.34,3.238,3.238,0,0,1,1.74-.472,3.119,3.119,0,0,1,2.444,1.046,4.024,4.024,0,0,1,.933,2.782v.089a4.407,4.407,0,0,1-.414,1.938A3.14,3.14,0,0,1,44.294-.342a3.275,3.275,0,0,1-1.767.479A3.111,3.111,0,0,1,40.09-.909a4,4,0,0,1-.933-2.769Zm1.271.15A3.164,3.164,0,0,0,41-1.641,1.827,1.827,0,0,0,42.527-.9a1.816,1.816,0,0,0,1.531-.755,3.46,3.46,0,0,0,.567-2.116,3.159,3.159,0,0,0-.578-1.972,1.836,1.836,0,0,0-1.535-.755A1.816,1.816,0,0,0,41-5.749,3.434,3.434,0,0,0,40.429-3.616ZM51.06-6.262a3.79,3.79,0,0,0-.622-.048A1.667,1.667,0,0,0,48.75-5.25V0H47.485V-7.4h1.23l.021.854A1.969,1.969,0,0,1,50.5-7.533a1.292,1.292,0,0,1,.561.1Zm4.31,2.5A4.369,4.369,0,0,1,55.8-5.722a3.187,3.187,0,0,1,1.189-1.34,3.238,3.238,0,0,1,1.74-.472A3.119,3.119,0,0,1,61.17-6.487,4.024,4.024,0,0,1,62.1-3.705v.089a4.407,4.407,0,0,1-.414,1.938A3.14,3.14,0,0,1,60.507-.342,3.275,3.275,0,0,1,58.74.137,3.111,3.111,0,0,1,56.3-.909a4,4,0,0,1-.933-2.769Zm1.271.15a3.164,3.164,0,0,0,.571,1.976A1.827,1.827,0,0,0,58.74-.9a1.816,1.816,0,0,0,1.531-.755,3.46,3.46,0,0,0,.567-2.116,3.159,3.159,0,0,0-.578-1.972,1.836,1.836,0,0,0-1.535-.755,1.816,1.816,0,0,0-1.511.745A3.434,3.434,0,0,0,56.641-3.616ZM68.546,0H67.281V-7.4h1.265ZM67.179-9.358a.755.755,0,0,1,.188-.52.706.706,0,0,1,.557-.212.717.717,0,0,1,.561.212.747.747,0,0,1,.191.52.722.722,0,0,1-.191.513.73.73,0,0,1-.561.205.718.718,0,0,1-.557-.205A.73.73,0,0,1,67.179-9.358Zm3.1,5.6a4.347,4.347,0,0,1,.8-2.751A2.558,2.558,0,0,1,73.2-7.533a2.544,2.544,0,0,1,2.112.957l.062-.82h1.155V-.178a3.009,3.009,0,0,1-.851,2.263,3.141,3.141,0,0,1-2.287.827,3.8,3.8,0,0,1-1.565-.342,2.7,2.7,0,0,1-1.169-.937l.656-.759a2.473,2.473,0,0,0,1.989,1,1.938,1.938,0,0,0,1.439-.52A1.986,1.986,0,0,0,75.254-.1V-.738a2.6,2.6,0,0,1-2.071.875,2.527,2.527,0,0,1-2.1-1.046A4.571,4.571,0,0,1,70.277-3.76Zm1.271.144a3.316,3.316,0,0,0,.513,1.965A1.666,1.666,0,0,0,73.5-.937a1.852,1.852,0,0,0,1.757-1.087V-5.4A1.874,1.874,0,0,0,73.51-6.46a1.681,1.681,0,0,0-1.442.718A3.612,3.612,0,0,0,71.548-3.616ZM83.007-.731A2.686,2.686,0,0,1,80.84.137a2.3,2.3,0,0,1-1.8-.687,2.974,2.974,0,0,1-.625-2.034V-7.4h1.265v4.778q0,1.682,1.367,1.682a1.893,1.893,0,0,0,1.928-1.08V-7.4h1.265V0h-1.2ZM90.733,0a2.657,2.657,0,0,1-.178-.779A2.822,2.822,0,0,1,88.45.137a2.611,2.611,0,0,1-1.794-.619,2,2,0,0,1-.7-1.569,2.091,2.091,0,0,1,.878-1.794A4.141,4.141,0,0,1,89.3-4.484h1.23v-.581a1.42,1.42,0,0,0-.4-1.056,1.593,1.593,0,0,0-1.169-.393,1.844,1.844,0,0,0-1.135.342,1.007,1.007,0,0,0-.458.827H86.105a1.745,1.745,0,0,1,.393-1.07,2.683,2.683,0,0,1,1.066-.817,3.588,3.588,0,0,1,1.48-.3,2.924,2.924,0,0,1,2,.639,2.306,2.306,0,0,1,.752,1.76v3.4a4.162,4.162,0,0,0,.26,1.62V0Zm-2.1-.964a2.223,2.223,0,0,0,1.128-.308,1.861,1.861,0,0,0,.772-.8V-3.589h-.991q-2.324,0-2.324,1.36a1.151,1.151,0,0,0,.4.93A1.524,1.524,0,0,0,88.635-.964ZM95.164,0H93.9V-10.5h1.265Zm5.2-3.76a4.341,4.341,0,0,1,.8-2.758,2.592,2.592,0,0,1,2.146-1.015,2.59,2.59,0,0,1,2.071.882l.055-.745H106.6V2.844h-1.265V-.684a2.654,2.654,0,0,1-2.037.82,2.551,2.551,0,0,1-2.136-1.042,4.438,4.438,0,0,1-.8-2.765Zm1.265.144a3.291,3.291,0,0,0,.537,2A1.707,1.707,0,0,0,103.61-.9a1.894,1.894,0,0,0,1.723-1V-5.517a1.9,1.9,0,0,0-1.709-.978,1.72,1.72,0,0,0-1.456.728A3.583,3.583,0,0,0,101.628-3.616ZM113.2-.731a2.686,2.686,0,0,1-2.167.868,2.3,2.3,0,0,1-1.8-.687,2.974,2.974,0,0,1-.625-2.034V-7.4h1.265v4.778q0,1.682,1.367,1.682a1.893,1.893,0,0,0,1.928-1.08V-7.4h1.265V0h-1.2Zm6.229.868a3.232,3.232,0,0,1-2.447-.988,3.666,3.666,0,0,1-.943-2.642v-.232a4.438,4.438,0,0,1,.42-1.965,3.28,3.28,0,0,1,1.176-1.354,2.956,2.956,0,0,1,1.637-.489,2.77,2.77,0,0,1,2.242.95,4.114,4.114,0,0,1,.8,2.721v.526h-5.011a2.629,2.629,0,0,0,.639,1.767A2.009,2.009,0,0,0,119.5-.9a2.2,2.2,0,0,0,1.135-.273,2.851,2.851,0,0,0,.813-.725l.772.6A3.106,3.106,0,0,1,119.431.137Zm-.157-6.631a1.687,1.687,0,0,0-1.285.557,2.708,2.708,0,0,0-.643,1.562h3.705v-.1a2.409,2.409,0,0,0-.52-1.494A1.588,1.588,0,0,0,119.274-6.494Zm14.249,2.878a4.4,4.4,0,0,1-.779,2.724A2.49,2.49,0,0,1,130.652.137a2.578,2.578,0,0,1-2.167-.991L128.424,0h-1.162V-10.5h1.265v3.917a2.564,2.564,0,0,1,2.112-.95,2.505,2.505,0,0,1,2.116,1.019,4.53,4.53,0,0,1,.769,2.789Zm-1.265-.144a3.417,3.417,0,0,0-.5-2,1.652,1.652,0,0,0-1.436-.7,1.857,1.857,0,0,0-1.8,1.162v3.2a1.909,1.909,0,0,0,1.812,1.162,1.643,1.643,0,0,0,1.415-.7A3.634,3.634,0,0,0,132.259-3.76Z" transform="translate(1227.849 13214.376)"/>
      <path id="Trazado_823236" data-name="Trazado 823236" d="M1.909-1.984v-1.1h7.8v1.1Zm0,2.44v-1.1h7.8v1.1Zm5.462-7.4v-.133L1.909-9.214v-1.212l7.8,3.179v.481l-7.8,3.179V-4.8Z" transform="translate(1043.698 13244.376)"/>
      <path id="Trazado_823229" data-name="Trazado 823229" d="M5.523,0a2.657,2.657,0,0,1-.178-.779A2.822,2.822,0,0,1,3.24.137,2.611,2.611,0,0,1,1.446-.482a2,2,0,0,1-.7-1.569,2.091,2.091,0,0,1,.878-1.794,4.142,4.142,0,0,1,2.471-.639h1.23v-.581a1.42,1.42,0,0,0-.4-1.056A1.593,1.593,0,0,0,3.76-6.515a1.844,1.844,0,0,0-1.135.342,1.007,1.007,0,0,0-.458.827H.9a1.745,1.745,0,0,1,.393-1.07,2.683,2.683,0,0,1,1.066-.817,3.588,3.588,0,0,1,1.48-.3,2.924,2.924,0,0,1,2,.639,2.306,2.306,0,0,1,.752,1.76v3.4a4.162,4.162,0,0,0,.26,1.62V0Zm-2.1-.964a2.223,2.223,0,0,0,1.128-.308,1.861,1.861,0,0,0,.772-.8V-3.589H4.334q-2.324,0-2.324,1.36a1.151,1.151,0,0,0,.4.93A1.524,1.524,0,0,0,3.425-.964Z" transform="translate(1136.8 13244.876)"/>
      <path id="Trazado_823224" data-name="Trazado 823224" d="M2.021-2.1v-1.16h8.262V-2.1Zm0,2.584V-.677h8.262V.483ZM7.8-7.348v-.141L2.021-9.756v-1.283l8.262,3.366v.51L2.021-3.8V-5.08Z" transform="translate(1147.925 13245.376)"/>
      <path id="Trazado_823222" data-name="Trazado 823222" d="M7.219-3.616A4.4,4.4,0,0,1,6.439-.892,2.49,2.49,0,0,1,4.348.137,2.578,2.578,0,0,1,2.181-.854L2.119,0H.957V-10.5H2.222v3.917a2.564,2.564,0,0,1,2.112-.95A2.505,2.505,0,0,1,6.45-6.515a4.53,4.53,0,0,1,.769,2.789ZM5.954-3.76a3.417,3.417,0,0,0-.5-2,1.652,1.652,0,0,0-1.436-.7A1.857,1.857,0,0,0,2.222-5.3v3.2A1.909,1.909,0,0,0,4.033-.937a1.643,1.643,0,0,0,1.415-.7A3.634,3.634,0,0,0,5.954-3.76Z" transform="translate(1161.925 13244.876)"/>
      <path id="Trazado_823220" data-name="Trazado 823220" d="M5.523,0a2.657,2.657,0,0,1-.178-.779A2.822,2.822,0,0,1,3.24.137,2.611,2.611,0,0,1,1.446-.482a2,2,0,0,1-.7-1.569,2.091,2.091,0,0,1,.878-1.794,4.142,4.142,0,0,1,2.471-.639h1.23v-.581a1.42,1.42,0,0,0-.4-1.056A1.593,1.593,0,0,0,3.76-6.515a1.844,1.844,0,0,0-1.135.342,1.007,1.007,0,0,0-.458.827H.9a1.745,1.745,0,0,1,.393-1.07,2.683,2.683,0,0,1,1.066-.817,3.588,3.588,0,0,1,1.48-.3,2.924,2.924,0,0,1,2,.639,2.306,2.306,0,0,1,.752,1.76v3.4a4.162,4.162,0,0,0,.26,1.62V0Zm-2.1-.964a2.223,2.223,0,0,0,1.128-.308,1.861,1.861,0,0,0,.772-.8V-3.589H4.334q-2.324,0-2.324,1.36a1.151,1.151,0,0,0,.4.93A1.524,1.524,0,0,0,3.425-.964ZM13.244-7.4l.034.82a2.732,2.732,0,0,1,2.194-.957,2.115,2.115,0,0,1,2.112,1.189,2.8,2.8,0,0,1,.96-.861,2.837,2.837,0,0,1,1.4-.328q2.434,0,2.475,2.577V0H21.154V-4.881a1.7,1.7,0,0,0-.362-1.186,1.6,1.6,0,0,0-1.217-.393,1.677,1.677,0,0,0-1.169.42,1.706,1.706,0,0,0-.54,1.131V0H16.594V-4.847A1.411,1.411,0,0,0,15.015-6.46a1.692,1.692,0,0,0-1.7,1.06V0H12.048V-7.4ZM28.9,0a2.657,2.657,0,0,1-.178-.779,2.822,2.822,0,0,1-2.105.916,2.611,2.611,0,0,1-1.794-.619,2,2,0,0,1-.7-1.569A2.091,2.091,0,0,1,25-3.845a4.142,4.142,0,0,1,2.471-.639H28.7v-.581a1.42,1.42,0,0,0-.4-1.056,1.593,1.593,0,0,0-1.169-.393A1.844,1.844,0,0,0,26-6.173a1.007,1.007,0,0,0-.458.827H24.272a1.745,1.745,0,0,1,.393-1.07,2.683,2.683,0,0,1,1.066-.817,3.588,3.588,0,0,1,1.48-.3,2.924,2.924,0,0,1,2,.639,2.306,2.306,0,0,1,.752,1.76v3.4a4.162,4.162,0,0,0,.26,1.62V0ZM26.8-.964a2.223,2.223,0,0,0,1.128-.308,1.861,1.861,0,0,0,.772-.8V-3.589h-.991q-2.324,0-2.324,1.36a1.151,1.151,0,0,0,.4.93A1.524,1.524,0,0,0,26.8-.964Zm7.473-.889L36-7.4h1.354L34.377,1.142q-.69,1.846-2.194,1.846l-.239-.021-.472-.089V1.853l.342.027a1.683,1.683,0,0,0,1-.26,1.88,1.88,0,0,0,.591-.95l.28-.752L31.048-7.4h1.381ZM38.05-3.767a4.369,4.369,0,0,1,.427-1.955,3.187,3.187,0,0,1,1.189-1.34,3.238,3.238,0,0,1,1.74-.472A3.119,3.119,0,0,1,43.85-6.487a4.024,4.024,0,0,1,.933,2.782v.089a4.407,4.407,0,0,1-.414,1.938A3.14,3.14,0,0,1,43.187-.342,3.275,3.275,0,0,1,41.42.137,3.111,3.111,0,0,1,38.983-.909a4,4,0,0,1-.933-2.769Zm1.271.15a3.164,3.164,0,0,0,.571,1.976A1.827,1.827,0,0,0,41.42-.9a1.816,1.816,0,0,0,1.531-.755,3.46,3.46,0,0,0,.567-2.116,3.159,3.159,0,0,0-.578-1.972,1.836,1.836,0,0,0-1.535-.755,1.816,1.816,0,0,0-1.511.745A3.434,3.434,0,0,0,39.321-3.616ZM49.953-6.262a3.79,3.79,0,0,0-.622-.048,1.667,1.667,0,0,0-1.688,1.06V0H46.378V-7.4h1.23l.021.854a1.969,1.969,0,0,1,1.764-.991,1.292,1.292,0,0,1,.561.1Zm4.31,2.5a4.369,4.369,0,0,1,.427-1.955,3.187,3.187,0,0,1,1.189-1.34,3.238,3.238,0,0,1,1.74-.472,3.119,3.119,0,0,1,2.444,1.046A4.024,4.024,0,0,1,61-3.705v.089a4.407,4.407,0,0,1-.414,1.938A3.14,3.14,0,0,1,59.4-.342a3.275,3.275,0,0,1-1.767.479A3.111,3.111,0,0,1,55.2-.909a4,4,0,0,1-.933-2.769Zm1.271.15A3.164,3.164,0,0,0,56.1-1.641,1.827,1.827,0,0,0,57.633-.9a1.816,1.816,0,0,0,1.531-.755,3.46,3.46,0,0,0,.567-2.116,3.159,3.159,0,0,0-.578-1.972,1.836,1.836,0,0,0-1.535-.755,1.816,1.816,0,0,0-1.511.745A3.434,3.434,0,0,0,55.534-3.616ZM67.438,0H66.174V-7.4h1.265ZM66.071-9.358a.755.755,0,0,1,.188-.52.706.706,0,0,1,.557-.212.717.717,0,0,1,.561.212.747.747,0,0,1,.191.52.722.722,0,0,1-.191.513.73.73,0,0,1-.561.205.718.718,0,0,1-.557-.205A.73.73,0,0,1,66.071-9.358Zm3.1,5.6a4.347,4.347,0,0,1,.8-2.751,2.558,2.558,0,0,1,2.119-1.022,2.544,2.544,0,0,1,2.112.957l.062-.82h1.155V-.178a3.009,3.009,0,0,1-.851,2.263,3.141,3.141,0,0,1-2.287.827,3.8,3.8,0,0,1-1.565-.342,2.7,2.7,0,0,1-1.169-.937L70.2.875a2.473,2.473,0,0,0,1.989,1,1.938,1.938,0,0,0,1.439-.52A1.986,1.986,0,0,0,74.146-.1V-.738a2.6,2.6,0,0,1-2.071.875,2.527,2.527,0,0,1-2.1-1.046A4.571,4.571,0,0,1,69.17-3.76Zm1.271.144a3.316,3.316,0,0,0,.513,1.965,1.666,1.666,0,0,0,1.436.714,1.852,1.852,0,0,0,1.757-1.087V-5.4A1.874,1.874,0,0,0,72.4-6.46a1.681,1.681,0,0,0-1.442.718A3.612,3.612,0,0,0,70.441-3.616ZM81.9-.731a2.686,2.686,0,0,1-2.167.868,2.3,2.3,0,0,1-1.8-.687,2.974,2.974,0,0,1-.625-2.034V-7.4h1.265v4.778q0,1.682,1.367,1.682a1.893,1.893,0,0,0,1.928-1.08V-7.4H83.13V0h-1.2ZM89.626,0a2.657,2.657,0,0,1-.178-.779,2.822,2.822,0,0,1-2.105.916,2.611,2.611,0,0,1-1.794-.619,2,2,0,0,1-.7-1.569,2.091,2.091,0,0,1,.878-1.794A4.141,4.141,0,0,1,88.2-4.484h1.23v-.581a1.42,1.42,0,0,0-.4-1.056,1.593,1.593,0,0,0-1.169-.393,1.844,1.844,0,0,0-1.135.342,1.007,1.007,0,0,0-.458.827H85a1.745,1.745,0,0,1,.393-1.07,2.683,2.683,0,0,1,1.066-.817,3.588,3.588,0,0,1,1.48-.3,2.924,2.924,0,0,1,2,.639,2.306,2.306,0,0,1,.752,1.76v3.4a4.162,4.162,0,0,0,.26,1.62V0Zm-2.1-.964a2.223,2.223,0,0,0,1.128-.308,1.861,1.861,0,0,0,.772-.8V-3.589h-.991q-2.324,0-2.324,1.36a1.151,1.151,0,0,0,.4.93A1.524,1.524,0,0,0,87.527-.964ZM94.057,0H92.792V-10.5h1.265Zm5.2-3.76a4.341,4.341,0,0,1,.8-2.758A2.592,2.592,0,0,1,102.2-7.533a2.59,2.59,0,0,1,2.071.882l.055-.745h1.162V2.844h-1.265V-.684a2.654,2.654,0,0,1-2.037.82,2.551,2.551,0,0,1-2.136-1.042,4.438,4.438,0,0,1-.8-2.765Zm1.265.144a3.291,3.291,0,0,0,.537,2A1.707,1.707,0,0,0,102.5-.9a1.894,1.894,0,0,0,1.723-1V-5.517a1.9,1.9,0,0,0-1.709-.978,1.72,1.72,0,0,0-1.456.728A3.583,3.583,0,0,0,100.52-3.616ZM112.095-.731a2.686,2.686,0,0,1-2.167.868,2.3,2.3,0,0,1-1.8-.687,2.974,2.974,0,0,1-.625-2.034V-7.4h1.265v4.778q0,1.682,1.367,1.682a1.893,1.893,0,0,0,1.928-1.08V-7.4h1.265V0h-1.2Zm6.229.868a3.232,3.232,0,0,1-2.447-.988,3.666,3.666,0,0,1-.943-2.642v-.232a4.438,4.438,0,0,1,.42-1.965,3.28,3.28,0,0,1,1.176-1.354,2.956,2.956,0,0,1,1.637-.489,2.77,2.77,0,0,1,2.242.95,4.114,4.114,0,0,1,.8,2.721v.526H116.2a2.629,2.629,0,0,0,.639,1.767,2.009,2.009,0,0,0,1.555.673,2.2,2.2,0,0,0,1.135-.273,2.851,2.851,0,0,0,.813-.725l.772.6A3.106,3.106,0,0,1,118.324.137Zm-.157-6.631a1.687,1.687,0,0,0-1.285.557,2.708,2.708,0,0,0-.643,1.562h3.705v-.1a2.409,2.409,0,0,0-.52-1.494A1.588,1.588,0,0,0,118.167-6.494Zm14.249,2.878a4.4,4.4,0,0,1-.779,2.724A2.49,2.49,0,0,1,129.545.137a2.578,2.578,0,0,1-2.167-.991L127.316,0h-1.162V-10.5h1.265v3.917a2.564,2.564,0,0,1,2.112-.95,2.505,2.505,0,0,1,2.116,1.019,4.53,4.53,0,0,1,.769,2.789Zm-1.265-.144a3.417,3.417,0,0,0-.5-2,1.652,1.652,0,0,0-1.436-.7,1.857,1.857,0,0,0-1.8,1.162v3.2A1.909,1.909,0,0,0,129.23-.937a1.643,1.643,0,0,0,1.415-.7A3.634,3.634,0,0,0,131.151-3.76Z" transform="translate(1228.286 13244.876)"/>
      <path id="Trazado_823235" data-name="Trazado 823235" d="M6.74-5.564h-5.7v-1.1h5.7Zm0,2.837h-5.7V-3.821h5.7Zm7.622-2.837h-5.7v-1.1h5.7Zm0,2.837h-5.7V-3.821h5.7Z" transform="translate(1041.323 13274.876)"/>
      <path id="Trazado_823221" data-name="Trazado 823221" d="M5.523,0a2.657,2.657,0,0,1-.178-.779A2.822,2.822,0,0,1,3.24.137,2.611,2.611,0,0,1,1.446-.482a2,2,0,0,1-.7-1.569,2.091,2.091,0,0,1,.878-1.794,4.142,4.142,0,0,1,2.471-.639h1.23v-.581a1.42,1.42,0,0,0-.4-1.056A1.593,1.593,0,0,0,3.76-6.515a1.844,1.844,0,0,0-1.135.342,1.007,1.007,0,0,0-.458.827H.9a1.745,1.745,0,0,1,.393-1.07,2.683,2.683,0,0,1,1.066-.817,3.588,3.588,0,0,1,1.48-.3,2.924,2.924,0,0,1,2,.639,2.306,2.306,0,0,1,.752,1.76v3.4a4.162,4.162,0,0,0,.26,1.62V0Zm-2.1-.964a2.223,2.223,0,0,0,1.128-.308,1.861,1.861,0,0,0,.772-.8V-3.589H4.334q-2.324,0-2.324,1.36a1.151,1.151,0,0,0,.4.93A1.524,1.524,0,0,0,3.425-.964Zm14.413-4.6h-5.7v-1.1h5.7Zm0,2.837h-5.7V-3.821h5.7ZM25.53-5.564h-5.7v-1.1h5.7Zm0,2.837h-5.7V-3.821h5.7Zm11.645-.889A4.4,4.4,0,0,1,36.4-.892,2.49,2.49,0,0,1,34.3.137a2.578,2.578,0,0,1-2.167-.991L32.075,0H30.913V-10.5h1.265v3.917a2.564,2.564,0,0,1,2.112-.95,2.505,2.505,0,0,1,2.116,1.019,4.53,4.53,0,0,1,.769,2.789ZM35.91-3.76a3.417,3.417,0,0,0-.5-2,1.652,1.652,0,0,0-1.436-.7,1.857,1.857,0,0,0-1.8,1.162v3.2A1.909,1.909,0,0,0,33.989-.937a1.643,1.643,0,0,0,1.415-.7A3.634,3.634,0,0,0,35.91-3.76Z" transform="translate(1134.425 13274.876)"/>
      <path id="Trazado_823219" data-name="Trazado 823219" d="M5.523,0a2.657,2.657,0,0,1-.178-.779A2.822,2.822,0,0,1,3.24.137,2.611,2.611,0,0,1,1.446-.482a2,2,0,0,1-.7-1.569,2.091,2.091,0,0,1,.878-1.794,4.142,4.142,0,0,1,2.471-.639h1.23v-.581a1.42,1.42,0,0,0-.4-1.056A1.593,1.593,0,0,0,3.76-6.515a1.844,1.844,0,0,0-1.135.342,1.007,1.007,0,0,0-.458.827H.9a1.745,1.745,0,0,1,.393-1.07,2.683,2.683,0,0,1,1.066-.817,3.588,3.588,0,0,1,1.48-.3,2.924,2.924,0,0,1,2,.639,2.306,2.306,0,0,1,.752,1.76v3.4a4.162,4.162,0,0,0,.26,1.62V0Zm-2.1-.964a2.223,2.223,0,0,0,1.128-.308,1.861,1.861,0,0,0,.772-.8V-3.589H4.334q-2.324,0-2.324,1.36a1.151,1.151,0,0,0,.4.93A1.524,1.524,0,0,0,3.425-.964Zm10,.964H12.164V-7.4h1.265ZM12.062-9.358a.755.755,0,0,1,.188-.52.706.706,0,0,1,.557-.212.717.717,0,0,1,.561.212.747.747,0,0,1,.191.52.722.722,0,0,1-.191.513.73.73,0,0,1-.561.205.718.718,0,0,1-.557-.205A.73.73,0,0,1,12.062-9.358Zm3.1,5.6a4.347,4.347,0,0,1,.8-2.751,2.558,2.558,0,0,1,2.119-1.022,2.544,2.544,0,0,1,2.112.957l.062-.82h1.155V-.178a3.009,3.009,0,0,1-.851,2.263,3.141,3.141,0,0,1-2.287.827A3.8,3.8,0,0,1,16.7,2.57a2.7,2.7,0,0,1-1.169-.937l.656-.759a2.473,2.473,0,0,0,1.989,1,1.938,1.938,0,0,0,1.439-.52A1.986,1.986,0,0,0,20.137-.1V-.738a2.6,2.6,0,0,1-2.071.875,2.527,2.527,0,0,1-2.1-1.046A4.571,4.571,0,0,1,15.16-3.76Zm1.271.144a3.316,3.316,0,0,0,.513,1.965,1.666,1.666,0,0,0,1.436.714,1.852,1.852,0,0,0,1.757-1.087V-5.4a1.874,1.874,0,0,0-1.743-1.06,1.681,1.681,0,0,0-1.442.718A3.612,3.612,0,0,0,16.431-3.616ZM27.89-.731a2.686,2.686,0,0,1-2.167.868,2.3,2.3,0,0,1-1.8-.687A2.974,2.974,0,0,1,23.3-2.584V-7.4h1.265v4.778q0,1.682,1.367,1.682a1.893,1.893,0,0,0,1.928-1.08V-7.4h1.265V0h-1.2ZM35.616,0a2.657,2.657,0,0,1-.178-.779,2.822,2.822,0,0,1-2.105.916,2.611,2.611,0,0,1-1.794-.619,2,2,0,0,1-.7-1.569,2.091,2.091,0,0,1,.878-1.794,4.142,4.142,0,0,1,2.471-.639h1.23v-.581a1.42,1.42,0,0,0-.4-1.056,1.593,1.593,0,0,0-1.169-.393,1.844,1.844,0,0,0-1.135.342,1.007,1.007,0,0,0-.458.827H30.988a1.745,1.745,0,0,1,.393-1.07,2.683,2.683,0,0,1,1.066-.817,3.588,3.588,0,0,1,1.48-.3,2.924,2.924,0,0,1,2,.639,2.306,2.306,0,0,1,.752,1.76v3.4a4.162,4.162,0,0,0,.26,1.62V0Zm-2.1-.964a2.223,2.223,0,0,0,1.128-.308,1.861,1.861,0,0,0,.772-.8V-3.589h-.991q-2.324,0-2.324,1.36a1.151,1.151,0,0,0,.4.93A1.524,1.524,0,0,0,33.518-.964ZM40.047,0H38.783V-10.5h1.265Zm5.2-3.76a4.341,4.341,0,0,1,.8-2.758,2.592,2.592,0,0,1,2.146-1.015,2.59,2.59,0,0,1,2.071.882l.055-.745H51.48V2.844H50.216V-.684a2.654,2.654,0,0,1-2.037.82A2.551,2.551,0,0,1,46.042-.906a4.438,4.438,0,0,1-.8-2.765Zm1.265.144a3.291,3.291,0,0,0,.537,2A1.707,1.707,0,0,0,48.493-.9a1.894,1.894,0,0,0,1.723-1V-5.517a1.9,1.9,0,0,0-1.709-.978,1.72,1.72,0,0,0-1.456.728A3.583,3.583,0,0,0,46.511-3.616ZM58.085-.731a2.686,2.686,0,0,1-2.167.868,2.3,2.3,0,0,1-1.8-.687,2.974,2.974,0,0,1-.625-2.034V-7.4h1.265v4.778q0,1.682,1.367,1.682a1.893,1.893,0,0,0,1.928-1.08V-7.4h1.265V0h-1.2Zm6.229.868a3.232,3.232,0,0,1-2.447-.988,3.666,3.666,0,0,1-.943-2.642v-.232a4.438,4.438,0,0,1,.42-1.965A3.28,3.28,0,0,1,62.52-7.044a2.956,2.956,0,0,1,1.637-.489,2.77,2.77,0,0,1,2.242.95,4.114,4.114,0,0,1,.8,2.721v.526H62.188a2.629,2.629,0,0,0,.639,1.767A2.009,2.009,0,0,0,64.383-.9a2.2,2.2,0,0,0,1.135-.273,2.851,2.851,0,0,0,.813-.725l.772.6A3.106,3.106,0,0,1,64.314.137Zm-.157-6.631a1.687,1.687,0,0,0-1.285.557,2.708,2.708,0,0,0-.643,1.562h3.705v-.1a2.409,2.409,0,0,0-.52-1.494A1.588,1.588,0,0,0,64.157-6.494ZM78.406-3.616a4.4,4.4,0,0,1-.779,2.724A2.49,2.49,0,0,1,75.535.137a2.578,2.578,0,0,1-2.167-.991L73.307,0H72.145V-10.5h1.265v3.917a2.564,2.564,0,0,1,2.112-.95,2.505,2.505,0,0,1,2.116,1.019,4.53,4.53,0,0,1,.769,2.789ZM77.142-3.76a3.417,3.417,0,0,0-.5-2,1.652,1.652,0,0,0-1.436-.7,1.857,1.857,0,0,0-1.8,1.162v3.2A1.909,1.909,0,0,0,75.221-.937a1.643,1.643,0,0,0,1.415-.7A3.634,3.634,0,0,0,77.142-3.76Z" transform="translate(1255.411 13274.876)"/>
      <path id="Trazado_823242" data-name="Trazado 823242" d="M2.372-2.821H1.23L1.142-9.953H2.468ZM1.094-.642a.754.754,0,0,1,.188-.521.708.708,0,0,1,.557-.21.719.719,0,0,1,.561.21.746.746,0,0,1,.191.521A.721.721,0,0,1,2.4-.128a.733.733,0,0,1-.561.2.721.721,0,0,1-.557-.2A.728.728,0,0,1,1.094-.642Zm9.276-4.922h-5.7v-1.1h5.7Zm0,2.837h-5.7V-3.821h5.7Z" transform="translate(1043.323 13300.376)"/>
      <path id="Trazado_823223" data-name="Trazado 823223" d="M5.523,0a2.657,2.657,0,0,1-.178-.779A2.822,2.822,0,0,1,3.24.137,2.611,2.611,0,0,1,1.446-.482a2,2,0,0,1-.7-1.569,2.091,2.091,0,0,1,.878-1.794,4.142,4.142,0,0,1,2.471-.639h1.23v-.581a1.42,1.42,0,0,0-.4-1.056A1.593,1.593,0,0,0,3.76-6.515a1.844,1.844,0,0,0-1.135.342,1.007,1.007,0,0,0-.458.827H.9a1.745,1.745,0,0,1,.393-1.07,2.683,2.683,0,0,1,1.066-.817,3.588,3.588,0,0,1,1.48-.3,2.924,2.924,0,0,1,2,.639,2.306,2.306,0,0,1,.752,1.76v3.4a4.162,4.162,0,0,0,.26,1.62V0Zm-2.1-.964a2.223,2.223,0,0,0,1.128-.308,1.861,1.861,0,0,0,.772-.8V-3.589H4.334q-2.324,0-2.324,1.36a1.151,1.151,0,0,0,.4.93A1.524,1.524,0,0,0,3.425-.964ZM13.47-2.821H12.328l-.089-7.132h1.326ZM12.192-.642a.754.754,0,0,1,.188-.521.708.708,0,0,1,.557-.21.719.719,0,0,1,.561.21.746.746,0,0,1,.191.521.721.721,0,0,1-.191.514.733.733,0,0,1-.561.2.721.721,0,0,1-.557-.2A.728.728,0,0,1,12.192-.642Zm9.257-4.922h-5.7v-1.1h5.7Zm0,2.837h-5.7V-3.821h5.7Zm11.645-.889a4.4,4.4,0,0,1-.779,2.724A2.49,2.49,0,0,1,30.223.137a2.578,2.578,0,0,1-2.167-.991L27.994,0H26.832V-10.5H28.1v3.917a2.564,2.564,0,0,1,2.112-.95,2.505,2.505,0,0,1,2.116,1.019,4.53,4.53,0,0,1,.769,2.789ZM31.829-3.76a3.417,3.417,0,0,0-.5-2,1.652,1.652,0,0,0-1.436-.7A1.857,1.857,0,0,0,28.1-5.3v3.2A1.909,1.909,0,0,0,29.908-.937a1.643,1.643,0,0,0,1.415-.7A3.634,3.634,0,0,0,31.829-3.76Z" transform="translate(1136.425 13300.376)"/>
      <path id="Trazado_823218" data-name="Trazado 823218" d="M5.523,0a2.657,2.657,0,0,1-.178-.779A2.822,2.822,0,0,1,3.24.137,2.611,2.611,0,0,1,1.446-.482a2,2,0,0,1-.7-1.569,2.091,2.091,0,0,1,.878-1.794,4.142,4.142,0,0,1,2.471-.639h1.23v-.581a1.42,1.42,0,0,0-.4-1.056A1.593,1.593,0,0,0,3.76-6.515a1.844,1.844,0,0,0-1.135.342,1.007,1.007,0,0,0-.458.827H.9a1.745,1.745,0,0,1,.393-1.07,2.683,2.683,0,0,1,1.066-.817,3.588,3.588,0,0,1,1.48-.3,2.924,2.924,0,0,1,2,.639,2.306,2.306,0,0,1,.752,1.76v3.4a4.162,4.162,0,0,0,.26,1.62V0Zm-2.1-.964a2.223,2.223,0,0,0,1.128-.308,1.861,1.861,0,0,0,.772-.8V-3.589H4.334q-2.324,0-2.324,1.36a1.151,1.151,0,0,0,.4.93A1.524,1.524,0,0,0,3.425-.964Zm8.322-2.8A4.333,4.333,0,0,1,12.554-6.5a2.551,2.551,0,0,1,2.112-1.036,2.565,2.565,0,0,1,2.058.889V-10.5h1.265V0H16.826l-.062-.793a2.575,2.575,0,0,1-2.112.93,2.526,2.526,0,0,1-2.1-1.053,4.382,4.382,0,0,1-.81-2.748Zm1.265.144a3.281,3.281,0,0,0,.52,1.969,1.68,1.68,0,0,0,1.436.711,1.845,1.845,0,0,0,1.757-1.08v-3.4A1.859,1.859,0,0,0,14.981-6.46a1.687,1.687,0,0,0-1.449.718A3.612,3.612,0,0,0,13.012-3.616ZM21.333,0H20.068V-7.4h1.265ZM19.966-9.358a.755.755,0,0,1,.188-.52.706.706,0,0,1,.557-.212.717.717,0,0,1,.561.212.747.747,0,0,1,.191.52.722.722,0,0,1-.191.513.73.73,0,0,1-.561.205.718.718,0,0,1-.557-.205A.73.73,0,0,1,19.966-9.358Zm7.706,7.4a.931.931,0,0,0-.386-.8,3.718,3.718,0,0,0-1.347-.489,6.367,6.367,0,0,1-1.524-.492,2.169,2.169,0,0,1-.834-.684,1.635,1.635,0,0,1-.27-.943A1.919,1.919,0,0,1,24.079-6.9a3,3,0,0,1,1.965-.629,3.091,3.091,0,0,1,2.041.649,2.063,2.063,0,0,1,.783,1.661H27.6a1.142,1.142,0,0,0-.441-.9,1.652,1.652,0,0,0-1.111-.376,1.729,1.729,0,0,0-1.08.3.947.947,0,0,0-.39.786.767.767,0,0,0,.362.69,4.458,4.458,0,0,0,1.309.444,6.821,6.821,0,0,1,1.535.506,2.239,2.239,0,0,1,.872.708,1.74,1.74,0,0,1,.284,1.008,1.893,1.893,0,0,1-.793,1.589,3.326,3.326,0,0,1-2.058.6,3.725,3.725,0,0,1-1.572-.314,2.557,2.557,0,0,1-1.07-.878,2.117,2.117,0,0,1-.386-1.22h1.265a1.309,1.309,0,0,0,.509,1.008A1.976,1.976,0,0,0,26.085-.9a2.039,2.039,0,0,0,1.152-.291A.893.893,0,0,0,27.671-1.962Zm4.636-7.226V-7.4h1.381v.978H32.308v4.593a1.027,1.027,0,0,0,.185.667.777.777,0,0,0,.629.222,3.062,3.062,0,0,0,.6-.082V0a3.688,3.688,0,0,1-.971.136,1.575,1.575,0,0,1-1.278-.513,2.2,2.2,0,0,1-.431-1.456V-6.419H29.7V-7.4h1.347V-9.187ZM36.547,0H35.283V-7.4h1.265ZM35.18-9.358a.755.755,0,0,1,.188-.52.706.706,0,0,1,.557-.212.717.717,0,0,1,.561.212.747.747,0,0,1,.191.52.722.722,0,0,1-.191.513.73.73,0,0,1-.561.205.718.718,0,0,1-.557-.205A.73.73,0,0,1,35.18-9.358Zm4.6,1.962.041.93a2.7,2.7,0,0,1,2.215-1.066q2.345,0,2.365,2.646V0H43.132V-4.895a1.7,1.7,0,0,0-.366-1.183,1.466,1.466,0,0,0-1.118-.383,1.825,1.825,0,0,0-1.08.328,2.228,2.228,0,0,0-.725.861V0H38.579V-7.4Zm8.253-1.791V-7.4h1.381v.978H48.028v4.593a1.027,1.027,0,0,0,.185.667.777.777,0,0,0,.629.222,3.062,3.062,0,0,0,.6-.082V0a3.688,3.688,0,0,1-.971.136,1.575,1.575,0,0,1-1.278-.513,2.2,2.2,0,0,1-.431-1.456V-6.419H45.417V-7.4h1.347V-9.187Zm2.394,5.421a4.369,4.369,0,0,1,.427-1.955,3.187,3.187,0,0,1,1.189-1.34,3.238,3.238,0,0,1,1.74-.472,3.119,3.119,0,0,1,2.444,1.046,4.024,4.024,0,0,1,.933,2.782v.089a4.407,4.407,0,0,1-.414,1.938A3.14,3.14,0,0,1,55.559-.342a3.275,3.275,0,0,1-1.767.479A3.111,3.111,0,0,1,51.355-.909a4,4,0,0,1-.933-2.769Zm1.271.15a3.164,3.164,0,0,0,.571,1.976A1.827,1.827,0,0,0,53.792-.9a1.816,1.816,0,0,0,1.531-.755,3.46,3.46,0,0,0,.567-2.116,3.159,3.159,0,0,0-.578-1.972,1.836,1.836,0,0,0-1.535-.755,1.816,1.816,0,0,0-1.511.745A3.434,3.434,0,0,0,51.694-3.616ZM61.917-3.76a4.341,4.341,0,0,1,.8-2.758,2.592,2.592,0,0,1,2.146-1.015,2.59,2.59,0,0,1,2.071.882l.055-.745h1.162V2.844H66.886V-.684a2.654,2.654,0,0,1-2.037.82A2.551,2.551,0,0,1,62.713-.906a4.438,4.438,0,0,1-.8-2.765Zm1.265.144a3.291,3.291,0,0,0,.537,2A1.707,1.707,0,0,0,65.164-.9a1.894,1.894,0,0,0,1.723-1V-5.517a1.9,1.9,0,0,0-1.709-.978,1.72,1.72,0,0,0-1.456.728A3.583,3.583,0,0,0,63.181-3.616ZM74.756-.731a2.686,2.686,0,0,1-2.167.868,2.3,2.3,0,0,1-1.8-.687,2.974,2.974,0,0,1-.625-2.034V-7.4h1.265v4.778q0,1.682,1.367,1.682a1.893,1.893,0,0,0,1.928-1.08V-7.4h1.265V0h-1.2Zm6.229.868a3.232,3.232,0,0,1-2.447-.988,3.666,3.666,0,0,1-.943-2.642v-.232a4.438,4.438,0,0,1,.42-1.965,3.28,3.28,0,0,1,1.176-1.354,2.956,2.956,0,0,1,1.637-.489,2.77,2.77,0,0,1,2.242.95,4.114,4.114,0,0,1,.8,2.721v.526H78.859A2.629,2.629,0,0,0,79.5-1.569,2.009,2.009,0,0,0,81.054-.9a2.2,2.2,0,0,0,1.135-.273A2.851,2.851,0,0,0,83-1.894l.772.6A3.106,3.106,0,0,1,80.985.137Zm-.157-6.631a1.687,1.687,0,0,0-1.285.557A2.708,2.708,0,0,0,78.9-4.375h3.705v-.1a2.409,2.409,0,0,0-.52-1.494A1.588,1.588,0,0,0,80.828-6.494ZM95.077-3.616A4.4,4.4,0,0,1,94.3-.892,2.49,2.49,0,0,1,92.206.137a2.578,2.578,0,0,1-2.167-.991L89.978,0H88.815V-10.5H90.08v3.917a2.564,2.564,0,0,1,2.112-.95,2.505,2.505,0,0,1,2.116,1.019,4.53,4.53,0,0,1,.769,2.789ZM93.813-3.76a3.417,3.417,0,0,0-.5-2,1.652,1.652,0,0,0-1.436-.7A1.857,1.857,0,0,0,90.08-5.3v3.2A1.909,1.909,0,0,0,91.892-.937a1.643,1.643,0,0,0,1.415-.7A3.634,3.634,0,0,0,93.813-3.76Z" transform="translate(1246.974 13300.376)"/>
    </g>
  </g>
</svg>
